<svg xmlns="http://www.w3.org/2000/svg" viewBox="0 0 512 512"><defs><style>.cls-1{fill:#fff;}.cls-1,.cls-2{stroke:#000;stroke-linecap:round;stroke-linejoin:round;stroke-width:5px;}.cls-2{fill:none;}</style></defs><g id="isolation"><polygon class="cls-1" points="406.4 134.97 406.4 50.1 343.5 50.1 343.5 88.03 256.23 22.92 54.49 170.8 55.31 484.11 457.14 484.11 457.51 173.09 406.4 134.97"/><path class="cls-1" d="M240.38,84.76,101.86,186.3A26.46,26.46,0,0,0,91,207.74l.56,216.65a26.52,26.52,0,0,0,26.51,26.44H394.24a26.5,26.5,0,0,0,26.5-26.48L421,209.46a26.52,26.52,0,0,0-10.65-21.28L271.9,84.89A26.51,26.51,0,0,0,240.38,84.76Z"/><line class="cls-2" x1="291.95" y1="309.09" x2="313.72" y2="309.09"/><line class="cls-2" x1="291.95" y1="271.16" x2="326.03" y2="271.16"/><line class="cls-2" x1="291.95" y1="233.23" x2="313.72" y2="233.23"/><line class="cls-2" x1="291.95" y1="195.3" x2="326.03" y2="195.3"/><path class="cls-1" d="M271.46,334V183.47a19.17,19.17,0,0,0-38.34,0V334a35.56,35.56,0,1,0,38.34,0Z"/><line class="cls-2" x1="233.12" y1="203.88" x2="271.46" y2="203.88"/></g></svg>