<?xml version="1.0" encoding="utf-8"?>
<!-- Generator: Adobe Illustrator 27.1.1, SVG Export Plug-In . SVG Version: 6.00 Build 0)  -->
<svg version="1.1" id="Calque_1" xmlns="http://www.w3.org/2000/svg" xmlns:xlink="http://www.w3.org/1999/xlink" x="0px" y="0px"
	 viewBox="0 0 171 171" style="enable-background:new 0 0 171 171;" xml:space="preserve">
<style type="text/css">
	.st0{fill:none;}
	.st1{fill:#DFE3ED;}
	.st2{fill:#E2DDD3;}
	.st3{fill:#C4BFB5;}
</style>
<g id="Calque_1_00000157279938512687178200000000022683736901864866_">
</g>
<g id="Calque_2_00000031905472696747324050000014491458412466222991_">
	<g id="ETAGE">
		<g id="Calque_109">
		</g>
		<g id="salle_de_bain_00000058565531200865430740000005538753937728622983_">
			<g id="Calque_175">
			</g>
			<g id="salle_de_bain">
			</g>
		</g>
		<g id="mur_00000124865647295769880400000010316874631114918807_">
		</g>
		<g id="Calque_174">
		</g>
	</g>
	<g>
		<path class="st0" d="M85.5,0C132.7,0,171,38.3,171,85.5V0H85.5z"/>
		<path class="st0" d="M0,85.5V171h85.5C38.3,171,0,132.7,0,85.5z"/>
		<path class="st0" d="M85.5,0H0v85.5C0,38.3,38.3,0,85.5,0z"/>
		<path class="st0" d="M85.5,171H171V85.5C171,132.7,132.7,171,85.5,171z"/>
		<path class="st1" d="M85.5,0C38.3,0,0,38.3,0,85.5S38.3,171,85.5,171S171,132.7,171,85.5S132.7,0,85.5,0z M143.4,86.6h-0.1
			c0,15.6-25.3,28.2-56.4,28.2s-56.4-12.6-56.4-28.2V72.5c0-15.6,25.3-28.2,56.4-28.2s56.4,12.6,56.4,28.2h0.1V86.6z"/>
		<path class="st2" d="M135.7,86.6c-9.8,8.4-28,14.1-48.8,14.1S47.8,95,38.1,86.6h-7.6c0,15.6,25.3,28.2,56.4,28.2
			s56.4-12.6,56.4-28.2H135.7z"/>
		<path class="st2" d="M135.7,86.6h7.6h0.1V72.5h-0.1C143.3,77.6,140.5,82.5,135.7,86.6z"/>
		<path class="st2" d="M30.5,72.5v14.1h7.6C33.3,82.5,30.5,77.6,30.5,72.5z"/>
		<path class="st3" d="M38.1,86.6c9.8,8.4,28,14.1,48.8,14.1S126,95,135.7,86.6c4.8-4.1,7.6-9,7.6-14.1c0-15.6-25.3-28.2-56.4-28.2
			S30.5,56.9,30.5,72.5C30.5,77.6,33.3,82.5,38.1,86.6z"/>
	</g>
</g>
</svg>
