<?xml version="1.0" encoding="utf-8"?>
<!-- Generator: Adobe Illustrator 27.1.1, SVG Export Plug-In . SVG Version: 6.00 Build 0)  -->
<svg version="1.1" id="Calque_1" xmlns="http://www.w3.org/2000/svg" xmlns:xlink="http://www.w3.org/1999/xlink" x="0px" y="0px"
	 viewBox="0 0 191.6 191.6" style="enable-background:new 0 0 191.6 191.6;" xml:space="preserve">
<style type="text/css">
	.st0{display:none;}
	.st1{fill:none;}
	.st2{fill:#DFE3ED;}
	.st3{fill:#E9ECF4;}
	.st4{fill:#D3D6DD;}
	.st5{fill:#F0AB86;}
	.st6{fill:#DD895F;}
	.st7{fill:#BEC3CC;}
</style>
<g id="Calque_2_00000166643308941255280740000002207092195513303699_">
	<g>
		<g id="grille" class="st0">
		</g>
		<g id="Calque_46">
		</g>
	</g>
</g>
<g>
	<path class="st1" d="M0,95.8v95.8h95.8c-20.4,0-39.3-6.4-54.8-17.2C16.2,157,0,128.3,0,95.8z"/>
	<path class="st1" d="M95.8,191.6h95.8V95.8C191.6,148.7,148.7,191.6,95.8,191.6z"/>
	<path class="st1" d="M95.8,0c50.2,0,91.3,38.6,95.5,87.7c0.2,2.7,0.3,5.4,0.3,8.1V0H95.8z"/>
	<path class="st1" d="M95.8,0H0v95.8C0,42.9,42.9,0,95.8,0z"/>
	<path class="st2" d="M129,123.6v1.9c0,4.5-2.4,8.7-6.3,11l-44.8,27.1c-3,1.7-6.6,1.7-9.6-0.1l-2.2-1.3l-0.5,0.1l-1.8-1.1L41,174.4
		c15.5,10.9,34.4,17.2,54.8,17.2c52.9,0,95.8-42.9,95.8-95.8v0c0-2.7-0.1-5.4-0.3-8.1L129,123.6z"/>
	<path class="st2" d="M41,174.4l22.8-13.2l-3.9-2.3l0.2-95.8l55.1-31.2l12.9,7.4l0.9,76.9l0,0v7.4l62.3-35.9
		C187.1,38.6,146,0,95.8,0C42.9,0,0,42.9,0,95.8C0,128.3,16.2,157,41,174.4z"/>
	<path class="st3" d="M73.3,70.6v77.5v0l55.7-31.9l-0.9-76.9L73.3,70.6z M78.4,82.6l46-26.4v2.2L78.4,85V82.6z M78.4,90.9l46-26.4
		v2.3l-46,26.6V90.9z M78.4,103.2v-2.4l46-26.4v2.2L78.4,103.2z M124.4,49.4l-46,26.7v-2.4l46-26.5V49.4z"/>
	<polygon class="st4" points="62.5,160 62.4,160 62.4,159.9 62.4,142.2 73.3,148.1 73.3,70.6 128.1,39.3 115.2,31.9 60.1,63.1 
		59.9,158.9 63.8,161.2 65.6,162.3 66.1,162.2 	"/>
	<polygon class="st4" points="73.3,148.1 73.3,148.1 73.3,148.1 	"/>
	<path class="st5" d="M129,116.2L129,116.2l-55.7,31.9l0,0l-0.4,4.3c-0.9,4-4.1,7-8.2,7.4l-2.2,0.2l3.6,2.2l2.2,1.3
		c3,1.8,6.6,1.8,9.6,0.1l44.8-27.1c3.9-2.3,6.3-6.5,6.3-11v-1.9V116.2z"/>
	<path class="st6" d="M62.4,142.2v17.7c0,0,0,0.1,0,0.1l0.1,0l2.2-0.2c4.1-0.4,7.3-3.4,8.2-7.4l0.4-4.3l0,0L62.4,142.2z"/>
	<polygon class="st7" points="78.4,73.7 78.4,76.1 124.4,49.4 124.4,47.2 	"/>
	<polygon class="st7" points="124.4,58.4 124.4,56.2 78.4,82.6 78.4,85 	"/>
	<polygon class="st7" points="124.4,66.8 124.4,64.5 78.4,90.9 78.4,93.4 	"/>
	<polygon class="st7" points="124.4,74.4 78.4,100.8 78.4,103.2 124.4,76.6 	"/>
</g>
</svg>
