<?xml version="1.0" encoding="utf-8"?>
<!-- Generator: Adobe Illustrator 27.1.1, SVG Export Plug-In . SVG Version: 6.00 Build 0)  -->
<svg version="1.1" id="Calque_1" xmlns="http://www.w3.org/2000/svg" xmlns:xlink="http://www.w3.org/1999/xlink" x="0px" y="0px"
	 viewBox="0 0 308.2 308.2" style="enable-background:new 0 0 308.2 308.2;" xml:space="preserve">
<style type="text/css">
	.st0{display:none;}
	.st1{display:inline;}
	.st2{display:none;fill:#FFFFFF;}
	.st3{fill:none;}
	.st4{fill:#F3F7FF;}
	.st5{fill:#DFE3ED;}
	.st6{fill:#C7E2BF;}
	.st7{fill:none;stroke:#FFFFFF;stroke-width:1.5548;stroke-linecap:round;stroke-linejoin:round;stroke-miterlimit:3.1097;}
	
		.st8{fill:none;stroke:#FFFFFF;stroke-width:1.5548;stroke-linecap:round;stroke-linejoin:round;stroke-miterlimit:3.1097;stroke-dasharray:15.3717,3.8429;}
	
		.st9{fill:none;stroke:#FFFFFF;stroke-width:1.5548;stroke-linecap:round;stroke-linejoin:round;stroke-miterlimit:3.1097;stroke-dasharray:15.6464,3.9116;}
	
		.st10{fill:none;stroke:#FFFFFF;stroke-width:1.5548;stroke-linecap:round;stroke-linejoin:round;stroke-miterlimit:3.1097;stroke-dasharray:16.8428,4.2107;}
	
		.st11{fill:none;stroke:#FFFFFF;stroke-width:1.5548;stroke-linecap:round;stroke-linejoin:round;stroke-miterlimit:3.1097;stroke-dasharray:14.2783,3.5696;}
	
		.st12{fill:none;stroke:#FFFFFF;stroke-width:1.5548;stroke-linecap:round;stroke-linejoin:round;stroke-miterlimit:3.1097;stroke-dasharray:14.9274,3.7318;}
	
		.st13{fill:none;stroke:#FFFFFF;stroke-width:1.5548;stroke-linecap:round;stroke-linejoin:round;stroke-miterlimit:3.1097;stroke-dasharray:14.8523,3.7131;}
	.st14{fill:#A7ADB8;}
	.st15{fill:#8C99AD;}
</style>
<g id="Calque_1_00000005226496865966287340000009213020673469990061_">
</g>
<g id="Calque_2_00000107585645507890886930000015305964927589329066_">
	<g>
		<g id="grille" class="st0">
		</g>
		<g id="SOUS_SOL" class="st0">
			<g id="arrière_2" class="st1">
			</g>
			<g id="Calque_104" class="st1">
			</g>
			<g id="baie" class="st1">
				<g id="Calque_150">
				</g>
				<g id="Calque_149">
				</g>
			</g>
		</g>
		<g id="haie">
		</g>
		<g id="ETAGE">
			<g id="Calque_109">
			</g>
			<g id="salle_de_bain_00000058565531200865430740000005538753937728622983_">
				<g id="Calque_175">
				</g>
				<g id="salle_de_bain">
				</g>
			</g>
			<g id="mur_00000124865647295769880400000010316874631114918807_">
			</g>
			<g id="Calque_174">
			</g>
		</g>
		<g id="velux">
		</g>
	</g>
</g>
<rect x="-0.1" y="-0.1" class="st2" width="308.3" height="308.3"/>
<g>
	<path class="st3" d="M154.1,308.2c-60.5,0-112.9-34.9-138.1-85.7c-5.6-11.3-9.9-23.3-12.6-36C1.2,176.1,0,165.2,0,154.1v154.1
		H154.1z"/>
	<path class="st3" d="M201.4,300.8c-12,3.9-24.6,6.3-37.7,7.1c-3.2,0.2-6.4,0.3-9.7,0.3h154.1V154.1c0,0.5,0,1,0,1.5
		C307.5,223.5,262.9,280.9,201.4,300.8z"/>
	<path class="st3" d="M75.9,21.3C98.8,7.8,125.5,0,154.1,0H0v154.1C0,97.6,30.5,48.1,75.9,21.3z"/>
	<path class="st3" d="M308.2,154.1V0H154.1C239.2,0,308.2,69,308.2,154.1z"/>
	<path class="st4" d="M308.2,155.6c0-0.5,0-1,0-1.5C308.2,69,239.2,0,154.1,0c-28.6,0-55.3,7.8-78.2,21.3L308.2,155.6z"/>
	<path class="st4" d="M201.4,300.8L3.4,186.6c2.7,12.6,7,24.7,12.6,36l147.8,85.4C176.8,307.1,189.5,304.6,201.4,300.8z"/>
	<path class="st5" d="M16,222.5c25.2,50.8,77.6,85.7,138.1,85.7c3.3,0,6.5-0.1,9.7-0.3L16,222.5z"/>
	<path class="st6" d="M201.4,300.8c61.5-19.8,106.1-77.3,106.7-145.2L75.9,21.3C30.5,48.1,0,97.6,0,154.1c0,11.1,1.2,22,3.4,32.5
		L201.4,300.8z M161.3,119.2c6.4,0,11.5,3.3,11.5,7.4v1.1v3.4v13h0c-0.1,4-5.2,7.3-11.5,7.3c-6.3,0-11.4-3.3-11.5-7.3h0v-13v-3.4
		v-1.1C149.8,122.5,154.9,119.2,161.3,119.2z"/>
	<g>
		<g>
			<g>
				<path class="st7" d="M34.1,110.7c0,0,2.4-1.6,6.7-4"/>
				<path class="st8" d="M44.1,104.9c12.7-6.7,35.8-16.2,57.8-12.1c19.5,3.6,36.1,18.2,44.9,27.1"/>
				<path class="st7" d="M148.1,121.2c3.3,3.5,5.1,5.8,5.1,5.8"/>
			</g>
		</g>
		<g>
			<g>
				<path class="st7" d="M51.9,151.9c0,0,1.9-2.3,5.3-5.7"/>
				<path class="st9" d="M59.9,143.5c11.5-11,34-28.8,57.5-26.9c13.8,1.1,23.1,5.3,28.8,8.9"/>
				<path class="st7" d="M147.9,126.6c4,2.8,5.8,5.1,5.8,5.1"/>
			</g>
		</g>
		<g>
			<g>
				<path class="st7" d="M41.8,138.8c0,0,2.2-2,6-4.9"/>
				<path class="st10" d="M51.2,131.3c12.7-9.3,36.6-23.7,59.9-21.8c15.6,1.2,27.8,8.4,35,13.9"/>
				<path class="st7" d="M147.7,124.8c3.7,3,5.8,5.3,5.8,5.3"/>
			</g>
		</g>
		<g>
			<g>
				<path class="st7" d="M46,86c0,0,2.4-1.6,7-3.3"/>
				<path class="st11" d="M56.3,81.4c9.4-3,25-5.8,44.9-0.8c20.3,5.1,37.9,24.9,46.5,36.1"/>
				<path class="st7" d="M148.7,118.1c2.9,3.8,4.5,6.4,4.5,6.4"/>
			</g>
		</g>
		<g>
			<g>
				<path class="st7" d="M39,97c0,0,2.4-1.6,6.8-3.7"/>
				<path class="st12" d="M49.1,91.8c10.5-4.5,28.2-9.8,49.7-6.7c18.4,2.7,38.2,22.3,48,33.2"/>
				<path class="st7" d="M148,119.7c3.1,3.6,5,6,5,6"/>
			</g>
		</g>
		<g>
			<g>
				<path class="st7" d="M36.9,124.6c0,0,2.3-1.8,6.4-4.4"/>
				<path class="st13" d="M46.4,118.2c12.4-7.7,35-19.3,56.1-18c17.6,1.1,34.6,13.8,43.8,21.8"/>
				<path class="st7" d="M147.6,123.2c3.5,3.2,5.6,5.4,5.6,5.4"/>
			</g>
		</g>
	</g>
	<path class="st14" d="M149.8,126.6h23c0-4.1-5.1-7.4-11.5-7.4C154.9,119.2,149.8,122.5,149.8,126.6z"/>
	<path class="st14" d="M161.3,151.4c6.3,0,11.4-3.3,11.5-7.3h-23C149.9,148.1,155,151.4,161.3,151.4z"/>
	<path class="st14" d="M161.3,136.4c-6.4,0-11.5-3.6-11.5-5.3v13h0h23h0v-13C172.8,132.8,167.7,136.4,161.3,136.4z"/>
	<path class="st14" d="M149.8,126.6v1.1c0,1.7,5.1,6.1,11.5,6.1c6.4,0,11.5-4.3,11.5-6.1v-1.1H149.8z"/>
	<path class="st15" d="M161.3,133.8c-6.4,0-11.5-4.4-11.5-6.1v3.4c0,1.7,5.1,5.3,11.5,5.3c6.4,0,11.5-3.6,11.5-5.3v-3.4
		C172.8,129.5,167.7,133.8,161.3,133.8z"/>
</g>
<g>
	<g>
		<g>
			<path class="st7" d="M263,209.2c0,0-0.4-3-1.5-7.6"/>
			<path class="st8" d="M260.6,197.9c-3.7-13.9-12.1-37.4-29.9-51c-15.8-12-37.8-14.5-50.3-14.9"/>
			<path class="st7" d="M178.5,131.9c-4.8-0.1-7.8,0.2-7.8,0.2"/>
		</g>
	</g>
	<g>
		<g>
			<path class="st7" d="M220.6,223.8c0,0,0.4-3,0.7-7.8"/>
			<path class="st9" d="M221.4,212.1c0.5-15.9-1.5-44.5-18.8-60.6c-10-9.4-19.4-13.5-26-15.3"/>
			<path class="st7" d="M174.7,135.6c-4.8-1.1-7.7-0.9-7.7-0.9"/>
		</g>
	</g>
	<g>
		<g>
			<path class="st7" d="M237,222.4c0,0,0-3-0.4-7.8"/>
			<path class="st10" d="M236.2,210.4c-1.7-15.7-7.1-43.1-24.1-59c-11.4-10.7-25-14.9-33.8-16.6"/>
			<path class="st7" d="M176.2,134.5c-4.7-0.7-7.7-0.7-7.7-0.7"/>
		</g>
	</g>
	<g>
		<g>
			<path class="st7" d="M273.3,183.8c0,0-0.5-2.9-2.2-7.5"/>
			<path class="st11" d="M269.7,173.1c-4-9-12.5-22.3-29.5-33.7c-17.3-11.7-43.9-11.4-58-10.2"/>
			<path class="st7" d="M180.4,129.3c-4.7,0.5-7.7,0.9-7.7,0.9"/>
		</g>
	</g>
	<g>
		<g>
			<path class="st7" d="M269.8,196.4c0,0-0.4-2.9-1.8-7.5"/>
			<path class="st12" d="M266.9,185.3c-3.7-10.8-11.7-27.5-28.5-41.3c-14.4-11.8-42.1-13.3-56.8-13.1"/>
			<path class="st7" d="M179.7,130.9c-4.7,0.1-7.8,0.3-7.8,0.3"/>
		</g>
	</g>
	<g>
		<g>
			<path class="st7" d="M250.8,216.5c0,0-0.2-3-1-7.7"/>
			<path class="st13" d="M249.2,205.1c-2.6-14.3-9.2-38.9-24.4-53.6c-12.7-12.3-33.4-16.4-45.6-17.7"/>
			<path class="st7" d="M177.3,133.5c-4.7-0.5-7.8-0.5-7.8-0.5"/>
		</g>
	</g>
</g>
</svg>
