<?xml version="1.0" encoding="utf-8"?>
<!-- Generator: Adobe Illustrator 27.1.1, SVG Export Plug-In . SVG Version: 6.00 Build 0)  -->
<svg version="1.1" id="Calque_1" xmlns="http://www.w3.org/2000/svg" xmlns:xlink="http://www.w3.org/1999/xlink" x="0px" y="0px"
	 viewBox="0 0 179.8 179.8" style="enable-background:new 0 0 179.8 179.8;" xml:space="preserve">
<style type="text/css">
	.st0{fill:none;}
	.st1{fill:#8594C9;}
	.st2{fill:#C1CBF7;}
	.st3{fill:#97A2C1;}
	.st4{fill:#CED7F2;}
	.st5{fill:#E2E6F3;}
	.st6{fill:#B9BECD;}
	.st7{fill:#F5F7FF;}
	.st8{fill:#E3E6F4;}
	.st9{fill:#696E7F;}
	.st10{fill:#575C7A;}
	.st11{opacity:0.2;enable-background:new    ;}
	.st12{fill:#E8E4E2;}
	.st13{fill:#8BE894;}
	.st14{fill:#82776F;}
</style>
<g id="ETAGE">
	<g id="Calque_109">
	</g>
	<g id="salle_de_bain_00000058565531200865430740000005538753937728622983_">
		<g id="Calque_175">
		</g>
		<g id="salle_de_bain">
		</g>
	</g>
	<g id="mur_00000124865647295769880400000010316874631114918807_">
	</g>
	<g id="Calque_174">
	</g>
</g>
<g>
	<path class="st0" d="M41.4,14.2c3-1.9,6.2-3.7,9.4-5.3C55.9,6.5,61.2,4.5,66.7,3c6.5-1.7,13.4-2.8,20.4-3C88,0,89,0,89.9,0H0v89.9
		C0,58.1,16.5,30.2,41.4,14.2z"/>
	<path class="st0" d="M0,91.9c0-0.7,0-1.3,0-2v89.9h89.9C40.9,179.8,1.1,140.6,0,91.9z"/>
	<path class="st0" d="M179.8,179.8V89.9c0,11.1-2,21.7-5.7,31.5c-2.2,5.9-5,11.6-8.4,16.8c-0.3,0.4-0.6,0.9-0.9,1.3
		c-16.1,24.3-43.7,40.3-75,40.3H179.8z"/>
	<path class="st0" d="M104.5,1.2c7.1,1.2,14,3.2,20.4,5.9c1,0.4,2.1,0.9,3.1,1.4c2.6,1.2,5.1,2.5,7.5,4c2.3,1.4,4.6,2.9,6.8,4.4
		c7.8,5.6,14.7,12.5,20.4,20.3c1,1.4,2,2.9,3,4.4c8.9,14,14.1,30.6,14.1,48.4V0H89.9c0.1,0,0.2,0,0.3,0C95.1,0,99.8,0.4,104.5,1.2z"
		/>
	<path class="st1" d="M41.2,68.1l0.2,0.1v-54C16.5,30.2,0,58.1,0,89.9c0,0.7,0,1.3,0,2L41.2,68.1z"/>
	<path class="st2" d="M135.5,12.4c-2.4-1.4-4.9-2.8-7.5-4v8.2L135.5,12.4z"/>
	<path class="st2" d="M61.2,55.2c-0.3-0.3-0.3-0.9,0.1-1.2l5.4-3V3c-5.5,1.5-10.8,3.5-15.9,5.9v64.7l9.4,5.4V54.6L61.2,55.2z"/>
	<path class="st2" d="M104.5,1.2C99.8,0.4,95.1,0,90.2,0v37.8l14.3-8V1.2z"/>
	<path class="st3" d="M103.4,102.4l1.1,0.6V80.6l-14.3-8.4v16.9C97.1,90.4,102.7,95.7,103.4,102.4z"/>
	<path class="st3" d="M66.7,81.2V58.5l-5.4-3.2c-0.1,0-0.1-0.1-0.1-0.1l-1-0.6v24.5l0.1,0l1.4-0.8L66.7,81.2z"/>
	<polygon class="st3" points="128,94.4 128,116.5 142.3,124.8 142.3,102.8 	"/>
	<path class="st3" d="M165.7,138.2L165.7,138.2c3.4-5.3,6.2-10.9,8.4-16.8l-8.4-4.9V138.2z"/>
	<path class="st4" d="M128,94.4l14.3,8.4V16.8c-2.2-1.6-4.5-3.1-6.8-4.4l-7.5,4.2V94.4z"/>
	<path class="st4" d="M66.7,51l-5.4,3c-0.4,0.3-0.5,0.8-0.1,1.2c0,0,0.1,0.1,0.1,0.1l5.4,3.2V51z"/>
	<path class="st4" d="M165.7,41.5v75l8.4,4.9c3.7-9.8,5.7-20.4,5.7-31.5C179.8,72.1,174.6,55.5,165.7,41.5z"/>
	<polygon class="st4" points="104.5,80.6 104.5,29.8 90.2,37.8 90.2,72.2 	"/>
	<path class="st5" d="M66.7,58.5v22.7l5.4,3.1l0.4-39.5c0-0.7,0.5-1.2,1.2-1.2s1.2,0.5,1.2,1.2L77,87.1l4.4,2.6
		c1.7-0.6,3.5-0.9,5.4-0.9c0.1,0,0.1,0,0.2,0V0c-7,0.2-13.9,1.2-20.4,3V51V58.5z"/>
	<path class="st6" d="M87.1,88.8c1.1,0,2.1,0.1,3.1,0.3V72.2V37.8V0c-0.1,0-0.2,0-0.3,0C89,0,88,0,87.1,0V88.8z"/>
	<path class="st5" d="M142.3,102.8v22l20.4,11.8V37.2c-5.7-7.8-12.6-14.7-20.4-20.3V102.8z"/>
	<path class="st6" d="M162.7,136.5l3,1.7v-21.7v-75c-1-1.5-2-3-3-4.4V136.5z"/>
	<path class="st5" d="M104.5,80.6V103l20.4,11.8V7.1c-6.4-2.7-13.3-4.7-20.4-5.9v28.6V80.6z"/>
	<path class="st6" d="M124.9,114.7l3.1,1.8V94.4V16.6V8.5c-1-0.5-2.1-0.9-3.1-1.4V114.7z"/>
	<polygon class="st7" points="66.7,81.2 61.7,78.3 60.3,79.1 72.1,86 72.1,84.3 	"/>
	<path class="st7" d="M77,87.1l0.1,1.7l2.6,1.5c0.6-0.3,1.1-0.5,1.7-0.7L77,87.1z"/>
	<path class="st7" d="M162.7,136.5l-20.4-11.8l-14.3-8.2l-3.1-1.8L104.5,103l-1.1-0.6c0,0.1,0,0.3,0.1,0.4c0,0.4,0.1,0.9,0.1,1.4
		l61.3,35.4c0.3-0.4,0.6-0.9,0.9-1.3l0,0L162.7,136.5z"/>
	<path class="st8" d="M41.4,14.2v54l9.4,5.4V8.9C47.6,10.5,44.4,12.3,41.4,14.2z"/>
	<path class="st9" d="M164.9,139.5l-61.3-35.4c0.4,5.7,0.7,12.6,0.2,18c-0.3,3.2-3.2,9.5-4.9,13.2c0.9,0.5,1.4,1.1,1.4,1.9
		c0,1.7-3.1,4.5-12.7,5.2c-9.7,0.7-14.4-2.3-14.4-4.9c0-0.7,0.7-1.3,1.8-1.8c-1.8-3.6-4.8-10.8-4.8-18.1c0-5,0-12.2,0-12.7
		c0-2.7,0.7-5.2,1.8-7.4L72.1,86l-11.8-6.8l-0.1,0l-9.4-5.4l-9.4-5.4l-0.2-0.1L0,91.9c1.1,48.7,40.9,87.9,89.9,87.9
		C121.2,179.8,148.8,163.8,164.9,139.5z"/>
	<path class="st9" d="M77.2,91.8c0.8-0.5,1.6-1,2.5-1.4l-2.6-1.5L77.2,91.8z"/>
	<path class="st10" d="M77.2,91.8l-0.1-2.9L77,87.1l-2.1-42.3c0-0.7-0.5-1.2-1.2-1.2s-1.2,0.5-1.2,1.2l-0.4,39.5l0,1.6L72,97.6
		C73.2,95.3,75,93.3,77.2,91.8z"/>
	<path class="st9" d="M95.6,138.1c0,0-0.2,0-0.6,0.1L95.6,138.1c0,0.1-4.9,1.1-8.2,1.1c-4.2,0-9.3-1-9.3-1h0.7
		c-0.4-0.1-0.7-0.1-0.7-0.1c-1.2,0-2.3-0.7-2.8-1.7c-0.1-0.2-0.2-0.4-0.3-0.6c-1.1,0.5-1.8,1.1-1.8,1.8c0,2.6,4.7,5.6,14.4,4.9
		c9.6-0.7,12.7-3.5,12.7-5.2c0-0.8-0.5-1.4-1.4-1.9c-0.2,0.4-0.3,0.7-0.5,1C97.9,137.5,96.8,138.1,95.6,138.1z"/>
	<path class="st11" d="M95.6,138.1c0,0-0.2,0-0.6,0.1L95.6,138.1c0,0.1-4.9,1.1-8.2,1.1c-4.2,0-9.3-1-9.3-1h0.7
		c-0.4-0.1-0.7-0.1-0.7-0.1c-1.2,0-2.3-0.7-2.8-1.7c-0.1-0.2-0.2-0.4-0.3-0.6c-1.1,0.5-1.8,1.1-1.8,1.8c0,2.6,4.7,5.6,14.4,4.9
		c9.6-0.7,12.7-3.5,12.7-5.2c0-0.8-0.5-1.4-1.4-1.9c-0.2,0.4-0.3,0.7-0.5,1C97.9,137.5,96.8,138.1,95.6,138.1z"/>
	<path class="st12" d="M103.4,102.4c-0.7-6.6-6.3-11.9-13.2-13.2c-1-0.2-2-0.3-3.1-0.3c-0.1,0-0.1,0-0.2,0c-1.9,0-3.7,0.3-5.4,0.9
		c-0.6,0.2-1.2,0.4-1.7,0.7c-0.9,0.4-1.7,0.9-2.5,1.4c-2.2,1.5-4,3.5-5.2,5.9c-1.2,2.2-1.8,4.7-1.8,7.4c0,0.5,0,7.7,0,12.7
		c0,7.3,2.9,14.5,4.8,18.1c0.1,0.2,0.2,0.4,0.3,0.6c0.5,1,1.6,1.7,2.8,1.7c0,0,0.2,0,0.7,0.1H95c0.4-0.1,0.6-0.1,0.6-0.1
		c1.2,0,2.3-0.6,2.8-1.7c0.1-0.3,0.3-0.7,0.5-1c1.7-3.6,4.6-10,4.9-13.2c0.5-5.5,0.2-12.4-0.2-18c0-0.5-0.1-0.9-0.1-1.4
		C103.5,102.6,103.5,102.5,103.4,102.4z M88.3,98.3c0,0.8-0.7,1.5-1.5,1.5s-1.5-0.7-1.5-1.5s0.7-1.5,1.5-1.5S88.3,97.5,88.3,98.3z
		 M86.8,118.4c-2.2,0-3.3-0.6-4.3-1.2c-1-0.6-2-1.2-4-1.2c-0.2,0-0.3-0.2-0.3-0.3c0-0.2,0.2-0.3,0.3-0.3c2.2,0,3.3,0.6,4.3,1.2
		s2,1.2,4,1.2s3-0.5,4-1.2c1.1-0.6,2.2-1.2,4.3-1.2c0.2,0,0.3,0.2,0.3,0.3c0,0.2-0.2,0.3-0.3,0.3c-2,0-3,0.5-4,1.2
		C90,117.8,88.9,118.4,86.8,118.4z M86.8,122.2c2,0,3-0.5,4-1.2c1.1-0.6,2.2-1.2,4.3-1.2c0.2,0,0.3,0.2,0.3,0.3
		c0,0.2-0.2,0.3-0.3,0.3c-2,0-3,0.5-4,1.2c-1.1,0.6-2.2,1.2-4.3,1.2c-2.2,0-3.3-0.6-4.3-1.2c-1-0.6-2-1.2-4-1.2
		c-0.2,0-0.3-0.2-0.3-0.3c0-0.2,0.2-0.3,0.3-0.3c2.2,0,3.3,0.6,4.3,1.2C83.8,121.6,84.8,122.2,86.8,122.2z M91.1,113
		c-1.1,0.6-2.2,1.2-4.3,1.2c-2.2,0-3.3-0.6-4.3-1.2c-1-0.6-2-1.2-4-1.2c-0.2,0-0.3-0.2-0.3-0.3c0-0.1,0.2-0.3,0.3-0.3
		c2.2,0,3.3,0.6,4.3,1.2c1,0.6,2,1.2,4,1.2s3-0.5,4-1.2c1.1-0.6,2.2-1.2,4.3-1.2c0.2,0,0.3,0.2,0.3,0.3c0,0.1-0.2,0.3-0.3,0.3
		C93.1,111.8,92.1,112.3,91.1,113z"/>
	<circle class="st13" cx="86.8" cy="98.3" r="1.5"/>
	<path class="st14" d="M95.4,111.5c0-0.1-0.1-0.3-0.3-0.3c-2.1,0-3.2,0.6-4.3,1.2c-1,0.7-2,1.2-4,1.2s-3-0.6-4-1.2
		c-1-0.6-2.1-1.2-4.3-1.2c-0.1,0-0.3,0.2-0.3,0.3c0,0.1,0.1,0.3,0.3,0.3c2,0,3,0.6,4,1.2c1,0.6,2.1,1.2,4.3,1.2
		c2.1,0,3.2-0.6,4.3-1.2c1-0.7,2-1.2,4-1.2C95.2,111.8,95.4,111.6,95.4,111.5z"/>
	<path class="st14" d="M78.5,119.8c-0.1,0-0.3,0.1-0.3,0.3c0,0.1,0.1,0.3,0.3,0.3c2,0,3,0.6,4,1.2c1,0.6,2.1,1.2,4.3,1.2
		c2.1,0,3.2-0.6,4.3-1.2c1-0.7,2-1.2,4-1.2c0.1,0,0.3-0.1,0.3-0.3c0-0.1-0.1-0.3-0.3-0.3c-2.1,0-3.2,0.6-4.3,1.2c-1,0.7-2,1.2-4,1.2
		s-3-0.6-4-1.2C81.8,120.4,80.7,119.8,78.5,119.8z"/>
	<path class="st14" d="M95.1,116c0.1,0,0.3-0.1,0.3-0.3c0-0.1-0.1-0.3-0.3-0.3c-2.1,0-3.2,0.6-4.3,1.2c-1,0.7-2,1.2-4,1.2
		s-3-0.6-4-1.2s-2.1-1.2-4.3-1.2c-0.1,0-0.3,0.1-0.3,0.3c0,0.1,0.1,0.3,0.3,0.3c2,0,3,0.6,4,1.2c1,0.6,2.1,1.2,4.3,1.2
		c2.1,0,3.2-0.6,4.3-1.2C92.1,116.5,93.1,116,95.1,116z"/>
	<path class="st12" d="M87.4,139.2c3.3,0,8.2-1,8.2-1H95H78.8h-0.7C78.1,138.2,83.2,139.2,87.4,139.2z"/>
</g>
</svg>
