<?xml version="1.0" encoding="utf-8"?>
<!-- Generator: Adobe Illustrator 27.1.1, SVG Export Plug-In . SVG Version: 6.00 Build 0)  -->
<svg version="1.1" id="Calque_1" xmlns="http://www.w3.org/2000/svg" xmlns:xlink="http://www.w3.org/1999/xlink" x="0px" y="0px"
	 viewBox="0 0 188.8 188.8" style="enable-background:new 0 0 188.8 188.8;" xml:space="preserve">
<style type="text/css">
	.st0{fill:none;}
	.st1{fill:#DDAFAD;}
	.st2{fill:#D1D1CC;}
	.st3{fill:#F9D1AA;}
	.st4{fill:#7E8298;}
	.st5{opacity:0.2;enable-background:new    ;}
	.st6{fill:#E8E4E2;}
	.st7{fill:#8BE894;}
	.st8{fill:#82776F;}
</style>
<g>
	<path class="st0" d="M94.4,188.8h94.4V94.4c0,20.4-6.4,39.2-17.4,54.6C154.3,173.1,126.2,188.8,94.4,188.8z"/>
	<path class="st0" d="M150.3,18.3c23.3,17.2,38.5,44.9,38.5,76.1V0H94.4C115.3,0,134.7,6.8,150.3,18.3z"/>
	<path class="st0" d="M0,96.9c0-0.8,0-1.7,0-2.5v94.4h94.4C43.1,188.8,1.3,147.9,0,96.9z"/>
	<path class="st0" d="M94.4,0H0v94.4C0,42.3,42.3,0,94.4,0z"/>
	<path class="st1" d="M40.5,73.5l43.9,25.3l0.5-56c0-0.8,0.6-1.5,1.5-1.5c0.8,0,1.4,0.6,1.5,1.4l2.7,53.7c3.1-2.1,6.8-3.4,10.9-3.4
		c9.5,0,18.1,6.8,18.8,15.9c0.2,3.3,0.4,7.2,0.6,11l29.4,17V18.3C134.7,6.8,115.3,0,94.4,0C42.3,0,0,42.3,0,94.4c0,0.8,0,1.7,0,2.5
		L40.5,73.5z"/>
	<path class="st2" d="M150.3,18.3v118.5l21.1,12.2c11-15.4,17.4-34.3,17.4-54.6C188.8,63.2,173.6,35.5,150.3,18.3z"/>
	<path class="st3" d="M171.4,149l-21.1-12.2l-29.4-17c0.1,3.9,0.1,7.8,0,11.2c-0.4,3.7-3.6,10.8-5.6,15c0.9,0.6,1.4,1.2,1.4,2.1
		c0,2-3.5,5.2-14.5,6c-11,0.9-16.4-2.6-16.4-5.6c0-0.9,0.8-1.6,2.1-2.1c-2.1-4.1-5.4-12.3-5.4-20.5c0-5.7,0-13.9,0-14.5
		c0-2.8,0.7-5.4,1.8-7.8l0-4.9L40.5,73.5L0,96.9c1.3,51,43.1,91.9,94.4,91.9C126.2,188.8,154.3,173.1,171.4,149z"/>
	<path class="st4" d="M90.6,96.4l-2.7-53.7c-0.1-0.8-0.7-1.4-1.5-1.4c-0.9,0-1.5,0.7-1.5,1.5l-0.5,56l0,4.9
		C85.7,100.7,87.9,98.2,90.6,96.4z"/>
	<path class="st3" d="M111.5,149.2c0,0-0.2,0-0.6,0.1h0.4c0,0-5.6,1.2-9.3,1.2c-4.9,0-10.7-1.2-10.7-1.2h0.9
		c-0.4-0.1-0.7-0.1-0.7-0.1c-1.4,0-2.6-0.7-3.2-1.9c-0.1-0.3-0.3-0.5-0.4-0.8c-1.3,0.6-2.1,1.3-2.1,2.1c0,3,5.4,6.5,16.4,5.6
		c11-0.8,14.5-4,14.5-6c0-0.9-0.5-1.6-1.4-2.1c-0.2,0.4-0.4,0.9-0.6,1.2C114.1,148.4,112.8,149.2,111.5,149.2z"/>
	<path class="st5" d="M111.5,149.2c0,0-0.2,0-0.6,0.1h0.4c0,0-5.6,1.2-9.3,1.2c-4.9,0-10.7-1.2-10.7-1.2h0.9
		c-0.4-0.1-0.7-0.1-0.7-0.1c-1.4,0-2.6-0.7-3.2-1.9c-0.1-0.3-0.3-0.5-0.4-0.8c-1.3,0.6-2.1,1.3-2.1,2.1c0,3,5.4,6.5,16.4,5.6
		c11-0.8,14.5-4,14.5-6c0-0.9-0.5-1.6-1.4-2.1c-0.2,0.4-0.4,0.9-0.6,1.2C114.1,148.4,112.8,149.2,111.5,149.2z"/>
	<path class="st6" d="M101.5,93c-4.1,0-7.8,1.2-10.9,3.4c-2.7,1.9-4.9,4.4-6.3,7.3c-1.1,2.4-1.8,5-1.8,7.8c0,0.6,0,8.8,0,14.5
		c0,8.2,3.3,16.3,5.4,20.5c0.1,0.3,0.3,0.6,0.4,0.8c0.6,1.2,1.8,1.9,3.2,1.9c0,0,0.3,0,0.7,0.1h18.7c0.4-0.1,0.6-0.1,0.6-0.1
		c1.3,0,2.6-0.8,3.2-1.9c0.2-0.4,0.4-0.8,0.6-1.2c2-4.1,5.2-11.3,5.6-15c0.1-3.4,0.1-7.3,0-11.2c-0.1-3.8-0.3-7.6-0.6-11
		C119.6,99.8,111,93,101.5,93z M101.2,102.2c0.9,0,1.7,0.8,1.7,1.7c0,0.9-0.8,1.7-1.7,1.7c-0.9,0-1.7-0.8-1.7-1.7
		C99.5,103,100.3,102.2,101.2,102.2z M91.8,123.5c2.5,0,3.7,0.7,4.9,1.4s2.3,1.3,4.5,1.3s3.3-0.6,4.5-1.3s2.4-1.4,4.9-1.4
		c0.2,0,0.3,0.2,0.3,0.3c0,0.1-0.2,0.3-0.3,0.3c-2.3,0-3.3,0.6-4.5,1.3c-1.2,0.7-2.4,1.4-4.9,1.4s-3.7-0.7-4.9-1.4
		c-1.2-0.7-2.3-1.3-4.5-1.3c-0.2,0-0.3-0.2-0.3-0.3C91.5,123.7,91.7,123.5,91.8,123.5z M91.5,118.9c0-0.2,0.2-0.3,0.3-0.3
		c2.5,0,3.7,0.7,4.9,1.4c1.2,0.7,2.3,1.3,4.5,1.3s3.3-0.6,4.5-1.3c1.2-0.7,2.4-1.4,4.9-1.4c0.2,0,0.3,0.2,0.3,0.3
		c0,0.2-0.2,0.3-0.3,0.3c-2.3,0-3.3,0.6-4.5,1.3c-1.2,0.6-2.4,1.4-4.9,1.4s-3.7-0.7-4.9-1.4s-2.3-1.3-4.5-1.3
		C91.6,119.2,91.5,119,91.5,118.9z M91.8,128.4c2.5,0,3.7,0.7,4.9,1.4c1.2,0.7,2.3,1.3,4.5,1.3s3.3-0.6,4.5-1.3
		c1.2-0.7,2.4-1.4,4.9-1.4c0.2,0,0.3,0.2,0.3,0.3c0,0.1-0.2,0.3-0.3,0.3c-2.3,0-3.3,0.6-4.5,1.3c-1.2,0.7-2.4,1.4-4.9,1.4
		s-3.7-0.7-4.9-1.4S94,129,91.8,129c-0.2,0-0.3-0.2-0.3-0.3C91.5,128.6,91.7,128.4,91.8,128.4z"/>
	<path class="st7" d="M101.2,105.6c0.9,0,1.7-0.8,1.7-1.7c0-0.9-0.8-1.7-1.7-1.7c-0.9,0-1.7,0.8-1.7,1.7
		C99.5,104.8,100.3,105.6,101.2,105.6z"/>
	<path class="st8" d="M96.3,120.5c1.2,0.7,2.4,1.4,4.9,1.4s3.7-0.8,4.9-1.4c1.2-0.7,2.2-1.3,4.5-1.3c0.1,0,0.3-0.1,0.3-0.3
		c0-0.1-0.1-0.3-0.3-0.3c-2.5,0-3.7,0.7-4.9,1.4c-1.2,0.7-2.3,1.3-4.5,1.3s-3.3-0.6-4.5-1.3c-1.2-0.7-2.4-1.4-4.9-1.4
		c-0.1,0-0.3,0.1-0.3,0.3c0,0.1,0.1,0.3,0.3,0.3C94,119.2,95.1,119.8,96.3,120.5z"/>
	<path class="st8" d="M91.8,129c2.2,0,3.3,0.6,4.5,1.3s2.4,1.4,4.9,1.4s3.7-0.7,4.9-1.4c1.2-0.7,2.2-1.3,4.5-1.3
		c0.1,0,0.3-0.2,0.3-0.3c0-0.1-0.1-0.3-0.3-0.3c-2.5,0-3.7,0.7-4.9,1.4c-1.2,0.7-2.3,1.3-4.5,1.3s-3.3-0.6-4.5-1.3
		c-1.2-0.7-2.4-1.4-4.9-1.4c-0.1,0-0.3,0.2-0.3,0.3C91.5,128.8,91.6,129,91.8,129z"/>
	<path class="st8" d="M91.8,124.1c2.2,0,3.3,0.6,4.5,1.3c1.2,0.7,2.4,1.4,4.9,1.4s3.7-0.7,4.9-1.4c1.2-0.7,2.2-1.3,4.5-1.3
		c0.1,0,0.3-0.2,0.3-0.3c0-0.1-0.1-0.3-0.3-0.3c-2.5,0-3.7,0.7-4.9,1.4s-2.3,1.3-4.5,1.3s-3.3-0.6-4.5-1.3s-2.4-1.4-4.9-1.4
		c-0.1,0-0.3,0.2-0.3,0.3C91.5,123.9,91.6,124.1,91.8,124.1z"/>
	<path class="st6" d="M102,150.5c3.7,0,9.3-1.2,9.3-1.2h-0.4H92.2h-0.9C91.3,149.3,97.1,150.5,102,150.5z"/>
</g>
</svg>
