<?xml version="1.0" encoding="utf-8"?>
<!-- Generator: Adobe Illustrator 27.1.1, SVG Export Plug-In . SVG Version: 6.00 Build 0)  -->
<svg version="1.1" id="Calque_1" xmlns="http://www.w3.org/2000/svg" xmlns:xlink="http://www.w3.org/1999/xlink" x="0px" y="0px"
	 viewBox="0 0 518.2 518.2" style="enable-background:new 0 0 518.2 518.2;" xml:space="preserve">
<style type="text/css">
	.st0{fill:none;}
	.st1{fill:#C7BFB9;}
	.st2{fill:#DABFAC;}
	.st3{fill:#FBF5E9;}
	.st4{fill:#7C7F8C;}
	.st5{fill:#676F7A;}
	.st6{fill:#434851;}
	.st7{fill:#494B51;}
	.st8{fill:#5F626B;}
	.st9{opacity:0.27;fill:#374868;enable-background:new    ;}
	.st10{fill:#494C59;}
	.st11{fill:#3A3D49;}
	.st12{fill:#2B2D35;}
	.st13{fill:#A5ACBC;}
	.st14{fill:#6C7084;}
	.st15{fill:#555868;}
	.st16{fill:#B3B5BC;}
	.st17{fill:#767884;}
	.st18{fill:#595B68;}
	.st19{fill:#6C6F7A;}
	.st20{fill:#61636D;}
	.st21{fill:#454751;}
	.st22{fill:#AEB3C1;}
	.st23{opacity:0.29;fill:#F0F5FC;enable-background:new    ;}
	.st24{fill:#7A7D84;}
	.st25{fill:#A0A8B5;}
</style>
<g id="SOUS_SOL">
	<g id="arrière_2">
	</g>
	<g id="Calque_104">
	</g>
	<g id="baie">
		<g id="Calque_150">
		</g>
		<g id="Calque_149">
		</g>
	</g>
</g>
<g>
	<path class="st0" d="M389.9,482.8c-38.4,22.5-83.1,35.4-130.8,35.4h259.1V259.1C518.2,354.5,466.7,437.8,389.9,482.8z"/>
	<path class="st0" d="M0,259.1C0,116,116,0,259.1,0H0V259.1z"/>
	<path class="st0" d="M518.2,259.1V0H259.1c27.4,0,53.8,4.3,78.6,12.2C442.4,45.5,518.2,143.4,518.2,259.1z"/>
	<path class="st0" d="M0,259.1v259.1h259.1c-13.2,0-26.2-1-38.8-2.9C95.6,496.6,0,389,0,259.1z"/>
	<path class="st1" d="M337.5,452.8l0-4.2l-117.2,66.8c12.7,1.9,25.6,2.9,38.8,2.9c47.7,0,92.4-12.9,130.8-35.4L337.5,452.8z"/>
	<path class="st2" d="M0,259.1C0,389,95.6,496.6,220.3,515.3l117.2-66.8l0.1-124l-155.9,87.9l0-5.1l-0.1,0.1l0,5.1l-3.5-2.4l0-0.6
		l-0.5,0.3L77.1,351.6V155.5l166.5-97.2l94.1,53.6l0.1-99.7C312.9,4.3,286.5,0,259.1,0C116,0,0,116,0,259.1z"/>
	<path class="st3" d="M337.7,12.2l-0.1,99.7l9.1,5.2l0.1-0.1v1.9l3.7,2.4l-3.7,2.1v0.1l3.8-2.2v195.8l-13.1,7.4l-0.1,124l0,4.2
		l52.4,30c76.7-45,128.3-128.3,128.3-223.7C518.2,143.4,442.4,45.5,337.7,12.2z"/>
	<polygon class="st4" points="337,122.7 337,122.7 346.8,117.1 337.7,111.9 243.6,58.3 77.1,155.5 177.6,214.5 	"/>
	<polygon class="st5" points="337,122.7 337,122.7 346.9,117 346.8,117.1 	"/>
	<polygon class="st5" points="187.5,215.9 187.5,215.9 346.9,123.5 346.9,123.4 	"/>
	<polygon class="st5" points="337,122.7 177.6,214.5 187.5,208.8 187.5,210.7 346.6,118.7 346.9,118.9 346.9,117 	"/>
	<polygon class="st5" points="178.4,216 187.5,210.7 187.5,208.8 177.6,214.5 177.6,230.9 177.6,409.7 178.1,409.4 	"/>
	<polygon class="st5" points="182.6,218.7 181.6,407.3 181.7,407.3 	"/>
	<polygon class="st5" points="182.6,218.7 187.5,215.9 187.5,215.9 	"/>
	<polygon class="st6" points="177.6,230.9 177.6,214.5 77.1,155.5 77.1,351.6 177.6,409.7 	"/>
	<polygon class="st4" points="187.5,210.7 178.4,216 182.6,218.7 187.5,215.9 346.9,123.4 350.6,121.3 346.9,118.9 346.6,118.7 	"/>
	<polygon class="st7" points="182.6,218.7 178.4,216 178.1,409.4 178.1,410 181.6,412.4 181.6,407.3 	"/>
	<polygon class="st8" points="283.8,313.1 303.2,301.8 283.8,313.1 	"/>
	<polygon class="st9" points="283.8,313.1 303.2,301.8 283.8,313.1 	"/>
	<polygon class="st8" points="231.3,355 195.3,376.3 195.3,383 229.6,363.1 	"/>
	<polygon class="st9" points="231.3,355 195.3,376.3 195.3,383 229.6,363.1 	"/>
	<polygon class="st8" points="233.8,342.4 195.2,365 195.2,365 233.7,342.4 	"/>
	<polygon class="st9" points="233.8,342.4 195.2,365 195.2,365 233.7,342.4 	"/>
	<polygon class="st8" points="289.1,281 287.2,292.4 303.2,301.8 303.2,312.6 281.9,325.2 280.5,333.8 332.3,303.8 290.2,280.3 	"/>
	<polygon class="st9" points="289.1,281 287.2,292.4 303.2,301.8 303.2,312.6 281.9,325.2 280.5,333.8 332.3,303.8 290.2,280.3 	"/>
	<polygon class="st6" points="332.5,199.9 332.5,204 298.4,223.8 297.2,230.8 332.5,251.7 332.5,255.8 290.2,280.3 332.3,303.8 
		337,301.1 337,143.7 308.7,160.2 304.9,183.6 	"/>
	<polygon class="st9" points="332.5,199.9 332.5,204 298.4,223.8 297.2,230.8 332.5,251.7 332.5,255.8 290.2,280.3 332.3,303.8 
		337,301.1 337,143.7 308.7,160.2 304.9,183.6 	"/>
	<polygon class="st10" points="281.9,325.2 303.2,312.6 303.2,301.8 283.8,313.1 	"/>
	<polygon class="st9" points="281.9,325.2 303.2,312.6 303.2,301.8 283.8,313.1 	"/>
	<path class="st10" d="M231.8,352.4l-1.5,0.9v-1.9l0.7-0.4v-0.7l1.4-0.8l1.4-7.1L195.2,365l0.1,6.8l0.6-0.3v1.8l-0.5,0.3l0,2.6
		l36-21.2L231.8,352.4z M200.1,371l-3,1.7v-1.8l0.8-0.5v-0.7l1.5-0.8v0.7l0.7-0.4V371z M206,367.5l-2.9,1.8v-1.8l0.7-0.4v-0.8
		l1.5-0.8v0.6l0.7-0.4V367.5z M212,364.2l-2.9,1.7v-1.8l0.7-0.4v-0.8l1.5-0.8v0.7l0.7-0.4V364.2z M216.3,361.8l-2.9,1.7v-1.8
		l0.7-0.4v-0.8l1.5-0.8v0.7l0.7-0.4V361.8z"/>
	<path class="st9" d="M231.8,352.4l-1.5,0.9v-1.9l0.7-0.4v-0.7l1.4-0.8l1.4-7.1L195.2,365l0.1,6.8l0.6-0.3v1.8l-0.5,0.3l0,2.6
		l36-21.2L231.8,352.4z M200.1,371l-3,1.7v-1.8l0.8-0.5v-0.7l1.5-0.8v0.7l0.7-0.4V371z M206,367.5l-2.9,1.8v-1.8l0.7-0.4v-0.8
		l1.5-0.8v0.6l0.7-0.4V367.5z M212,364.2l-2.9,1.7v-1.8l0.7-0.4v-0.8l1.5-0.8v0.7l0.7-0.4V364.2z M216.3,361.8l-2.9,1.7v-1.8
		l0.7-0.4v-0.8l1.5-0.8v0.7l0.7-0.4V361.8z"/>
	<polygon class="st11" points="240.3,309.4 194.9,335.7 195.2,365 233.8,342.4 	"/>
	<polygon class="st9" points="240.3,309.4 194.9,335.7 195.2,365 233.8,342.4 	"/>
	<polygon class="st11" points="303.2,301.8 287.2,292.4 283.8,313.1 	"/>
	<polygon class="st9" points="303.2,301.8 287.2,292.4 283.8,313.1 	"/>
	<polygon class="st12" points="195.8,371.5 195.2,371.8 195.3,373.6 195.8,373.3 	"/>
	<polygon class="st9" points="195.8,371.5 195.2,371.8 195.3,373.6 195.8,373.3 	"/>
	<polygon class="st12" points="199.4,368.9 197.9,369.7 197.9,370.4 197.1,370.9 197.1,372.7 200.1,371 200.1,369.2 199.4,369.6 	
		"/>
	<polygon class="st9" points="199.4,368.9 197.9,369.7 197.9,370.4 197.1,370.9 197.1,372.7 200.1,371 200.1,369.2 199.4,369.6 	"/>
	<polygon class="st12" points="215.6,359.7 214.1,360.5 214.1,361.3 213.4,361.7 213.4,363.5 216.3,361.8 216.3,360 215.6,360.4 	
		"/>
	<polygon class="st9" points="215.6,359.7 214.1,360.5 214.1,361.3 213.4,361.7 213.4,363.5 216.3,361.8 216.3,360 215.6,360.4 	"/>
	<polygon class="st12" points="232.4,349.5 231,350.3 231,351 230.3,351.4 230.3,353.3 231.8,352.4 	"/>
	<polygon class="st9" points="232.4,349.5 231,350.3 231,351 230.3,351.4 230.3,353.3 231.8,352.4 	"/>
	<polygon class="st12" points="211.3,362.1 209.8,362.9 209.8,363.7 209.1,364.1 209.1,365.9 212,364.2 212,362.4 211.3,362.8 	"/>
	<polygon class="st9" points="211.3,362.1 209.8,362.9 209.8,363.7 209.1,364.1 209.1,365.9 212,364.2 212,362.4 211.3,362.8 	"/>
	<polygon class="st12" points="205.3,365.5 203.8,366.3 203.8,367.1 203.1,367.5 203.1,369.3 206,367.5 206,365.7 205.3,366.1 	"/>
	<polygon class="st9" points="205.3,365.5 203.8,366.3 203.8,367.1 203.1,367.5 203.1,369.3 206,367.5 206,365.7 205.3,366.1 	"/>
	<polygon class="st5" points="337,143.7 337,301.1 332.3,303.8 280.5,333.8 279.1,341.9 341.9,306.4 340.3,141.8 	"/>
	<polygon class="st9" points="337,143.7 337,301.1 332.3,303.8 280.5,333.8 279.1,341.9 341.9,306.4 340.3,141.8 	"/>
	<polygon class="st8" points="250.6,257.4 245.8,254.4 238.4,258.7 249.1,265 	"/>
	<polygon class="st9" points="250.6,257.4 245.8,254.4 238.4,258.7 249.1,265 	"/>
	<polygon class="st8" points="305.7,237.8 305.7,247.6 293.4,254.5 289.8,276.3 332.5,251.7 297.2,230.8 297,232.4 	"/>
	<polygon class="st9" points="305.7,237.8 305.7,247.6 293.4,254.5 289.8,276.3 332.5,251.7 297.2,230.8 297,232.4 	"/>
	<polygon class="st8" points="241.3,304.3 242.1,300.1 240.5,301.1 239,301.1 194.8,327.3 194.9,331.1 	"/>
	<polygon class="st9" points="241.3,304.3 242.1,300.1 240.5,301.1 239,301.1 194.8,327.3 194.9,331.1 	"/>
	<polygon class="st5" points="240.3,309.4 241.3,304.3 194.9,331.1 194.9,335.7 	"/>
	<polygon class="st9" points="240.3,309.4 241.3,304.3 194.9,331.1 194.9,335.7 	"/>
	<polygon class="st5" points="289.1,281 290.2,280.3 332.5,255.8 332.5,251.7 289.8,276.3 	"/>
	<polygon class="st9" points="289.1,281 290.2,280.3 332.5,255.8 332.5,251.7 289.8,276.3 	"/>
	<polygon class="st13" points="305.7,237.8 295.2,243.6 293.4,254.5 305.7,247.6 	"/>
	<polygon class="st9" points="305.7,237.8 295.2,243.6 293.4,254.5 305.7,247.6 	"/>
	<polygon class="st14" points="305.7,237.8 297,232.4 295.2,243.6 	"/>
	<polygon class="st9" points="305.7,237.8 297,232.4 295.2,243.6 	"/>
	<polygon class="st15" points="251.9,250.9 245.8,254.4 250.6,257.4 	"/>
	<polygon class="st9" points="251.9,250.9 245.8,254.4 250.6,257.4 	"/>
	<path class="st10" d="M239,301.1l-3.8-0.1v-1.8l0.8-0.5V298l1.5-0.8v0.7l0.7-0.4h2.3v-1.3l0.8-0.5v-0.6l1.5-0.9v0.7l0.4-0.2
		l1.6-8.1L194.7,316l0.1,6l1.3-0.7v0.7l0.7-0.4v1.7l-2,1.2l0,2.7L239,301.1z M200.8,321l-2.9,1.8V321l0.7-0.4v-0.8l1.5-0.9v0.8
		l0.7-0.4V321z M205.1,318.7l-2.9,1.7v-1.8l0.7-0.4v-0.7l1.5-0.9v0.7l0.7-0.4V318.7z M211,315.3l-2.8,1.8v-1.9l0.7-0.4V314l1.4-0.7
		v0.6l0.7-0.4V315.3z M217,311.9l-2.9,1.8v-1.8l0.7-0.4v-0.8l1.5-0.8v0.7l0.7-0.4V311.9z M221.3,309.5l-2.9,1.8v-1.8l0.7-0.4v-0.8
		l1.4-0.9v0.9l0.8-0.5V309.5z"/>
	<path class="st9" d="M239,301.1l-3.8-0.1v-1.8l0.8-0.5V298l1.5-0.8v0.7l0.7-0.4h2.3v-1.3l0.8-0.5v-0.6l1.5-0.9v0.7l0.4-0.2l1.6-8.1
		L194.7,316l0.1,6l1.3-0.7v0.7l0.7-0.4v1.7l-2,1.2l0,2.7L239,301.1z M200.8,321l-2.9,1.8V321l0.7-0.4v-0.8l1.5-0.9v0.8l0.7-0.4V321z
		 M205.1,318.7l-2.9,1.7v-1.8l0.7-0.4v-0.7l1.5-0.9v0.7l0.7-0.4V318.7z M211,315.3l-2.8,1.8v-1.9l0.7-0.4V314l1.4-0.7v0.6l0.7-0.4
		V315.3z M217,311.9l-2.9,1.8v-1.8l0.7-0.4v-0.8l1.5-0.8v0.7l0.7-0.4V311.9z M221.3,309.5l-2.9,1.8v-1.8l0.7-0.4v-0.8l1.4-0.9v0.9
		l0.8-0.5V309.5z"/>
	<polygon class="st10" points="241.5,297.5 242.6,297.5 242.8,296.7 	"/>
	<polygon class="st9" points="241.5,297.5 242.6,297.5 242.8,296.7 	"/>
	<polygon class="st11" points="244.8,286.6 249.1,265 238.4,258.7 194.4,284.3 194.7,316 	"/>
	<polygon class="st9" points="244.8,286.6 249.1,265 238.4,258.7 194.4,284.3 194.7,316 	"/>
	<polygon class="st12" points="196.8,321.6 196.1,322 196.1,321.3 194.8,322 194.8,324.5 196.8,323.3 	"/>
	<polygon class="st9" points="196.8,321.6 196.1,322 196.1,321.3 194.8,322 194.8,324.5 196.8,323.3 	"/>
	<polygon class="st12" points="200.1,318.9 198.6,319.8 198.6,320.6 197.9,321 197.9,322.8 200.8,321 200.8,319.3 200.1,319.7 	"/>
	<polygon class="st9" points="200.1,318.9 198.6,319.8 198.6,320.6 197.9,321 197.9,322.8 200.8,321 200.8,319.3 200.1,319.7 	"/>
	<polygon class="st12" points="204.4,316.6 202.9,317.5 202.9,318.2 202.2,318.6 202.2,320.4 205.1,318.7 205.1,316.9 204.4,317.3 	
		"/>
	<polygon class="st9" points="204.4,316.6 202.9,317.5 202.9,318.2 202.2,318.6 202.2,320.4 205.1,318.7 205.1,316.9 204.4,317.3 	
		"/>
	<polygon class="st12" points="220.5,307.4 219.1,308.3 219.1,309.1 218.4,309.5 218.4,311.3 221.3,309.5 221.3,307.8 220.5,308.3 	
		"/>
	<polygon class="st9" points="220.5,307.4 219.1,308.3 219.1,309.1 218.4,309.5 218.4,311.3 221.3,309.5 221.3,307.8 220.5,308.3 	
		"/>
	<polygon class="st12" points="237.5,297.2 236,298 236,298.7 237.5,297.9 	"/>
	<polygon class="st9" points="237.5,297.2 236,298 236,298.7 237.5,297.9 	"/>
	<polygon class="st12" points="242.8,296.7 243.2,294.7 242.8,294.9 242.8,294.2 241.3,295.1 241.3,295.7 240.5,296.2 240.5,297.5 
		241.5,297.5 	"/>
	<polygon class="st9" points="242.8,296.7 243.2,294.7 242.8,294.9 242.8,294.2 241.3,295.1 241.3,295.7 240.5,296.2 240.5,297.5 
		241.5,297.5 	"/>
	<polygon class="st12" points="216.3,309.9 214.8,310.7 214.8,311.5 214.1,311.9 214.1,313.7 217,311.9 217,310.2 216.3,310.6 	"/>
	<polygon class="st9" points="216.3,309.9 214.8,310.7 214.8,311.5 214.1,311.9 214.1,313.7 217,311.9 217,310.2 216.3,310.6 	"/>
	<polygon class="st12" points="210.3,313.3 208.9,314 208.9,314.8 208.2,315.2 208.2,317.1 211,315.3 211,313.5 210.3,313.9 	"/>
	<polygon class="st9" points="210.3,313.3 208.9,314 208.9,314.8 208.2,315.2 208.2,317.1 211,315.3 211,313.5 210.3,313.9 	"/>
	<polygon class="st8" points="264.7,185.9 256.4,190.8 263,194.9 	"/>
	<polygon class="st9" points="264.7,185.9 256.4,190.8 263,194.9 	"/>
	<polygon class="st8" points="304.9,183.6 299.1,219.1 332.5,199.9 	"/>
	<polygon class="st9" points="304.9,183.6 299.1,219.1 332.5,199.9 	"/>
	<polygon class="st8" points="252.9,245.8 258,219.9 253.3,222.6 228,207.4 223,210.3 251.9,228.2 251.9,240.4 205.8,266.2 
		194.2,259.2 194.4,279.6 	"/>
	<polygon class="st9" points="252.9,245.8 258,219.9 253.3,222.6 228,207.4 223,210.3 251.9,228.2 251.9,240.4 205.8,266.2 
		194.2,259.2 194.4,279.6 	"/>
	<polygon class="st5" points="332.5,204 332.5,199.9 299.1,219.1 298.4,223.8 	"/>
	<polygon class="st9" points="332.5,204 332.5,199.9 299.1,219.1 298.4,223.8 	"/>
	<polygon class="st5" points="245.8,254.4 251.9,250.9 252.9,245.8 194.4,279.6 194.4,284.3 238.4,258.7 	"/>
	<polygon class="st9" points="245.8,254.4 251.9,250.9 252.9,245.8 194.4,279.6 194.4,284.3 238.4,258.7 	"/>
	<polygon class="st16" points="205.8,253.6 205.8,266.2 251.9,240.4 251.9,228.2 	"/>
	<polygon class="st9" points="205.8,253.6 205.8,266.2 251.9,240.4 251.9,228.2 	"/>
	<polygon class="st17" points="205.8,253.6 251.9,228.2 223,210.3 193.9,227.3 194.1,246.2 205.8,253.1 	"/>
	<polygon class="st9" points="205.8,253.6 251.9,228.2 223,210.3 193.9,227.3 194.1,246.2 205.8,253.1 	"/>
	<polygon class="st18" points="205.8,266.2 205.8,253.6 205.8,253.1 194.1,246.2 194.2,259.2 	"/>
	<polygon class="st9" points="205.8,266.2 205.8,253.6 205.8,253.1 194.1,246.2 194.2,259.2 	"/>
	<polygon class="st19" points="253.3,213.1 253.3,222.6 258,219.9 260.1,209.4 	"/>
	<polygon class="st9" points="253.3,213.1 253.3,222.6 258,219.9 260.1,209.4 	"/>
	<polygon class="st20" points="253.3,213.1 260.1,209.4 263,194.9 256.4,190.8 235.8,202.8 	"/>
	<polygon class="st9" points="253.3,213.1 260.1,209.4 263,194.9 256.4,190.8 235.8,202.8 	"/>
	<polygon class="st21" points="253.3,222.6 253.3,213.1 235.8,202.8 228,207.4 	"/>
	<polygon class="st9" points="253.3,222.6 253.3,213.1 235.8,202.8 228,207.4 	"/>
	<polygon class="st5" points="195.3,383 195.4,389.3 228.1,370.8 229.6,363.1 	"/>
	<polygon class="st9" points="195.3,383 195.4,389.3 228.1,370.8 229.6,363.1 	"/>
	<polygon class="st22" points="242.6,297.5 241.5,297.5 240.5,297.5 238.2,297.5 237.5,297.9 236,298.7 235.2,299.2 235.2,301 
		239,301.1 240.5,301.1 242.1,300.1 	"/>
	<polygon class="st9" points="242.6,297.5 241.5,297.5 240.5,297.5 238.2,297.5 237.5,297.9 236,298.7 235.2,299.2 235.2,301 
		239,301.1 240.5,301.1 242.1,300.1 	"/>
	<polygon class="st8" points="231.3,355 229.6,363.1 280.5,333.8 281.9,325.2 	"/>
	<polygon class="st9" points="231.3,355 229.6,363.1 280.5,333.8 281.9,325.2 	"/>
	<polygon class="st23" points="231.3,355 229.6,363.1 280.5,333.8 281.9,325.2 	"/>
	
		<rect x="258.4" y="320" transform="matrix(0.5062 -0.8624 0.8624 0.5062 -141.6387 392.6549)" class="st8" width="27.3" height="0"/>
	
		<rect x="258.4" y="320" transform="matrix(0.5062 -0.8624 0.8624 0.5062 -141.6387 392.6549)" class="st9" width="27.3" height="0"/>
	
		<rect x="258.4" y="320" transform="matrix(0.5062 -0.8624 0.8624 0.5062 -141.6387 392.6549)" class="st23" width="27.3" height="0"/>
	<polygon class="st8" points="287.2,292.4 289.1,281 278.4,287.2 	"/>
	<polygon class="st9" points="287.2,292.4 289.1,281 278.4,287.2 	"/>
	<polygon class="st23" points="287.2,292.4 289.1,281 278.4,287.2 	"/>
	<polygon class="st8" points="233.8,342.4 233.7,342.4 251.7,331.9 	"/>
	<polygon class="st9" points="233.8,342.4 233.7,342.4 251.7,331.9 	"/>
	<polygon class="st23" points="233.8,342.4 233.7,342.4 251.7,331.9 	"/>
	<polygon class="st6" points="297.2,230.8 298.4,223.8 291.8,227.6 	"/>
	<polygon class="st9" points="297.2,230.8 298.4,223.8 291.8,227.6 	"/>
	<polygon class="st23" points="297.2,230.8 298.4,223.8 291.8,227.6 	"/>
	<polygon class="st6" points="308.7,160.2 286.9,173 304.9,183.6 	"/>
	<polygon class="st9" points="308.7,160.2 286.9,173 304.9,183.6 	"/>
	<polygon class="st23" points="308.7,160.2 286.9,173 304.9,183.6 	"/>
	<path class="st10" d="M283.8,313.1l-23.5,13.8l0,0l-8.6,5l-18,10.5l-1.4,7.1l0.1-0.1v0.7l0.7-0.4v1.8l-1.4,0.9l-0.5,2.7l50.6-29.9
		L283.8,313.1z M238.4,348.6l-2.9,1.8v-1.9l0.7-0.4v-0.8l1.5-0.8v0.7l0.7-0.4V348.6z M262.3,334.7l-3,1.7v-1.8l0.7-0.4v-0.7l1.5-0.9
		v0.8l0.8-0.5V334.7z M263.6,334v-1.8l0.7-0.4V331l1.5-0.9v0.8l0.7-0.4v1.7L263.6,334z"/>
	<path class="st9" d="M283.8,313.1l-23.5,13.8l0,0l-8.6,5l-18,10.5l-1.4,7.1l0.1-0.1v0.7l0.7-0.4v1.8l-1.4,0.9l-0.5,2.7l50.6-29.9
		L283.8,313.1z M238.4,348.6l-2.9,1.8v-1.9l0.7-0.4v-0.8l1.5-0.8v0.7l0.7-0.4V348.6z M262.3,334.7l-3,1.7v-1.8l0.7-0.4v-0.7l1.5-0.9
		v0.8l0.8-0.5V334.7z M263.6,334v-1.8l0.7-0.4V331l1.5-0.9v0.8l0.7-0.4v1.7L263.6,334z"/>
	<path class="st23" d="M283.8,313.1l-23.5,13.8l0,0l-8.6,5l-18,10.5l-1.4,7.1l0.1-0.1v0.7l0.7-0.4v1.8l-1.4,0.9l-0.5,2.7l50.6-29.9
		L283.8,313.1z M238.4,348.6l-2.9,1.8v-1.9l0.7-0.4v-0.8l1.5-0.8v0.7l0.7-0.4V348.6z M262.3,334.7l-3,1.7v-1.8l0.7-0.4v-0.7l1.5-0.9
		v0.8l0.8-0.5V334.7z M263.6,334v-1.8l0.7-0.4V331l1.5-0.9v0.8l0.7-0.4v1.7L263.6,334z"/>
	<polygon class="st11" points="260.3,326.9 260.3,326.9 260.3,326.9 283.8,313.1 287.2,292.4 278.4,287.2 240.3,309.4 233.8,342.4 
		251.7,331.9 	"/>
	<polygon class="st9" points="260.3,326.9 260.3,326.9 260.3,326.9 283.8,313.1 287.2,292.4 278.4,287.2 240.3,309.4 233.8,342.4 
		251.7,331.9 	"/>
	<polygon class="st23" points="260.3,326.9 260.3,326.9 260.3,326.9 283.8,313.1 287.2,292.4 278.4,287.2 240.3,309.4 233.8,342.4 
		251.7,331.9 	"/>
	<polygon class="st12" points="233.2,349.7 232.5,350.1 232.5,349.4 232.4,349.5 231.8,352.4 233.2,351.5 	"/>
	<polygon class="st9" points="233.2,349.7 232.5,350.1 232.5,349.4 232.4,349.5 231.8,352.4 233.2,351.5 	"/>
	<polygon class="st23" points="233.2,349.7 232.5,350.1 232.5,349.4 232.4,349.5 231.8,352.4 233.2,351.5 	"/>
	<polygon class="st12" points="237.7,346.5 236.2,347.3 236.2,348.1 235.5,348.5 235.5,350.4 238.4,348.6 238.4,346.8 237.7,347.2 	
		"/>
	<polygon class="st9" points="237.7,346.5 236.2,347.3 236.2,348.1 235.5,348.5 235.5,350.4 238.4,348.6 238.4,346.8 237.7,347.2 	
		"/>
	<polygon class="st23" points="237.7,346.5 236.2,347.3 236.2,348.1 235.5,348.5 235.5,350.4 238.4,348.6 238.4,346.8 237.7,347.2 	
		"/>
	<polygon class="st12" points="261.5,332.6 260,333.5 260,334.2 259.3,334.6 259.3,336.4 262.3,334.7 262.3,332.9 261.5,333.4 	"/>
	<polygon class="st9" points="261.5,332.6 260,333.5 260,334.2 259.3,334.6 259.3,336.4 262.3,334.7 262.3,332.9 261.5,333.4 	"/>
	<polygon class="st23" points="261.5,332.6 260,333.5 260,334.2 259.3,334.6 259.3,336.4 262.3,334.7 262.3,332.9 261.5,333.4 	"/>
	<polygon class="st12" points="265.8,330.9 265.8,330.1 264.3,331 264.3,331.8 263.6,332.2 263.6,334 266.5,332.2 266.5,330.5 	"/>
	<polygon class="st9" points="265.8,330.9 265.8,330.1 264.3,331 264.3,331.8 263.6,332.2 263.6,334 266.5,332.2 266.5,330.5 	"/>
	<polygon class="st23" points="265.8,330.9 265.8,330.1 264.3,331 264.3,331.8 263.6,332.2 263.6,334 266.5,332.2 266.5,330.5 	"/>
	<polygon class="st8" points="289.8,276.3 293.4,254.5 268.7,268.3 250.6,257.4 249.1,265 265.3,274.6 265.3,285.5 244.3,297.9 
		244.3,298.7 242.1,300.1 241.3,304.3 	"/>
	<polygon class="st9" points="289.8,276.3 293.4,254.5 268.7,268.3 250.6,257.4 249.1,265 265.3,274.6 265.3,285.5 244.3,297.9 
		244.3,298.7 242.1,300.1 241.3,304.3 	"/>
	<polygon class="st23" points="289.8,276.3 293.4,254.5 268.7,268.3 250.6,257.4 249.1,265 265.3,274.6 265.3,285.5 244.3,297.9 
		244.3,298.7 242.1,300.1 241.3,304.3 	"/>
	<polygon class="st8" points="290.6,228.4 297,232.4 297.2,230.8 291.8,227.6 	"/>
	<polygon class="st9" points="290.6,228.4 297,232.4 297.2,230.8 291.8,227.6 	"/>
	<polygon class="st23" points="290.6,228.4 297,232.4 297.2,230.8 291.8,227.6 	"/>
	<polygon class="st5" points="289.1,281 289.8,276.3 241.3,304.3 240.3,309.4 278.4,287.2 	"/>
	<polygon class="st9" points="289.1,281 289.8,276.3 241.3,304.3 240.3,309.4 278.4,287.2 	"/>
	<polygon class="st23" points="289.1,281 289.8,276.3 241.3,304.3 240.3,309.4 278.4,287.2 	"/>
	<polygon class="st13" points="268.4,258.3 268.7,268.3 293.4,254.5 295.2,243.6 	"/>
	<polygon class="st9" points="268.4,258.3 268.7,268.3 293.4,254.5 295.2,243.6 	"/>
	<polygon class="st23" points="268.4,258.3 268.7,268.3 293.4,254.5 295.2,243.6 	"/>
	<polygon class="st14" points="297,232.4 290.6,228.4 254.1,249.6 268.4,258.3 295.2,243.6 	"/>
	<polygon class="st9" points="297,232.4 290.6,228.4 254.1,249.6 268.4,258.3 295.2,243.6 	"/>
	<polygon class="st23" points="297,232.4 290.6,228.4 254.1,249.6 268.4,258.3 295.2,243.6 	"/>
	<polygon class="st15" points="268.7,268.3 268.4,258.3 254.1,249.6 251.9,250.9 250.6,257.4 	"/>
	<polygon class="st9" points="268.7,268.3 268.4,258.3 254.1,249.6 251.9,250.9 250.6,257.4 	"/>
	<polygon class="st23" points="268.7,268.3 268.4,258.3 254.1,249.6 251.9,250.9 250.6,257.4 	"/>
	<polygon class="st10" points="243.5,296.3 242.8,296.7 242.6,297.5 244.3,297.5 244.3,297.9 265.3,285.5 265.3,274.6 244.8,286.6 
		243.2,294.7 243.5,294.5 	"/>
	<polygon class="st9" points="243.5,296.3 242.8,296.7 242.6,297.5 244.3,297.5 244.3,297.9 265.3,285.5 265.3,274.6 244.8,286.6 
		243.2,294.7 243.5,294.5 	"/>
	<polygon class="st23" points="243.5,296.3 242.8,296.7 242.6,297.5 244.3,297.5 244.3,297.9 265.3,285.5 265.3,274.6 244.8,286.6 
		243.2,294.7 243.5,294.5 	"/>
	<polygon class="st11" points="265.3,274.6 249.1,265 244.8,286.6 	"/>
	<polygon class="st9" points="265.3,274.6 249.1,265 244.8,286.6 	"/>
	<polygon class="st23" points="265.3,274.6 249.1,265 244.8,286.6 	"/>
	<polygon class="st12" points="243.5,296.3 243.5,294.5 243.2,294.7 242.8,296.7 	"/>
	<polygon class="st9" points="243.5,296.3 243.5,294.5 243.2,294.7 242.8,296.7 	"/>
	<polygon class="st23" points="243.5,296.3 243.5,294.5 243.2,294.7 242.8,296.7 	"/>
	<polygon class="st8" points="274.1,201.8 274.1,210.7 258,219.9 252.9,245.8 299.1,219.1 304.9,183.6 286.9,173 264.7,185.9 
		263,194.9 	"/>
	<polygon class="st9" points="274.1,201.8 274.1,210.7 258,219.9 252.9,245.8 299.1,219.1 304.9,183.6 286.9,173 264.7,185.9 
		263,194.9 	"/>
	<polygon class="st23" points="274.1,201.8 274.1,210.7 258,219.9 252.9,245.8 299.1,219.1 304.9,183.6 286.9,173 264.7,185.9 
		263,194.9 	"/>
	<polygon class="st5" points="290.6,228.4 291.8,227.6 298.4,223.8 299.1,219.1 252.9,245.8 251.9,250.9 254.1,249.6 	"/>
	<polygon class="st9" points="290.6,228.4 291.8,227.6 298.4,223.8 299.1,219.1 252.9,245.8 251.9,250.9 254.1,249.6 	"/>
	<polygon class="st23" points="290.6,228.4 291.8,227.6 298.4,223.8 299.1,219.1 252.9,245.8 251.9,250.9 254.1,249.6 	"/>
	<polygon class="st19" points="274.1,201.8 260.1,209.4 258,219.9 274.1,210.7 	"/>
	<polygon class="st9" points="274.1,201.8 260.1,209.4 258,219.9 274.1,210.7 	"/>
	<polygon class="st23" points="274.1,201.8 260.1,209.4 258,219.9 274.1,210.7 	"/>
	<polygon class="st20" points="263,194.9 260.1,209.4 274.1,201.8 	"/>
	<polygon class="st9" points="263,194.9 260.1,209.4 274.1,201.8 	"/>
	<polygon class="st23" points="263,194.9 260.1,209.4 274.1,201.8 	"/>
	<polygon class="st5" points="229.6,363.1 228.1,370.8 279.1,341.9 280.5,333.8 	"/>
	<polygon class="st9" points="229.6,363.1 228.1,370.8 279.1,341.9 280.5,333.8 	"/>
	<polygon class="st23" points="229.6,363.1 228.1,370.8 279.1,341.9 280.5,333.8 	"/>
	<polygon class="st22" points="244.3,297.9 244.3,297.5 242.6,297.5 242.1,300.1 244.3,298.7 	"/>
	<polygon class="st9" points="244.3,297.9 244.3,297.5 242.6,297.5 242.1,300.1 244.3,298.7 	"/>
	<polygon class="st23" points="244.3,297.9 244.3,297.5 242.6,297.5 242.1,300.1 244.3,298.7 	"/>
	<path class="st24" d="M350.7,121.3l-3.8,2.2l-159.4,92.4l-4.9,2.8l-0.9,188.6l0,5.1l155.9-87.9l13.1-7.4V121.3z M279.1,341.9
		l-51,28.9l-32.7,18.5l-0.1-6.3l-0.1-6.7l0-2.6l0-1.8l-0.1-6.8l0,0l-0.3-29.3l0-4.6l0-3.8l0-2.7l0-2.5l-0.1-6l-0.3-31.7l0-4.7
		l-0.2-20.4l-0.1-12.9l-0.2-18.9l29.1-17l5-2.9l7.8-4.6l20.6-12l8.3-4.9l22.1-12.9l21.8-12.8l28.3-16.5l3.3-1.9l1.6,164.6
		L279.1,341.9z M185.3,305.6c0-0.7,0.4-1.4,1-1.8l4-2.6c0.7-0.5,1.6,0,1.6,0.9v8.6c0,0.5-0.2,1-0.7,1.3l-4.7,3.1
		c-0.5,0.3-1.2,0-1.2-0.6V305.6z"/>
	<path class="st25" d="M186.5,315.1l4.7-3.1c0.5-0.3,0.7-0.8,0.7-1.3v-8.6c0-0.9-0.9-1.4-1.6-0.9l-4,2.6c-0.6,0.4-1,1.1-1,1.8v8.9
		C185.3,315.1,186,315.4,186.5,315.1z"/>
</g>
</svg>
