<?xml version="1.0" encoding="utf-8"?>
<!-- Generator: Adobe Illustrator 27.1.1, SVG Export Plug-In . SVG Version: 6.00 Build 0)  -->
<svg version="1.1" id="Calque_1" xmlns="http://www.w3.org/2000/svg" xmlns:xlink="http://www.w3.org/1999/xlink" x="0px" y="0px"
	 viewBox="0 0 523.8 523.8" style="enable-background:new 0 0 523.8 523.8;" xml:space="preserve">
<style type="text/css">
	.st0{fill:none;}
	.st1{fill:#D9BEAB;}
	.st2{fill:#7E8298;}
	.st3{fill:#51566D;}
	.st4{fill:#5F6784;}
	.st5{fill:#D6D8ED;}
	.st6{fill:#F8FAFF;}
	.st7{fill:#E9EEFF;}
	.st8{fill:#D8D8D8;}
</style>
<g id="RDC">
	<g id="cailloux">
	</g>
	<g id="cuisine">
	</g>
	<g id="escalier">
	</g>
	<g id="fondation">
	</g>
	<g id="Calque_171">
	</g>
	<g id="four">
	</g>
	<g id="Calque_46">
	</g>
	<g id="pand_droit">
	</g>
	<g id="Calque_141">
	</g>
</g>
<g>
	<path class="st0" d="M261.9,523.8h261.9V261.9c0,41-9.4,79.7-26.2,114.3C455.2,463.6,365.6,523.8,261.9,523.8z"/>
	<path class="st0" d="M261.9,0H0v261.9C0,117.3,117.3,0,261.9,0z"/>
	<path class="st0" d="M523.8,261.9V0H261.9C406.5,0,523.8,117.3,523.8,261.9z"/>
	<path class="st0" d="M261.9,523.8c-7.2,0-14.4-0.3-21.4-0.9C105.9,512,0,399.3,0,261.9v261.9H261.9z"/>
	<path class="st1" d="M240.5,522.9l257.1-146.8c16.8-34.5,26.2-73.3,26.2-114.3C523.8,117.3,406.5,0,261.9,0S0,117.3,0,261.9
		C0,399.3,105.9,512,240.5,522.9z M168.4,173l125.3-72.4l43.4,26.5l2.1-1.2c1.1-0.7,2.5-0.7,3.7,0.1l7.9,4c1.9,0.7,3.4,2.5,3.4,4.9
		v121.3c0,10.3-3.2,20.3-9.1,28.6l-34.4,48.4c-2.1,3-3.2,6.5-3.2,10l-0.1,19.5c0,1.3-0.7,2.5-1.8,3.1l-118.4,69.9
		c-0.9,0.5-1.9,0.6-2.8,0.3l0,0.2l-5.4-2.5c-0.6-0.2-1.1-0.6-1.6-1c-0.8-0.7-1.6-1.5-1.8-2.5l-7.2-3.6V173z"/>
	<path class="st2" d="M181.6,400.7l0,3.7l0.1,1.2l0-5.1l1.2-1.6l-1.1,1.3C181.7,400.4,181.7,400.6,181.6,400.7z"/>
	<polygon class="st2" points="234.6,195.6 233.5,194.9 233.4,195.1 234.4,195.7 	"/>
	<path class="st3" d="M175.5,429.7v-30c0-1.6,0.6-3.3,1.6-4.6l32-42.1c3.3-4.5,5.2-9.9,5.2-15.5L214.2,207c0-2.3,0.5-4.5,1.5-6.6
		L168.4,173v253.6l7.2,3.6C175.5,430.1,175.5,429.9,175.5,429.7z"/>
	<path class="st3" d="M181.8,400.3l1.1-1.3l1.1-1.5l-1.9,2.2C182,399.8,181.9,400,181.8,400.3z"/>
	<path class="st3" d="M181.4,401.9l0.2,2.6l0-3.7C181.5,401.1,181.4,401.5,181.4,401.9z"/>
	<path class="st4" d="M222,193.6l4.7-2.7l6.7,4.2l0.2-0.1l-6.7-4l110.3-63.8l-43.4-26.5L168.4,173l47.3,27.4
		C217,197.6,219.2,195.2,222,193.6z"/>
	<path class="st5" d="M181.9,432.6l-0.2-26.9l-0.1-1.2l-0.2-2.6c0-0.4,0.1-0.8,0.2-1.2c0.1-0.2,0.1-0.3,0.2-0.4
		c0.1-0.2,0.2-0.4,0.4-0.7l1.9-2.2l27.6-36.8c6.7-8.7,10.2-8.8,10.2-30.4L221.5,215c-0.2-7.4,3.6-14,9.9-17.6l3-1.7l-1-0.6l-6.7-4.2
		l-4.7,2.7c-2.8,1.6-5,4-6.3,6.8c-1,2-1.5,4.3-1.5,6.6l0.1,130.5c0,5.6-1.9,11-5.2,15.5l-32,42.1c-1,1.3-1.6,3-1.6,4.6v30
		c0,0.2,0,0.4,0.1,0.5c0.2,1,1,1.8,1.8,2.5c0.5,0.4,1,0.8,1.6,1l5.4,2.5l0-0.2C183,435.5,181.9,434.3,181.9,432.6z"/>
	<path class="st6" d="M226.8,190.9l6.7,4l1,0.6l111.8-65.2c1.4-0.8,3-0.9,4.4-0.4l-7.9-4c-1.2-0.8-2.6-0.8-3.7-0.1l-2.1,1.2
		L226.8,190.9z"/>
	<path class="st7" d="M346.4,130.4l-111.8,65.2l-0.2,0.1l-3,1.7c-6.3,3.6-10.1,10.2-9.9,17.6l0.4,115.2c0,21.6-3.5,21.7-10.2,30.4
		l-27.6,36.8l-1.1,1.5l-1.2,1.6l0,5.1l0.2,26.9c0,1.7,1.1,2.9,2.5,3.4c0.9,0.3,1.9,0.2,2.8-0.3l118.4-69.9c1.1-0.6,1.8-1.8,1.8-3.1
		l0.1-19.5c0-3.5,1.1-7,3.2-10l34.4-48.4c5.9-8.3,9.1-18.3,9.1-28.6V134.9c0-2.3-1.5-4.1-3.4-4.9
		C349.4,129.5,347.8,129.6,346.4,130.4z"/>
	<path class="st8" d="M497.6,376.2L240.5,522.9c7.1,0.6,14.2,0.9,21.4,0.9C365.6,523.8,455.2,463.6,497.6,376.2z"/>
</g>
</svg>
