<?xml version="1.0" encoding="utf-8"?>
<!-- Generator: Adobe Illustrator 27.1.1, SVG Export Plug-In . SVG Version: 6.00 Build 0)  -->
<svg version="1.1" id="Calque_1" xmlns="http://www.w3.org/2000/svg" xmlns:xlink="http://www.w3.org/1999/xlink" x="0px" y="0px"
	 viewBox="0 0 188.8 188.8" style="enable-background:new 0 0 188.8 188.8;" xml:space="preserve">
<style type="text/css">
	.st0{fill:none;}
	.st1{fill:#DFE3ED;}
	.st2{fill:#EDECDF;}
	.st3{fill:#D1BBA7;}
	.st4{fill:#E8D5BE;}
	.st5{fill:#777070;}
	.st6{fill:#605C5C;}
	.st7{fill:#938989;}
	.st8{fill:#7F7777;}
	.st9{fill:#6B6666;}
	.st10{fill:#938F8F;}
	.st11{fill:#AFACAC;}
	.st12{fill:#897E7E;}
	.st13{fill:#AF8282;}
</style>
<g id="RDC">
	<g id="cailloux">
	</g>
	<g id="cuisine">
	</g>
	<g id="escalier">
	</g>
	<g id="fondation">
	</g>
	<g id="Calque_171">
	</g>
	<g id="four">
	</g>
	<g id="Calque_46">
	</g>
	<g id="pand_droit">
	</g>
	<g id="Calque_141">
	</g>
</g>
<g>
	<path class="st0" d="M68.8,185.3c-2.2-0.6-4.4-1.3-6.6-2.1c-0.7-0.3-1.5-0.5-2.2-0.8c-27-10.6-47.9-33.2-56.1-61.2c0,0,0,0,0-0.1
		c-1.4-4.7-2.4-9.5-3-14.5c-0.4-3.3-0.7-6.7-0.8-10.1c0-0.7,0-1.4,0-2.1v94.4h94.4C85.5,188.8,76.9,187.6,68.8,185.3z"/>
	<path class="st0" d="M187.4,110.5c-0.4,2.3-0.9,4.7-1.5,6.9c-10.3,41-47.4,71.4-91.6,71.4h94.4V94.4c0,4.6-0.3,9.1-1,13.5
		C187.7,108.8,187.6,109.7,187.4,110.5z"/>
	<path class="st0" d="M2.1,74.5C11.2,31.9,49.1,0,94.4,0H0v94.4c0-3.4,0.2-6.8,0.5-10.1C0.9,81,1.4,77.7,2.1,74.5z"/>
	<path class="st0" d="M94.4,0c10.1,0,19.8,1.6,28.9,4.5c3,1,6,2.1,8.9,3.3c5.7,2.5,11.1,5.5,16.1,9c12,8.3,21.9,19.4,28.9,32.2
		c0.4,0.7,0.7,1.3,1.1,2c0.2,0.5,0.5,0.9,0.7,1.4c6.3,12.6,9.8,26.8,9.8,41.9V0H94.4z"/>
	<path class="st1" d="M67.4,57.5l5.5,3.2l75.4-43.8c-5-3.5-10.4-6.6-16.1-9L0.5,84.3C0.2,87.6,0,91,0,94.4c0,0.7,0,1.4,0,2.1
		L67.4,57.5z"/>
	<path class="st2" d="M165.9,60.2l-32.2-18.6v-1.8l0.1,0.1l13.1-7.4l30.3,16.6c-7-12.8-17-23.9-28.9-32.2L72.9,60.7L113,84.4v12.9
		l-75.2,43.2l-0.1-0.1l-0.2,0.1L3.8,121.1c8.3,28,29.2,50.7,56.1,61.2l127.9-74.4c0.6-4.4,1-8.9,1-13.5c0-15-3.5-29.2-9.8-41.9
		L165.9,60.2z"/>
	<path class="st3" d="M187.4,110.5c0.1-0.9,0.3-1.7,0.4-2.6L60,182.3c0.7,0.3,1.5,0.6,2.2,0.8L187.4,110.5z"/>
	<path class="st4" d="M186,117.4L68.8,185.3c8.2,2.3,16.7,3.5,25.6,3.5C138.6,188.8,175.7,158.4,186,117.4z"/>
	<path class="st2" d="M68.8,185.3L186,117.4c0.6-2.3,1.1-4.6,1.5-6.9L62.2,183.2C64.3,183.9,66.5,184.6,68.8,185.3z"/>
	<path class="st5" d="M0.5,84.3L132.2,7.9c-2.9-1.3-5.8-2.4-8.9-3.3L2.1,74.5C1.4,77.7,0.9,81,0.5,84.3z"/>
	<path class="st6" d="M2.1,74.5l121.2-70C114.2,1.6,104.5,0,94.4,0C49.1,0,11.2,31.9,2.1,74.5z"/>
	<path class="st7" d="M3.8,121.1l33.7,19.4l0.2-0.1L3.8,121.1C3.8,121.1,3.8,121.1,3.8,121.1z"/>
	<polygon class="st8" points="37.8,127.2 37.8,140.5 113,97.3 113,84.4 	"/>
	<path class="st9" d="M37.8,127.2l-37-20.6c0.6,5,1.7,9.8,3,14.5l33.8,19.4l0.1,0.1V127.2z"/>
	<path class="st10" d="M0,96.5c0.1,3.4,0.3,6.8,0.8,10.1l37,20.6L113,84.4L72.9,60.7l-5.5-3.2L0,96.5z"/>
	<path class="st10" d="M133.8,39.9l32.1,18.2l12.4-7c-0.3-0.7-0.7-1.3-1.1-2l-30.3-16.6L133.8,39.9z M176.9,50.2
		c0,0.3-0.4,0.5-0.8,0.5s-0.8-0.2-0.8-0.5c0-0.3,0.4-0.5,0.8-0.5S176.9,49.9,176.9,50.2z"/>
	<polygon class="st11" points="165.9,58.1 133.8,39.9 133.7,39.8 133.7,41.6 165.9,60.2 	"/>
	<path class="st12" d="M165.9,58.1v2.1l13.1-7.7c-0.2-0.5-0.5-0.9-0.7-1.4L165.9,58.1z"/>
	<path class="st13" d="M175.3,50.2c0,0.3,0.4,0.5,0.8,0.5s0.8-0.2,0.8-0.5c0-0.3-0.4-0.5-0.8-0.5S175.3,49.9,175.3,50.2z"/>
</g>
</svg>
