<?xml version="1.0" encoding="UTF-8"?><svg id="Calque_2" xmlns="http://www.w3.org/2000/svg" xmlns:xlink="http://www.w3.org/1999/xlink" viewBox="0 0 146.6 146.6"><defs><style>.cls-1{fill:#c1ccdb;}.cls-2{fill:#f3f7ff;}.cls-3{fill:#b4becc;}.cls-4{fill:#c1c7d1;}.cls-5{fill:#d8e2ef;}.cls-6{fill:#d8e1ef;}.cls-7{fill:#8192a1;}.cls-8{fill:#d0e0ea;}.cls-9{fill:#eae9e8;fill-rule:evenodd;}.cls-10{fill:none;}.cls-11{fill:#99a1ad;}.cls-12{clip-path:url(#clippath-3);}.cls-13{fill:#7c98ab;}.cls-14{fill:#788794;}.cls-15{fill:#b0bdd1;}</style><clipPath id="clippath-3"><circle class="cls-10" cx="73.3" cy="73.3" r="73.3"/></clipPath></defs><g id="Calque_1-2"><g class="cls-12"><g id="RDC"><g id="sol"><polygon class="cls-9" points="555.03 -708.49 -1006.27 192.61 65.33 811.11 1625.83 -90.19 555.03 -708.49"/></g><g id="mur_entrée"><g id="camera_ext"><g><g><polygon class="cls-8" points="28 80.8 27.9 102.1 39.7 96.1 39.4 74.9 28 80.8"/><polygon class="cls-2" points="29.3 81.6 29.3 99.1 69.4 78 60.7 71.8 29.3 81.6"/><polygon class="cls-1" points="29.3 81.6 39.4 76.4 63.6 70.2 64.2 70.9 29.3 81.6"/></g><polygon class="cls-4" points="37.9 48.2 64.9 38.4 114.4 56.8 114.4 88.4 90.2 102.4 37.9 71.8 37.9 48.2"/><polygon class="cls-3" points="121.5 56.4 110.1 74.6 62.1 43.5 63.3 34.5 121.5 56.4"/><polygon class="cls-11" points="90.2 102.4 90.2 63.7 114.4 52.8 114.4 88.9 90.2 102.4"/><polygon class="cls-7" points="94.8 72.7 94.8 94.6 110.6 86.5 110.6 63.5 94.8 72.7"/><circle class="cls-13" cx="103.1" cy="80.1" r="4.9"/><circle class="cls-14" cx="103.3" cy="80.1" r="2.9"/><path class="cls-2" d="m35.4,45v16.6l47,21.5,11-11.4,27.8-16.2c.3-.2.2-.6-.1-.8l-62.1-21.7-21.8,9.2c-1,.5-1.8,1.6-1.8,2.8Z"/><polygon class="cls-5" points="35.4 44.7 35.4 61.6 81 86.1 93.6 71.8 35.4 44.7"/><polygon class="cls-6" points="93.6 71.8 93.6 73.7 121.5 57.4 121.5 55.4 93.6 71.8"/><polygon class="cls-15" points="81 86.1 82.1 86.8 93.6 73.7 93.6 71.8 81 86.1"/></g></g></g></g></g></g></svg>