<?xml version="1.0" encoding="utf-8"?>
<!-- Generator: Adobe Illustrator 27.1.1, SVG Export Plug-In . SVG Version: 6.00 Build 0)  -->
<svg version="1.1" id="Calque_2_00000124139464344811829640000006134098162909202836_"
	 xmlns="http://www.w3.org/2000/svg" xmlns:xlink="http://www.w3.org/1999/xlink" x="0px" y="0px" viewBox="0 0 77 77"
	 style="enable-background:new 0 0 77 77;" xml:space="preserve">
<style type="text/css">
	.st0{clip-path:url(#SVGID_00000007423053667740095000000000065849899445927045_);}
	.st1{fill:#F2D2A7;}
	.st2{fill-rule:evenodd;clip-rule:evenodd;fill:#FFF5E2;}
	.st3{fill:#7D8D9A;}
	.st4{fill:#E4E9F9;}
	.st5{fill:#F5F7FC;}
	.st6{opacity:0.53;fill:#BDCBE0;enable-background:new    ;}
	.st7{fill:#BDCBE0;}
	.st8{fill:#8995B1;}
	.st9{fill:#5F6C86;}
	.st10{fill:#7FE583;}
</style>
<g>
	<defs>
		<circle id="SVGID_1_" cx="38.5" cy="38.5" r="38.5"/>
	</defs>
	<clipPath id="SVGID_00000116237600727597224630000001371437555822291353_">
		<use xlink:href="#SVGID_1_"  style="overflow:visible;"/>
	</clipPath>
	<g id="RDC" style="clip-path:url(#SVGID_00000116237600727597224630000001371437555822291353_);">
		<g id="meuble">
			<g>
				<polyline class="st1" points="-45,145.8 132.1,42.6 47.7,-6.2 -130,96.4 -41.1,148.1 				"/>
				<polyline class="st2" points="-33.8,137.3 132.1,42.6 132.1,48.2 -34.5,144.3 -34.5,139.8 				"/>
			</g>
			<polygon class="st3" points="53.9,-63.7 48.4,10 97.3,44.8 102.9,-30.7 			"/>
			<g>
				<polyline class="st1" points="-45,7.4 132.1,-96 47.7,-144.6 -130,-42 -41.1,9.6 				"/>
				<polyline class="st2" points="-33.8,-1.2 132.1,-96 132.1,-90.4 -34.5,5.8 -34.5,1.2 				"/>
			</g>
			<g id="cam_int">
				<ellipse class="st4" cx="36.7" cy="47.8" rx="14.8" ry="10.2"/>
				<polygon class="st4" points="22,39 22,48.6 51.3,48.6 51.3,38.3 				"/>
				<ellipse class="st5" cx="36.7" cy="39" rx="14.8" ry="10.2"/>
				<ellipse class="st6" cx="36.7" cy="38.3" rx="9.6" ry="5.4"/>
				<circle class="st4" cx="36.7" cy="28.8" r="13.2"/>
				<path class="st7" d="M42.9,24c-3.1,0.7-4.7,3.9-3.3,6.6c0.8,1.6,1.2,3,1.4,4.7c0.1,0.9,0.1,2.1,1.1,3c0.8,0.6,2.6,0.3,3.8-0.5
					c1.3-0.9,3.7-3.8,3.4-7.6C49,26.2,46.2,23.3,42.9,24z"/>
				<g>
					<path class="st8" d="M48.5,29.8c0.5,1.9-0.5,3.8-2.4,4.4c-2.1,0.7-4.4-0.5-4.9-2.7s1-4.4,3.2-4.6C46.3,26.6,48.1,28,48.5,29.8z
						"/>
					<path class="st9" d="M47.8,30c0.3,1.4-0.5,3-1.9,3.4c-1.6,0.5-3.3-0.4-3.7-2.1c-0.4-1.6,0.7-3.3,2.3-3.5S47.5,28.5,47.8,30z"/>
				</g>
				<circle class="st10" cx="43.8" cy="22.2" r="0.5"/>
				<circle class="st4" cx="45.4" cy="29" r="0.9"/>
			</g>
		</g>
	</g>
</g>
</svg>
