<?xml version="1.0" encoding="UTF-8"?><svg id="Calque_2" xmlns="http://www.w3.org/2000/svg" xmlns:xlink="http://www.w3.org/1999/xlink" viewBox="0 0 326.4 326.4"><defs><style>.cls-1{fill:#e1a084;}.cls-1,.cls-2,.cls-3,.cls-4,.cls-5,.cls-6,.cls-7,.cls-8,.cls-9,.cls-10,.cls-11,.cls-12,.cls-13,.cls-14,.cls-15,.cls-16,.cls-17{fill-rule:evenodd;}.cls-2{fill:#cfdbe8;}.cls-3{fill:#e5e5e5;}.cls-4{fill:#edebd5;}.cls-5{fill:#d1d1cc;}.cls-6{fill:#f3f7ff;}.cls-7{fill:#b3bbc4;}.cls-8{fill:#998b88;}.cls-9{fill:#bc7a6c;}.cls-10{fill:#aabbce;isolation:isolate;opacity:.5;}.cls-11{fill:#ddafad;}.cls-12{fill:#eae9e8;}.cls-18{fill:none;}.cls-19{clip-path:url(#clippath-3);}.cls-13{fill:#ffc49a;}.cls-14{fill:#b5b5b5;}.cls-15{fill:#ededed;}.cls-20{fill:#dfe3ed;}.cls-16{fill:#ecf3fb;}.cls-17{fill:#ebe8ce;}</style><clipPath id="clippath-3"><circle class="cls-18" cx="163.2" cy="163.2" r="163.2"/></clipPath></defs><g id="Calque_1-2"><g id="Calque_2-2"><g class="cls-19"><g id="RDC"><g id="sol"><polygon class="cls-12" points="-450 1421.6 977.6 597.1 -92.2 -20.1 -1519.2 803.5 -450 1421.6"/><g id="tapis"><path class="cls-11" d="m-337.4,317l665.9,382.8c10.4,6,10.4,21,0,27.1l-608.5,351.8c-4.8,2.8-10.7,2.8-15.5,0l-665.5-382.4c-10.4-6-10.4-21-.1-27.1L-352.9,317c4.7-2.8,10.6-2.8,15.5,0Z"/></g></g><g id="mur_de_droite"><polygon class="cls-6" points="-137.3 -45 -137.3 -664.7 978.8 -20 979.1 597.3 -137.3 -45"/></g><g id="fenetre_droite"><polygon id="vitre" class="cls-10" points="40.9 -329.1 40.9 -123.1 487.5 134.5 487 -71.6 40.9 -329.1"/><polygon class="cls-3" points="40.7 -335 40.5 -201.3 497.4 62.8 497.4 -81 40.7 -335"/><path class="cls-9" d="m21.6-366.6l1.8,258L509.5,173.1l1.6-257.9L21.6-366.6Zm19.1,243.5v-206L486.8-71.5l.5,206L40.7-123.1Z"/><polygon class="cls-1" points="40.7 -123.1 48 -126.5 487.2 125.5 487.2 134.5 40.7 -123.1"/><g id="Calque_35"><polygon class="cls-13" points="333.2 -160.3 333.2 37.5 325.8 41.5 324.8 -165.2 333.2 -160.3"/><polyline class="cls-9" points="317.3 40.5 317.3 -171.5 325.8 -168.1 325.8 43.6"/></g></g><g id="chatière"><path class="cls-7" d="m180.9,24.4l12.1-6.1c.6-.3,1.2-.3,1.9.1l74.1,41.3c3,1.7,5,5,5,8.5v79.5c0,1.9-1,3.8-2.7,4.7l-11.4,6.7v-90.7l-79-44Z"/><path class="cls-2" d="m179.8,109.5V27.2c0-3.4,3.7-5.5,6.7-3.8l71.3,41.1c2.5,1.5,4,4.1,4,7.1v84.3c0,2.6-2.7,4.1-5,2.9l-72.9-42.1c-2.6-1.5-4.1-4.2-4.1-7.2Z"/><path class="cls-16" d="m189.4,106.5V42.1c0-1.1,1.2-1.8,2.1-1.2l55.5,32c1.7,1,2.8,2.9,2.8,4.9v63.7c0,1.2-1.3,2-2.4,1.4l-55.4-32c-1.6-.8-2.6-2.5-2.6-4.4Z"/></g><g id="cat"><path class="cls-8" d="m92,234.5c-11.3,10.3-10.7,26.3,11.3,29.9,22,3.7,52.2-5,57.1-16.2,5-11.3-4.2-82.4-19.8-79.4-6.8,1.3-25.6,13.3-34.8,27.3-12,17.8-13.8,38.4-13.8,38.4Z"/><path class="cls-8" d="m144.3,141.1c-8.5,0-18.2,8.1-19.8,15.6-1.9,8.9.5,20.1,14.6,21.8,15.5,1.8,26.3-8.9,26-21.1-.2-12.1-12.8-16.3-20.8-16.3Z"/><polygon class="cls-8" points="154.8 144.1 166.4 139.3 162.4 153.1 154.8 144.1"/><polygon class="cls-8" points="140.4 142 129.2 137.3 129.9 149.4 140.4 142"/><path class="cls-8" d="m93.2,248.1c0,.9-9.6,7.6-9.3,13,.3,5.3,2.8,10.9,15.5,14.4,12.8,3.5,33.6-2.4,35.4,5.7,1.9,8.1-20.1,12.7-23.4,17.7s-.7,9.6,8,7.3c8.6-2.3,24.3-16.1,24.8-21.6s-.8-12.6-13.7-14.3c-13-1.6-39.2-1.2-35.7-5.1,3.5-3.8,12-7.9,12-7.9l-13.6-9.2Z"/></g><g id="canap"><g><path class="cls-17" d="m-82.5,269.1l166,96.3-39,23.2-173.3-77.3v-18.3c0-4,2.2-7.9,5.7-9.9l24.4-14.1c4.9-2.9,11.1-2.9,16.2.1Z"/><path class="cls-5" d="m-128.9,295v145.8c0,.4.2.8.5,1l169.2,97.6c.8.5,1.7-.1,1.7-1l.6-150.2c0-.4-.2-.8-.5-1l-164.1-96.4c-3.3-2-7.4.4-7.4,4.2Z"/></g><g><path class="cls-4" d="m-173.5,398l.4,221.8,36.7,22.2,171.2-99.2v-221.2c0-1.7-.9-3.3-2.3-4.2l-34.8-19.7c-1.9-1.1-4.1-1-6,.1l-162.6,95.5c-1.6,1.1-2.6,2.9-2.6,4.7Z"/><polygon class="cls-14" points="-131.7 593.8 -131.7 420.4 34.9 323.3 34.9 496.9 -131.7 593.8"/></g></g><g id="mur_entrée"><g id="mur"><polygon class="cls-15" points="978.3 -72.5 -2054.5 1678.6 -2010 1705.1 1022.2 -46.6 978.3 -72.5"/><path class="cls-20" d="m-2010.9,1705.1l-.2,669.4,490.7-283.4v-514.7l889.1-509.5,3.1,509.1L1021.9,623.1l.4-669.5L-2010.9,1705.1ZM264,906.6l-713.7,412.1v-309l713.7-412.1v309Zm574.5-301.4l-124,70.8v-381.2l124-70.7v381.1Z"/></g></g></g></g></g></g></svg>