<?xml version="1.0" encoding="UTF-8"?><svg id="Calque_2" xmlns="http://www.w3.org/2000/svg" xmlns:xlink="http://www.w3.org/1999/xlink" viewBox="0 0 656.19 656.19"><defs><style>.cls-1{fill:#c5c4cc;}.cls-2{fill:#b9b9c6;}.cls-3{fill:#ddddf2;}.cls-4{fill:#b1b1cc;}.cls-5{clip-path:url(#clippath-1);}.cls-6,.cls-7{fill:#f7efe8;}.cls-8{fill:#dabfac;}.cls-9{fill:#a7a7b5;}.cls-10{fill:#d0d0df;}.cls-11{fill:none;}.cls-12{fill:#3860ba;}.cls-13{fill:#c7bfb9;}.cls-7{fill-rule:evenodd;}.cls-14{fill:#fbf5e9;}.cls-15{fill:#f2f2f2;}.cls-16{fill:#68687d;}</style><clipPath id="clippath-1"><circle class="cls-11" cx="328.1" cy="328.1" r="328.1"/></clipPath></defs><g id="Calque_1-2"><g id="Calque_2-2"><g class="cls-5"><g id="SOUS_SOL"><polygon id="sol" class="cls-13" points="-806.6 -184 -2597.2 843.2 -1786.1 1310.9 -1786.1 1310.9 -1786.1 1310.9 -716.7 1927.7 1066.9 884.6 -806.6 -184"/><g id="droite_1"><polygon class="cls-14" points="-761.7 -156.5 -761.4 -723.6 1022.8 305.4 1022.6 873.4 -761.7 -156.5"/><polygon class="cls-7" points="-806 -749.5 -761.4 -775.1 1103.3 301.4 1057 327.1 -806 -749.5"/></g><g id="mur_avant"><polygon class="cls-8" points="1102.1 301 1101.4 864.4 -715.4 1926.2 -715.7 1362.4 1102.1 301"/><polygon class="cls-6" points="-761 1336.4 -715.7 1362.4 1067.6 321.3 1023.2 295.5 -761 1336.4"/></g><g id="pompe_a_chaleur"><polygon class="cls-6" points="264.9 439.2 131.6 516.4 265.3 593.7 398.9 516.1 264.9 439.2"/><polygon class="cls-1" points="487.9 567.5 487.9 52.7 353.6 130.3 353.7 645.3 487.9 567.5"/><polygon class="cls-15" points="131.6 516.4 354.4 645.3 354.3 181.9 130.8 52.8 131.6 516.4"/><polygon class="cls-15" points="264.6 -75 488.4 52.7 354.1 130.3 130.6 2 264.6 -75"/><polygon class="cls-16" points="130.8 181.9 354.3 306.9 354.1 130.3 130.8 2 130.8 181.9"/><ellipse class="cls-4" cx="375.9" cy="57.6" rx="28" ry="19.2"/></g><g id="canalisation"><polyline class="cls-9" points="347.9 19.9 85.9 -131.4 85.9 -182.6 361.5 -24.6 347.9 19.9"/><ellipse class="cls-9" cx="58.5" cy="351.7" rx="28" ry="19.2"/><rect class="cls-9" x="30.5" y="-227.3" width="55.4" height="579"/><g><path class="cls-2" d="m85.8,341.9c0,10.5-12.4,19-27.6,19s-27.6-9.6-27.6-20.1l-.2.1c-1,.6-1.6,1.7-1.5,2.8l.5,10.7s13.8,12.7,31.4,12.7,26.1-18.3,26.1-18.3c0,0,.5-4.1.5-5.8,0-3.2-1.6-3.8-1.6-3.8v2.7Z"/><path class="cls-10" d="m87.6,356.2c0,11.1-13.1,20.1-29.3,20.1s-29.3-9-29.3-20.1l.1-12.8c0,11.1,13.1,19.7,29.2,19.7s29.3-9,29.3-20.1c0,0,0,13.2,0,13.2Z"/></g><path class="cls-2" d="m85.8,89.2c0,10.5-12.4,19-27.6,19s-27.6-9.6-27.6-20.1l-.2.1c-1,.6-1.6,1.7-1.5,2.8l.5,10.7s13.8,12.7,31.4,12.7,26.1-18.3,26.1-18.3c0,0,.5-4.1.5-5.8,0-3.2-1.6-3.8-1.6-3.8v2.7Z"/><path class="cls-10" d="m87.6,103.5c0,11.1-13.1,20.1-29.3,20.1s-29.3-9-29.3-20.1l.1-12.8c0,11.1,13.1,19.7,29.2,19.7s29.3-9,29.3-20.1c0,0,0,13.2,0,13.2Z"/><circle class="cls-2" cx="58.3" cy="117.3" r="5.6"/><g id="Calque_179"><ellipse class="cls-10" cx="58.3" cy="118.9" rx="5.8" ry="5.6"/><rect class="cls-3" x="55.6" y="81.3" width="5.9" height="37.9"/></g><path class="cls-12" d="m61.6,103.8h-6.1c-.1,0-.2-.1-.2-.2v-22.3c0-1.2,1-2.2,2.2-2.2h2.1c1.2,0,2.2,1,2.2,2.2v22.2c0,.2-.1.3-.2.3Z"/><circle class="cls-3" cx="58.6" cy="119" r="3"/></g><rect class="cls-4" x="347.9" y="-34.2" width="55.9" height="91.7"/><g><path class="cls-2" d="m404,48.4c0,10.5-12.4,19-27.6,19s-27.6-9.6-27.6-20.1l-.2.1c-1,.6-1.6,1.7-1.5,2.8l.5,10.7s13.8,12.7,31.4,12.7,26.1-18.3,26.1-18.3c0,0,.5-4.1.5-5.8,0-3.2-1.6-3.8-1.6-3.8v2.7Z"/><path class="cls-10" d="m405.7,62.7c0,11.1-13.1,20.1-29.3,20.1s-29.3-9-29.3-20.1l.1-12.8c0,11.1,13.1,19.7,29.2,19.7s29.3-9,29.3-20.1v13.2h0Z"/></g></g></g></g></g></svg>