<?xml version="1.0" encoding="UTF-8"?><svg id="Calque_2" xmlns="http://www.w3.org/2000/svg" xmlns:xlink="http://www.w3.org/1999/xlink" viewBox="0 0 539.6 539.6"><defs><style>.cls-1{fill:#e9edf4;}.cls-1,.cls-2,.cls-3,.cls-4{fill-rule:evenodd;}.cls-2{opacity:.22;}.cls-2,.cls-5{isolation:isolate;}.cls-6{fill:#536087;}.cls-7{clip-path:url(#clippath-2);}.cls-8{fill:#97a3af;}.cls-3{fill:#f3f7ff;}.cls-9{clip-path:url(#clippath-7);}.cls-10{fill:#ddf9d7;}.cls-11{fill:#ccebca;}.cls-12{fill:#b8ccca;}.cls-13{fill:#e1eaf4;}.cls-14,.cls-5{fill:none;}.cls-15{clip-path:url(#clippath-3);}.cls-4,.cls-16{fill:#ededed;}.cls-17{fill:#dfe3ed;}.cls-18{clip-path:url(#clippath-5);}.cls-19{fill:#cfd8e5;}.cls-5{opacity:.69;stroke:#fff;stroke-linecap:round;stroke-miterlimit:7.77;stroke-width:5.44px;}.cls-20{fill:#8594c9;}</style><clipPath id="clippath-2"><circle class="cls-14" cx="269.8" cy="269.8" r="269.8"/></clipPath><clipPath id="clippath-3"><circle class="cls-14" cx="269.8" cy="269.8" r="269.8"/></clipPath><clipPath id="clippath-5"><circle class="cls-14" cx="269.8" cy="269.8" r="269.8"/></clipPath><clipPath id="clippath-7"><circle class="cls-14" cx="269.8" cy="269.8" r="269.8"/></clipPath></defs><g id="Calque_1-2"><g id="Calque_2-2"><g><g class="cls-7"><g id="HAIE"><polygon class="cls-11" points="3882.9 935.7 1390.6 -501.5 -708.3 710.4 -839.8 633.5 1412.3 -668.5 4019.1 865.4 3882.9 935.7"/><polygon class="cls-10" points="1390.4 15.2 -708.2 1227.5 -708.3 710.4 1390.6 -501.5 1390.4 15.2"/></g></g><g class="cls-15"><g id="RDC"><g id="mur_du_fond"><polygon class="cls-4" points="1123.3 272.3 1073.8 244 -1915.3 1972.7 -1867.2 2000.4 -393.6 1148 1123.3 272.3"/><path class="cls-17" d="m1078.6,298.3L-1867.2,2000.4l1.4,718.3,1204.9-695.3v-514.9l178.5-101.8v513.7l177.9-102.7-.2-51.4,1383.3-798.4V298.3Zm-312.5,734l-133.8,77.3v-399.3l134.1-77.1-.3,399.1Z"/></g></g></g><g class="cls-18"><g id="ETAGE"><path id="sol" class="cls-20" d="m1078.1,246.9c-.2-.2-838.7,482-1249.1,720.5l-713.4-411.6-1790.6,1027.2,811.2,467.7,1069.3,616.8,1560.5-901.3,1471.6-849.5c.2,0-1154.5-666.7-1159.5-669.8ZM97,1071.1l-222.8-128.8,490.9-283.1,222.8,128.5-490.9,283.4Z"/><polygon class="cls-6" points="-750.6 1354.3 1078.6 298 1436.3 503.7 -393.9 1560.5 -750.6 1354.3"/><g id="mur_arriere_2"><polygon class="cls-17" points="1078.6 298 1078 -422.6 -170.7 298.3 -170.7 1019.5 1078.6 298"/><g id="climatisation"><polyline class="cls-19" points="52.4 268.6 368 86 435.8 126.6 115.8 305.3 52.4 268.6"/><path class="cls-13" d="m81.8,411.1l360-206.5c6.6-4,10.7-11.2,10.7-19l-2.9-70.4-319.8,184.7-48,111.2Z"/><path class="cls-1" d="m52.4,268.6v125.5l29.4,17.1,25.7-18c13.8-9.6,26.4-33.4,26.1-50.1l-.4-29-66.8-37.6-14-7.9Z"/><path class="cls-3" d="m73.6,265.1L387.7,84.9s22.8-.1,38.1,9.1c14.1,8.5,23.9,22.2,23.9,22.2l-316.5,181.9-59.6-33Z"/><path class="cls-8" d="m181,334.9s.4,8.5-2.2,13.8c-3,6-7.6,9.3-7.6,9.3l254.3-146.5s4.3-2.6,6.4-9.9c1.3-4.6-.3-11-.3-11l-250.6,144.3Z"/><polygon class="cls-1" points="73.6 265.1 133.2 298.2 133.2 314 66.5 276.4 73.6 265.1"/></g><polygon class="cls-16" points="-215.3 272.7 -170.7 298.3 1078.1 -422.6 1034 -448.7 -215.3 272.7"/><polygon class="cls-17" points="190.5 331.8 425.9 195.8 428.8 200.9 193 337.3 190.5 331.8"/><line class="cls-5" x1="185.9" y1="298.5" x2="431.5" y2="156.8"/></g><g id="mur_enfant"><polygon class="cls-17" points="1123.3 220.8 1346 92.3 1346 607.4 1165.6 711.5 1479.9 530.1 1479.9 -191.1 -304.4 839.2 -304.2 1560.3 1123.3 736 1123.3 220.8"/></g><g id="petite_chambre"><polygon class="cls-12" points="1456.9 543.7 1346 607.4 1323.1 594.1 1323.1 569.1 -392.8 1560.2 369.7 1998.1 2193.4 941.6 1481 529.8 1456.9 543.7"/></g><polygon class="cls-16" points="1435.3 -216.6 -349.1 813.4 -304.4 839.2 1479.9 -191.1 1435.3 -216.6"/><g id="mur_devant"><polygon class="cls-16" points="-839.8 1920.6 -794.5 1946.6 2237.7 195 2193.5 169.5 -839.8 1920.6"/><path class="cls-17" d="m-795.2,1946.6l.8,725.4L2237.7,923l.5-727.7L-795.2,1946.6Zm133.8,231.8v-206L-81.8,1637.7l.2,205.8-579.8,334.9Zm1247.6-618.1v-309.9l356.4-204.3.9,309-357.3,205.2Zm402.1-230.1v-309.9l356.4-204.3.9,309-357.3,205.2Z"/></g></g></g><g class="cls-9"><g id="ombre_toit"><polygon id="ombre_droite" class="cls-2" points="2238.2 465.2 -795.2 2191.3 -795 2046.4 2238.2 311.2 2238.2 465.2"/></g></g></g></g></g></svg>