<?xml version="1.0" encoding="UTF-8"?><svg id="Calque_2" xmlns="http://www.w3.org/2000/svg" xmlns:xlink="http://www.w3.org/1999/xlink" viewBox="0 0 193.2 193.2"><defs><style>.cls-1{fill:#4ae0cc;}.cls-2{clip-path:url(#clippath-16);}.cls-3{isolation:isolate;opacity:.22;}.cls-3,.cls-4,.cls-5,.cls-6,.cls-7,.cls-8,.cls-9,.cls-10,.cls-11,.cls-12{fill-rule:evenodd;}.cls-13{stroke:#8a95a0;stroke-linecap:round;stroke-miterlimit:7.77;stroke-width:1.55px;}.cls-13,.cls-14{fill:none;}.cls-15{fill:#8b9bb7;}.cls-16{fill:#536087;}.cls-4{fill:#a2adba;}.cls-5{fill:#f3f7ff;}.cls-17{fill:#53536b;}.cls-18{fill:#b0b9d4;}.cls-6,.cls-19{fill:#937b6a;}.cls-7{fill:#7f8ba7;}.cls-20{fill:#909aaf;}.cls-21{fill:#b8ccca;}.cls-22{fill:#53698c;}.cls-23{fill:#7386a0;}.cls-8{fill:#eae9e8;}.cls-24{fill:#727d93;}.cls-25{clip-path:url(#clippath-3);}.cls-9{fill:#c0cad8;}.cls-26{fill:#e6edf7;}.cls-27{fill:#ce967f;}.cls-10,.cls-28{fill:#ededed;}.cls-11{fill:#f8fcff;}.cls-29{clip-path:url(#clippath-14);}.cls-30{fill:#dfe3ed;}.cls-31{fill:#6e7b8e;}.cls-12{fill:#d8d8d8;}.cls-32{fill:#bcceeb;}.cls-33{fill:#8594c9;}.cls-34{fill:#bec5d3;}</style><clipPath id="clippath-2"><circle class="cls-14" cx="96.6" cy="96.6" r="96.6"/></clipPath><clipPath id="clippath-3"><circle class="cls-14" cx="96.6" cy="96.6" r="96.6"/></clipPath><clipPath id="clippath-14"><circle class="cls-14" cx="96.6" cy="96.6" r="96.6"/></clipPath><clipPath id="clippath-16"><circle class="cls-14" cx="96.6" cy="96.6" r="96.6"/></clipPath></defs><g id="Calque_1-2"><g id="Calque_2-2"><g><g class="cls-25"><g id="RDC"><g id="mur_garage"><polygon class="cls-19" points="-455.6 -745.4 258.2 -339.3 257.3 278.6 -456 -133 -455.6 -745.4"/></g><g id="sol"><polygon class="cls-8" points="1194.5 1025.7 2622.1 201.2 1552.3 -416 125.3 407.6 1194.5 1025.7"/></g><g id="escalier_cave"><polygon class="cls-6" points="-681.5 -5.9 77.1 430.8 289.4 282.6 -456 -135.5 -681.5 -5.9"/></g><polygon class="cls-12" points="-681.5 -5.9 -2251.8 890.3 -1436.4 1360.1 141 450.7 -681.5 -5.9"/><g id="mur_du_fond"><polygon class="cls-10" points="1551.9 -1086.3 1502.4 -1114.6 -1486.7 614.1 -1438.6 641.8 35 -210.6 1551.9 -1086.3"/><polygon id="plainte" class="cls-27" points="124.2 407.4 1507.5 -390.7 1507.5 -410.7 124.2 382.1 124.2 407.4"/><g id="boitier_wifi"><g><path class="cls-7" d="m94.8,196.5l-7.6-4.7c-1.2-.7-1.9-1.9-1.9-3.3l-.3-57.7c0-2.5,1.4-4.8,3.6-6l50.6-28.2c1-.5,2.2-.7,3.3-.5l6.9,3.5-54.6,96.9Z"/><path class="cls-7" d="m92.5,135.1v58.1c0,2.8,3,4.5,5.4,3.1l50.6-29.2c1.7-1,2.8-2.9,2.8-4.8l.1-59.5c0-2.4-2.6-4-4.7-2.7l-50.8,29.2c-2.1,1.1-3.4,3.4-3.4,5.8Z"/><g><g><path class="cls-7" d="m131.7,145.3c-.4.2-.8.2-1.1-.1-4.1-3.9-10.8-.1-15,8.6-.6,1.2-1.6,1.8-2.2,1.2s-.6-2,0-3.3c5.4-11.2,14-16.2,19.3-11.1.6.5.6,2,0,3.3-.2.7-.6,1.1-1,1.4Z"/><path class="cls-7" d="m127.5,154c-.4.2-.8.2-1.1-.1-.9-.9-2.1-.9-3.3-.2s-2.5,2.2-3.3,4c-.6,1.2-1.6,1.8-2.2,1.2-.6-.5-.6-2,0-3.3,1.5-3.1,3.4-5.4,5.5-6.7,2.1-1.2,4-1.1,5.5.3.6.5.6,2,0,3.3-.3.8-.7,1.2-1.1,1.5Z"/><path class="cls-7" d="m123.1,157.9c1.2-.6,2,.2,2,1.9s-.9,3.7-2,4.3c-1.2.6-2-.2-2-1.9s.9-3.7,2-4.3Z"/><path class="cls-7" d="m135.9,136.4c-.4.2-.8.2-1.1-.1-6.5-6.1-16.9-.1-23.4,13.5-.6,1.2-1.6,1.8-2.2,1.2s-.6-2,0-3.3c3.7-7.9,8.6-13.8,13.9-16.8,5.2-3,10.2-2.7,13.8.8.6.5.6,2,0,3.3-.2.7-.6,1.2-1,1.4Z"/></g><g><path class="cls-7" d="m131.7,145.3c-.4.2-.8.2-1.1-.1-4.1-3.9-10.8-.1-15,8.6-.6,1.2-1.6,1.8-2.2,1.2s-.6-2,0-3.3c5.4-11.2,14-16.2,19.3-11.1.6.5.6,2,0,3.3-.2.7-.6,1.1-1,1.4Z"/><path class="cls-7" d="m127.5,154c-.4.2-.8.2-1.1-.1-.9-.9-2.1-.9-3.3-.2s-2.5,2.2-3.3,4c-.6,1.2-1.6,1.8-2.2,1.2-.6-.5-.6-2,0-3.3,1.5-3.1,3.4-5.4,5.5-6.7,2.1-1.2,4-1.1,5.5.3.6.5.6,2,0,3.3-.3.8-.7,1.2-1.1,1.5Z"/><path class="cls-7" d="m123.1,157.9c1.2-.6,2,.2,2,1.9s-.9,3.7-2,4.3c-1.2.6-2-.2-2-1.9s.9-3.7,2-4.3Z"/><path class="cls-7" d="m135.9,136.4c-.4.2-.8.2-1.1-.1-6.5-6.1-16.9-.1-23.4,13.5-.6,1.2-1.6,1.8-2.2,1.2s-.6-2,0-3.3c3.7-7.9,8.6-13.8,13.9-16.8,5.2-3,10.2-2.7,13.8.8.6.5.6,2,0,3.3-.2.7-.6,1.2-1,1.4Z"/></g><g><path class="cls-7" d="m131.7,145.3c-.4.2-.8.2-1.1-.1-4.1-3.9-10.8-.1-15,8.6-.6,1.2-1.6,1.8-2.2,1.2s-.6-2,0-3.3c5.4-11.2,14-16.2,19.3-11.1.6.5.6,2,0,3.3-.2.7-.6,1.1-1,1.4Z"/><path class="cls-7" d="m127.5,154c-.4.2-.8.2-1.1-.1-.9-.9-2.1-.9-3.3-.2s-2.5,2.2-3.3,4c-.6,1.2-1.6,1.8-2.2,1.2-.6-.5-.6-2,0-3.3,1.5-3.1,3.4-5.4,5.5-6.7,2.1-1.2,4-1.1,5.5.3.6.5.6,2,0,3.3-.3.8-.7,1.2-1.1,1.5Z"/><path class="cls-7" d="m123.1,157.9c1.2-.6,2,.2,2,1.9s-.9,3.7-2,4.3c-1.2.6-2-.2-2-1.9s.9-3.7,2-4.3Z"/><path class="cls-7" d="m135.9,136.4c-.4.2-.8.2-1.1-.1-6.5-6.1-16.9-.1-23.4,13.5-.6,1.2-1.6,1.8-2.2,1.2s-.6-2,0-3.3c3.7-7.9,8.6-13.8,13.9-16.8,5.2-3,10.2-2.7,13.8.8.6.5.6,2,0,3.3-.2.7-.6,1.2-1,1.4Z"/></g></g><path class="cls-7" d="m99.1,92.7h0c0-.2-.3-.4-.6-.4s-.6.2-.6.3h0l-1.8,30.6h0v.1c0,.5,1.2,1,2.6,1s2.6-.5,2.6-1l-2.2-30.6Z"/></g><g><path class="cls-18" d="m94.8,196.5l-7.6-4.7c-1.2-.7-1.9-1.9-1.9-3.3l-.3-57.7c0-2.5,1.4-4.8,3.6-6l50.6-28.2c1-.5,2.2-.7,3.3-.5l6.9,3.5-54.6,96.9Z"/><path class="cls-26" d="m92.5,135.1v58.1c0,2.8,3,4.5,5.4,3.1l50.6-29.2c1.7-1,2.8-2.9,2.8-4.8l.1-59.5c0-2.4-2.6-4-4.7-2.7l-50.8,29.2c-2.1,1.1-3.4,3.4-3.4,5.8Z"/><g><g><path class="cls-11" d="m131.7,145.3c-.4.2-.8.2-1.1-.1-4.1-3.9-10.8-.1-15,8.6-.6,1.2-1.6,1.8-2.2,1.2s-.6-2,0-3.3c5.4-11.2,14-16.2,19.3-11.1.6.5.6,2,0,3.3-.2.7-.6,1.1-1,1.4Z"/><path class="cls-11" d="m127.5,154c-.4.2-.8.2-1.1-.1-.9-.9-2.1-.9-3.3-.2s-2.5,2.2-3.3,4c-.6,1.2-1.6,1.8-2.2,1.2-.6-.5-.6-2,0-3.3,1.5-3.1,3.4-5.4,5.5-6.7,2.1-1.2,4-1.1,5.5.3.6.5.6,2,0,3.3-.3.8-.7,1.2-1.1,1.5Z"/><path class="cls-11" d="m123.1,157.9c1.2-.6,2,.2,2,1.9s-.9,3.7-2,4.3c-1.2.6-2-.2-2-1.9s.9-3.7,2-4.3Z"/><path class="cls-11" d="m135.9,136.4c-.4.2-.8.2-1.1-.1-6.5-6.1-16.9-.1-23.4,13.5-.6,1.2-1.6,1.8-2.2,1.2s-.6-2,0-3.3c3.7-7.9,8.6-13.8,13.9-16.8,5.2-3,10.2-2.7,13.8.8.6.5.6,2,0,3.3-.2.7-.6,1.2-1,1.4Z"/></g><g><path class="cls-32" d="m131.7,145.3c-.4.2-.8.2-1.1-.1-4.1-3.9-10.8-.1-15,8.6-.6,1.2-1.6,1.8-2.2,1.2s-.6-2,0-3.3c5.4-11.2,14-16.2,19.3-11.1.6.5.6,2,0,3.3-.2.7-.6,1.1-1,1.4Z"/><path class="cls-32" d="m127.5,154c-.4.2-.8.2-1.1-.1-.9-.9-2.1-.9-3.3-.2s-2.5,2.2-3.3,4c-.6,1.2-1.6,1.8-2.2,1.2-.6-.5-.6-2,0-3.3,1.5-3.1,3.4-5.4,5.5-6.7,2.1-1.2,4-1.1,5.5.3.6.5.6,2,0,3.3-.3.8-.7,1.2-1.1,1.5Z"/><path class="cls-32" d="m123.1,157.9c1.2-.6,2,.2,2,1.9s-.9,3.7-2,4.3c-1.2.6-2-.2-2-1.9s.9-3.7,2-4.3Z"/><path class="cls-32" d="m135.9,136.4c-.4.2-.8.2-1.1-.1-6.5-6.1-16.9-.1-23.4,13.5-.6,1.2-1.6,1.8-2.2,1.2s-.6-2,0-3.3c3.7-7.9,8.6-13.8,13.9-16.8,5.2-3,10.2-2.7,13.8.8.6.5.6,2,0,3.3-.2.7-.6,1.2-1,1.4Z"/></g></g><path class="cls-15" d="m99.1,92.7h0c0-.2-.3-.4-.6-.4s-.6.2-.6.3h0l-1.8,30.6h0v.1c0,.5,1.2,1,2.6,1s2.6-.5,2.6-1l-2.2-30.6Z"/></g></g><path class="cls-30" d="m1507.2-1060.3L-1438.6,641.8l1.4,718.3L-232.3,664.8V149.9L-53.8,48.1v513.7l177.9-102.7-.2-51.4L1507.2-390.7v-669.6h0Zm-312.5,734l-133.8,77.3v-399.3l134.1-77.1-.3,399.1Z"/></g><g id="mur_entrée"><g id="mur"><polygon class="cls-10" points="2622.8 -468.4 -410 1282.7 -365.5 1309.2 2666.7 -442.5 2622.8 -468.4"/><path class="cls-30" d="m-366.4,1309.2l-.2,669.4,490.7-283.4v-514.7l889.1-509.5,3.1,509.1L2666.4,227.2l.4-669.5L-366.4,1309.2ZM1908.5,510.7l-713.7,412.1v-309l713.7-412.1v309Zm574.5-301.4l-124,70.8V-101.1l124-70.7V209.3Z"/></g></g></g></g><g class="cls-29"><g id="ETAGE"><path id="sol-2" class="cls-33" d="m1506.7-1111.7c-.2-.2-838.7,482-1249.1,720.5l-713.4-411.6L-2246.4,224.4l811.2,467.7L-365.9,1308.9,1194.6,407.6l1471.6-849.5c.2,0-1154.5-666.7-1159.5-669.8ZM525.6-287.5l-222.8-128.8,490.9-283.1,222.8,128.5-490.9,283.4Z"/><polygon class="cls-16" points="-322 -4.3 1507.2 -1060.6 1864.9 -854.9 34.7 201.9 -322 -4.3"/><g id="mur_enfant"><polygon class="cls-30" points="1551.9 -1137.8 1774.6 -1266.3 1774.6 -751.2 1594.2 -647.1 1908.5 -828.5 1908.5 -1549.7 124.2 -519.4 124.4 201.7 1551.9 -622.6 1551.9 -1137.8"/></g><g id="petite_chambre"><polygon class="cls-21" points="1885.5 -814.9 1774.6 -751.2 1751.7 -764.5 1751.7 -789.5 35.8 201.6 798.3 639.5 2622 -417 1909.6 -828.8 1885.5 -814.9"/></g><g id="mur_couloir"><polygon class="cls-5" points="-320.3 -571.4 -98.8 -442.4 -99.1 124.4 798.3 641.6 793.3 -81.9 -321.4 -728.7 -320.3 -571.4"/><g id="television"><polygon class="cls-31" points="65.8 -287.5 65.8 -69.9 337.2 86.6 337.2 -132.4 65.8 -287.5"/><polygon class="cls-17" points="79.3 -269.5 79.3 -81.9 323.9 59.1 323.9 -129.8 79.3 -269.5"/></g><g id="meuble_hifi"><polygon class="cls-17" points="79.5 73 -9.3 124.7 203.4 247.7 292.9 196.3 79.5 73"/><polygon class="cls-17" points="-9.3 130.3 190.8 246.8 194.5 242.6 -9.3 124.7 -9.3 130.3"/></g><polygon class="cls-17" points="-3.2 223.7 55.7 189.7 213.3 281.8 162.8 319.4 -3.2 223.7"/><polygon class="cls-17" points="54.3 228.8 54.3 89.8 59.8 92.9 60.1 229.2 54.3 228.8"/><g id="console"><polyline class="cls-9" points="60.5 133.6 105.1 108 105.1 29.6 60.5 56 60.5 133.6"/><polygon class="cls-30" points="47.3 126.1 60.5 133.6 60.5 56 47.3 48.4 47.3 126.1"/><polyline class="cls-4" points="47.3 48.4 60.5 56 105.1 29.6 92 22.3 47.3 48.4"/><line class="cls-13" x1="53" y1="59.1" x2="53" y2="91.2"/><circle class="cls-1" cx="53" cy="98.1" r=".9"/></g><g id="manette"><path class="cls-24" d="m105.3,124.5c-1.1-1.1-2.3-1.9-3.7-2.4-.2-.1-.2-.2-.2-.3q.1-.2.2-.4c.1-.2.2-.2.3-.2,1.6.5,3,1.4,4.1,2.6.1.1.1.3,0,.4s-.2.2-.3.2c-.1.2-.2.2-.4.1Z"/><path class="cls-24" d="m128.3,139c-1.1-1.1-2.3-1.9-3.7-2.4-.2-.1-.2-.2-.2-.3l.2-.4c.1-.2.2-.2.3-.2,1.6.5,3,1.4,4.1,2.6.1.1.1.3,0,.4-.1.1-.2.2-.3.2-.2.2-.4.2-.4.1Z"/><path class="cls-34" d="m105,128.2c.2-.2.4-.4.5-.6l.6-1.6c.2-.6,0-1.4-.6-1.8l-3.7-2.3c-.6-.4-1.4-.3-1.9.2l-1.7,1.8c-2.3,0-4.7,1-6.1,2.9l-7.2,8.4c-.2.2-.4.4-.5.6h0c-.2.2-.3.4-.4.6-1.2,2.4-.2,5.3,2.3,6.5,1.7.9,3.7.4,5.3-.5,1.9-1,7.1-3.4,7.1-3.4,2-.1,3.9-.9,5.3-2.4.3-.3.5-.7.9-1.1,1.3-2.1,1.3-5,.1-7.3Z"/><path class="cls-34" d="m121.4,138.5c.1-.2.2-.5.4-.7l1.2-1.2c.5-.5,1.2-.5,1.9-.2l3.7,2.3c.6.4.9,1.2.5,1.8l-.9,2.3c1,2.1,1,4.6-.1,6.8l-4.7,10c-.1.2-.2.5-.4.8h0c-.2.2-.3.4-.5.6-1.7,2.1-4.8,2.3-6.8.7-1.5-1.2-1.9-3.2-1.8-4.9.2-2.2.2-7.8.2-7.8-.8-1.8-.8-3.9,0-5.8l.6-1.2c1.4-2.3,4-3.6,6.7-3.5Z"/><polygon class="cls-34" points="104.6 127.5 121.9 138.4 113.7 151.1 94.7 139 104.6 127.5"/><circle class="cls-22" cx="108.5" cy="141" r="1.6"/><path class="cls-23" d="m103.5,132.6l-2.5-1.6,1.6-2.4c.2-.2.1-.5-.2-.6l-2.6-1.6c-.2-.2-.5-.1-.7.2l-1.6,2.4-2.5-1.6c-.2-.2-.5-.1-.7.2l-1.7,2.6c-.2.2-.1.5.2.6l2.5,1.6-1.6,2.4c-.2.2-.1.5.2.6l2.6,1.6c.2.2.5.1.7-.2l1.6-2.4,2.5,1.6c.2.2.5.1.7-.2l1.7-2.6c0-.1-.1-.4-.2-.6Z"/><path class="cls-23" d="m126.4,147.1l-2.5-1.6,1.6-2.4c.2-.2.1-.5-.2-.6l-2.6-1.6c-.2-.2-.5-.1-.7.2l-1.6,2.4-2.5-1.6c-.2-.2-.5-.1-.7.2l-1.7,2.6c-.2.2-.1.5.2.6l2.5,1.6-1.6,2.4c-.2.2-.1.5.2.6l2.6,1.6c.2.2.5.1.7-.2l1.6-2.4,2.5,1.6c.2.2.5.1.7-.2l1.7-2.6c.1-.1,0-.4-.2-.6Z"/><path class="cls-23" d="m106.7,137.6l-1.3-.8c-.1-.1-.2-.2-.1-.3l.4-.6c.1-.1.2-.2.3-.1l1.3.8c.1.1.2.2.1.3l-.4.6c-.1.1-.3.1-.3.1Z"/><path class="cls-23" d="m114,141.3l-1.1-1.2c-.1-.1-.2-.1-.3,0l-.5.8c-.1.1,0,.2.1.3l1.6.5c.2,0,.4-.2.2-.4Z"/><g><g><ellipse class="cls-34" cx="100.8" cy="140.8" rx="4.9" ry="4.8" transform="translate(-14.01 11.17) rotate(-5.93)"/><ellipse class="cls-34" cx="100.8" cy="140.8" rx="3.4" ry="3.3" transform="translate(-14.01 11.17) rotate(-5.93)"/></g><g><ellipse class="cls-34" cx="100.8" cy="140.8" rx="4.9" ry="4.8" transform="translate(-14.01 11.17) rotate(-5.93)"/><ellipse class="cls-20" cx="100.8" cy="140.8" rx="3.4" ry="3.3" transform="translate(-14.01 11.17) rotate(-5.93)"/></g></g><g><g><ellipse class="cls-34" cx="112.4" cy="148.2" rx="4.9" ry="4.8" transform="translate(-14.71 12.4) rotate(-5.93)"/><ellipse class="cls-34" cx="112.4" cy="148.2" rx="3.4" ry="3.3" transform="translate(-14.71 12.4) rotate(-5.93)"/></g><g><ellipse class="cls-34" cx="112.4" cy="148.2" rx="4.9" ry="4.8" transform="translate(-14.71 12.4) rotate(-5.93)"/><ellipse class="cls-20" cx="112.4" cy="148.2" rx="3.4" ry="3.3" transform="translate(-14.71 12.4) rotate(-5.93)"/></g></g><ellipse class="cls-34" cx="112.4" cy="148.2" rx="2.8" ry="2.7" transform="translate(-14.71 12.4) rotate(-5.93)"/><ellipse class="cls-34" cx="100.8" cy="140.8" rx="2.8" ry="2.7" transform="translate(-14.01 11.17) rotate(-5.93)"/><path class="cls-34" d="m97.3,130l.2,1.1c0,.2-.1.3-.2.3l-1.1.2h-.2l-1.2-.8c-.2-.1-.2-.2-.1-.4l.9-1.3c.1-.2.2-.2.4-.1l1.2.8s.1.1.1.2Z"/><path class="cls-34" d="m99.1,133.5l-.2-1.1c0-.2.1-.3.2-.3l1.1-.2h.2l1.2.8c.2.1.2.2.1.4l-.9,1.3c-.1.2-.2.2-.4.1l-1.2-.8c0-.1,0-.2-.1-.2Z"/><path class="cls-34" d="m96.5,132.6l1.1-.2c.2,0,.3.1.3.2l.2,1.1v.2l-.8,1.2c-.1.2-.2.2-.4.1l-1.3-.9c-.2-.1-.2-.2-.1-.4l.8-1.2s.1,0,.2-.1Z"/><path class="cls-34" d="m100,130.8l-1.1.2c-.2,0-.3-.1-.3-.2l-.2-1.1v-.2l.8-1.2c.1-.2.2-.2.4-.1l1.3.9c.2.1.2.2.1.4l-.8,1.2q-.1,0-.2.1Z"/><circle class="cls-22" cx="123.6" cy="143.3" r="1.6"/><circle class="cls-22" cx="119.8" cy="149.2" r="1.6"/><circle class="cls-22" cx="118.5" cy="144.2" r="1.6"/><circle class="cls-22" cx="124.7" cy="148.2" r="1.6"/></g></g><g id="mur_devant"><polygon class="cls-28" points="-411.2 562 -365.9 588 2666.3 -1163.6 2622.1 -1189.1 -411.2 562"/><path class="cls-30" d="m-366.6,588l.8,725.4L2666.3-435.6l.5-727.7L-366.6,588Zm133.8,231.8v-206L346.8,279.1l.2,205.8L-232.8,819.8ZM1014.8,201.7V-108.2l356.4-204.3.9,309-357.3,205.2ZM1416.9-28.4v-309.9l356.4-204.3.9,309L1416.9-28.4Z"/></g></g></g><g class="cls-2"><g id="ombre_toit"><polygon id="ombre_droite" class="cls-3" points="2666.8 -893.4 -366.6 832.7 -366.4 687.8 2666.8 -1047.4 2666.8 -893.4"/></g></g></g></g></g></svg>