<?xml version="1.0" encoding="utf-8"?>
<!-- Generator: Adobe Illustrator 27.2.0, SVG Export Plug-In . SVG Version: 6.00 Build 0)  -->
<svg version="1.1" xmlns="http://www.w3.org/2000/svg" xmlns:xlink="http://www.w3.org/1999/xlink" x="0px" y="0px"
	 viewBox="0 0 500 500" style="enable-background:new 0 0 500 500;" xml:space="preserve">
<style type="text/css">
	.st0{clip-path:url(#SVGID_00000072272004375787241760000017452290924161842621_);}
	.st1{clip-path:url(#SVGID_00000011009709316155154750000002193684160801877171_);}
	.st2{fill-rule:evenodd;clip-rule:evenodd;fill:#7D8187;}
	.st3{fill:#DFE3ED;}
	.st4{clip-path:url(#SVGID_00000011009709316155154750000002193684160801877171_);fill:#DFE3ED;}
	.st5{clip-path:url(#SVGID_00000011009709316155154750000002193684160801877171_);fill:#667384;}
	.st6{clip-path:url(#SVGID_00000011009709316155154750000002193684160801877171_);fill:#4A4C51;}
	.st7{fill:#F3F8FF;}
	
		.st8{clip-path:url(#SVGID_00000011009709316155154750000002193684160801877171_);fill-rule:evenodd;clip-rule:evenodd;fill:#F3F8FF;}
	
		.st9{clip-path:url(#SVGID_00000011009709316155154750000002193684160801877171_);fill-rule:evenodd;clip-rule:evenodd;fill:#D3D9E0;}
	.st10{clip-path:url(#SVGID_00000011009709316155154750000002193684160801877171_);fill:#D3D9E0;}
	.st11{opacity:0.64;clip-path:url(#SVGID_00000011009709316155154750000002193684160801877171_);fill:#DFE3ED;}
	.st12{clip-path:url(#SVGID_00000011009709316155154750000002193684160801877171_);fill:#EBEFF7;}
</style>
<g id="Calque_1">
	<g>
		<defs>
			<circle id="SVGID_1_" cx="250" cy="250" r="250"/>
		</defs>
		<clipPath id="SVGID_00000044858142600064120810000016611310665070672817_">
			<use xlink:href="#SVGID_1_"  style="overflow:visible;"/>
		</clipPath>
		<g style="clip-path:url(#SVGID_00000044858142600064120810000016611310665070672817_);">
			<defs>
				<rect id="SVGID_00000088099926088264038110000004495255608023071132_" width="500" height="500"/>
			</defs>
			<clipPath id="SVGID_00000007424780550807596900000009478498897179180945_">
				<use xlink:href="#SVGID_00000088099926088264038110000004495255608023071132_"  style="overflow:visible;"/>
			</clipPath>
			<g style="clip-path:url(#SVGID_00000007424780550807596900000009478498897179180945_);">
				<polygon class="st2" points="275.1,1486.8 421.8,1568 421.8,-561.4 275.1,-477.7 				"/>
				<path class="st3" d="M6885.3-5156.7L-5326.1,1898.9l5.9,2977.5l4994.6-2882.3V-140.2l740-422.2v2129.4l737.5-425.6l-1-212.9
					l5734.3-3309.6V-5156.7z M5589.9-2114.1l-554.7,320.3v-1655.3l555.8-319.7L5589.9-2114.1z"/>
			</g>
			
				<rect x="-33.8" y="-75.7" style="clip-path:url(#SVGID_00000007424780550807596900000009478498897179180945_);fill:#DFE3ED;" width="442.9" height="699.9"/>
			
				<rect style="clip-path:url(#SVGID_00000007424780550807596900000009478498897179180945_);fill:#667384;" width="308.9" height="500"/>
			
				<rect x="466.6" y="125" style="clip-path:url(#SVGID_00000007424780550807596900000009478498897179180945_);fill:#667384;" width="55.6" height="259.6"/>
			
				<rect x="458.5" y="112" style="clip-path:url(#SVGID_00000007424780550807596900000009478498897179180945_);fill:#4A4C51;" width="9.9" height="295.4"/>
			<g style="clip-path:url(#SVGID_00000007424780550807596900000009478498897179180945_);">
				<path class="st7" d="M396.3,326.7c-16.9,2.7-34.1,2.7-51,0c-4.1-0.7-7.5-4.7-7.4-8.8c0.2-52.2,0.4-104.3,0.6-156.5
					c0-4.1,3.3-8.1,7.3-8.8c16.6-2.6,33.5-2.6,50,0c4.1,0.7,7.3,4.7,7.3,8.8c0.2,52.2,0.4,104.3,0.6,156.5
					C403.8,322,400.5,326,396.3,326.7z"/>
			</g>
			
				<path style="clip-path:url(#SVGID_00000007424780550807596900000009478498897179180945_);fill-rule:evenodd;clip-rule:evenodd;fill:#F3F8FF;" d="
				M447.5,251.8h-25.7c-2.5,0-4.6-2.1-4.6-4.6V161c0-2.5,2.1-4.6,4.6-4.6h25.7c2.5,0,4.6,2.1,4.6,4.6v86.3
				C452,249.8,450,251.8,447.5,251.8z"/>
			
				<circle style="clip-path:url(#SVGID_00000007424780550807596900000009478498897179180945_);fill-rule:evenodd;clip-rule:evenodd;fill:#D3D9E0;" cx="370.8" cy="193.5" r="24.3"/>
			
				<circle style="clip-path:url(#SVGID_00000007424780550807596900000009478498897179180945_);fill-rule:evenodd;clip-rule:evenodd;fill:#F3F8FF;" cx="370.8" cy="193.5" r="21.7"/>
			<path style="clip-path:url(#SVGID_00000007424780550807596900000009478498897179180945_);fill:#D3D9E0;" d="M392.7,234.8h-43.8
				c-0.7,0-1.3-0.6-1.3-1.3l0,0c0-0.7,0.6-1.3,1.3-1.3h43.8c0.7,0,1.3,0.6,1.3,1.3l0,0C394,234.2,393.4,234.8,392.7,234.8z"/>
			<path style="clip-path:url(#SVGID_00000007424780550807596900000009478498897179180945_);fill:#D3D9E0;" d="M392.7,253.3h-43.8
				c-0.7,0-1.3-0.6-1.3-1.3l0,0c0-0.7,0.6-1.3,1.3-1.3h43.8c0.7,0,1.3,0.6,1.3,1.3l0,0C394,252.7,393.4,253.3,392.7,253.3z"/>
			<path style="clip-path:url(#SVGID_00000007424780550807596900000009478498897179180945_);fill:#D3D9E0;" d="M392.7,244.1h-43.8
				c-0.7,0-1.3-0.6-1.3-1.3l0,0c0-0.7,0.6-1.3,1.3-1.3h43.8c0.7,0,1.3,0.6,1.3,1.3l0,0C394,243.5,393.4,244.1,392.7,244.1z"/>
			
				<polygon style="opacity:0.64;clip-path:url(#SVGID_00000007424780550807596900000009478498897179180945_);fill:#DFE3ED;" points="
				117.1,0 -14.3,178.3 0,366.3 208.7,0 			"/>
			
				<polygon style="opacity:0.64;clip-path:url(#SVGID_00000007424780550807596900000009478498897179180945_);fill:#DFE3ED;" points="
				0,437.4 245.6,0 308.9,0 308.9,135.1 113,500 0,500 			"/>
			
				<rect x="301" style="clip-path:url(#SVGID_00000007424780550807596900000009478498897179180945_);fill:#4A4C51;" width="10.6" height="500"/>
			
				<rect x="311.4" style="clip-path:url(#SVGID_00000007424780550807596900000009478498897179180945_);fill:#EBEFF7;" width="10.9" height="500"/>
		</g>
	</g>
</g>
<g id="Calque_2">
</g>
</svg>
