<?xml version="1.0" encoding="UTF-8"?><svg id="Calque_2" xmlns="http://www.w3.org/2000/svg" xmlns:xlink="http://www.w3.org/1999/xlink" viewBox="0 0 152.4 152.4"><defs><style>.cls-1{fill:#b9b9c6;}.cls-2{fill:#ddddf2;}.cls-3{clip-path:url(#clippath-1);}.cls-4{fill:#a7a7b5;}.cls-5{fill:#d0d0df;}.cls-6{fill:none;}.cls-7{fill:#3860ba;}.cls-8{fill:#c7bfb9;}.cls-9{fill:#f7efe8;fill-rule:evenodd;}.cls-10{fill:#fbf5e9;}</style><clipPath id="clippath-1"><circle class="cls-6" cx="76.2" cy="76.2" r="76.2"/></clipPath></defs><g id="Calque_1-2"><g id="Calque_2-2"><g class="cls-3"><g id="SOUS_SOL"><polygon id="sol" class="cls-8" points="-775.1 -206 -2565.7 821.2 -1754.6 1288.9 -1754.6 1288.9 -1754.6 1288.9 -685.2 1905.7 1098.4 862.6 -775.1 -206"/><g id="droite_1"><polygon class="cls-10" points="-730.2 -178.5 -729.9 -745.6 1054.3 283.4 1054.1 851.4 -730.2 -178.5"/><polygon class="cls-9" points="-774.5 -771.5 -729.9 -797.1 1134.8 279.4 1088.5 305.1 -774.5 -771.5"/></g><g id="canalisation"><rect class="cls-4" x="62" y="-249.3" width="55.4" height="579"/><path class="cls-1" d="m117.3,67.2c0,10.5-12.4,19-27.6,19s-27.6-9.6-27.6-20.1l-.2.1c-1,.6-1.6,1.7-1.5,2.8l.5,10.7s13.8,12.7,31.4,12.7,26.1-18.3,26.1-18.3c0,0,.5-4.1.5-5.8,0-3.2-1.6-3.8-1.6-3.8v2.7Z"/><path class="cls-5" d="m119.1,81.5c0,11.1-13.1,20.1-29.3,20.1s-29.3-9-29.3-20.1l.1-12.8c0,11.1,13.1,19.7,29.2,19.7s29.3-9,29.3-20.1c0,0,0,13.2,0,13.2Z"/><circle class="cls-1" cx="89.8" cy="95.3" r="5.6"/><g id="Calque_179"><ellipse class="cls-5" cx="89.8" cy="96.9" rx="5.8" ry="5.6"/><rect class="cls-2" x="87.1" y="59.3" width="5.9" height="37.9"/></g><path class="cls-7" d="m93.1,81.8h-6.1c-.1,0-.2-.1-.2-.2v-22.3c0-1.2,1-2.2,2.2-2.2h2.1c1.2,0,2.2,1,2.2,2.2v22.2c0,.2-.1.3-.2.3Z"/><circle class="cls-2" cx="90.1" cy="97" r="3"/></g></g></g></g></g></svg>