<?xml version="1.0" encoding="UTF-8"?><svg id="Calque_2" xmlns="http://www.w3.org/2000/svg" xmlns:xlink="http://www.w3.org/1999/xlink" viewBox="0 0 148 148"><defs><style>.cls-1{fill:#f0f0f0;}.cls-2{isolation:isolate;opacity:.22;}.cls-2,.cls-3,.cls-4,.cls-5,.cls-6,.cls-7,.cls-8,.cls-9,.cls-10,.cls-11,.cls-12{fill-rule:evenodd;}.cls-3{fill:#b7aba7;}.cls-4{fill:#7b7e8f;}.cls-13{fill:#7e8298;}.cls-14{clip-path:url(#clippath-7);}.cls-5{fill:#8d909e;}.cls-15{clip-path:url(#clippath-4);}.cls-6{fill:#7d8dad;}.cls-7{fill:#babdd1;}.cls-8{fill:#868ab0;}.cls-16{fill:#b8ccca;}.cls-9{fill:#eae9e8;}.cls-17{fill:none;}.cls-18{clip-path:url(#clippath-3);}.cls-10{fill:#dbdad9;}.cls-19{clip-path:url(#clippath-8);}.cls-20{fill:#f7f7f7;}.cls-21{fill:#778d9e;}.cls-11,.cls-22{fill:#ededed;}.cls-23{fill:#dfe3ed;}.cls-24{clip-path:url(#clippath-5);}.cls-25{fill:#8594c9;}.cls-12{fill:#a5a19d;}</style><clipPath id="clippath-2"><circle class="cls-17" cx="74" cy="74" r="74"/></clipPath><clipPath id="clippath-3"><circle class="cls-17" cx="74" cy="74" r="74"/></clipPath><clipPath id="clippath-4"><circle class="cls-17" cx="74" cy="74" r="74"/></clipPath><clipPath id="clippath-5"><circle class="cls-17" cx="74" cy="74" r="74"/></clipPath><clipPath id="clippath-7"><circle class="cls-17" cx="74" cy="74" r="74"/></clipPath><clipPath id="clippath-8"><circle class="cls-17" cx="74" cy="74" r="74"/></clipPath></defs><g id="Calque_1-2"><g id="Calque_2-2"><g><g class="cls-18"><g id="RDC"><g id="sol"><polygon class="cls-9" points="-1052.9 681.5 374.7 -143 -695.1 -760.2 -2122.1 63.4 -1052.9 681.5"/></g><polygon class="cls-3" points="-1052.9 681.5 -1052.9 733 419 -117.3 419 -168.6 -1052.9 681.5"/><g id="mur_entrée"><g id="mur"><polygon class="cls-11" points="375.4 -812.6 -2657.4 938.5 -2612.9 965 419.3 -786.7 375.4 -812.6"/><path class="cls-23" d="m-2613.8,965l-.2,669.4,490.7-283.4v-514.7l889.1-509.5,3.1,509.1L419-117l.4-669.5L-2613.8,965ZM-338.9,166.5l-713.7,412.1v-309L-338.9-142.5V166.5h0ZM235.6-134.9l-124,70.8v-381.2l124-70.7V-134.9Z"/></g></g><g id="Calque_7"><polygon class="cls-10" points="-171.9 234.8 6.5 131.3 40.5 151 -137.9 254.4 -171.9 234.8"/><g><polygon class="cls-10" points="-205.4 192.3 -26.7 89.2 6.9 108.5 -171.5 211.9 -205.4 192.3"/><polygon class="cls-12" points="6.9 108.5 6.5 131.3 -171.9 234.8 -171.5 211.9 6.9 108.5"/></g></g></g></g><g class="cls-15"><g id="EXTERIEUR"><g id="spots"><g><ellipse class="cls-21" cx="67" cy="136.4" rx="14.5" ry="8.4"/><rect class="cls-1" x="52.6" y="36.8" width="28.9" height="26.5"/><rect class="cls-21" x="52.6" y="63.4" width="28.9" height="73.2"/><ellipse class="cls-20" cx="67" cy="36.8" rx="14.5" ry="8.4"/><ellipse class="cls-1" cx="67" cy="63.4" rx="14.5" ry="8.4"/><ellipse class="cls-21" cx="67" cy="36.8" rx="14.5" ry="8.4"/></g></g></g></g><g class="cls-24"><g id="ETAGE"><path id="sol-2" class="cls-25" d="m-740.7-1455.9c-.2-.2-838.7,482-1249.1,720.5l-713.4-411.6L-4493.8-119.8l811.2,467.7,1069.3,616.8L-1052.8,63.4,418.8-786.1c.2,0-1154.5-666.7-1159.5-669.8Zm-981.1,824.2l-222.8-128.8,490.9-283.1,222.8,128.5-490.9,283.4Z"/><g id="petite_chambre"><polygon class="cls-16" points="-361.9 -1159.1 -472.8 -1095.4 -495.7 -1108.7 -495.7 -1133.7 -2211.6 -142.6 -1449.1 295.3 374.6 -761.2 -337.8 -1173 -361.9 -1159.1"/></g><g id="mur_devant"><polygon class="cls-22" points="-2658.6 217.8 -2613.3 243.8 418.9 -1507.8 374.7 -1533.3 -2658.6 217.8"/><path class="cls-23" d="m-2614,243.8l.8,725.4L418.9-779.8l.5-727.7L-2614,243.8Zm133.8,231.8v-206L-1900.6-65.1l.2,205.8-579.8,334.9ZM-1232.6-142.5v-309.9l356.4-204.3.9,309-357.3,205.2Zm402.1-230.1v-309.9l356.4-204.3.9,309-357.3,205.2Z"/></g></g></g><g class="cls-14"><g id="ombre_toit"><polygon id="ombre_droite" class="cls-2" points="419.4 -1237.6 -2614 488.5 -2613.8 343.6 419.4 -1391.6 419.4 -1237.6"/></g></g><g class="cls-19"><g id="TOIT"><path id="sol-3" class="cls-13" d="m-741.4-2176.7c-.2-.2-838.7,482-1249.1,720.5l-713.3-411.6-1790.6,1027.1,811.2,467.7h0L-2613.9,243.8l1560.5-901.3L418.2-1507c.1-.1-1154.6-666.8-1159.6-669.7Z"/><g id="gouttière"><polygon class="cls-4" points="-2613.9 424 483.2 -1364.2 407.3 -1396.8 -2614 323.4 -2613.9 424"/></g><g id="rebord"><polygon class="cls-7" points="-4569 -826.1 -4569 -778.6 -2614 367.1 476.5 -1454.4 476.2 -1474.7 -2613.2 307.9 -4569 -826.1"/><polygon class="cls-5" points="-2613.2 307.9 -2614 367.1 476.5 -1404.8 476.2 -1474.7 -2613.2 307.9"/><polygon class="cls-8" points="-4549.3 -828.3 -2613.3 295.2 464 -1481.7 476.3 -1474.6 -2613.2 307.9 -4569 -826.1 -4549.3 -828.3"/></g><g id="toiture"><polygon class="cls-6" points="-205.4 -2125.4 -2435.4 -838 -2614 295.3 464 -1481.7 -205.4 -2125.4"/></g></g></g></g></g></g></svg>