<?xml version="1.0" encoding="UTF-8"?><svg id="Calque_2" xmlns="http://www.w3.org/2000/svg" xmlns:xlink="http://www.w3.org/1999/xlink" viewBox="0 0 348.8 348.8"><defs><style>.cls-1{fill:#575450;}.cls-2{fill:#7d7a76;}.cls-3{fill:#b8c1cc;}.cls-4{stroke:#7d7873;stroke-linecap:round;stroke-miterlimit:7.77;stroke-width:3.11px;}.cls-4,.cls-5{fill:none;}.cls-6{clip-path:url(#clippath-1);}.cls-7{fill:#f7efe8;}.cls-8{fill:#fafafc;}.cls-9{fill:#c7d0dd;}.cls-10{fill:#dabfac;}.cls-11{fill:#c7bfb9;}.cls-12{fill:#fbf5e9;}.cls-13{fill:#dadeea;}</style><clipPath id="clippath-1"><circle class="cls-5" cx="174.4" cy="174.4" r="174.4"/></clipPath></defs><g id="Calque_1-2"><g id="Calque_2-2"><g class="cls-6"><g id="SOUS_SOL"><polygon id="sol" class="cls-11" points="485.2 -498 -1305.4 529.2 -494.3 996.9 -494.3 996.9 -494.3 996.9 575.1 1613.7 2358.7 570.6 485.2 -498"/><g id="arriere_1"><polygon class="cls-10" points="530.4 -1037.6 535.2 -471.6 -1260 550.7 -1260.6 -10.7 530.4 -1037.6"/></g><g id="gauche"><polygon class="cls-12" points="-1305.4 -37.1 -1305.4 526.3 575.3 1613.7 574.9 1049.9 -1305.4 -37.1"/><polygon class="cls-7" points="619.7 1024.1 -1259.3 -61.9 -1305.4 -37.1 574.9 1049.9 619.7 1024.1"/></g><g id="separation"><polygon class="cls-7" points="-476.6 -458 -431.9 -483.7 636 142.1 605.1 160 -476.6 -458"/><polygon class="cls-12" points="-476.9 109 -476.6 -458 605.1 160 605 728 -476.9 109"/></g><g id="armoire_elec"><g id="Calque_151"><polygon class="cls-8" points="110.2 29.6 84.3 44.5 258.6 145.6 286.1 130 110.2 29.6"/><polygon class="cls-13" points="84.3 211.6 84.3 44.5 258.6 145.6 258.6 312.6 84.3 211.6"/><polygon class="cls-9" points="286.1 130 285.8 296.5 258.6 312.6 258.6 145.6 286.1 130"/></g><g><polygon class="cls-3" points="244.2 195.2 96.9 114.5 96.9 121.9 244.2 203.9 244.2 195.2"/><polygon class="cls-13" points="96.9 76 240.5 160 240.5 197.3 96.9 118.3 96.9 76"/><polygon class="cls-9" points="244.2 157.7 240.5 160 96.9 76 100.9 73.9 244.2 157.7"/><polygon class="cls-9" points="240.5 197.3 244.2 195.2 244.2 157.7 240.5 160 240.5 197.3"/><g><path class="cls-2" d="m227.9,184c-3.2,0-5.8-2.6-5.8-5.8s2.6-5.8,5.8-5.8"/><polyline class="cls-2" points="227.9 172.4 233 175.3 230.6 186.4 225.4 183.5"/><path class="cls-1" d="m233,175.3c-3.2,0-5.8,2.6-5.8,5.8s2.6,5.8,5.8,5.8"/><line class="cls-4" x1="223.7" y1="183.3" x2="232.2" y2="187.9"/></g><g><path class="cls-2" d="m212.1,175.6c-3.2,0-5.8-2.6-5.8-5.8s2.6-5.8,5.8-5.8"/><polyline class="cls-2" points="212.1 164 217.2 166.9 214.7 178 209.6 175.1"/><path class="cls-1" d="m217.2,166.9c-3.2,0-5.8,2.6-5.8,5.8s2.6,5.8,5.8,5.8"/><line class="cls-4" x1="207.7" y1="174.9" x2="216.3" y2="179.5"/></g><g><path class="cls-2" d="m114.3,121.2c-3.2,0-5.8-2.6-5.8-5.8s2.6-5.8,5.8-5.8"/><polyline class="cls-2" points="114.3 109.6 119.5 112.4 117 123.6 111.8 120.7"/><path class="cls-1" d="m119.5,112.4c-3.2,0-5.8,2.6-5.8,5.8s2.6,5.8,5.8,5.8"/><line class="cls-4" x1="110" y1="120.4" x2="118.6" y2="125.1"/></g><g><path class="cls-2" d="m128.3,129c-3.2,0-5.8-2.6-5.8-5.8s2.6-5.8,5.8-5.8"/><polyline class="cls-2" points="128.3 117.3 133.4 120.2 131 131.3 125.8 128.5"/><path class="cls-1" d="m133.4,120.2c-3.2,0-5.8,2.6-5.8,5.8s2.6,5.8,5.8,5.8"/><line class="cls-4" x1="123.9" y1="128.2" x2="132.6" y2="132.9"/></g><g><path class="cls-2" d="m142.3,136.8c-3.2,0-5.8-2.6-5.8-5.8s2.6-5.8,5.8-5.8"/><polyline class="cls-2" points="142.3 125.1 147.4 128 144.9 139.1 139.8 136.2"/><path class="cls-1" d="m147.4,128c-3.2,0-5.8,2.6-5.8,5.8s2.6,5.8,5.8,5.8"/><line class="cls-4" x1="137.9" y1="136" x2="146.5" y2="140.7"/></g><g><path class="cls-2" d="m156.2,144.5c-3.2,0-5.8-2.6-5.8-5.8s2.6-5.8,5.8-5.8"/><polyline class="cls-2" points="156.2 132.9 161.3 135.8 158.9 146.9 153.7 144"/><path class="cls-1" d="m161.3,135.8c-3.2,0-5.8,2.6-5.8,5.8s2.6,5.8,5.8,5.8"/><line class="cls-4" x1="151.9" y1="143.8" x2="160.5" y2="148.4"/></g><g><path class="cls-2" d="m170.2,152.3c-3.2,0-5.8-2.6-5.8-5.8s2.6-5.8,5.8-5.8"/><polyline class="cls-2" points="170.2 140.7 175.3 143.5 172.9 154.7 167.7 151.8"/><path class="cls-1" d="m175.3,143.5c-3.2,0-5.8,2.6-5.8,5.8s2.6,5.8,5.8,5.8"/><line class="cls-4" x1="165.8" y1="151.5" x2="174.4" y2="156.2"/></g><g><path class="cls-2" d="m184.1,160.1c-3.2,0-5.8-2.6-5.8-5.8s2.6-5.8,5.8-5.8"/><polyline class="cls-2" points="184.1 148.4 189.3 151.3 186.8 162.4 181.6 159.5"/><path class="cls-1" d="m189.3,151.3c-3.2,0-5.8,2.6-5.8,5.8s2.6,5.8,5.8,5.8"/><line class="cls-4" x1="179.8" y1="159.3" x2="188.4" y2="164"/></g><g><path class="cls-2" d="m198.1,167.9c-3.2,0-5.8-2.6-5.8-5.8s2.6-5.8,5.8-5.8"/><polyline class="cls-2" points="198.1 156.2 203.2 159.1 200.8 170.2 195.6 167.3"/><path class="cls-1" d="m203.2,159.1c-3.2,0-5.8,2.6-5.8,5.8s2.6,5.8,5.8,5.8"/><line class="cls-4" x1="193.8" y1="167.1" x2="202.4" y2="171.8"/></g></g><g><polygon class="cls-3" points="244.2 254.8 96.9 174.1 96.9 181.5 244.2 263.5 244.2 254.8"/><polygon class="cls-13" points="96.9 135.6 240.5 219.6 240.5 256.9 96.9 177.8 96.9 135.6"/><polygon class="cls-9" points="244.2 217.2 240.5 219.6 96.9 135.6 100.9 133.5 244.2 217.2"/><polygon class="cls-9" points="240.5 256.9 244.2 254.8 244.2 217.2 240.5 219.6 240.5 256.9"/><g><path class="cls-2" d="m227.9,243.7c-3.2,0-5.8-2.6-5.8-5.8s2.6-5.8,5.8-5.8"/><polyline class="cls-2" points="227.9 231.9 233 234.8 230.6 246 225.4 243"/><path class="cls-1" d="m233,234.8c-3.2,0-5.8,2.6-5.8,5.8s2.6,5.8,5.8,5.8"/><line class="cls-4" x1="223.7" y1="242.8" x2="232.2" y2="247.5"/></g><g><path class="cls-2" d="m212.1,235.3c-3.2,0-5.8-2.6-5.8-5.8s2.6-5.8,5.8-5.8"/><polyline class="cls-2" points="212.1 223.6 217.2 226.5 214.7 237.6 209.6 234.7"/><path class="cls-1" d="m217.2,226.5c-3.2,0-5.8,2.6-5.8,5.8s2.6,5.8,5.8,5.8"/><line class="cls-4" x1="207.7" y1="234.4" x2="216.3" y2="239.2"/></g><g><path class="cls-2" d="m114.3,180.9c-3.2,0-5.8-2.6-5.8-5.8s2.6-5.8,5.8-5.8"/><polyline class="cls-2" points="114.3 169.1 119.5 172 117 183.2 111.8 180.2"/><path class="cls-1" d="m119.5,172c-3.2,0-5.8,2.6-5.8,5.8s2.6,5.8,5.8,5.8"/><line class="cls-4" x1="110" y1="180" x2="118.6" y2="184.7"/></g><g><path class="cls-2" d="m128.3,188.6c-3.2,0-5.8-2.6-5.8-5.8s2.6-5.8,5.8-5.8"/><polyline class="cls-2" points="128.3 176.9 133.4 179.8 131 191 125.8 188"/><path class="cls-1" d="m133.4,179.8c-3.2,0-5.8,2.6-5.8,5.8s2.6,5.8,5.8,5.8"/><line class="cls-4" x1="123.9" y1="187.8" x2="132.6" y2="192.4"/></g><g><path class="cls-2" d="m142.3,196.4c-3.2,0-5.8-2.6-5.8-5.8s2.6-5.8,5.8-5.8"/><polyline class="cls-2" points="142.3 184.7 147.4 187.5 144.9 198.7 139.8 195.9"/><path class="cls-1" d="m147.4,187.5c-3.2,0-5.8,2.6-5.8,5.8s2.6,5.8,5.8,5.8"/><line class="cls-4" x1="137.9" y1="195.5" x2="146.5" y2="200.3"/></g><g><path class="cls-2" d="m156.2,204.2c-3.2,0-5.8-2.6-5.8-5.8s2.6-5.8,5.8-5.8"/><polyline class="cls-2" points="156.2 192.4 161.3 195.3 158.9 206.5 153.7 203.6"/><path class="cls-1" d="m161.3,195.3c-3.2,0-5.8,2.6-5.8,5.8s2.6,5.8,5.8,5.8"/><line class="cls-4" x1="151.9" y1="203.3" x2="160.5" y2="208.1"/></g><g><path class="cls-2" d="m170.2,211.9c-3.2,0-5.8-2.6-5.8-5.8s2.6-5.8,5.8-5.8"/><polyline class="cls-2" points="170.2 200.3 175.3 203.2 172.9 214.3 167.7 211.4"/><path class="cls-1" d="m175.3,203.2c-3.2,0-5.8,2.6-5.8,5.8s2.6,5.8,5.8,5.8"/><line class="cls-4" x1="165.8" y1="211.1" x2="174.4" y2="215.8"/></g><g><path class="cls-2" d="m184.1,219.7c-3.2,0-5.8-2.6-5.8-5.8s2.6-5.8,5.8-5.8"/><polyline class="cls-2" points="184.1 208.1 189.3 210.9 186.8 222.1 181.6 219.2"/><path class="cls-1" d="m189.3,210.9c-3.2,0-5.8,2.6-5.8,5.8s2.6,5.8,5.8,5.8"/><line class="cls-4" x1="179.8" y1="218.9" x2="188.4" y2="223.6"/></g><g><path class="cls-2" d="m198.1,227.5c-3.2,0-5.8-2.6-5.8-5.8s2.6-5.8,5.8-5.8"/><polyline class="cls-2" points="198.1 215.8 203.2 218.7 200.8 229.8 195.6 227"/><path class="cls-1" d="m203.2,218.7c-3.2,0-5.8,2.6-5.8,5.8s2.6,5.8,5.8,5.8"/><line class="cls-4" x1="193.8" y1="226.6" x2="202.4" y2="231.4"/></g></g><path class="cls-9" d="m98.2,207.7c0,2.6-1.7,3.9-3.8,2.8-2-1-3.7-4-3.7-6.5s1.7-3.9,3.7-2.9c2.1,1.1,3.8,4.1,3.8,6.6Z"/><path class="cls-9" d="m252.3,296c0,2.6-1.7,3.9-3.8,2.8-2-1-3.7-4-3.7-6.5s1.7-3.9,3.7-2.9c2.1,1.1,3.8,4,3.8,6.6Z"/><path class="cls-9" d="m98.2,64.1c0,2.6-1.7,3.9-3.8,2.8-2-1-3.7-4-3.7-6.5s1.7-3.9,3.7-2.9c2.1,1,3.8,3.9,3.8,6.6Z"/><path class="cls-9" d="m252.3,152.3c0,2.6-1.7,3.9-3.8,2.8-2-1-3.7-4-3.7-6.5s1.7-3.9,3.7-2.9c2.2,1,3.8,4,3.8,6.6Z"/></g></g></g></g></g></svg>