<?xml version="1.0" encoding="UTF-8"?><svg id="Calque_2" xmlns="http://www.w3.org/2000/svg" xmlns:xlink="http://www.w3.org/1999/xlink" viewBox="0 0 383.8 383.8"><defs><style>.cls-1,.cls-2{fill:#f2d2a7;}.cls-3{fill:#fff5e2;}.cls-3,.cls-4,.cls-5,.cls-6,.cls-7,.cls-8,.cls-9,.cls-2,.cls-10,.cls-11,.cls-12,.cls-13,.cls-14,.cls-15,.cls-16{fill-rule:evenodd;}.cls-4{fill:#e1a084;}.cls-17{fill:#c99d9d;}.cls-18{fill:#d8deed;}.cls-19{fill:#9895b7;}.cls-5{fill:#e5e5e5;}.cls-20{fill:#9a95c9;}.cls-21{fill:#95c0c9;}.cls-6{fill:#8f8989;}.cls-7{fill:#e8d5be;}.cls-22{fill:#a3bfbf;}.cls-23{fill:#6d6d84;}.cls-8{fill:#bc7a6c;}.cls-9{fill:#aabbce;opacity:.5;}.cls-9,.cls-15{isolation:isolate;}.cls-24{fill:#b79595;}.cls-25{fill:#737b80;}.cls-10{fill:#eae9e8;}.cls-26{fill:none;}.cls-11{fill:#d1bba7;}.cls-27{clip-path:url(#clippath-3);}.cls-12{fill:#ffc49a;}.cls-28{fill:#95b1b7;}.cls-13{fill:#edecdf;}.cls-29{fill:#ce967f;}.cls-14{fill:#ededed;}.cls-30{fill:#dfe3ed;}.cls-31{fill:#e6e6ed;}.cls-15{opacity:0;}.cls-16{fill:#e1b999;}</style><clipPath id="clippath-3"><circle class="cls-26" cx="191.9" cy="191.9" r="191.9"/></clipPath></defs><g id="Calque_1-2"><g id="Calque_2-2"><g class="cls-27"><g id="RDC"><g id="sol"><polygon class="cls-10" points="125.5 1604.8 1553.1 780.3 483.3 163.1 -943.7 986.7 125.5 1604.8"/></g><g id="mur_du_fond"><polygon class="cls-14" points="482.9 -507.2 433.4 -535.5 -2555.7 1193.2 -2507.6 1220.9 -1034 368.5 482.9 -507.2"/><polygon id="plainte" class="cls-29" points="-944.8 986.5 438.5 188.4 438.5 168.4 -944.8 961.2 -944.8 986.5"/><g id="fenetre"><polygon class="cls-5" points="1.9 136.8 112.3 72.3 112.3 -117 1.9 -53.4 1.9 136.8"/><polygon class="cls-4" points="1.7 307.1 116 239.8 107.3 236.7 1.7 296.9 1.7 307.1"/><polygon class="cls-12" points="107.3 236.7 103.7 -112.1 116.2 -119.2 116 239.8 107.3 236.7"/><polygon class="cls-9" points="-3.9 -62.8 1.7 302.9 111 238 109.6 -123.6 -3.9 -62.8"/></g><path class="cls-8" d="m-8.1-69.2v400.7l133.8-77.3.2-400.5L-8.1-69.2ZM116,239.8L1.7,307.1V-53.4l114.5-65.8-.2,359Z"/><path class="cls-30" d="m438.2-481.2l-2945.8,1702.1,1.4,718.3,1204.9-695.3v-514.9l178.5-101.8v513.7l177.9-102.7-.2-51.4L438.2,188.4V-481.2ZM125.7,252.8L-8.1,330.1V-69.2l134.1-77.1-.3,399.1Z"/></g><g id="meuble"><polyline class="cls-15" points="429.9 191.7 519.6 243.2 348.6 341.9 251.4 295.2 429.9 191.7"/><g><polyline class="cls-1" points="337.4 223.7 514.5 120.5 430.1 71.7 252.4 174.3 341.3 226"/><polyline class="cls-3" points="348.6 215.2 514.5 120.5 514.5 126.1 347.9 222.2 347.9 217.7"/></g><g><polyline class="cls-1" points="337.4 337.8 514.5 234.5 430.1 185.9 252.4 288.5 341.3 340.1"/><polyline class="cls-3" points="348.6 329.3 514.5 234.5 514.5 240.1 347.9 336.3 347.9 331.7"/></g><g><polyline class="cls-1" points="337.4 85.3 514.5 -18.1 430.1 -66.7 252.4 35.9 341.3 87.5"/><polyline class="cls-3" points="348.6 76.7 514.5 -18.1 514.5 -12.5 347.9 83.7 347.9 79.1"/></g><g id="Calque_160"><g><polygon class="cls-30" points="335.9 96.4 374.2 118.1 381.8 113.2 344.7 91.9 335.9 96.4"/><polygon class="cls-24" points="334.7 95.6 334.7 152.5 374.2 176.4 374.2 118.1 334.7 95.6"/><polygon class="cls-17" points="374.2 176.4 381.8 171.8 381.8 113.2 374.2 118.1 374.2 176.4"/></g><g><polygon class="cls-18" points="319.3 119.2 360.7 134.6 367.3 128.5 327.3 113.3 319.3 119.2"/><polygon class="cls-25" points="318.1 118.7 327.2 174.8 369.9 192.2 360.7 134.6 318.1 118.7"/><polygon class="cls-22" points="369.9 192.2 376.7 186.3 367.3 128.5 360.7 134.6 369.9 192.2"/></g></g><g id="Calque_161"><polygon class="cls-23" points="466.5 -31 408.1 3.9 364.5 -21.6 425.4 -56.4 466.5 -31"/><polygon class="cls-23" points="466.5 -21.2 408.1 13.6 364.5 -11.8 425.4 -46.7 466.5 -21.2"/><polygon class="cls-31" points="367 -20.1 367 -11.6 408.1 12.3 408.1 3.9 367 -20.1"/></g><g><polygon class="cls-28" points="325.2 -62.8 327.9 11 380.4 40.2 377.6 -35.5 325.2 -62.8"/><polygon class="cls-21" points="380.4 40.2 390 33.8 387.2 -42.3 377.6 -35.5 380.4 40.2"/></g><g><polygon class="cls-19" points="306.6 -28.6 310.1 28.1 350.9 49.7 347.4 -8.6 306.6 -28.6"/><polygon class="cls-20" points="350.9 49.7 358.3 44.5 354.7 -13.9 347.4 -8.6 350.9 49.7"/></g><polygon class="cls-16" points="251.4 -117 251.4 295.2 340.9 346.4 341.1 -65.8 251.4 -117"/><polygon class="cls-2" points="348.6 341.9 340.9 346.4 341.1 -65.8 347.2 -62.8 348.6 341.9"/></g><g id="enceintes"><g id="enceinte_B"><g><polyline class="cls-8" points="136.6 368 211.8 411.8 211.8 106.9 136.2 63.4 136.6 368"/><polygon class="cls-4" points="136.2 63.4 211.9 20 286.9 63.5 211.8 106.9 136.2 63.4"/><polygon class="cls-12" points="211.8 411.8 287.3 368 286.9 63.5 211.8 106.9 211.8 411.8"/><path class="cls-6" d="m240.2,345.5l29.6-17.7c3.2-1.9,5.2-5.4,5.2-9.2l-.2-229.6-50.6,29.3v218.1c-.1,8.2,9,13.3,16,9.1Z"/></g></g></g><g id="mur_entrée"><g id="mur"><polygon class="cls-14" points="1553.8 110.7 -1479 1861.8 -1434.5 1888.3 1597.7 136.6 1553.8 110.7"/><path class="cls-30" d="m-1435.4,1888.3l-.2,669.4,490.7-283.4v-514.7L-55.8,1250.1l3.1,509.1,1650.1-952.9.4-669.5L-1435.4,1888.3ZM839.5,1089.8L125.8,1501.9v-309l713.7-412.1v309Zm574.5-301.4l-124,70.8v-381.2l124-70.7v381.1Z"/></g></g><g id="meuble_hifi"><polygon class="cls-13" points="-15.9 293.6 82.3 350.4 -222.6 527.8 -321.3 471 -15.9 293.6"/><polygon class="cls-11" points="-222.6 659 82.6 480.8 82.3 350.4 -222.6 527.8 -222.6 659"/><g><polygon class="cls-7" points="-61.4 442 -61.4 569.2 90.4 480.2 90.4 354.3 -61.4 442"/><polyline class="cls-13" points="-66.4 439.1 84.6 351.4 90.4 354.3 -61.4 442 -66.4 439.1"/></g></g></g></g></g></g></svg>