<?xml version="1.0" encoding="UTF-8"?><svg id="Calque_2" xmlns="http://www.w3.org/2000/svg" xmlns:xlink="http://www.w3.org/1999/xlink" viewBox="0 0 160.4 160.4"><defs><style>.cls-1,.cls-2,.cls-3,.cls-4,.cls-5,.cls-6{fill-rule:evenodd;}.cls-1,.cls-7{fill:#e7ebf7;}.cls-8{fill:#edf0f7;}.cls-9{isolation:isolate;opacity:.18;}.cls-2{fill:#f3f7ff;}.cls-10{fill:#d9beab;}.cls-11{fill:#b1b7c9;}.cls-3{fill:#eae9e8;}.cls-12{fill:none;}.cls-13{clip-path:url(#clippath-3);}.cls-14{fill:#778196;}.cls-4{fill:#ededed;}.cls-15{fill:#dfe3ed;}.cls-5{fill:#c1c4db;}.cls-6{fill:#d8d8d8;}</style><clipPath id="clippath-3"><circle class="cls-12" cx="80.2" cy="80.2" r="80.2"/></clipPath></defs><g id="Calque_1-2"><g id="Calque_2-2"><g class="cls-13"><g id="RDC"><g id="mur_garage"><polyline class="cls-10" points="126.2 -655 -1669.3 368.5 -1666.4 -234.5 126.6 -1267.4"/></g><g id="sol"><polygon class="cls-3" points="706.4 -63 -854.9 838.1 216.7 1456.6 1777.2 555.3 706.4 -63"/></g><polygon class="cls-6" points="-99.3 -527.9 -1669.6 368.3 -854.2 838.1 723.2 -71.3 -99.3 -527.9"/><g id="mur_du_fond"><polygon class="cls-4" points="2134.1 -1608.3 2084.6 -1636.6 -904.5 92.1 -856.4 119.8 617.2 -732.6 2134.1 -1608.3"/><path class="cls-15" d="m2089.4-1582.3L-856.4,119.8l1.4,718.3L349.9,142.8V-372.1l178.5-101.8V39.8l177.9-102.7-.2-51.4,1383.3-798.4v-669.6Zm-312.5,734l-133.8,77.3v-399.3l134.1-77.1-.3,399.1Z"/></g><g id="frigo"><polygon class="cls-5" points="45.8 -228.9 45.8 278.4 179.6 352.3 179.5 -151.7 45.8 -228.9"/></g><g id="plan_de_trvail"><polygon class="cls-3" points="28.4 66.7 211.7 173.4 -601.6 641.4 -785.4 533.8 28.4 66.7"/><g id="google_home"><ellipse class="cls-9" cx="77.7" cy="128.5" rx="32.7" ry="12.5"/><ellipse class="cls-14" cx="77.7" cy="110.6" rx="33.1" ry="25.3"/><ellipse class="cls-7" cx="77.7" cy="108.6" rx="33.1" ry="13.4"/><polygon class="cls-1" points="44.5 110.6 46.4 58.3 106.3 43.9 110.8 110.6 44.5 110.6"/><ellipse class="cls-8" cx="76" cy="51.5" rx="31.2" ry="20.1" transform="translate(-13.48 30.99) rotate(-21.21)"/><circle class="cls-11" cx="82" cy="45.1" r="1.2"/><circle class="cls-11" cx="69.8" cy="56.4" r="1.2"/><circle class="cls-11" cx="70.4" cy="47.1" r="1.2"/><circle class="cls-11" cx="81.5" cy="55.2" r="1.2"/></g></g><g id="mur_garage-2"><path class="cls-2" d="m216.4,786.6L-1717.2-329.5V340.7l170.8,98.8-.7-489.9,537.7,312.8,1.2,487.8L216.8,1456.7l-.4-670.1Zm-446.8,52l-579.9-334.9v-154.6L-230.4,684v154.6Z"/><polygon class="cls-4" points="-1619.8 -323.7 260.3 761.3 216.4 786.6 -1664.2 -298.4 -1619.8 -323.7"/></g></g></g></g></g></svg>