<?xml version="1.0" encoding="UTF-8"?><svg id="Calque_2" xmlns="http://www.w3.org/2000/svg" xmlns:xlink="http://www.w3.org/1999/xlink" viewBox="0 0 259.8 259.8"><defs><style>.cls-1{fill:#c1cad3;}.cls-1,.cls-2,.cls-3,.cls-4,.cls-5,.cls-6,.cls-7,.cls-8,.cls-9,.cls-10,.cls-11,.cls-12,.cls-13,.cls-14,.cls-15,.cls-16,.cls-17,.cls-18,.cls-19,.cls-20,.cls-21,.cls-22,.cls-23,.cls-24,.cls-25,.cls-26,.cls-27,.cls-28{fill-rule:evenodd;}.cls-2{fill:#c0c9d8;}.cls-3{fill:#778196;}.cls-4{fill:#e2ebf2;}.cls-5{fill:#d9d9f9;}.cls-6{fill:#c7d0db;}.cls-7,.cls-29{fill:#d9beab;}.cls-8{fill:#5f687d;}.cls-9{fill:#f3f7ff;}.cls-10{fill:#e4ecf4;}.cls-11{fill:#d8cec5;}.cls-12{fill:#eef7ff;}.cls-13{fill:#b1b7c9;}.cls-14{fill:#f0f0ff;}.cls-15{fill:#f3faff;}.cls-16{fill:#5a5e63;}.cls-30{stroke:#808489;stroke-linecap:round;stroke-miterlimit:7.77;stroke-width:1.54px;}.cls-30,.cls-31{fill:none;}.cls-17{fill:#a5adb5;}.cls-18{fill:#eae9e8;}.cls-32{clip-path:url(#clippath-3);}.cls-19{isolation:isolate;opacity:.09;}.cls-20{fill:#6e7c8f;}.cls-21{fill:#ededed;}.cls-33{fill:#dfe3ed;}.cls-22{fill:#dfe6ee;}.cls-23{fill:#c1c4db;}.cls-24{fill:#d8d8d8;}.cls-25{fill:#f7edd6;}.cls-26{fill:#bcc2c9;}.cls-27{fill:#edded1;}.cls-28{fill:#f5ebd4;}</style><clipPath id="clippath-3"><circle class="cls-31" cx="129.9" cy="129.9" r="129.9"/></clipPath></defs><g id="Calque_1-2"><g id="Calque_2-2"><g class="cls-32"><g id="RDC"><g id="mur_garage"><polyline class="cls-29" points="116.1 -850.6 -1679.4 172.9 -1676.5 -430.1 116.5 -1463"/></g><g id="sol"><polygon class="cls-18" points="696.3 -258.6 -865 642.5 206.6 1261 1767.1 359.7 696.3 -258.6"/></g><polygon class="cls-24" points="-109.4 -723.5 -1679.7 172.7 -864.3 642.5 713.1 -266.9 -109.4 -723.5"/><g id="mur_du_fond"><path class="cls-33" d="m2079.3-1777.9L-866.5-75.8l1.4,718.3L339.8-52.8v-514.9l178.5-101.8V-155.8l177.9-102.7-.2-51.4,1383.3-798.4v-669.6Zm-312.5,734l-133.8,77.3v-399.3l134.1-77.1-.3,399.1Z"/></g><g id="frigo"><polygon class="cls-5" points="169.5 156.7 169.5 -347.3 364.8 -460.6 365.9 43.9 169.5 156.7"/><polygon class="cls-23" points="35.7 -424.5 35.7 82.8 169.5 156.7 169.4 -347.3 35.7 -424.5"/><polygon class="cls-14" points="382.5 -315.8 190 -204.6 190 156.7 377.4 46.9 382.5 -315.8"/><polygon class="cls-23" points="190 -204.6 173.1 -213.6 173.1 147.9 190 156.7 190 -204.6"/></g><g id="plan_de_trvail"><polygon class="cls-7" points="50.5 114.9 182.6 192.2 -597.4 643 -773.7 541.2 50.5 114.9"/><polygon class="cls-18" points="18.3 -128.9 201.6 -22.2 -611.7 445.8 -795.5 338.2 18.3 -128.9"/><polygon class="cls-11" points="194 237.3 194.5 -18.2 -611.7 445.8 -611.7 708.9 194 237.3"/><g id="four"><polygon class="cls-3" points="194 185.8 27 282.4 26.6 133.4 194.4 36.2 194 185.8"/><polygon class="cls-13" points="194.4 36.2 26.6 133.4 26.5 87.7 194.4 -9.7 194.4 36.2"/><path class="cls-8" d="m158,184.6l-93.8,54.3c-6.5,3.7-11.8-.3-11.8-9.1l-.2-70c0-8.9,5.3-19,11.8-22.9l94.1-54.5c6.5-3.8,11.8.3,11.8,9.2l-.1,70.2c0,8.8-5.3,19.1-11.8,22.8Z"/><polygon class="cls-20" points="138.7 52.9 82.2 85.7 82.1 68.8 138.7 36 138.7 52.9"/><g><path class="cls-16" d="m170,26.7c.2,5.8-3.3,12.5-7.5,15.1-4.4,2.6-7.9-.1-8.1-5.9-.2-5.8,3.3-12.5,7.5-15.1,4.4-2.5,8,.1,8.1,5.9Z"/><path class="cls-13" d="m169.2,27.4c0,5.1-3,11-6.7,13.1-3.7,2.2-6.8-.2-6.8-5.4s3-11,6.7-13.1c3.8-2,6.8.3,6.8,5.4Z"/><polygon class="cls-13" points="166.7 21.7 170.4 24.2 162.4 43.6 158 40.8 166.7 21.7"/><path class="cls-2" d="m173.3,30.1c0,5.1-3,11-6.7,13.1-3.7,2.2-6.8-.2-6.8-5.4s3-11,6.7-13.1c3.8-2.2,6.8.3,6.8,5.4Z"/></g><g><path class="cls-16" d="m67.6,86.5c.2,5.8-3.3,12.7-7.7,15.3s-8.1-.1-8.2-5.9,3.3-12.7,7.7-15.3c4.3-2.5,8,.1,8.2,5.9Z"/><path class="cls-13" d="m66.8,87.2c0,5.1-3,11.1-6.8,13.3s-6.8-.2-6.9-5.4c0-5.1,3-11.1,6.8-13.3,3.8-2.1,6.9.3,6.9,5.4Z"/><polygon class="cls-13" points="64.1 81.5 68 84 59.8 103.6 55.4 100.9 64.1 81.5"/><path class="cls-2" d="m70.9,89.9c0,5.1-3,11.1-6.8,13.3s-6.8-.2-6.9-5.4c0-5.1,3-11.1,6.8-13.3,3.8-2.2,6.9.2,6.9,5.4Z"/></g><polygon class="cls-13" points="194 216.4 27 312.9 27 282.7 194 186.1 194 216.4"/><line class="cls-30" x1="53.3" y1="211.7" x2="168.3" y2="146.6"/><line class="cls-30" x1="54" y1="162.6" x2="168.6" y2="97.3"/><g><path class="cls-16" d="m127.7,68.2l-35.7,20.7c-.6.4-1.2,0-1.2-.9v-1.6c0-.9.5-1.9,1.2-2.2l35.7-20.7c.6-.4,1.2,0,1.2.9v1.6c-.1.9-.6,1.9-1.2,2.2Z"/><polygon class="cls-13" points="103.5 81.6 91.5 88.5 91.5 85.1 103.5 78.2 103.5 81.6"/><polygon class="cls-13" points="115.8 74.4 103.9 81.3 103.9 78 115.8 71.1 115.8 74.4"/><polygon class="cls-13" points="128.1 67.2 116.2 74.2 116.2 70.8 128.1 63.9 128.1 67.2"/></g></g><g id="machine_a_laver"><polygon class="cls-26" points="27 318.1 -151.4 418.2 -151.2 183.2 27 83.3 27 318.1"/><polygon class="cls-10" points="-144.1 199.3 27.9 99 27.9 318.1 -143.9 419.6 -144.1 199.3"/><polygon class="cls-12" points="-144.1 244.2 27.4 145.8 27.9 99 -144.1 199.3 -144.1 244.2"/><polygon class="cls-4" points="-150 195 21.5 95 27.9 99 -144.1 199.3 -150 195"/><g><path class="cls-6" d="m6.1,134.6c.2,7.5-4.3,16.5-10,19.8-5.7,3.3-10.5-.1-10.7-7.6s4.3-16.5,10-19.8c5.8-3.3,10.6.1,10.7,7.6Z"/><path class="cls-22" d="m5.1,135.6c0,6.7-4,14.4-8.9,17.3-4.9,2.9-8.9-.2-8.9-6.9s4-14.4,8.9-17.3,8.9.2,8.9,6.9Z"/><polygon class="cls-22" points="1.8 128.1 6.7 131.3 -4 156.8 -9.7 153.2 1.8 128.1"/><path class="cls-15" d="m10.5,139c0,6.7-4,14.4-8.9,17.3-4.9,2.9-8.9-.2-8.9-6.9s4-14.4,8.9-17.3,8.9.2,8.9,6.9Z"/></g></g><polygon class="cls-27" points="-611.7 460.8 -611.7 445.8 201.6 -22.2 201.6 -10.8 -611.7 460.8"/><path class="cls-26" d="m153.1,74.7l-5.6-3-3.4,1.9,5.2,3c1.2.9,1.2,2.8-.2,3.6l-63.4,36.1c-1.4.9-3.3.8-4.6-.2l-5.1-3.3-4.2,2.4,7.9,5c1.9,1.3,4.5,1.4,6.6.2l66.6-38.4c2.7-1.5,2.9-5.4.2-7.3Z"/><polygon class="cls-17" points="144.1 68.3 144.1 73.7 149.3 76.7 150.7 72.8 148.6 70.5 144.1 68.3"/><polygon class="cls-26" points="71.8 110.1 71.8 115.4 83.3 121 155 78.8 155 72.5 152.3 74.2 83.7 115.8 71.8 110.1"/><path class="cls-1" d="m153.1,69.3l-5.6-3-3.4,1.9,5.2,3c1.2.9,1.2,2.8-.2,3.6l-63.4,36.1c-1.4.9-3.3.8-4.6-.2l-5.1-3.3-4.2,2.4,7.9,5c1.9,1.3,4.5,1.4,6.6.2l66.6-38.4c2.7-1.4,2.9-5.5.2-7.3Z"/></g><g id="table_a_manger"><polygon class="cls-19" points="167.2 421.9 605.1 172.5 838.8 277.1 383.7 538 167.2 421.9"/><polygon class="cls-28" points="163.4 257.7 386 386.8 832.8 128.8 608.9 -.2 163.4 257.7"/><polygon class="cls-25" points="163.4 272.2 163.4 257.7 386 386.8 386 400.3 163.4 272.2"/></g><g id="mur_entrée"><g id="mur"><polygon class="cls-21" points="3194.9 -1186 162.1 565.1 206.6 591.6 3238.8 -1160.1 3194.9 -1186"/><path class="cls-33" d="m205.7,591.6l-.2,669.4,490.7-283.4V462.9L1585.3-46.6l3.1,509.1,1650.1-952.9.4-669.5L205.7,591.6ZM2480.6-206.9l-713.7,412.1V-103.8l713.7-412.1V-206.9Zm574.5-301.4l-124,70.8v-381.2l124-70.7v381.1Z"/></g></g><g id="mur_garage-2"><path class="cls-9" d="m206.3,591L-1727.3-525.1V145.1l170.8,98.8-.7-489.9L-1019.5,66.8l1.2,487.8L206.7,1261.1l-.4-670.1Zm-446.8,52l-579.9-334.9v-154.6L-240.5,488.4v154.6Z"/><polygon class="cls-21" points="-1629.9 -519.3 250.2 565.7 206.3 591 -1674.3 -494 -1629.9 -519.3"/></g></g></g></g></g></svg>