<?xml version="1.0" encoding="UTF-8"?><svg id="Calque_2" xmlns="http://www.w3.org/2000/svg" xmlns:xlink="http://www.w3.org/1999/xlink" viewBox="0 0 499.8 499.8"><defs><style>.cls-1{clip-path:url(#clippath-11);}.cls-2{fill:#daddf0;}.cls-2,.cls-3,.cls-4,.cls-5,.cls-6,.cls-7,.cls-8,.cls-9,.cls-10,.cls-11,.cls-12,.cls-13,.cls-14,.cls-15{fill-rule:evenodd;}.cls-3,.cls-16{fill:#e7ebf7;}.cls-17{fill:#edf0f7;}.cls-4{fill:#d9d9f9;}.cls-5{fill:#dedeff;}.cls-18{isolation:isolate;opacity:.18;}.cls-6{fill:#f3f7ff;}.cls-19{clip-path:url(#clippath-6);}.cls-7{fill:#aaa;}.cls-20{fill:#d9beab;}.cls-21{clip-path:url(#clippath-7);}.cls-8{fill:#ebebff;}.cls-9,.cls-22{fill:#937b6a;}.cls-23{clip-path:url(#clippath-12);}.cls-24{fill:#b1b7c9;}.cls-10{fill:#f0f0ff;}.cls-25{clip-path:url(#clippath-9);}.cls-11{fill:#eae9e8;}.cls-26{fill:none;}.cls-27{clip-path:url(#clippath-3);}.cls-28{clip-path:url(#clippath-8);}.cls-29{fill:#778196;}.cls-12,.cls-30{fill:#ededed;}.cls-31{fill:#dfe3ed;}.cls-13{fill:#c1c4db;}.cls-14{fill:#d8d8d8;}.cls-32{clip-path:url(#clippath-10);}.cls-15{fill:#cacadb;}</style><clipPath id="clippath-3"><circle class="cls-26" cx="249.9" cy="249.9" r="249.9"/></clipPath><clipPath id="clippath-6"><polygon class="cls-26" points="-105 -161.2 656 278.1 878.8 93.7 120.5 -290.8 -105 -161.2"/></clipPath><clipPath id="clippath-7"><polygon class="cls-26" points="-105 -161.2 656 278.1 878.8 93.7 120.5 -290.8 -105 -161.2"/></clipPath><clipPath id="clippath-8"><polygon class="cls-26" points="-105 -161.2 656 278.1 878.8 93.7 120.5 -290.8 -105 -161.2"/></clipPath><clipPath id="clippath-9"><polygon class="cls-26" points="-105 -161.2 656 278.1 878.8 93.7 120.5 -290.8 -105 -161.2"/></clipPath><clipPath id="clippath-10"><polygon class="cls-26" points="-105 -161.2 656 278.1 878.8 93.7 120.5 -290.8 -105 -161.2"/></clipPath><clipPath id="clippath-11"><polygon class="cls-26" points="-105 -161.2 656 278.1 878.8 93.7 120.5 -290.8 -105 -161.2"/></clipPath><clipPath id="clippath-12"><polygon class="cls-26" points="-105 -161.2 656 278.1 878.8 93.7 120.5 -290.8 -105 -161.2"/></clipPath></defs><g id="Calque_1-2"><g id="Calque_2-2"><g class="cls-27"><g id="RDC"><g id="mur_garage"><polyline class="cls-20" points="120.5 -288.3 -1675 735.2 -1672.1 132.2 120.9 -900.7"/><polygon class="cls-22" points="120.9 -900.7 834.7 -494.6 833.8 123.3 120.5 -288.3 120.9 -900.7"/><polyline class="cls-30" points="-1672.1 132.2 -1722.9 102.5 115.1 -953.5 165.3 -925.4"/></g><g id="sol"><polygon class="cls-11" points="700.7 303.7 -860.6 1204.8 211 1823.3 1771.5 922 700.7 303.7"/></g><g id="escalier_cave"><polygon class="cls-9" points="-105 -161.2 653.6 275.5 865.9 127.3 120.5 -290.8 -105 -161.2"/><g id="Calque_56"><g><g class="cls-19"><g><polygon class="cls-7" points="67.4 15.9 37.2 -1.4 273 -136.5 273 -102.3 67.4 15.9"/><polygon class="cls-14" points="67.4 15.9 273 -102.2 301.8 -86.2 95.9 32.3 67.4 15.9"/></g></g><g class="cls-21"><g><polygon class="cls-7" points="96.3 66.2 66 48.9 301.8 -86.2 301.8 -52 96.3 66.2"/><polygon class="cls-14" points="96.3 66.2 301.8 -51.9 330.7 -35.9 124.7 82.7 96.3 66.2"/></g></g><g class="cls-28"><g><polygon class="cls-7" points="125.1 116.5 94.9 99.2 330.7 -35.9 330.7 -1.7 125.1 116.5"/><polygon class="cls-14" points="125.1 116.5 330.7 -1.6 359.5 14.4 153.6 133 125.1 116.5"/></g></g><g class="cls-25"><g><polygon class="cls-7" points="182.8 217.1 152.6 199.9 388.4 64.7 388.4 99 182.8 217.1"/><polygon class="cls-14" points="182.8 217.1 388.4 99 417.2 115 211.3 233.6 182.8 217.1"/></g></g><g class="cls-32"><g><polygon class="cls-7" points="182.8 217.1 152.6 199.9 388.4 64.7 388.4 99 182.8 217.1"/><polygon class="cls-14" points="182.8 217.1 388.4 99 417.2 115 211.3 233.6 182.8 217.1"/></g></g><g class="cls-1"><g><polygon class="cls-7" points="211.7 267.4 181.4 250.2 417.2 115 417.2 149.3 211.7 267.4"/><polygon class="cls-14" points="211.7 267.4 417.2 149.3 446 165.3 240.1 283.9 211.7 267.4"/></g></g><g class="cls-23"><g><polygon class="cls-7" points="154 166.8 123.7 149.5 359.5 14.4 359.5 48.6 154 166.8"/><polygon class="cls-14" points="154 166.8 359.5 48.7 388.4 64.7 182.4 183.3 154 166.8"/></g></g></g></g></g><polygon class="cls-14" points="-105 -161.2 -1675.3 735 -859.9 1204.8 717.5 295.4 -105 -161.2"/><g id="mur_du_fond"><polygon class="cls-12" points="2128.4 -1241.6 2078.9 -1269.9 -910.2 458.8 -862.1 486.5 611.5 -365.9 2128.4 -1241.6"/><polygon class="cls-6" points="487.3 386.8 522.8 406.4 522.8 -107.2 487.3 -87.1 487.3 386.8"/><path class="cls-31" d="m2083.7-1215.6L-862.1,486.5l1.4,718.3L344.2,509.5V-5.4l178.5-101.8V406.5l177.9-102.7-.2-51.4,1383.3-798.4v-669.6Zm-312.5,734l-133.8,77.3v-399.3l134.1-77.1-.3,399.1Z"/></g><g id="frigo"><polygon class="cls-8" points="40.1 137.8 173.8 215 369.4 102.1 231.9 26.4 40.1 137.8"/><polygon class="cls-4" points="173.9 719 173.9 215 369.2 101.7 370.3 606.2 173.9 719"/><polygon class="cls-13" points="40.1 137.8 40.1 645.1 173.9 719 173.8 215 40.1 137.8"/><polygon class="cls-2" points="386.9 246.5 370.3 239.2 177.5 348.7 194.4 357.7 386.9 246.5"/><polygon class="cls-8" points="177.5 217.1 372.2 105.5 386.9 114.5 194.4 226.8 177.5 217.1"/><polygon class="cls-13" points="177.5 217.1 177.5 343.8 194.4 352.8 195.6 227.5 177.5 217.1"/><polygon class="cls-10" points="386.9 114.5 194.4 226.8 194.4 352.8 386.9 242.1 386.9 114.5"/><polygon class="cls-10" points="386.9 246.5 194.4 357.7 194.4 719 381.8 609.2 386.9 246.5"/><polygon class="cls-13" points="194.4 357.7 177.5 348.7 177.5 710.2 194.4 719 194.4 357.7"/><g><polygon class="cls-15" points="204.6 320.1 204.6 311.5 220.1 320.4 220.1 329.5 204.6 320.1"/><polygon class="cls-5" points="220.1 329.5 263.1 304.7 263.1 295.5 220.1 320.4 220.1 329.5"/><polyline class="cls-2" points="204.6 311.5 220.1 320.4 263.1 295.5 248.1 287.3 241.3 291.1 250.6 296.1 220.4 313.5 210.8 308.1"/><polygon class="cls-15" points="241.3 299.7 241.3 291.1 250.6 296.1 242.8 300.5 241.3 299.7"/></g><g><polygon class="cls-15" points="204.6 377.4 204.6 368.8 220.1 377.7 220.1 386.8 204.6 377.4"/><polygon class="cls-5" points="220.1 386.8 263.1 361.9 263.1 352.8 220.1 377.7 220.1 386.8"/><polyline class="cls-2" points="204.6 368.8 220.1 377.7 263.1 352.8 248.1 344.5 241.3 348.3 250.6 353.4 220.4 370.7 210.8 365.3"/><polygon class="cls-15" points="241.3 356.9 241.3 348.3 250.6 353.4 242.8 357.8 241.3 356.9"/></g></g><g id="plan_de_trvail"><polygon class="cls-11" points="22.7 433.4 206 540.1 -607.3 1008.1 -791.1 900.5 22.7 433.4"/><g id="google_home"><ellipse class="cls-18" cx="72" cy="495.2" rx="32.7" ry="12.5"/><ellipse class="cls-29" cx="72" cy="477.3" rx="33.1" ry="25.3"/><ellipse class="cls-16" cx="72" cy="475.3" rx="33.1" ry="13.4"/><polygon class="cls-3" points="38.8 477.3 40.7 425 100.6 410.6 105.1 477.3 38.8 477.3"/><ellipse class="cls-17" cx="70.29" cy="418.18" rx="31.2" ry="20.1" transform="translate(-146.54 53.77) rotate(-21.21)"/><circle class="cls-24" cx="76.3" cy="411.8" r="1.2"/><circle class="cls-24" cx="64.1" cy="423.1" r="1.2" transform="translate(-360.9 473.08) rotate(-88.09)"/><circle class="cls-24" cx="64.7" cy="413.8" r="1.2" transform="translate(-351.02 464.69) rotate(-88.09)"/><circle class="cls-24" cx="75.8" cy="421.9" r="1.2"/></g></g><g id="mur_entrée"><g id="mur"><polygon class="cls-12" points="3199.3 -623.7 166.5 1127.4 211 1153.9 3243.2 -597.8 3199.3 -623.7"/><path class="cls-31" d="m210.1,1153.9l-.2,669.4,490.7-283.4v-514.7l889.1-509.5,3.1,509.1L3242.9,71.9l.4-669.5L210.1,1153.9ZM2485,355.4l-713.7,412.1v-309L2485,46.4v309ZM3059.5,54l-124,70.8v-381.2l124-70.7V54Z"/></g></g><g id="mur_garage-2"><path class="cls-6" d="m210.7,1153.3L-1722.9,37.2v670.2l170.8,98.8-.7-489.9,537.7,312.8,1.2,487.8L211.1,1823.4l-.4-670.1Zm-446.8,52l-579.9-334.9v-154.6l579.9,334.9v154.6h0Z"/><polygon class="cls-12" points="-1625.5 43 254.6 1128 210.7 1153.3 -1669.9 68.3 -1625.5 43"/></g></g></g></g></g></svg>