<?xml version="1.0" encoding="UTF-8"?><svg id="Calque_2" xmlns="http://www.w3.org/2000/svg" xmlns:xlink="http://www.w3.org/1999/xlink" viewBox="0 0 1002.2 1002.2"><defs><style>.cls-1{fill:#f0f0f0;}.cls-2{opacity:.22;}.cls-2,.cls-3,.cls-4,.cls-5,.cls-6,.cls-7,.cls-8,.cls-9,.cls-10,.cls-11,.cls-12,.cls-13,.cls-14,.cls-15,.cls-16,.cls-17{fill-rule:evenodd;}.cls-2,.cls-12,.cls-18{isolation:isolate;}.cls-3{fill:#b0b1c1;}.cls-19{fill:#c0cadd;}.cls-20{fill:#adb4c9;}.cls-4,.cls-21{fill:#d9dce8;}.cls-22,.cls-5{fill:#f3f7ff;}.cls-23{fill:#b4becc;}.cls-24{fill:#dbdad9;}.cls-25{fill:#d9beab;}.cls-6{fill:#eae8e8;}.cls-26{fill:#7e8298;}.cls-27{clip-path:url(#clippath-7);}.cls-28{fill:#7e8a9e;}.cls-29{clip-path:url(#clippath-4);}.cls-7{fill:#dfe3ef;}.cls-30{fill:#eaecf4;}.cls-31{fill:#68738e;}.cls-32{fill:#f5f7ff;}.cls-33{fill:#bac7e2;}.cls-8{fill:#9facca;}.cls-34{fill:#c1c7d1;}.cls-35{fill:#97a2c1;}.cls-9{fill:#babdd1;}.cls-36{fill:#aeb8ce;}.cls-37{fill:#d8e2ef;}.cls-38{fill:#d8e1ef;}.cls-39{fill:#dabfac;}.cls-10{fill:#d9d9d9;}.cls-40{fill:#8192a1;}.cls-11{fill:#868ab0;}.cls-41{fill:#e8ecf9;}.cls-12{fill:#ccdde2;opacity:.81;}.cls-42{fill:#f3f6ff;}.cls-13{fill:#9395aa;}.cls-18{opacity:.15;}.cls-43{fill:#9ba0b9;}.cls-14{fill:#eae9e8;}.cls-44,.cls-45{fill:none;}.cls-46{fill:#afb9dd;}.cls-47{fill:#696e7f;}.cls-48{fill:#99a1ad;}.cls-49{fill:#ced7f2;}.cls-50{clip-path:url(#clippath-3);}.cls-51{fill:#b4b8cd;}.cls-52{fill:#7c98ab;}.cls-53{fill:#788794;}.cls-54{clip-path:url(#clippath-8);}.cls-55{fill:#f7f7f7;}.cls-56{fill:#778d9e;}.cls-15,.cls-57{fill:#ededed;}.cls-58{fill:#a3a7b2;}.cls-45{stroke:#6a707c;stroke-linecap:round;stroke-miterlimit:7.77;stroke-width:1.55px;}.cls-59{fill:#8893aa;}.cls-60{fill:#937b6a;}.cls-61{fill:#dfe3ed;}.cls-62{clip-path:url(#clippath-5);}.cls-63{fill:#c7e2bf;}.cls-16{fill:#d8d8d8;}.cls-64{fill:#b0bdd1;}.cls-65{fill:#8594c9;}.cls-17{fill:#c0c3ce;}.cls-66{fill:#646789;}.cls-67{fill:#8f95aa;}.cls-68{fill:#6a707c;}.cls-69{fill:#707791;}</style><clipPath id="clippath-3"><circle class="cls-44" cx="501.1" cy="501.1" r="501.1"/></clipPath><clipPath id="clippath-4"><circle class="cls-44" cx="501.1" cy="501.1" r="501.1"/></clipPath><clipPath id="clippath-5"><circle class="cls-44" cx="501.1" cy="501.1" r="501.1"/></clipPath><clipPath id="clippath-7"><circle class="cls-44" cx="501.1" cy="501.1" r="501.1"/></clipPath><clipPath id="clippath-8"><circle class="cls-44" cx="501.1" cy="501.1" r="501.1"/></clipPath></defs><g id="Calque_1-2"><g id="Calque_2-2"><g><g class="cls-50"><g id="RDC"><g id="mur_garage"><polyline class="cls-25" points="1981.6 -572.6 186.1 450.9 189 -152.1 1982 -1185"/><polygon class="cls-60" points="138.2 -181.8 138.2 422.7 186.1 450.9 189 -152.1 138.2 -181.8"/></g><g id="sol"><polygon class="cls-14" points="2561.8 19.4 1000.5 920.5 2072.1 1539 3632.6 637.7 2561.8 19.4"/></g><polygon class="cls-16" points="1756.1 -445.5 185.8 450.7 1001.2 920.5 2578.6 11.1 1756.1 -445.5"/><g id="mur_du_fond"><polygon class="cls-15" points="3989.5 -1525.9 3940 -1554.2 950.9 174.5 999 202.2 2472.6 -650.2 3989.5 -1525.9"/><path class="cls-61" d="m3944.8-1499.9L999,202.2l1.4,718.3L2205.3,225.2V-289.7l178.5-101.8V122.2l177.9-102.7-.2-51.4,1383.3-798.4v-669.6Zm-312.5,734l-133.8,77.3v-399.3l134.1-77.1-.3,399.1Z"/></g><polygon class="cls-60" points="950.9 174.5 950.9 891.4 1001.2 920.5 999 202.2 950.9 174.5"/><g id="mur_garage-2"><polygon class="cls-30" points="355.3 497.5 -177.1 804.2 367.7 1128.5 890.7 805.6 355.3 497.5"/><polygon class="cls-61" points="354.1 495.2 352.9 3.3 307.7 29.1 309 522 354.1 495.2"/><g id="ensemble_porte"><polyline id="porte" class="cls-10" points="354.1 495.1 824.2 765.3 824 330.9 354.6 59.9 354.4 494"/><g id="lames"><polygon class="cls-6" points="354.6 62 354.6 59.6 824 330.9 824 334.7 354.6 62"/><polyline class="cls-6" points="354.1 444.2 849.6 729.5 849.6 779.3 354.1 495.1"/><polygon class="cls-6" points="354.1 100.8 354.1 49.9 849.6 335.2 849.6 385 354.1 100.8"/><polygon class="cls-6" points="354.1 157.1 354.1 106.3 849.6 391.6 849.6 441.3 354.1 157.1"/><polygon class="cls-6" points="354.1 213.5 354.1 162.6 849.6 447.9 849.6 497.6 354.1 213.5"/><polygon class="cls-6" points="354.1 269.8 354.1 218.9 849.6 504.2 849.6 554 354.1 269.8"/><polygon class="cls-6" points="354.1 326.1 354.1 275.2 849.6 560.5 849.6 610.3 354.1 326.1"/><polygon class="cls-6" points="354.1 382.4 354.1 331.6 849.6 616.9 849.6 666.6 354.1 382.4"/><polygon class="cls-6" points="354.1 438.8 354.1 387.8 849.6 673.2 849.6 722.9 354.1 438.8"/></g></g><path class="cls-5" d="m2071.8,869L138.2-247.1V423.1l170.8,98.8-.7-489.9,537.7,312.8,1.2,487.8,1225,706.5-.4-670.1Zm-446.8,52l-579.9-334.9v-154.6l579.9,334.9v154.6Z"/><polygon class="cls-15" points="235.6 -241.3 2115.7 843.7 2071.8 869 191.2 -216 235.6 -241.3"/><g id="camera_ext2"><g><polygon class="cls-34" points="1053.1 315.1 1026.2 305.3 976.6 323.7 976.6 355.3 1000.8 369.3 1053.1 338.6 1053.1 315.1"/><polygon class="cls-23" points="969.5 323.3 980.9 341.5 1028.9 310.3 1027.7 301.4 969.5 323.3"/><polygon class="cls-48" points="1000.8 369.3 1000.8 330.6 976.6 319.7 976.6 355.8 1000.8 369.3"/><polygon class="cls-40" points="996.3 339.6 996.3 361.5 980.4 353.4 980.4 330.4 996.3 339.6"/><circle class="cls-52" cx="988" cy="347" r="4.9"/><circle class="cls-53" cx="987.8" cy="347" r="2.9"/><path class="cls-22" d="m1055.6,311.9v16.6l-47,21.5-11-11.4-27.8-16.2c-.3-.2-.2-.6.1-.8l62.1-21.7,21.8,9.2c1,.5,1.8,1.6,1.8,2.8Z"/><polygon class="cls-37" points="1055.6 311.6 1055.6 328.5 1010 353 997.4 338.6 1055.6 311.6"/><polygon class="cls-38" points="997.4 338.6 997.4 340.6 969.5 324.3 969.5 322.3 997.4 338.6"/><polygon class="cls-64" points="1010 353 1008.9 353.6 997.4 340.6 997.4 338.6 1010 353"/></g></g></g></g></g><g class="cls-29"><g id="EXTERIEUR"><g id="mini_mur"><polygon class="cls-39" points="-299.3 386.8 191.3 122.5 191.3 454.2 -299.3 718.8 -299.3 386.8"/><polygon class="cls-21" points="-493.4 554.5 248.4 159.4 191.2 122.5 -557 523 -493.4 554.5"/><g><g><polygon class="cls-26" points="213.3 170.7 213.3 -55.1 238.6 -69.7 238.6 156.1 213.3 170.7"/><polygon class="cls-43" points="188.7 -69.8 188.7 156 213.6 170.6 213.6 -55.2 188.7 -69.8"/></g><g><g><polygon class="cls-26" points="-418.9 278.5 201.1 -52.9 201.1 35.5 -420.8 373.1 -418.9 278.5"/><polygon class="cls-51" points="196.2 -56.3 201.1 -52.9 -421.2 285.9 -427.6 283.2 196.2 -56.3"/></g><g><polygon class="cls-26" points="-418.9 376.7 201.1 45.2 201.1 133.7 -420.8 471.3 -418.9 376.7"/><polygon class="cls-51" points="196.2 41.9 201.1 45.2 -421.2 384 -427.6 381.4 196.2 41.9"/></g></g></g><polygon class="cls-61" points="248.4 159.4 248.4 486.8 -431.6 863.3 -435.2 521.8 248.4 159.4"/></g><g id="porte_garage"><g><polygon class="cls-26" points="-44.3 569.1 269.9 752.5 269.9 881.3 -44.3 698.7 -44.3 569.1"/><polygon class="cls-67" points="-44.3 569.1 -36.9 565.4 280.4 748.9 271 753.3 -44.3 569.1"/></g><g><polygon class="cls-26" points="-44.3 713.7 269.9 897.1 269.9 1025.8 -44.3 843.3 -44.3 713.7"/><polygon class="cls-67" points="-44.3 713.7 -36.9 710 280.4 893.4 271 897.9 -44.3 713.7"/></g><polygon class="cls-67" points="-44.3 1005.1 -36.9 1001.5 280.4 1184.9 271 1189.4 -44.3 1005.1"/><g><polygon class="cls-26" points="-44.3 859.7 269.9 1043.1 269.9 1171.9 -44.3 989.3 -44.3 859.7"/><polygon class="cls-67" points="-44.3 859.7 -36.9 856 280.4 1039.5 271 1044 -44.3 859.7"/></g><g><polygon class="cls-26" points="294.2 1350.4 294.2 765.7 319.5 751.1 319.5 1335.8 294.2 1350.4"/><polygon class="cls-51" points="319.5 751.1 294.3 737.4 269.3 751.1 294.2 765.7 319.5 751.1"/><polygon class="cls-43" points="269.5 751.1 269.5 1335.7 294.3 1350.3 294.3 765.6 269.5 751.1"/></g><g><polygon class="cls-24" points="367.5 1416.6 289.8 1371.9 289.8 761.8 367.3 806.5 367.5 1416.6"/><polygon class="cls-21" points="456.3 755.1 378.6 710 289.8 761.8 367.3 806.5 456.3 755.1"/><polygon class="cls-42" points="456.3 755.1 456.3 1365.1 367.5 1416.6 367.3 806.5 456.3 755.1"/></g></g><g id="palissade_cote_garage"><g><polygon class="cls-26" points="420.7 1135.4 420.7 909.6 445.9 895 445.9 1120.8 420.7 1135.4"/><polygon class="cls-51" points="445.9 895 420.8 881.3 395.8 895 420.7 909.6 445.9 895"/><polygon class="cls-43" points="396 894.9 396 1120.7 420.8 1135.3 420.8 909.5 396 894.9"/></g><g><polygon class="cls-26" points="909.9 1195.9 433.3 924 433.3 1012.5 911.8 1290.5 909.9 1195.9"/><polygon class="cls-51" points="438.2 920.7 433.3 924 912.2 1203.3 918.7 1200.6 438.2 920.7"/></g></g><g id="interphone"><polygon class="cls-4" points="344.5 948.4 308 927.4 307.8 993.4 344 1014.3 344.5 948.4"/><polygon class="cls-4" points="338.7 949.8 302.1 928.8 302 994.8 338.2 1015.8 338.7 949.8"/><polygon class="cls-7" points="344.5 948.4 338.6 949.8 338.2 1015.8 344 1014.3 344.5 948.4"/><polygon class="cls-17" points="308 927.4 302.1 928.8 338.6 949.8 344.5 948.4 308 927.4"/><ellipse class="cls-59" cx="318.4" cy="961.2" rx="10.6" ry="11.7"/><ellipse class="cls-68" cx="316.7" cy="961.7" rx="3.7" ry="4.2"/><circle class="cls-33" cx="313.2" cy="959.4" r="2"/><polygon class="cls-28" points="300.5 963.5 302.8 963.1 302.8 929.9 296.8 931.3 300.5 963.5"/><path class="cls-31" d="m345.4,975.3l.2-29.5c0-.9-.5-1.7-1.2-2.1l-34.2-18-13.3,4.4,31.4,19.4c1.3.7,2.9,1.9,3.3,3.2l6.1,23.9,7.7-1.3Z"/><polygon class="cls-19" points="333.9 985.4 333.9 1008.4 304.9 991.7 304.9 970.1 333.9 985.4"/><path class="cls-36" d="m337.6,976.5h-.7l-6.4-23.6c-.3-1.1-1.5-2-3-2.9l-29.1-17.9c-.5-.3-1.2.1-1.2.8l3.1,30.6-.5-.1-4.1-31.4c-.2-1.6,1.4-2.7,2.8-1.9,8.4,4.7,31,18.1,33,20.5,1.9,2.2,6.1,25.9,6.1,25.9Z"/><line class="cls-45" x1="330.1" y1="998.4" x2="307.8" y2="986.5"/><line class="cls-45" x1="330.1" y1="993.6" x2="307.8" y2="981.6"/><line class="cls-45" x1="330.1" y1="988.8" x2="307.8" y2="976.8"/></g><g id="jardiniere"><polygon class="cls-5" points="2004.3 1448.9 1825.8 1552.5 888.8 1012 1067.5 907.6 1045.1 895.3 841.6 1013 1822.2 1579.4 2026.4 1461.8 2004.3 1448.9"/><polygon class="cls-63" points="2004.3 1448.9 1825.8 1552.5 888.8 1012 1067.5 907.6 2004.3 1448.9"/></g><g id="spots"><g><ellipse class="cls-56" cx="267.8" cy="521.1" rx="14.5" ry="8.4"/><rect class="cls-1" x="253.4" y="421.4" width="28.9" height="26.5"/><rect class="cls-56" x="253.4" y="447.9" width="28.9" height="73.2"/><ellipse class="cls-55" cx="267.8" cy="421.4" rx="14.5" ry="8.4"/><ellipse class="cls-1" cx="267.8" cy="447.9" rx="14.5" ry="8.4"/><ellipse class="cls-56" cx="267.8" cy="421.4" rx="14.5" ry="8.4"/></g><g id="spot"><g><ellipse class="cls-56" cx="798.9" cy="957.5" rx="14.5" ry="8.4"/><rect class="cls-1" x="784.4" y="857.8" width="28.9" height="26.5"/><rect class="cls-56" x="784.4" y="884.4" width="28.9" height="73.2"/><ellipse class="cls-55" cx="798.9" cy="857.8" rx="14.5" ry="8.4"/><ellipse class="cls-1" cx="798.9" cy="884.4" rx="14.5" ry="8.4"/><ellipse class="cls-56" cx="798.9" cy="857.8" rx="14.5" ry="8.4"/></g></g></g></g></g><g class="cls-62"><g id="ETAGE"><path id="sol-2" class="cls-65" d="m3944.3-1551.3c-.2-.2-838.7,482-1249.1,720.5l-713.4-411.6L191.2-215.2,1002.4,252.5l1069.3,616.8L3632.2-32l1471.6-849.5c.2,0-1154.5-666.7-1159.5-669.8Zm-981.1,824.2l-222.8-128.8,490.9-283.1,222.8,128.5-490.9,283.4Z"/><g id="grde_chambre"><g id="lit_bebe"><polygon class="cls-18" points="920.9 -55.5 1304.6 164.1 1503.6 43.7 1111.4 -200.7 920.9 -55.5"/><polygon class="cls-46" points="1128.3 -171 1521.4 44.8 1314 161.9 924.1 -60.6 1128.3 -171"/><polygon class="cls-35" points="930.3 -86.4 930.3 -122.7 1309.2 99.4 1309.2 141.3 930.3 -86.4"/><path class="cls-49" d="m1113.8-225.5l-182.4,102.2c-.5.3-.5,1,0,1.3l377.7,221.4,199.6-108.6-384.7-216.3c-3.2-1.7-7-1.8-10.2,0Z"/><g id="barriere"><g><polygon class="cls-32" points="931.8 -99 924.1 -94.6 1314 131.2 1322.9 126.4 931.8 -99"/><polygon class="cls-41" points="924.1 -94.6 924.1 -60.6 1304.6 156.6 1304.7 125.8 924.1 -94.6"/></g></g></g><g id="table_basse_bebe"><polygon class="cls-18" points="911.5 -57.8 822.1 -6.1 955.8 71.1 1045 19.7 911.5 -57.8"/><polygon class="cls-47" points="822.1 -57.6 956 19.4 1045.1 -31.9 911.3 -109.2 822.1 -57.6"/><polyline class="cls-66" points="822.1 -57.6 822.1 -47.6 956.1 30.5 956 19.4"/><polygon class="cls-69" points="956 19.4 956.1 30.5 1045.1 -21.1 1045.1 -31.9 956 19.4"/><polygon class="cls-69" points="955.8 71.1 955.8 19.4 964.2 14.6 964.2 66.2 955.8 71.1"/><polygon class="cls-66" points="948.5 66.9 948.5 16.1 955.8 19.4 955.8 71.1 948.5 66.9"/></g></g><g id="mur_gauche"><path id="mur" class="cls-5" d="m2071,148.4L136.8-883.7l2.7,644.1,1932.2,1108.9-.7-720.9ZM783.9-21.3l-337.9-202-.2-345.8,345.3,193.2-7.2,354.6Zm376.7,206.9L814.5-10.5v-345.8l346.1,196.1V185.6Zm419.7,246.3l-393.2-227.1V-141.1l393.2,227v346Z"/><polyline class="cls-57" points="2071 148.4 136.8 -883.7 191.3 -914.9 2124.5 117.5 2071 148.4"/><polyline id="vitre" class="cls-12" points="445.8 -569.1 445.8 -223.4 1580.3 431.9 1580.3 85.8 445.8 -569.1"/><g id="fenetre"><polygon class="cls-58" points="446 -223.4 458.6 -230.1 1605.8 427 1605.8 446.4 446 -223.4"/><path class="cls-20" d="m418-634.2V-207.1L1613,485.7V45.5L418-634.2ZM780.6-30.2l-334.5-193.2-.2-345.8,334.8,193.2-.1,345.8h0Zm373.6,215.8L814.5-10.5v-345.8l339.7,196.1V185.6Zm426.1,246.3l-393.2-227.1V-141.1l393.2,227v346Z"/></g><polygon class="cls-5" points="418 -207.1 379.5 -185 1580.3 505 1612.9 485.7 418 -207.1"/><polygon class="cls-4" points="379.5 -185 1580.3 505 1580.3 534.3 379.5 -158.6 379.5 -185"/></g></g></g><g class="cls-27"><g id="ombre_toit"><polygon id="ombre_gauche" class="cls-2" points="138.8 -704 138.8 -827.2 2071.8 212.5 2071 393.1 138.8 -704"/></g></g><g class="cls-54"><g id="TOIT"><path id="sol-3" class="cls-26" d="m3943.6-2272.1c-.2-.2-838.7,482-1249.1,720.5l-713.3-411.6L190.6-936.1l811.2,467.7h0L2071.1,148.4l1560.5-901.3,1471.6-849.5c.1-.1-1154.6-666.8-1159.6-669.7Z"/><g id="gouttière"><polygon class="cls-13" points="105.7 -884 2066 247.5 2066 328.6 35.6 -841.2 105.7 -884"/><path class="cls-3" d="m2065.7,292.1l.3,36.4L28.4-845.1c-6.1-3.5-12.3-10-17.3-21.9-3.4-8-3.2-16.9-3.2-16.9L2065.7,292.1Z"/></g><g id="rebord"><polygon class="cls-9" points="116 -921.5 116 -874 2071 271.7 5161.5 -1549.8 5161.2 -1570.1 2071.8 212.5 116 -921.5"/><polygon class="cls-11" points="135.7 -923.7 2071.7 199.8 5149 -1577.1 5161.3 -1570 2071.8 212.5 116 -921.5 135.7 -923.7"/></g><g id="toiture"><polygon class="cls-8" points="135.7 -923.7 779.5 -1782.5 2249.5 -944.3 2071.7 199.8 135.7 -923.7"/></g></g></g></g></g></g></svg>