<?xml version="1.0" encoding="UTF-8"?><svg id="Calque_2" xmlns="http://www.w3.org/2000/svg" xmlns:xlink="http://www.w3.org/1999/xlink" viewBox="0 0 206.59 206.59"><defs><style>.cls-1{fill:#c0cadd;}.cls-2{fill:#d9dce8;}.cls-2,.cls-3,.cls-4,.cls-5,.cls-6,.cls-7{fill-rule:evenodd;}.cls-8{fill:#dbdad9;}.cls-3{fill:#f3f7ff;}.cls-9{fill:#7e8298;}.cls-10{fill:#7e8a9e;}.cls-11{clip-path:url(#clippath-4);}.cls-4{fill:#dfe3ef;}.cls-12{fill:#eaecf4;}.cls-13{fill:#68738e;}.cls-14{fill:#bac7e2;}.cls-15{fill:#aeb8ce;}.cls-16{fill:#f3f6ff;}.cls-17{fill:#9ba0b9;}.cls-18,.cls-19{fill:none;}.cls-20{clip-path:url(#clippath-3);}.cls-21{fill:#b4b8cd;}.cls-5{fill:#ededed;}.cls-19{stroke:#6a707c;stroke-linecap:round;stroke-miterlimit:7.77;stroke-width:1.55px;}.cls-22{fill:#8893aa;}.cls-23{fill:#dfe3ed;}.cls-24{clip-path:url(#clippath-5);}.cls-6{fill:#d8d8d8;}.cls-25{fill:#8594c9;}.cls-7{fill:#c0c3ce;}.cls-26{fill:#8f95aa;}.cls-27{fill:#6a707c;}</style><clipPath id="clippath-3"><circle class="cls-18" cx="103.3" cy="103.3" r="103.3"/></clipPath><clipPath id="clippath-4"><circle class="cls-18" cx="103.3" cy="103.3" r="103.3"/></clipPath><clipPath id="clippath-5"><circle class="cls-18" cx="103.3" cy="103.3" r="103.3"/></clipPath></defs><g id="Calque_1-2"><g id="Calque_2-2"><g><g class="cls-20"><g id="RDC"><polygon class="cls-6" points="1556 -1303.01 -14.3 -406.81 801.1 62.99 2378.5 -846.41 1556 -1303.01"/><g id="mur_garage"><polygon class="cls-12" points="155.2 -360.01 -377.2 -53.31 167.6 270.99 690.6 -51.91 155.2 -360.01"/><path class="cls-3" d="m1871.7,11.49L-61.9-1104.61V-434.41l170.8,98.8-.7-489.9,537.7,312.8,1.2,487.8,1225,706.5-.4-670.1Zm-446.8,52l-579.9-334.9v-154.6L1424.9-91.11V63.49Z"/><polygon class="cls-5" points="35.5 -1098.81 1915.6 -13.81 1871.7 11.49 -8.9 -1073.51 35.5 -1098.81"/></g></g></g><g class="cls-11"><g id="EXTERIEUR"><g id="mini_mur"><polygon class="cls-23" points="48.3 -698.11 48.3 -370.71 -631.7 5.79 -635.3 -335.71 48.3 -698.11"/></g><g id="porte_garage"><polygon class="cls-9" points="-244.4 -288.41 69.8 -105.01 69.8 23.79 -244.4 -158.81 -244.4 -288.41"/><g><polygon class="cls-9" points="-244.4 -143.81 69.8 39.59 69.8 168.29 -244.4 -14.21 -244.4 -143.81"/><polygon class="cls-26" points="-244.4 -143.81 -237 -147.51 80.3 35.89 70.9 40.39 -244.4 -143.81"/></g><g><polygon class="cls-9" points="-244.4 147.59 69.8 331.09 69.8 459.79 -244.4 277.19 -244.4 147.59"/><polygon class="cls-26" points="-244.4 147.59 -237 143.99 80.3 327.39 70.9 331.89 -244.4 147.59"/></g><g><polygon class="cls-9" points="-244.4 2.19 69.8 185.59 69.8 314.39 -244.4 131.79 -244.4 2.19"/><polygon class="cls-26" points="-244.4 2.19 -237 -1.51 80.3 181.99 70.9 186.49 -244.4 2.19"/></g><g><polygon class="cls-9" points="94.1 492.89 94.1 -91.81 119.4 -106.41 119.4 478.29 94.1 492.89"/><polygon class="cls-17" points="69.4 -106.41 69.4 478.19 94.2 492.79 94.2 -91.91 69.4 -106.41"/></g><g><polygon class="cls-8" points="167.4 559.09 89.7 514.39 89.7 -95.71 167.2 -51.01 167.4 559.09"/><polygon class="cls-16" points="256.2 -102.41 256.2 507.59 167.4 559.09 167.2 -51.01 256.2 -102.41"/></g></g><g id="palissade_cote_garage"><g><polygon class="cls-21" points="245.8 37.49 220.7 23.79 195.7 37.49 220.6 52.09 245.8 37.49"/><polygon class="cls-17" points="195.9 37.39 195.9 263.19 220.7 277.79 220.7 51.99 195.9 37.39"/></g></g><g id="interphone"><polygon class="cls-2" points="144.4 90.89 107.9 69.89 107.7 135.89 143.9 156.79 144.4 90.89"/><polygon class="cls-2" points="138.6 92.29 102 71.29 101.9 137.29 138.1 158.29 138.6 92.29"/><polygon class="cls-4" points="144.4 90.89 138.5 92.29 138.1 158.29 143.9 156.79 144.4 90.89"/><polygon class="cls-7" points="107.9 69.89 102 71.29 138.5 92.29 144.4 90.89 107.9 69.89"/><ellipse class="cls-22" cx="118.3" cy="103.69" rx="10.6" ry="11.7"/><ellipse class="cls-27" cx="116.6" cy="104.19" rx="3.7" ry="4.2"/><circle class="cls-14" cx="113.1" cy="101.89" r="2"/><polygon class="cls-10" points="100.4 105.99 102.7 105.59 102.7 72.39 96.7 73.79 100.4 105.99"/><path class="cls-13" d="m145.3,117.79l.2-29.5c0-.9-.5-1.7-1.2-2.1l-34.2-18-13.3,4.4,31.4,19.4c1.3.7,2.9,1.9,3.3,3.2l6.1,23.9,7.7-1.3Z"/><polygon class="cls-1" points="133.8 127.89 133.8 150.89 104.8 134.19 104.8 112.59 133.8 127.89"/><path class="cls-15" d="m137.5,118.99h-.7l-6.4-23.6c-.3-1.1-1.5-2-3-2.9l-29.1-17.9c-.5-.3-1.2.1-1.2.8l3.1,30.6-.5-.1-4.1-31.4c-.2-1.6,1.4-2.7,2.8-1.9,8.4,4.7,31,18.1,33,20.5,1.9,2.2,6.1,25.9,6.1,25.9Z"/><line class="cls-19" x1="130" y1="140.89" x2="107.7" y2="128.99"/><line class="cls-19" x1="130" y1="136.09" x2="107.7" y2="124.09"/><line class="cls-19" x1="130" y1="131.29" x2="107.7" y2="119.29"/></g></g></g><g class="cls-24"><g id="ETAGE"><path id="sol" class="cls-25" d="m3744.2-2408.81c-.2-.2-838.7,482-1249.1,720.5l-713.4-411.6L-8.9-1072.71l811.2,467.7L1871.6,11.79l1560.5-901.3,1471.6-849.5c.2,0-1154.5-666.7-1159.5-669.8Zm-981.1,824.2l-222.8-128.8,490.9-283.1,222.8,128.5-490.9,283.4Z"/><g id="mur_gauche"><path id="mur" class="cls-3" d="m1870.9-709.11L-63.3-1741.21l2.7,644.1L1871.6,11.79l-.7-720.9Zm-1287.1-169.7l-337.9-202-.2-345.8,345.3,193.2-7.2,354.6Zm376.7,206.9l-346.1-196.1v-345.8l346.1,196.1v345.8Zm419.7,246.3l-393.2-227.1v-345.9l393.2,227v346Z"/></g></g></g></g></g></g></svg>