<?xml version="1.0" encoding="UTF-8"?><svg id="Calque_2" xmlns="http://www.w3.org/2000/svg" xmlns:xlink="http://www.w3.org/1999/xlink" viewBox="0 0 151.4 151.4"><defs><style>.cls-1{fill:#e5e5e5;}.cls-1,.cls-2,.cls-3,.cls-4,.cls-5,.cls-6,.cls-7,.cls-8,.cls-9,.cls-10,.cls-11{fill-rule:evenodd;}.cls-2{fill:#f3f7ff;}.cls-3{fill:#bc7a6c;}.cls-4{fill:#636770;}.cls-5{fill:#777a84;}.cls-6{fill:#9fc6e3;}.cls-7{fill:#eae9e8;}.cls-12{fill:none;}.cls-13{clip-path:url(#clippath-3);}.cls-8{fill:#ffc49a;}.cls-9{fill:#ededed;}.cls-14{fill:#dfe3ed;}.cls-10{fill:#8c909b;}.cls-11{fill:#5f646b;}</style><clipPath id="clippath-3"><circle class="cls-12" cx="75.7" cy="75.7" r="75.7"/></clipPath></defs><g id="Calque_1-2"><g id="Calque_2-2"><g class="cls-13"><g id="RDC"><g id="sol"><polygon class="cls-7" points="-942 1472.8 485.6 648.3 -584.2 31.1 -2011.2 854.7 -942 1472.8"/></g><g id="mur_de_droite"><polygon class="cls-9" points="-629.3 -613.5 -584.6 -639.2 529.9 4.7 484.7 30.3 -629.3 -613.5"/><polygon class="cls-2" points="-629.3 6.2 -629.3 -613.5 486.8 31.2 487.1 648.5 -629.3 6.2"/><g id="ecran_ext"><polygon class="cls-5" points="39.5 30.8 39.5 82.1 102 118.5 102 67 39.5 30.8"/><polygon class="cls-10" points="46.6 26.8 39.5 30.8 102 67 102 118.5 108 114.6 108 63.4 46.6 26.8"/><polygon class="cls-6" points="46.1 40 46.1 74.8 95.4 103 95.4 68.4 46.1 40"/><polygon class="cls-4" points="108 63.4 102 67 102 118.5 108 114.6 108 63.4"/><polygon class="cls-5" points="44.7 77.6 94.1 106.2 94.1 114.8 44.7 86.4 44.7 77.6"/><polygon class="cls-11" points="44.7 77.6 46.1 76.9 95.4 105.3 95.4 114.4 94.1 114.8 94.1 106.2 44.7 77.6"/></g></g><g id="fenetre_droite"><polygon class="cls-1" points="-451.3 -283.8 -451.5 -150.1 5.4 114 5.4 -29.8 -451.3 -283.8"/><path class="cls-3" d="m-470.4-315.4l1.8,258L17.5,224.3l1.6-257.9-489.5-281.8Zm19.1,243.5v-206L-5.2-20.3l.5,206L-451.3-71.9Z"/><polygon class="cls-8" points="17.6 224.3 22.8 221.2 22.8 -35.4 19.2 -33.7 17.6 224.3"/></g><g id="mur_entrée"><g id="mur"><polygon class="cls-9" points="486.3 -21.3 -2546.5 1729.8 -2502 1756.3 530.2 4.6 486.3 -21.3"/><path class="cls-14" d="m-2502.9,1756.3l-.2,669.4,490.7-283.4v-514.7l889.1-509.5,3.1,509.1L529.9,674.3l.4-669.5-3033.2,1751.5ZM-228,957.8l-713.7,412.1v-309L-228,648.8v309Zm574.5-301.4l-124,70.8v-381.2l124-70.7v381.1Z"/></g></g></g></g></g></g></svg>