<?xml version="1.0" encoding="UTF-8"?><svg id="Calque_2" xmlns="http://www.w3.org/2000/svg" xmlns:xlink="http://www.w3.org/1999/xlink" viewBox="0 0 64.2 64.2"><defs><style>.cls-1{fill:#f3f7ff;}.cls-1,.cls-2,.cls-3,.cls-4{fill-rule:evenodd;}.cls-5{fill:#b0b9d4;}.cls-2,.cls-6{fill:#937b6a;}.cls-7{fill:none;}.cls-8{fill:#ecf1fb;}.cls-9{clip-path:url(#clippath-3);}.cls-3{fill:#ededed;}.cls-10{fill:#dfe3ed;}.cls-4{fill:#d8d8d8;}</style><clipPath id="clippath-3"><circle class="cls-7" cx="32.1" cy="32.1" r="32.1"/></clipPath></defs><g id="Calque_1-2"><g id="Calque_2-2"><g class="cls-9"><g id="RDC"><g id="mur_garage"><polygon class="cls-6" points="-394.3 -1021.4 319.5 -615.3 318.6 2.6 -394.7 -409 -394.3 -1021.4"/></g><g id="escalier_cave"><polygon class="cls-2" points="-620.2 -281.9 138.4 154.8 350.7 6.6 -394.7 -411.5 -620.2 -281.9"/></g><polygon class="cls-4" points="-620.2 -281.9 -2190.5 614.3 -1375.1 1084.1 202.3 174.7 -620.2 -281.9"/><g id="mur_du_fond"><polygon class="cls-3" points="1613.2 -1362.3 1563.7 -1390.6 -1425.4 338.1 -1377.3 365.8 96.3 -486.6 1613.2 -1362.3"/><polygon class="cls-1" points="-27.9 266.1 7.6 285.7 7.6 -227.9 -27.9 -207.8 -27.9 266.1"/><path class="cls-10" d="m1568.5-1336.3L-1377.3,365.8l1.4,718.3L-171,388.8V-126.1L7.5-227.9V285.8l177.9-102.7-.2-51.4,1383.3-798.4v-669.6Zm-312.5,734l-133.8,77.3v-399.3l134.1-77.1-.3,399.1Z"/></g><g id="mur_entrée"><g id="mur"><polygon class="cls-3" points="2684.1 -744.4 -348.7 1006.7 -304.2 1033.2 2728 -718.5 2684.1 -744.4"/><path class="cls-10" d="m-305.1,1033.2l-.2,669.4,490.7-283.4v-514.7l889.1-509.5,3.1,509.1L2727.7-48.8l.4-669.5L-305.1,1033.2ZM1969.8,234.7l-713.7,412.1v-309L1969.8-74.3V234.7Zm574.5-301.4l-124,70.8v-381.2l124-70.7V-66.7Z"/></g></g><g id="interrupteur"><g><path class="cls-5" d="m18.6,53.7l1.5.9-.3-31.6c0-1.4.8-2.7,2-3.4l20.3-11.7-1.7-.4c-.2-.1-.5,0-.6.1l-19.8,11.1c-1.1.6-1.7,1.7-1.7,3l.1,31.3c-.2.4-.1.6.2.7Z"/><path class="cls-8" d="m19.6,22.1v32c0,.5.5.8.9.5l20.8-12.1c.5-.3.9-.9.9-1.6V8.2c0-.3-.3-.5-.5-.3l-20.8,12.1c-.8.6-1.3,1.3-1.3,2.1Z"/></g><g><path class="cls-5" d="m24,46.4l.7.4-.1-20.6c0-.9.5-1.8,1.3-2.3l13-7.6-.9-.2c-.2,0-.3,0-.4.1l-13.2,7.3c-.7.4-.9.6-.9,1.4l.2,21c0,.2.1.3.3.5Z"/><path class="cls-8" d="m24.4,25v21.4c0,.3.3.5.5.3l13.5-7.9c.4-.2.6-.6.6-1v-21.2c0-.2-.2-.3-.4-.2l-13.8,7.6c-.2.2-.4.6-.4,1Z"/></g></g></g></g></g></g></svg>