<?xml version="1.0" encoding="UTF-8"?><svg id="Calque_2" xmlns="http://www.w3.org/2000/svg" xmlns:xlink="http://www.w3.org/1999/xlink" viewBox="0 0 550 550"><defs><style>.cls-1{fill:#d1d5e0;}.cls-2{fill:#dae3ef;}.cls-3{fill:#dfe4ed;}.cls-4{fill:#b5bad0;}.cls-5{fill:#aaa;}.cls-5,.cls-6,.cls-7{fill-rule:evenodd;}.cls-6{fill:#c8cfdb;}.cls-8{clip-path:url(#clippath-1);}.cls-9{fill:#c3cee0;}.cls-10{fill:#f2f3f9;}.cls-11,.cls-7{fill:#f7efe8;}.cls-12{fill:#fafafc;}.cls-13{fill:#c7d0dd;}.cls-14{fill:#dabfac;}.cls-15{fill:none;}.cls-16{fill:#acafbc;}.cls-17{fill:#c7bfb9;}.cls-18{fill:#fbf5e9;}.cls-19{fill:#dadeea;}.cls-20{fill:#dedffb;}.cls-21{fill:#68687d;}.cls-22{fill:#7c7f8c;}</style><clipPath id="clippath-1"><circle class="cls-15" cx="275" cy="275" r="275"/></clipPath></defs><g id="Calque_1-2"><g id="Calque_2-2"><g class="cls-8"><g id="SOUS_SOL"><polygon id="sol" class="cls-17" points="500.1 83.3 -1290.5 1110.5 -479.4 1578.2 -479.4 1578.2 -479.4 1578.2 590 2195 2373.6 1151.9 500.1 83.3"/><g id="arriere_1"><polygon class="cls-14" points="545.3 -456.3 550.1 109.7 -1245.1 1132 -1245.7 570.6 545.3 -456.3"/><polygon class="cls-11" points="589.7 -482.2 -1242 572.7 -1289.5 545.3 545.3 -507.8 589.7 -482.2"/></g><g id="droite_1"><polygon class="cls-18" points="545 110.8 545.3 -456.3 2329.5 572.7 2329.3 1140.7 545 110.8"/><polygon class="cls-7" points="500.7 -482.2 545.3 -507.8 2410 568.7 2363.7 594.4 500.7 -482.2"/></g><g id="gauche"><polygon class="cls-18" points="-1290.5 544.2 -1290.5 1107.6 590.2 2195 589.8 1631.2 -1290.5 544.2"/><polygon class="cls-11" points="634.6 1605.4 -1244.4 519.4 -1290.5 544.2 589.8 1631.2 634.6 1605.4"/></g><g id="escalier_soussol"><polygon class="cls-5" points="562.8 23.5 532.6 6.3 768.4 -128.9 768.4 -94.6 562.8 23.5"/><polygon class="cls-5" points="562.8 23.5 532.6 6.3 768.4 -128.9 768.4 -94.6 562.8 23.5"/><polygon class="cls-6" points="343.2 -338.7 348.9 224.3 850.2 522.2 849.8 493.7 821.4 477.2 821 443.4 792.5 426.9 792.1 393.1 763.6 376.6 763.2 342.8 735.5 325.9 735.6 291.6 707.1 275 706.7 241.2 678.3 224.7 677.3 190.7 648.3 173.9 648.5 140.3 620 123.8 619.6 90 590.9 73.3 590.8 39.7 562.8 23.5 562.4 -10.3 534 -26.8 533.6 -60.6 505.1 -77.1 504.7 -110.9 476.3 -127.4 475.9 -161.3 447.4 -177.7 447.1 -211.6 418.6 -228 418.2 -261.8 389.8 -278.3 389.8 -315 343.2 -338.7"/></g><g id="machine_a_laver"><polygon class="cls-16" points="78.6 429.1 78.6 445.1 206.2 518.9 422.3 394.4 422.3 369.8 78.6 429.1"/><polygon class="cls-12" points="295.4 42.7 72.3 171.5 206.2 248.7 427.8 119.9 295.4 42.7"/><polygon class="cls-4" points="427.8 376.7 427.8 119.9 206.2 248.7 206.2 506.3 427.8 376.7"/><polygon class="cls-20" points="72.3 171.5 72.3 429 206.2 506.3 206.2 248.7 72.3 171.5"/><path class="cls-10" d="m91.9,174.8l109.6,62.2c2.9,1.6,6.4,1.6,9.3-.1l192.6-111.6c2.5-1.5,2.6-5.1.1-6.6l-104.2-63.2c-2.4-1.5-5.4-1.5-7.9-.2l-199.5,112.9c-2.5,1.5-2.5,5.1,0,6.6Z"/><g><polygon class="cls-19" points="427.8 376.7 206.2 506.3 206.2 248.7 427.8 119.9 427.8 376.7"/><path class="cls-9" d="m423.2,176.4l-212.2,123.6c-1,.5-1.8,0-1.8-1.2v-47.9c0-1.2.8-2.7,1.8-3.3l212.2-123.5c1-.5,1.8,0,1.8,1.2v47.7c0,1.3-.9,2.8-1.8,3.4Z"/><path class="cls-2" d="m420,174.4l-166.2,96.8c-1.3.8-2.4.1-2.4-1.6v-39.9c0-1.6,1.1-3.6,2.4-4.4l166.2-96.7c1.3-.8,2.4-.1,2.4,1.6v39.7c0,1.8-1.1,3.7-2.4,4.5Z"/><path class="cls-22" d="m387.4,298c0,48.6-31.5,106.4-70.4,129.1s-70.4,1.7-70.4-47,31.6-106.5,70.4-129.1c38.9-22.7,70.4-1.6,70.4,47Z"/><path class="cls-21" d="m295,238l-33.9,19.7c-1.9,1.2-3.5.1-3.5-2.3v-20.2c0-2.4,1.6-5.4,3.5-6.5l33.9-19.7c1.9-1.2,3.5-.1,3.5,2.3v20.1c0,2.6-1.6,5.5-3.5,6.6Z"/><path class="cls-22" d="m330,203.2c0,8.9-5.8,19.5-12.9,23.7-7.2,4.1-12.9.3-12.9-8.6s5.8-19.5,12.9-23.7,12.9-.4,12.9,8.6Z"/><path class="cls-1" d="m328.5,204c0,7.9-5.1,17.3-11.5,21.1-6.4,3.7-11.5.2-11.5-7.7s5.1-17.3,11.5-21.1c6.4-3.7,11.5-.3,11.5,7.7Z"/><path class="cls-3" d="m324.6,206.3c0,5.2-3.3,11.4-7.5,13.8-4.2,2.4-7.5.2-7.5-5.1s3.3-11.4,7.5-13.8c4.1-2.4,7.5-.1,7.5,5.1Z"/><path class="cls-2" d="m246.3,275.6l-32.9,19.2c-1.3.8-2.4.1-2.4-1.6v-39.8c0-1.6,1.1-3.6,2.4-4.4l32.9-19.1c1.3-.8,2.4-.1,2.4,1.6v39.8c-.1,1.6-1.1,3.6-2.4,4.3Z"/><path class="cls-2" d="m385.5,299.2c0,47.3-30.6,103.5-68.4,125.6-37.9,22.1-68.5,1.7-68.5-45.6s30.7-103.6,68.5-125.6c37.8-22.1,68.4-1.7,68.4,45.6Z"/><path class="cls-13" d="m381.8,301.4c0,44.7-29,97.9-64.7,118.8-35.8,20.9-64.8,1.6-64.8-43.1s29-98,64.8-118.9c35.7-20.9,64.7-1.5,64.7,43.2Z"/><path class="cls-21" d="m365.9,310.7c0,33.7-21.8,73.7-48.7,89.5-27,15.8-48.8,1.2-48.8-32.5s21.8-73.8,48.8-89.5c26.9-15.8,48.7-1.2,48.7,32.5Z"/></g></g><g id="separation"><polygon class="cls-11" points="-461.7 123.3 -417 97.6 650.9 723.4 620 741.3 -461.7 123.3"/><polygon class="cls-18" points="-462 690.3 -461.7 123.3 620 741.3 619.9 1309.3 -462 690.3"/></g></g></g></g></g></svg>