<?xml version="1.0" encoding="UTF-8"?><svg id="Calque_2" xmlns="http://www.w3.org/2000/svg" xmlns:xlink="http://www.w3.org/1999/xlink" viewBox="0 0 259.8 259.8"><defs><style>.cls-1{fill:#c1cad3;}.cls-1,.cls-2,.cls-3,.cls-4,.cls-5,.cls-6,.cls-7,.cls-8,.cls-9,.cls-10,.cls-11,.cls-12,.cls-13,.cls-14,.cls-15,.cls-16,.cls-17,.cls-18,.cls-19,.cls-20,.cls-21,.cls-22,.cls-23{fill-rule:evenodd;}.cls-2{fill:#c0c9d8;}.cls-3{fill:#778196;}.cls-4{fill:#e2ebf2;}.cls-5{fill:#c7d0db;}.cls-6{fill:#cfdae5;}.cls-7{fill:#a4b9d6;}.cls-8,.cls-24{fill:#d9beab;}.cls-9{fill:#5f687d;}.cls-10{fill:#f3f7ff;}.cls-11{fill:#e4ecf4;}.cls-12{fill:#d8cec5;}.cls-13{fill:#eef7ff;}.cls-14{fill:#b1b7c9;}.cls-15{fill:#f3faff;}.cls-16{fill:#5a5e63;}.cls-25{stroke:#808489;stroke-linecap:round;stroke-miterlimit:7.77;stroke-width:1.54px;}.cls-25,.cls-26{fill:none;}.cls-17{fill:#eae9e8;}.cls-27{clip-path:url(#clippath-3);}.cls-18{fill:#ededed;}.cls-28{fill:#dfe3ed;}.cls-19{fill:#dfe6ee;}.cls-20{fill:#c1c4db;}.cls-21{fill:#d8d8d8;}.cls-22{fill:#bcc2c9;}.cls-23{fill:#edded1;}</style><clipPath id="clippath-3"><circle class="cls-26" cx="129.9" cy="129.9" r="129.9"/></clipPath></defs><g id="Calque_1-2"><g id="Calque_2-2"><g class="cls-27"><g id="RDC"><g id="mur_garage"><polyline class="cls-24" points="292 -950 -1503.5 73.5 -1500.6 -529.5 292.4 -1562.4"/></g><g id="sol"><polygon class="cls-17" points="872.2 -358 -689.1 543.1 382.5 1161.6 1943 260.3 872.2 -358"/></g><polygon class="cls-21" points="66.5 -822.9 -1503.8 73.3 -688.4 543.1 889 -366.3 66.5 -822.9"/><g id="mur_du_fond"><path class="cls-28" d="m2255.2-1877.3L-690.6-175.2l1.4,718.3L515.7-152.2v-514.9l178.5-101.8V-255.2l177.9-102.7-.2-51.4,1383.3-798.4v-669.6Zm-312.5,734l-133.8,77.3v-399.3l134.1-77.1-.3,399.1Z"/></g><g id="frigo"><polygon class="cls-20" points="211.6 -523.9 211.6 -16.6 345.4 57.3 345.3 -446.7 211.6 -523.9"/></g><g id="plan_de_trvail"><polygon class="cls-8" points="226.4 15.5 358.5 92.8 -421.5 543.6 -597.8 441.8 226.4 15.5"/><polygon class="cls-17" points="194.2 -228.3 377.5 -121.6 -435.8 346.4 -619.6 238.8 194.2 -228.3"/><polygon class="cls-12" points="369.9 137.9 370.4 -117.6 -435.8 346.4 -435.8 609.5 369.9 137.9"/><g id="four"><polygon class="cls-3" points="369.9 86.4 202.9 183 202.5 34 370.3 -63.2 369.9 86.4"/><polygon class="cls-14" points="370.3 -63.2 202.5 34 202.4 -11.7 370.3 -109.1 370.3 -63.2"/><path class="cls-9" d="m333.9,85.2l-93.8,54.3c-6.5,3.7-11.8-.3-11.8-9.1l-.2-70c0-8.9,5.3-19,11.8-22.9l94.1-54.5c6.5-3.8,11.8.3,11.8,9.2l-.1,70.2c0,8.8-5.3,19.1-11.8,22.8Z"/><g><path class="cls-16" d="m243.5-12.9c.2,5.8-3.3,12.7-7.7,15.3s-8.1-.1-8.2-5.9c-.1-5.8,3.3-12.7,7.7-15.3,4.3-2.5,8,.1,8.2,5.9Z"/><path class="cls-14" d="m242.7-12.2c0,5.1-3,11.1-6.8,13.3s-6.8-.2-6.9-5.4c0-5.1,3-11.1,6.8-13.3,3.8-2.1,6.9.3,6.9,5.4Z"/><polygon class="cls-14" points="240 -17.9 243.9 -15.4 235.7 4.2 231.3 1.5 240 -17.9"/><path class="cls-2" d="m246.8-9.5c0,5.1-3,11.1-6.8,13.3s-6.8-.2-6.9-5.4c0-5.1,3-11.1,6.8-13.3,3.8-2.2,6.9.2,6.9,5.4Z"/></g><polygon class="cls-14" points="369.9 117 202.9 213.5 202.9 183.3 369.9 86.7 369.9 117"/><line class="cls-25" x1="229.2" y1="112.3" x2="344.2" y2="47.2"/><line class="cls-25" x1="229.9" y1="63.2" x2="344.5" y2="-2.1"/></g><g id="machine_a_laver"><polygon class="cls-22" points="202.9 218.7 24.5 318.8 24.7 83.8 202.9 -16.1 202.9 218.7"/><polygon class="cls-6" points="25.9 95.6 31.8 99.9 32 320.2 25.9 318.5 25.9 95.6"/><polygon class="cls-11" points="31.8 99.9 203.8 -.4 203.8 218.7 32 320.2 31.8 99.9"/><polygon class="cls-13" points="31.8 144.8 203.3 46.4 203.8 -.4 31.8 99.9 31.8 144.8"/><polygon class="cls-4" points="25.9 95.6 197.4 -4.4 203.8 -.4 31.8 99.9 25.9 95.6"/><g><path class="cls-5" d="m182,35.2c.2,7.5-4.3,16.5-10,19.8s-10.5-.1-10.7-7.6,4.3-16.5,10-19.8c5.8-3.3,10.6.1,10.7,7.6Z"/><path class="cls-19" d="m181,36.2c0,6.7-4,14.4-8.9,17.3s-8.9-.2-8.9-6.9,4-14.4,8.9-17.3,8.9.2,8.9,6.9Z"/><polygon class="cls-19" points="177.7 28.7 182.6 31.9 171.9 57.4 166.2 53.8 177.7 28.7"/><path class="cls-15" d="m186.4,39.6c0,6.7-4,14.4-8.9,17.3-4.9,2.9-8.9-.2-8.9-6.9s4-14.4,8.9-17.3,8.9.2,8.9,6.9Z"/></g></g><polygon class="cls-23" points="-435.8 361.4 -435.8 346.4 377.5 -121.6 377.5 -110.2 -435.8 361.4"/><path class="cls-22" d="m329-24.7l-5.6-3-3.4,1.9,5.2,3c1.2.9,1.2,2.8-.2,3.6l-63.4,36.1c-1.4.9-3.3.8-4.6-.2l-5.1-3.3-4.2,2.4,7.9,5c1.9,1.3,4.5,1.4,6.6.2l66.6-38.4c2.7-1.5,2.9-5.4.2-7.3Z"/><polygon class="cls-22" points="247.7 10.7 247.7 16 259.2 21.6 330.9 -20.6 330.9 -26.9 328.2 -25.2 259.6 16.4 247.7 10.7"/><path class="cls-1" d="m329-30.1l-5.6-3-3.4,1.9,5.2,3c1.2.9,1.2,2.8-.2,3.6l-63.4,36.1c-1.4.9-3.3.8-4.6-.2l-5.1-3.3-4.2,2.4,7.9,5c1.9,1.3,4.5,1.4,6.6.2l66.6-38.4c2.7-1.4,2.9-5.5.2-7.3Z"/><path class="cls-7" d="m113.8,69.9v13.7c0,.5.5.8.9.5l33.8-19.4c.4-.2.6-.6.6-1.1v-13.1c0-.7-.8-1.2-1.4-.9l-33.1,18.9c-.5.3-.8.9-.8,1.4Z"/><polygon class="cls-14" points="19.4 84.2 -164.2 -23.8 -437.7 135.1 -253.8 241 19.4 84.2"/></g><g id="mur_garage-2"><path class="cls-10" d="m382.2,491.6L-1551.4-624.5V45.7l170.8,98.8-.7-489.9L-843.6-32.6l1.2,487.8L382.6,1161.7l-.4-670.1Zm-446.8,52L-644.5,208.7V54.1L-64.6,389v154.6Z"/><polygon class="cls-18" points="-1454 -618.7 426.1 466.3 382.2 491.6 -1498.4 -593.4 -1454 -618.7"/></g></g></g></g></g></svg>