<?xml version="1.0" encoding="utf-8"?>
<!-- Generator: Adobe Illustrator 27.1.1, SVG Export Plug-In . SVG Version: 6.00 Build 0)  -->
<svg version="1.1" xmlns="http://www.w3.org/2000/svg" xmlns:xlink="http://www.w3.org/1999/xlink" x="0px" y="0px"
	 viewBox="0 0 534.2 534.2" style="enable-background:new 0 0 534.2 534.2;" xml:space="preserve">
<style type="text/css">
	.st0{display:none;}
	.st1{display:inline;}
	.st2{fill:none;}
	.st3{fill:#DFE3ED;}
	.st4{fill:#EAE9E8;}
	.st5{opacity:0.5;fill:#627184;enable-background:new    ;}
	.st6{fill:#8D94A8;}
	.st7{fill:#76798C;}
	.st8{fill:#E8D2CD;}
	.st9{fill:#6A6C72;}
	.st10{fill:#ABADB7;}
	.st11{fill:#C1CDDB;}
	.st12{fill:#DCE9F4;}
	.st13{fill:#919299;}
	.st14{fill:#778D9E;}
	.st15{fill:#F0F0F0;}
</style>
<g id="Calque_1">
	<g id="grille" class="st0">
	</g>
	<g id="SOUS_SOL" class="st0">
		<g id="arrière_2" class="st1">
		</g>
		<g id="Calque_104" class="st1">
		</g>
		<g id="baie" class="st1">
			<g id="Calque_150">
			</g>
			<g id="Calque_149">
			</g>
		</g>
	</g>
	<g id="haie">
	</g>
	<g id="RDC">
		<g id="cailloux">
		</g>
		<g id="cuisine">
		</g>
		<g id="escalier">
		</g>
		<g id="fondation">
		</g>
		<g id="Calque_171">
		</g>
		<g id="four">
		</g>
		<g id="Calque_46">
		</g>
		<g id="pand_droit">
		</g>
		<g id="Calque_141">
		</g>
	</g>
	<g id="Calque_83">
	</g>
	<g id="ETAGE" class="st0">
		<g id="Calque_109" class="st1">
		</g>
		<g id="salle_de_bain_00000058565531200865430740000005538753937728622983_" class="st1">
			<g id="Calque_175">
			</g>
			<g id="salle_de_bain">
			</g>
		</g>
		<g id="mur_00000124865647295769880400000010316874631114918807_" class="st1">
		</g>
		<g id="Calque_174" class="st1">
		</g>
	</g>
	<g id="velux">
	</g>
</g>
<g id="Calque_2">
	<g>
		<path class="st2" d="M420.8,48.6c0.6,0.4,1.2,0.8,1.8,1.3c1.2,0.9,2.4,1.7,3.5,2.6c3.5,2.6,6.9,5.2,10.2,8
			c8.2,6.8,16.1,14,23.4,21.7c40.9,42.5,67.7,98.6,73.3,160.8V0h-266c43.9,0,85.4,10.6,122,29.4C400.1,35.1,410.7,41.5,420.8,48.6z"
			/>
		<path class="st2" d="M533.1,291.3c-3.6,40-16,77.5-35.3,110.4c2.6-1.5,6.2-2.4,10.1-2.4c8,0,14.5,3.8,14.5,8.4h0v26.5h0
			c0,0,0,0.1,0,0.1h0v73.2h0c0,4.6-6.5,8.4-14.5,8.4s-14.5-3.8-14.5-8.4c0,0,0,0,0,0v-73.1c0,0,0,0,0,0c0,0,0-0.1,0-0.1h0v-25.4
			c-47.2,75.3-131,125.3-226.4,125.3h266V291.3z"/>
		<path class="st2" d="M152.4,508.4C152.4,508.4,152.4,508.4,152.4,508.4c-2.7-1.3-5.3-2.6-7.9-3.9c-26.5-13.7-50.4-31.7-70.8-53.1
			c-4.3-4.6-8.5-9.3-12.5-14.1c-0.8-0.9-1.5-1.8-2.2-2.8c-3.9-4.8-7.6-9.8-11.2-14.9c-0.6-0.9-1.2-1.7-1.8-2.6
			c-3.5-5.1-6.8-10.4-9.9-15.7c-0.5-0.8-1-1.7-1.5-2.6c-3.1-5.4-5.9-10.9-8.6-16.5c-0.4-0.9-0.8-1.7-1.2-2.6
			c-2.6-5.7-5.1-11.4-7.3-17.3c-0.3-0.9-0.7-1.8-1-2.7c-2.2-5.9-4.2-12-5.9-18.1c-0.3-0.9-0.5-1.9-0.8-2.8c-1.7-6.2-3.2-12.6-4.5-19
			c-0.2-1-0.4-2-0.6-3c-1.2-6.5-2.2-13.1-3-19.8c-0.1-1-0.2-2-0.3-3.1c-0.1-0.9-0.2-1.9-0.3-2.8C0.4,283.1,0,275.1,0,267.1
			c0-5.2,0.2-10.3,0.5-15.4C8.4,111.3,124.8,0,267.1,0H150.8L-1.1,87.6v446.6h268.2c-28.8,0-56.5-4.6-82.5-13
			C173.5,517.6,162.8,513.3,152.4,508.4z"/>
		<path class="st3" d="M0.5,251.7L389.1,29.4C352.5,10.6,311,0,267.1,0C124.8,0,8.4,111.3,0.5,251.7z"/>
		<path class="st3" d="M493.5,408.9v-1.1c0,0,0,0,0,0c0-2.3,1.7-4.5,4.3-6c19.3-33,31.7-70.4,35.3-110.4v-48.4
			c-5.6-62.2-32.5-118.2-73.3-160.8l1,277.6L184.6,521.2c26,8.4,53.7,13,82.5,13C362.5,534.2,446.2,484.2,493.5,408.9z"/>
		<polygon class="st4" points="221.3,468.6 152.4,508.4 152.4,508.4 221.3,468.6 		"/>
		<polygon class="st5" points="221.3,468.6 152.4,508.4 152.4,508.4 221.3,468.6 		"/>
		<path class="st4" d="M218.1,455.2c0-19.4,19-35.4,43.5-37.5v-16.7c-26.4-1.3-48-12.6-53.7-27.4L73.7,451.4
			c20.4,21.4,44.3,39.4,70.8,53.1l74.3-42.9C218.4,459.5,218.1,457.4,218.1,455.2z"/>
		<path class="st5" d="M218.1,455.2c0-19.4,19-35.4,43.5-37.5v-16.7c-26.4-1.3-48-12.6-53.7-27.4L73.7,451.4
			c20.4,21.4,44.3,39.4,70.8,53.1l74.3-42.9C218.4,459.5,218.1,457.4,218.1,455.2z"/>
		<polygon class="st4" points="296.6,425.1 436.3,344.5 296.6,425.1 		"/>
		<polygon class="st5" points="296.6,425.1 436.3,344.5 296.6,425.1 		"/>
		<path class="st4" d="M327,304.7v61.1c0,18.5-24.3,33.7-55.2,35.2v16.6c5.9,0.4,11.6,1.7,16.7,3.6l139.9-80.7l0-94.5L327,304.7z"/>
		<path class="st5" d="M327,304.7v61.1c0,18.5-24.3,33.7-55.2,35.2v16.6c5.9,0.4,11.6,1.7,16.7,3.6l139.9-80.7l0-94.5L327,304.7z"/>
		<rect x="269.8" y="432.3" class="st6" width="28.7" height="0"/>
		<rect x="269.8" y="432.3" class="st5" width="28.7" height="0"/>
		<path class="st6" d="M218.1,455.2c0,2.1,0.2,4.2,0.7,6.3l42.8-24.7v-19C237.2,419.9,218.1,435.8,218.1,455.2z"/>
		<path class="st5" d="M218.1,455.2c0,2.1,0.2,4.2,0.7,6.3l42.8-24.7v-19C237.2,419.9,218.1,435.8,218.1,455.2z"/>
		<path class="st6" d="M271.8,431l16.7-9.7c-5.1-1.9-10.8-3.2-16.7-3.6V431z"/>
		<path class="st5" d="M271.8,431l16.7-9.7c-5.1-1.9-10.8-3.2-16.7-3.6V431z"/>
		<rect x="241.5" y="433.7" class="st6" width="0" height="46.6"/>
		<rect x="241.5" y="433.7" class="st5" width="0" height="46.6"/>
		<path class="st7" d="M271.8,401.1c-1.7,0.1-3.3,0.1-5.1,0.1s-3.4-0.1-5.1-0.1v16.7v19l10.1-5.8v-13.3V401.1z"/>
		<path class="st5" d="M271.8,401.1c-1.7,0.1-3.3,0.1-5.1,0.1s-3.4-0.1-5.1-0.1v16.7v19l10.1-5.8v-13.3V401.1z"/>
		<rect x="266.7" y="436.6" class="st7" width="0" height="11.7"/>
		<rect x="266.7" y="436.6" class="st5" width="0" height="11.7"/>
		<path class="st8" d="M271.8,401.1c30.9-1.5,55.2-16.7,55.2-35.2v-61.1l-119,68.9c5.7,14.8,27.3,26.1,53.7,27.4
			c1.7,0.1,3.3,0.1,5.1,0.1S270.1,401.2,271.8,401.1z"/>
		<path class="st5" d="M271.8,401.1c30.9-1.5,55.2-16.7,55.2-35.2v-61.1l-119,68.9c5.7,14.8,27.3,26.1,53.7,27.4
			c1.7,0.1,3.3,0.1,5.1,0.1S270.1,401.2,271.8,401.1z"/>
		<polygon class="st9" points="428.3,340.6 436.3,344.5 436.3,241.4 428.3,246.1 		"/>
		<polygon class="st5" points="428.3,340.6 436.3,344.5 436.3,241.4 428.3,246.1 		"/>
		<path class="st10" d="M261.7,445.3l10.1-5.8l24.8-14.3l139.7-80.7l-8-3.9l-139.9,80.7l-16.7,9.7l-10.1,5.8l-42.8,24.7l-74.3,42.9
			c2.6,1.4,5.3,2.7,7.9,3.9l68.9-39.8L261.7,445.3z"/>
		<path class="st5" d="M261.7,445.3l10.1-5.8l24.8-14.3l139.7-80.7l-8-3.9l-139.9,80.7l-16.7,9.7l-10.1,5.8l-42.8,24.7l-74.3,42.9
			c2.6,1.4,5.3,2.7,7.9,3.9l68.9-39.8L261.7,445.3z"/>
		<path class="st11" d="M436.3,221.3V216L59,434.5c0.7,0.9,1.5,1.9,2.2,2.8L436.3,221.3z"/>
		<path class="st11" d="M436.3,145.9v-4.7L24.8,379.6c0.4,0.9,0.8,1.8,1.2,2.6L436.3,145.9z"/>
		<path class="st11" d="M436.3,170.7v-4.7L34.6,398.7c0.5,0.9,1,1.7,1.5,2.6L436.3,170.7z"/>
		<path class="st11" d="M436.3,195.8V191L46,417c0.6,0.9,1.2,1.7,1.8,2.6L436.3,195.8z"/>
		<path class="st11" d="M436.3,121.1v-4.7L16.4,359.5c0.3,0.9,0.7,1.8,1,2.7L436.3,121.1z"/>
		<path class="st11" d="M426.1,52.5c-1.2-0.9-2.4-1.7-3.5-2.6L1.3,293.8c0.1,1,0.2,2,0.3,3.1L426.1,52.5z"/>
		<path class="st11" d="M436.3,96.3v-4.7L9.7,338.6c0.3,0.9,0.5,1.9,0.8,2.8L436.3,96.3z"/>
		<path class="st11" d="M436.3,71.4v-4.7L4.6,316.7c0.2,1,0.4,2,0.6,3L436.3,71.4z"/>
		<path class="st12" d="M327,304.7l101.3-58.7l8.1-4.7v-20.1l-375.1,216c4,4.8,8.2,9.6,12.5,14.1L208,373.6L327,304.7z"/>
		<path class="st12" d="M436.3,216v-20.1L47.8,419.6c3.6,5.1,7.3,10.1,11.2,14.9L436.3,216z"/>
		<path class="st12" d="M436.3,191v-20.2L36.1,401.2c3.1,5.4,6.4,10.6,9.9,15.7L436.3,191z"/>
		<path class="st12" d="M422.6,49.9c-0.6-0.4-1.2-0.9-1.8-1.3L1.1,291c0.1,0.9,0.2,1.9,0.3,2.8L422.6,49.9z"/>
		<path class="st12" d="M436.3,66.7v-6.3c-3.3-2.7-6.8-5.4-10.2-8L1.7,296.8c0.7,6.7,1.7,13.3,3,19.8L436.3,66.7z"/>
		<path class="st12" d="M436.3,91.6V71.4L5.2,319.7c1.3,6.4,2.8,12.7,4.5,19L436.3,91.6z"/>
		<path class="st12" d="M436.3,116.4V96.3L10.5,341.4c1.8,6.1,3.7,12.2,5.9,18.1L436.3,116.4z"/>
		<path class="st12" d="M436.3,141.3v-20.2L17.5,362.3c2.2,5.9,4.7,11.6,7.3,17.3L436.3,141.3z"/>
		<path class="st12" d="M436.3,166.1v-20.1L26,382.2c2.7,5.6,5.6,11.1,8.6,16.5L436.3,166.1z"/>
		<path class="st13" d="M436.3,60.5v6.3v4.7v20.2v4.7v20.1v4.7v20.2v4.7v20.1v4.7V191v4.9V216v5.3v20.1v103l-139.7,80.7l-24.8,14.3
			l-10.1,5.8l-40.4,23.3l-68.9,39.8c10.4,4.9,21.1,9.2,32.1,12.8l276.2-161.5l-1-277.6C452.4,74.4,444.6,67.2,436.3,60.5z"/>
		<path class="st13" d="M420.8,48.6c-10.1-7.1-20.7-13.5-31.7-19.2L0.5,251.7C0.2,256.8,0,261.9,0,267.1c0,8,0.4,16,1.1,23.9
			L420.8,48.6z"/>
		<path class="st14" d="M493.5,507.5C493.5,507.5,493.5,507.5,493.5,507.5c0,4.6,6.5,8.4,14.5,8.4s14.5-3.8,14.5-8.4L493.5,507.5
			L493.5,507.5z"/>
		<path class="st15" d="M507.9,416.1c-8,0-14.5-3.8-14.5-8.4v1.1v25.4h0c0.1-4.6,6.5-8.3,14.5-8.3s14.4,3.7,14.5,8.3h0v-26.5h0
			C522.4,412.4,515.9,416.1,507.9,416.1z"/>
		<path class="st14" d="M507.9,442.7c-8,0-14.5-3.8-14.5-8.4v73.1v0h28.9h0v-73.2h0C522.4,439,515.9,442.7,507.9,442.7z"/>
		<path class="st15" d="M507.9,425.9c-7.9,0-14.4,3.7-14.5,8.3c0,0,0,0.1,0,0.1c0,0,0,0,0,0c0,4.6,6.5,8.4,14.5,8.4
			c8,0,14.5-3.8,14.5-8.4c0,0,0-0.1,0-0.1C522.3,429.6,515.9,425.9,507.9,425.9z"/>
		<path class="st14" d="M493.5,407.7C493.5,407.7,493.5,407.7,493.5,407.7c0,4.6,6.5,8.4,14.5,8.4c8,0,14.5-3.8,14.5-8.4
			s-6.5-8.4-14.5-8.4c-3.9,0-7.5,0.9-10.1,2.4C495.1,403.3,493.5,405.4,493.5,407.7z"/>
		<polygon class="st3" points="150.8,0 -1.1,0 -1.1,87.6 		"/>
	</g>
</g>
</svg>
