<?xml version="1.0" encoding="UTF-8"?><svg id="Calque_2" xmlns="http://www.w3.org/2000/svg" xmlns:xlink="http://www.w3.org/1999/xlink" viewBox="0 0 188.4 188.4"><defs><style>.cls-1{opacity:.22;}.cls-1,.cls-2,.cls-3{isolation:isolate;}.cls-1,.cls-4,.cls-5,.cls-6,.cls-7,.cls-8,.cls-9,.cls-10,.cls-11,.cls-12,.cls-13{fill-rule:evenodd;}.cls-14{fill:#bc957f;}.cls-2{opacity:.18;}.cls-15{fill:#f2f5f9;}.cls-4{fill:#7b7e8f;}.cls-16,.cls-12{fill:#a0a3af;}.cls-17{fill:#7e8298;}.cls-18{clip-path:url(#clippath-7);}.cls-19{fill:#f9d1aa;}.cls-5{fill:#8d909e;}.cls-6{fill:#7d8dad;}.cls-7{fill:#babdd1;}.cls-8{fill:#868ab0;}.cls-20{fill:#e5e9fb;}.cls-9{fill:#ddafad;}.cls-21{fill:#80828a;}.cls-22{fill:#b8ccca;}.cls-10{fill:#eae9e8;}.cls-23,.cls-24{fill:none;}.cls-11{fill:#e2ded7;}.cls-25{clip-path:url(#clippath-3);}.cls-3{opacity:.1;}.cls-26{clip-path:url(#clippath-8);}.cls-13,.cls-27{fill:#ededed;}.cls-24{stroke:#80828a;stroke-linecap:round;stroke-linejoin:round;stroke-width:6.87px;}.cls-28{fill:#dfe3ed;}.cls-29{clip-path:url(#clippath-5);}.cls-30{fill:#c1c5d1;}.cls-31{fill:#d6dde5;}.cls-32{fill:#8594c9;}</style><clipPath id="clippath-2"><circle class="cls-23" cx="94.2" cy="94.2" r="94.2"/></clipPath><clipPath id="clippath-3"><circle class="cls-23" cx="94.2" cy="94.2" r="94.2"/></clipPath><clipPath id="clippath-4"><circle class="cls-23" cx="94.2" cy="94.2" r="94.2"/></clipPath><clipPath id="clippath-5"><circle class="cls-23" cx="94.2" cy="94.2" r="94.2"/></clipPath><clipPath id="clippath-7"><circle class="cls-23" cx="94.2" cy="94.2" r="94.2"/></clipPath><clipPath id="clippath-8"><circle class="cls-23" cx="94.2" cy="94.2" r="94.2"/></clipPath></defs><g id="Calque_1-2"><g id="Calque_2-2"><g><g class="cls-25"><g id="RDC"><g id="sol"><polygon class="cls-10" points="281.2 607.7 1708.8 -216.8 638.9 -834 -788 -10.4 281.2 607.7"/><g id="tapis"><path class="cls-9" d="m393.7-496.9L1059.6-114.1c10.4,6,10.4,21,0,27.1L451.1,264.8c-4.8,2.8-10.7,2.8-15.5,0L-230-117.7c-10.4-6-10.4-21-.1-27.1L378.1-497c4.8-2.7,10.8-2.7,15.6.1Z"/></g><polyline class="cls-11" points="-789.4 -10.3 -789.2 41 281.7 659.3 281.7 607.8 -789.4 -10.3"/><polygon class="cls-10" points="-789.2 41 -2350.4 942 -1278.8 1560.6 281.7 659.3 -789.2 41"/></g><g id="mur_du_fond"><polygon class="cls-13" points="638.6 -1504.3 589 -1532.6 -2400 196.1 -2351.9 223.8 -878.3 -628.6 638.6 -1504.3"/><path class="cls-28" d="m593.9-1478.3L-2351.9,223.8l1.4,718.3L-1145.6,246.8V-268.1l178.5-101.9V143.7l177.9-102.7-.2-51.4L593.9-808.8v-669.5Zm-312.5,734l-133.8,77.3v-399.3l134.1-77.1-.3,399.1Z"/></g><g id="table_basse"><polygon class="cls-3" points="-32 -50.2 109.1 -132.4 414.3 52.4 285 131.5 -32 -50.2"/><polygon class="cls-19" points="-32 -153.2 280.4 27.2 414.2 -50.1 101.7 -230.4 -32 -153.2"/><polygon class="cls-14" points="280.4 49.2 -31.9 -132.3 -32 -153.2 280.4 27.2 280.4 49.2"/></g><g id="mur_entrée"><g id="mur"><polygon class="cls-13" points="1709.5 -886.4 -1323.3 864.7 -1278.8 891.2 1753.4 -860.5 1709.5 -886.4"/><path class="cls-28" d="m-1279.7,891.2l-.2,669.4,490.7-283.4v-514.7L99.9,252.9l3.1,509.1L1753.1-190.9l.4-669.5L-1279.7,891.2ZM995.2,92.7L281.4,504.8V195.8L995.1-216.3V92.7h.1Zm574.5-301.4l-124,70.8v-381.1l124-70.7V-208.7Z"/></g></g></g></g><g class="cls-29"><g id="ETAGE"><path id="sol-2" class="cls-32" d="m593.4-1529.7c-.2-.2-838.7,482-1249.1,720.5l-713.4-411.6L-3159.7-193.6l811.2,467.7,1069.3,616.8L281.3-10.4l1471.7-849.5c.1,0-1154.6-666.7-1159.6-669.8ZM-387.7-705.5l-222.8-128.8,490.9-283.1,222.8,128.4-490.9,283.5Z"/><g id="petite_chambre"><polygon class="cls-22" points="972.1 -1232.9 861.3 -1169.3 838.4 -1182.5 838.3 -1207.5 -877.5 -216.4 -115 221.5 1708.7 -835 996.2 -1246.8 972.1 -1232.9"/><g id="lit"><path class="cls-2" d="m-602.5-277.7L-55.5,38.2c9.6,5.5,21.5,5.5,31-.2L203.5-96.4c9.2-5.4,9.1-18.7-.1-23.9L-346-438.9c-5.8-3.3-12.7-3.3-18.5,0l-238,137.1c-9.3,5.4-9.3,18.8,0,24.1Z"/><path class="cls-30" d="m-588.4-311.1L-41.4,4.8c9.6,5.5,21.5,5.5,31-.2l228-134.4c9.2-5.4,9.1-18.7-.1-23.9L-331.9-472.3c-5.8-3.3-12.7-3.3-18.5,0l-238,137.1c-9.3,5.5-9.3,18.8,0,24.1Z"/><polygon class="cls-30" points="-595.4 -323.7 -595.1 -377.2 -21.1 -48.1 224.3 -195.4 224.3 -143.9 -41.5 4.9 -595.4 -323.7"/><path class="cls-20" d="m-529.1-261.5c-10.5-8.4-19.9-58.2,8.9-78.5,28.8-20.3,146.9-77.7,183.3-100.8,36.4-23,89.6-42.6,109.8-44s141.4,73.3,176.9,95.6S213.3-228.7,220.4-214.7c8.9,17.4,12,62.7,6.3,70-13.2,17.4-72,60.5-142.7,84.4C39.2-45-1-49.3-33.1-32.5-56.8-20.1-64.6,6.7-79.7,2.1c-25.2-7.3-429-247.2-449.4-263.6Z"/></g></g><g id="mur_devant"><polygon class="cls-27" points="-1324.5 143.9 -1279.2 170 1753 -1581.6 1708.8 -1607.1 -1324.5 143.9"/><path class="cls-28" d="m-1279.9,170l.8,725.4L1753-853.6l.5-727.7L-1279.9,170Zm133.8,231.7v-206L-566.4-139l.2,205.8-579.9,334.9ZM101.4-216.3v-309.9l356.4-204.3.9,309L101.4-216.3Zm402.2-230.1v-309.9l356.4-204.3.9,309-357.3,205.2Z"/><line class="cls-24" x1="139.3" y1="88" x2="108.9" y2="74.9"/></g><g id="station_meteo"><polygon class="cls-15" points="29.6 97.9 132.8 120.1 132.8 145.7 102.2 156.4 29.6 143.9 29.6 97.9"/><ellipse class="cls-31" cx="109.9" cy="120.1" rx="22.8" ry="11.4"/><ellipse class="cls-15" cx="109.9" cy="145.7" rx="22.8" ry="11.4"/><polygon class="cls-31" points="80 68.3 128.6 113.6 96.6 129.3 29.6 97.9 80 68.3"/><circle class="cls-16" cx="122.1" cy="52.5" r="11.5"/><line class="cls-24" x1="109.9" y1="75.8" x2="109.9" y2="112.3"/><polyline class="cls-24" points="120.4 55.7 108.8 74.6 73.4 77.4"/><circle class="cls-21" cx="77.6" cy="77" r="11.5"/><path class="cls-12" d="m75.9,77c0-4.6,2.7-8.6,6.6-10.4-1.5-.7-3.1-1.1-4.8-1.1-6.4,0-11.5,5.1-11.5,11.5s5.1,11.5,11.5,11.5c1.7,0,3.4-.4,4.8-1.1-3.9-1.8-6.6-5.8-6.6-10.4Z"/><circle class="cls-21" cx="138.3" cy="87.3" r="11.5"/></g></g></g><g class="cls-18"><g id="ombre_toit"><polygon id="ombre_droite" class="cls-1" points="1753.4 -1311.4 -1279.9 414.6 -1279.7 269.8 1753.4 -1465.4 1753.4 -1311.4"/></g></g><g class="cls-26"><g id="TOIT"><path id="sol-3" class="cls-17" d="m592.7-2250.6c-.2-.2-838.7,482-1249.1,720.5l-713.4-411.6-1790.6,1027.2,811.2,467.7h0L-1279.8,170,280.7-731.3l1471.6-849.5c.1-.1-1154.6-666.8-1159.6-669.8Z"/><g id="gouttière"><polygon class="cls-4" points="-1279.8 350.2 1817.3 -1438 1741.4 -1470.6 -1279.9 249.6 -1279.8 350.2"/></g><g id="rebord"><polygon class="cls-7" points="-3234.9 -899.9 -3234.9 -852.5 -1279.9 293.3 1810.6 -1528.2 1810.3 -1548.6 -1279.1 234.1 -3234.9 -899.9"/><polygon class="cls-5" points="-1279.1 234.1 -1279.9 293.3 1810.6 -1478.6 1810.3 -1548.6 -1279.1 234.1"/><polygon class="cls-8" points="-3215.2 -902.1 -1279.2 221.4 1798.1 -1555.6 1810.4 -1548.4 -1279.1 234.1 -3234.9 -899.9 -3215.2 -902.1"/></g><g id="toiture"><polygon class="cls-6" points="1128.6 -2199.3 -1101.3 -911.8 -1279.9 221.5 1798.1 -1555.6 1128.6 -2199.3"/></g></g></g></g></g></g></svg>