<?xml version="1.0" encoding="UTF-8"?><svg id="Calque_2" xmlns="http://www.w3.org/2000/svg" xmlns:xlink="http://www.w3.org/1999/xlink" viewBox="0 0 456.6 456.6"><defs><style>.cls-1{fill:#343344;}.cls-2{fill:#e2e5f2;}.cls-3{isolation:isolate;opacity:.22;}.cls-3,.cls-4,.cls-5{fill-rule:evenodd;}.cls-6{fill:#fff;}.cls-7{fill:#536087;}.cls-8{opacity:.5;}.cls-9{fill:#d0d4e2;}.cls-10{fill:#ffd787;}.cls-11{clip-path:url(#clippath-2);}.cls-12{fill:#bec2ce;}.cls-4{fill:#f3f7ff;}.cls-13{fill:#f4e3ce;}.cls-14{fill:#e4e6f2;}.cls-15{clip-path:url(#clippath-7);}.cls-16{fill:#ddf9d7;}.cls-17{stroke:#a3a7c1;stroke-linecap:round;stroke-miterlimit:7.77;stroke-width:13.99px;}.cls-17,.cls-18{fill:none;}.cls-19{fill:#d4c7d0;}.cls-20{fill:#ccebca;}.cls-21{fill:#b8ccca;}.cls-22{fill:#f8faff;}.cls-23{clip-path:url(#clippath-3);}.cls-24{fill:#dfe1e8;}.cls-5,.cls-25{fill:#ededed;}.cls-26{fill:#937b6a;}.cls-27{fill:#dfe3ed;}.cls-28{clip-path:url(#clippath-5);}.cls-29{fill:#8594c9;}</style><clipPath id="clippath-2"><circle class="cls-18" cx="228.3" cy="228.3" r="228.3"/></clipPath><clipPath id="clippath-3"><circle class="cls-18" cx="228.3" cy="228.3" r="228.3"/></clipPath><clipPath id="clippath-5"><circle class="cls-18" cx="228.3" cy="228.3" r="228.3"/></clipPath><clipPath id="clippath-7"><circle class="cls-18" cx="228.3" cy="228.3" r="228.3"/></clipPath></defs><g id="Calque_1-2"><g id="Calque_2-2"><g><g class="cls-11"><g id="HAIE"><polygon class="cls-20" points="4433.7 595.8 1941.4 -841.4 -157.5 370.5 -289 293.6 1963.1 -1008.4 4569.9 525.5 4433.7 595.8"/><polygon class="cls-16" points="1941.2 -324.7 -157.4 887.6 -157.5 370.5 1941.4 -841.4 1941.2 -324.7"/></g></g><g class="cls-23"><g id="RDC"><g id="mur_garage"><polygon class="cls-26" points="-333.4 273.3 380.4 679.4 379.5 1297.3 -333.8 885.7 -333.4 273.3"/><polyline class="cls-25" points="378.1 680.3 -383.5 245.8 -339.2 220.5 429.1 651.5 378.1 680.3"/></g><g id="mur_du_fond"><polygon class="cls-5" points="1674.1 -67.6 1624.6 -95.9 -1364.5 1632.8 -1316.4 1660.5 157.2 808.1 1674.1 -67.6"/><path class="cls-27" d="m1629.4-41.6L-1316.4,1660.5l1.4,718.3L-110.1,1683.5v-514.9l178.5-101.8v513.7l177.9-102.7-.2-51.4,1383.3-798.4V-41.6Zm-312.5,734l-133.8,77.3v-399.3l134.1-77.1-.3,399.1Z"/></g><g id="mur_garage-2"><polygon class="cls-5" points="367.9 677.9 -381.3 245.3 -336.9 219.6 412.6 652 367.9 677.9"/></g></g></g><g class="cls-28"><g id="ETAGE"><path id="sol" class="cls-29" d="m1628.9-93c-.2-.2-838.7,482-1249.1,720.5L-333.6,215.9l-1790.6,1027.2,811.2,467.7L-243.7,2327.6l1560.5-901.3,1471.6-849.5c.2,0-1154.5-666.7-1159.5-669.8Zm-981.1,824.2l-222.8-128.8,490.9-283.1,222.8,128.5-490.9,283.4Z"/><polygon class="cls-7" points="-199.8 1014.4 1629.4 -41.9 1987.1 163.8 156.9 1220.6 -199.8 1014.4"/><g id="mur_jardin_2"><path class="cls-4" d="m-333.4-453.9l-.2,721.4,713.7,412,.3-721.3L-333.4-453.9ZM-21.3,241.9l-178.4-103.2-.2-360.7L-21.3-118.7V241.9h0Z"/></g><g id="mur_arriere_2"><polygon class="cls-27" points="1629.4 -41.9 1628.8 -762.5 380.1 -41.6 380.1 679.6 1629.4 -41.9"/></g><g id="mur_enfant"><polygon class="cls-27" points="1674.1 -119.1 1896.8 -247.6 1896.8 267.5 1716.4 371.6 2030.7 190.2 2030.7 -531 246.4 499.3 246.6 1220.4 1674.1 396.1 1674.1 -119.1"/></g><g id="petite_chambre"><polygon class="cls-21" points="2007.7 203.8 1896.8 267.5 1873.9 254.2 1873.9 229.2 158 1220.3 920.5 1658.2 2744.2 601.7 2031.8 189.9 2007.7 203.8"/></g><g id="salle_de_bain"><polygon class="cls-14" points="-869.2 577.2 -333.6 267.5 335.5 653.8 -195.7 965.7 -869.2 577.2"/><g id="pavés"><path class="cls-19" d="m-99.1,495.5l73.2-42.3c2.6-1.5,5.7-1.5,8.2,0l75.3,43.5c2.1,1.2,2.1,4.3,0,5.5l-74.9,43.2c-2.8,1.6-6.2,1.6-9,0l-72.8-42.1c-3.1-1.7-3.1-6.1,0-7.8Z"/></g><g id="baignoire"><polygon class="cls-22" points="-334 112.8 112.1 370.4 -65.6 473.5 -511.5 216 -334 112.8"/><polygon class="cls-9" points="112.1 370.4 111.9 526.6 -65.6 628.2 -65.6 473.5 112.1 370.4"/><path class="cls-24" d="m-314.2,152.9l-115.4,67c-7,4-7,14.2,0,18.3L-66.2,448.8l133.8-76-371.2-219.9c-3.3-2-7.4-2-10.6,0Z"/></g><g id="fenetre"><polygon class="cls-13" points="-199.7 138.7 -181.8 128.3 -1.3 228.7 .8 254.5 -199.7 138.7"/></g><g id="mureau_sdb"><polygon class="cls-27" points="-31.8 647.6 -31.8 -73.4 145.9 -176.4 145.8 546.2 -31.8 647.6"/></g><g id="evier"><path class="cls-12" d="m71.4,455.2v19.9c0,9.8,5.2,18.9,13.8,23.8l90.6,52.4c16.1,9.1,35.8,9,51.9-.2l43.4-24.5c7.8-4.5,12.4-12.8,12.3-21.8l-.6-31.3-211.4-18.3Z"/><path class="cls-24" d="m44.3,418.7s-.9,16.6-.5,24c.2,3,1.7,18.1,8.9,22.3l5.6-22.7-10-22.5-4-1.1Z"/><path class="cls-6" d="m157.3,344.6l-102.4,59.1c-14.1,8.1-14.1,28.5,0,36.5l146.9,84.8,133.8-77.3-178.3-103.1Z"/><path class="cls-24" d="m52.9,439.3l-.2,25.8,117.4,69c19.4,11.4,43.5,11.6,63.1.5l102.4-57.7v-29.2l-102.2,59c-19.6,11.3-43.7,11.3-63.3,0l-117.2-67.4Z"/><path class="cls-24" d="m142.9,377.1l-63.4,36.7c-5.6,3-5.7,11-.2,14.1l121.6,70c2.5,1.4,5.5,1.5,8,.1l62-36.8c5.4-3,5.5-10.9.2-14.1l-120.1-69.9c-2.6-1.3-5.6-1.4-8.1-.1Z"/></g><g id="mirroir"><path class="cls-2" d="m157.3,344.6V51.9c0-7.2,7.7-11.6,13.9-8l153.4,88.7c6.7,3.9,10.8,11,10.8,18.7l.2,296.4-178.3-103.1Z"/><g class="cls-8"><path class="cls-10" d="m276.5,347c0,7.8-5.7,10.8-12.7,6.8s-12.7-13.5-12.7-21.3,5.7-10.8,12.7-6.8,12.7,13.5,12.7,21.3Z"/><g><path class="cls-1" d="m285.2,354.8c.9-.3,1.5-.6,1.9-.9s.9-.5,1.2-.9.5-.9.5-1.4-.2-1.1-.4-1.6-.6-.9-1.2-1.2-.9-.3-1.2-.2c-.3.2-.5.6-.5,1.2l-1.4-.9c0-1.1.3-1.8.9-2,.5-.2,1.3-.2,2.2.4.9.5,1.7,1.2,2.3,2.1.5.9.8,1.8.8,2.8,0,.7-.2,1.2-.5,1.7s-.7.8-1.2,1.1-1,.5-1.7.8l-.6.2,4.1,2.3v1.4l-6.3-3.7v-1.2h1.1Z"/><path class="cls-1" d="m298,355.1l-4.4-2.5v2.9c.2-.2.5-.2.8-.2.4,0,.8.2,1.2.4.7.4,1.3.9,1.8,1.6.5.6.8,1.2,1,1.9.2.6.3,1.2.3,1.9s-.2,1.2-.4,1.7c-.2.4-.6.6-1.1.7-.5,0-1.1-.2-1.8-.5-.9-.5-1.7-1.2-2.3-2.1-.5-.9-.9-1.7-1-2.6l1.5.9c.1.5.3,1,.6,1.5s.8.9,1.2,1.1c.6.4,1.1.4,1.4.2.3-.2.5-.7.5-1.4s-.2-1.3-.5-1.9c-.3-.5-.8-1-1.4-1.3-.4-.2-.8-.3-1.1-.2s-.5.2-.6.6l-1.4-.8v-6.1l5.8,3.3v1.2h-.1v-.3Z"/><path class="cls-1" d="m300.5,358.6c0-1.4.9-1.9,2.2-1.2,1.2.7,2.2,2.3,2.2,3.7s-.9,1.9-2.2,1.2c-1.2-.8-2.2-2.4-2.2-3.7Zm3.2,1.8c0-.7-.4-1.4-1-1.7-.5-.3-1-.1-1,.6,0,.6.4,1.4,1,1.7s1,.1,1-.6Z"/><path class="cls-1" d="m307.1,361.8c.4-.5.9-.9,1.7-.9.7,0,1.5.2,2.3.7.9.5,1.8,1.3,2.6,2.3s1.3,2,1.6,3.2l-1.8-1c-.2-.7-.5-1.2-1-1.7-.4-.5-.9-.9-1.5-1.2s-1.2-.5-1.6-.5-.9.2-1.1.6-.4,1-.4,1.7.2,1.5.4,2.2.6,1.3,1.1,1.9c.5.5,1,1,1.6,1.4.5.3,1,.5,1.5.5.4,0,.8-.2,1-.6l1.8,1c-.3.8-.9,1.2-1.6,1.3-.8.1-1.6-.2-2.6-.7-.9-.5-1.6-1.2-2.3-2-.7-.9-1.2-1.8-1.6-2.8s-.6-2-.6-3c-.2-1.1.1-1.8.5-2.4Z"/></g><g><path class="cls-1" d="m177.3,94.5v-4.1l7.5,4.3v28.8l-4.1-2.3v-24.7l-3.4-2Z"/><path class="cls-1" d="m189.8,120.4v-3.4l12-12.1,4.9,2.8v18.5l3.3,1.9v3.9l-3.3-1.9v6l-4-2.3v-6l-12.9-7.4Zm13.2-10.4l-8.4,9.1,8.4,4.8v-13.9Z"/><path class="cls-1" d="m213.8,123c-.5-.9-.8-1.6-.8-2.5s.2-1.3.8-1.6c.5-.2,1.1-.2,1.9.2.7.4,1.3,1,1.8,1.9s.8,1.6.8,2.5-.2,1.3-.8,1.6c-.5.2-1.1.2-1.8-.2-.8-.4-1.5-1-1.9-1.9Zm0,16.6c-.5-.9-.8-1.6-.8-2.5s.2-1.3.8-1.6c.5-.2,1.1-.2,1.9.2.7.4,1.3,1,1.8,1.9s.8,1.6.8,2.5-.2,1.3-.8,1.6c-.5.2-1.1.2-1.8-.2-.8-.5-1.5-1.1-1.9-1.9Z"/><path class="cls-1" d="m239,129.7l-12-6.8v7.9c.5-.5,1.2-.6,2.3-.5,1,.1,2,.4,3.2,1.1,2,1.2,3.7,2.6,4.9,4.2s2.2,3.3,2.6,5.1c.5,1.8.8,3.4.8,5.1,0,1.9-.3,3.5-1,4.6s-1.7,1.7-3,1.9c-1.3.1-3-.4-4.9-1.6-2.6-1.5-4.7-3.4-6.2-5.8-1.6-2.3-2.5-4.7-2.8-7.3l4,2.3c.2,1.4.9,2.7,1.7,4,.9,1.2,2,2.3,3.4,3,1.7.9,3,1.2,3.8.5.9-.6,1.2-1.9,1.2-3.8s-.5-3.6-1.3-5.1c-.9-1.5-2.1-2.7-3.8-3.7-1.2-.7-2.2-.9-3-.7s-1.4.7-1.7,1.6l-3.9-2.3v-16.6l15.7,9v3.9h0Z"/><path class="cls-1" d="m247.2,153.3c2.3-.9,4-1.6,5.4-2.3s2.4-1.5,3.3-2.5c.9-1,1.3-2.3,1.3-3.8,0-1.6-.3-3-1-4.3s-1.7-2.3-3.2-3.2c-1.4-.8-2.5-.9-3.3-.4s-1.2,1.6-1.2,3.3l-3.9-2.3c.1-3,.9-4.8,2.4-5.5,1.6-.7,3.5-.4,5.9,1,2.6,1.5,4.6,3.4,6.1,5.8s2.2,5,2.2,7.6c0,1.9-.5,3.5-1.3,4.7-.9,1.2-1.9,2.3-3.1,3-1.2.7-2.7,1.4-4.6,2.2l-1.6.6,11.3,6.5v3.7l-17.3-10v-3.3l2.6-.8Z"/></g></g></g><path class="cls-17" d="m211.7,393.3v-66.7c0-8.9-9.6-14.5-17.3-10l-21.5,12.4c-3.6,2.1-5.8,5.9-5.8,10v19"/></g><g id="mur_couloir"><polygon class="cls-4" points="-198.1 447.3 23.4 576.3 23.1 1143.1 920.5 1660.3 915.5 936.8 -199.2 290 -198.1 447.3"/><polygon class="cls-25" points="-199.1 290.2 -154.6 264.4 960.1 911.1 915.5 936.8 -199.1 290.2"/></g><polygon class="cls-25" points="1986.1 -556.5 201.7 473.5 246.4 499.3 2030.7 -531 1986.1 -556.5"/><g id="mur_devant"><polygon class="cls-25" points="-289 1580.7 -243.7 1606.7 2788.5 -144.9 2744.3 -170.4 -289 1580.7"/><path class="cls-27" d="m-244.4,1606.7l.8,725.4L2788.5,583.1l.5-727.7L-244.4,1606.7Zm133.8,231.8v-206l579.6-334.7.2,205.8L-110.6,1838.5Zm1247.6-618.1v-309.9l356.4-204.3.9,309-357.3,205.2Zm402.1-230.1v-309.9l356.4-204.3.9,309-357.3,205.2Z"/></g></g></g><g class="cls-15"><g id="ombre_toit"><polygon id="ombre_droite" class="cls-3" points="2789 125.3 -244.4 1851.4 -244.2 1706.5 2789 -28.7 2789 125.3"/></g></g></g></g></g></svg>