<?xml version="1.0" encoding="UTF-8"?><svg id="Calque_2" xmlns="http://www.w3.org/2000/svg" xmlns:xlink="http://www.w3.org/1999/xlink" viewBox="0 0 566 566"><defs><style>.cls-1{opacity:.22;}.cls-1,.cls-2,.cls-3,.cls-4,.cls-5,.cls-6,.cls-7{fill-rule:evenodd;}.cls-1,.cls-8{isolation:isolate;}.cls-9{fill:#ccc4b8;}.cls-10{fill:#a8b6cc;}.cls-11{fill:#8192aa;}.cls-12{fill:#adb4c9;}.cls-13{fill:#ccc8c2;}.cls-2{fill:#f3f7ff;}.cls-14{clip-path:url(#clippath-6);}.cls-15{fill:#53536b;}.cls-16{fill:#d9beab;}.cls-17{fill:#5f6d84;}.cls-3{fill:#6c7a87;}.cls-18{fill:#e4e6f2;}.cls-4{fill:#5f6975;}.cls-5{fill:#647e9e;}.cls-19{fill:#f0eade;}.cls-20{fill:#d4c7d0;}.cls-21{fill:#97acc6;}.cls-22{fill:#a69c90;}.cls-23{fill:#7988a5;}.cls-24{fill:#d3d9ea;}.cls-8{opacity:.15;}.cls-25{fill:#f8faff;}.cls-26,.cls-27{fill:none;}.cls-28{clip-path:url(#clippath-3);}.cls-29{clip-path:url(#clippath-8);}.cls-6,.cls-30{fill:#ededed;}.cls-31{fill:#dfe3ed;}.cls-32{clip-path:url(#clippath-5);}.cls-33{fill:#8594c9;}.cls-34{fill:#94a1b2;}.cls-7{fill:#83a5c6;}.cls-27{stroke:#515964;stroke-linecap:round;stroke-miterlimit:7.77;stroke-width:19.91px;}</style><clipPath id="clippath-3"><circle class="cls-26" cx="283" cy="283" r="283"/></clipPath><clipPath id="clippath-5"><circle class="cls-26" cx="283" cy="283" r="283"/></clipPath><clipPath id="clippath-6"><polygon class="cls-26" points="445.9 298.2 492.3 324.9 1026.6 14.5 1020.6 -2.3 993.9 -18.2 445.9 298.2"/></clipPath><clipPath id="clippath-8"><circle class="cls-26" cx="283" cy="283" r="283"/></clipPath></defs><g id="Calque_1-2"><g id="Calque_2-2"><g><g class="cls-28"><g id="RDC"><g id="mur_garage"><polyline class="cls-16" points="981.3 606.7 -814.2 1630.2 -811.3 1027.2 981.7 -5.7"/><polyline class="cls-30" points="-811.3 1027.2 -862.1 997.5 975.9 -58.5 1026.1 -30.4"/></g><g id="mur_du_fond"><polygon class="cls-6" points="2989.2 -346.6 2939.7 -374.9 -49.4 1353.8 -1.3 1381.5 1472.3 529.1 2989.2 -346.6"/><path class="cls-31" d="m2944.5-320.6L-1.3,1381.5.1,2099.8l1204.9-695.3v-514.9l178.5-101.8v513.7l177.9-102.7-.2-51.4,1383.3-798.4V-320.6Zm-312.5,734l-133.8,77.3V91.4l134.1-77.1-.3,399.1Z"/></g></g></g><g class="cls-32"><g id="ETAGE"><path id="sol-2" class="cls-33" d="m2944-372c-.2-.2-838.7,482-1249.1,720.5L981.5-63.1-809.1,964.1,2.1,1431.8l1069.3,616.8,1560.5-901.3,1471.6-849.5c.2,0-1154.5-666.7-1159.5-669.8Zm-981.1,824.2l-222.8-128.8,490.9-283.1,222.8,128.5-490.9,283.4Z"/><g id="mur_arriere"><polygon class="cls-30" points="-863.5 295.6 981.3 -784 1026 -758 -811.1 323.6 -863.5 295.6"/><path class="cls-31" d="m-811.1,323.6l102.9,639.7L981.5-11.5l.2-721.4L-811.1,323.6Zm677.4,51.3l-486.7,279.9v-359.6L-133.4,13.6l-.3,361.3Z"/></g><g id="salle_de_bain"><polygon class="cls-18" points="445.9 298.2 981.5 -11.5 1650.6 374.8 1119.4 686.7 445.9 298.2"/><g id="pavés"><path class="cls-20" d="m502.9,319.7l73.2-42.3c2.6-1.5,5.7-1.5,8.2,0l75.3,43.5c2.1,1.2,2.1,4.3,0,5.5l-74.9,43.2c-2.8,1.6-6.2,1.6-9,0l-72.8-42.1c-3-1.6-3-6.1,0-7.8Z"/><g class="cls-14"><g><path class="cls-20" d="m414.5,268.2l73.2-42.3c2.6-1.5,5.7-1.5,8.2,0l75.3,43.5c2.1,1.2,2.1,4.3,0,5.5l-74.9,43.2c-2.8,1.6-6.2,1.6-9,0l-72.8-42.1c-3-1.6-3-6,0-7.8Z"/><path class="cls-20" d="m503.1,216.8l73.2-42.3c2.6-1.5,5.7-1.5,8.2,0l75.3,43.5c2.1,1.2,2.1,4.3,0,5.5l-74.9,43.2c-2.8,1.6-6.2,1.6-9,0l-72.8-42.1c-3.1-1.7-3.1-6.1,0-7.8Z"/></g></g></g><g id="WC"><path class="cls-24" d="m535.2,123.3l.2,68.5,85.5,48.7c15.3,8.8,34.2,8.6,49.4-.5l25.8-15.4c7.8-4.7,13.8-11.7,17-20.2l12.5-46.2c3.4-12.4-2.2-25.7-13.4-31.9l-80.9-44.9-96.1,41.9Z"/><path class="cls-24" d="m535.2-11.7v121.4c0,3.3,1.8,6.5,4.7,8.2l24.8,14.4.4-126.8-29.9-17.2Z"/><path class="cls-25" d="m657.3-45.1l-92.2,52.9-.4,124.5,88.6-50c2.5-1.4,4-4,4-6.8V-45.1h0Z"/><polygon class="cls-25" points="532.5 -11.4 565.1 7.9 658.9 -45.1 624.7 -64.6 532.5 -11.4"/><polygon class="cls-24" points="532.5 3.6 565.1 23.8 565.1 7.9 532.5 -11.4 532.5 3.6"/><polyline class="cls-25" points="565.1 24.8 565.1 7.9 658.9 -45.1 658.9 -29.3 565.1 24.8"/></g></g><g id="grde_chambre"><g id="table"><polygon class="cls-8" points="51.8 534.2 227.9 634 538.6 453 365.5 353.1 51.8 534.2"/><g><polygon class="cls-9" points="219.2 504.6 219.2 629 227.9 634 227.9 508 219.2 504.6"/><polygon class="cls-13" points="237.2 628.9 227.9 634 227.9 508 237.2 508.5 237.2 628.9"/></g><g><polygon class="cls-9" points="520.6 328.7 520.6 453.1 529.3 458.4 529.3 332.1 520.6 328.7"/><polygon class="cls-13" points="538.6 453 529.3 458.4 529.3 332.1 538.6 336.2 538.6 453"/></g><g><polygon class="cls-9" points="51.8 410.3 51.8 534.2 60.4 538.9 60.4 413.7 51.8 410.3"/><polygon class="cls-22" points="69.7 533.1 60.4 538.9 60.4 413.7 69.7 417.9 69.7 533.1"/></g><polygon class="cls-19" points="362.1 220.9 540.6 323.9 228.3 504.2 49.4 401.4 362.1 220.9"/><polygon class="cls-13" points="228.2 514.7 228.3 504.2 540.6 323.9 540.6 335.3 228.2 514.7"/><polygon class="cls-9" points="49.4 401.4 49.4 410.7 228.2 514.7 228.3 504.2 49.4 401.4"/></g><g id="chaise"><line class="cls-27" x1="503.2" y1="516.7" x2="503.2" y2="648.7"/><path class="cls-4" d="m413.8,546.1l59.1,34.1c10.5,6.1,23.4,6.1,33.9,0l94.8-53.9c9.9-5.8,9.8-20.1-.2-25.7l-56-31.4c-19.7-11-43.8-10.9-63.4.4l-68.3,38.6c-14.5,8.5-14.5,29.5.1,37.9Z"/><path class="cls-4" d="m413.8,541l59.1,34.1c10.5,6.1,23.4,6.1,33.9,0l94.8-53.9c9.9-5.8,9.8-20.1-.2-25.7l-56-31.4c-19.7-11-39.6-11-59.2.4l-23.2,14-49.3,24.6c-14.5,8.5-14.5,29.5.1,37.9Z"/><path class="cls-5" d="m416.6,532.6l62.2,35.2c8.9,5.1,19.7,5.1,28.6,0l96.2-53.7c8.4-4.8,8.3-16.9-.2-21.6l-62.8-36.2c-16.6-9.3-23.6-9.7-41.1-1.7-8.9,4.1-16.9,12.9-35.4,22.9-17.7,9.6-39.5,17.6-51.2,26-11.5,8.3-8.6,22,3.7,29.1Z"/><path class="cls-7" d="m496.5,520.4l-10.7-7.2c-5.9-4-9.5-10.6-9.6-17.7l-.2-56.8c0-5.3,2.8-10.2,7.4-12.8l87.5-48.2c6.4-3.5,14.1-3.3,20.4.2l4.8,2.8v85.7l-99.6,54Z"/><path class="cls-4" d="m490.9,428.7l88.2-49.6c10-5.6,22.4,1.6,22.4,13.1v66.3c0,5.5-3,10.7-8,13.3l-88.2,46.8c-10,5.3-22.1-1.9-22.1-13.3v-63.6c0-5.3,2.9-10.4,7.7-13Z"/><path class="cls-4" d="m569.9,434.3l-4.1-1.7-19.4,10,.6,96.8c0,2.4-.4,4.8-1.2,7.1l-6.6,14.8,1.1.9,19-12.1,11.4-15-.8-100.8"/><path class="cls-3" d="m553.8,442.9c-1.6.9-2.5,2.5-2.5,4.2l.5,93.8c0,14.8-11.4,21.1-11.4,21.1l21.8-11.1,3-1.6c4.8-2.6,7.9-7.6,7.9-13.1v-100.3c0-1.6-1.6-2.6-3-1.8l-16.3,8.8Z"/></g><g id="ordi"><path class="cls-23" d="m113.9,212l8.3-1,217.5-127.9-7.7-1.5c-1-.2-2.1,0-3,.5l-213.5,123c-1.4.8-3.2,1.9-3,5.8.1.1,1.4,1.1,1.4,1.1Z"/><path class="cls-17" d="m123.5,361.7l-7.6-2.6c-2.7-1.8-3.3-2.9-3.3-6.5l.1-143.4c0-.2,13.6,3.3,13.6,3.3l-2.8,149.2Z"/><g><path class="cls-11" d="m260.4,260.9c-.2.5-5.5,14.9-9.3,25-2,5.6.4,11.7,5.8,14.5l23.2,12.5-55.5,32-24.1-14.5c-4.9-2.8-7.2-8.6-5.4-13.8l7.8-23.9,57.5-31.8Z"/><path class="cls-34" d="m261.1,260.3c-.2.5-5.4,14.9-9.1,25-2,5.6.4,11.7,5.6,14.5l22.4,11.7-55.5,31.9-22.2-13.5c-4.8-2.8-7.1-8.6-5.4-13.8l7.6-23.9,56.6-31.9Z"/><polygon class="cls-21" points="224.5 343.4 224.5 345 280 312.9 280 311.5 224.5 343.4"/></g><path class="cls-10" d="m122.1,208.5c-1.2.7-1.9,1.9-1.9,3.2v145.2c-.2,3.3,2.9,5.8,5.4,4.2l215-124.2c1.7-1,2.7-2.8,2.7-4.7l-.2-146.5c0-2.1-2.3-3.3-4-2.3l-217,125.1Z"/><path class="cls-15" d="m124,213.1v109.1c0,1.6,1.7,2.6,3,1.7l209.9-117.9c.6-.4,1-1,1-1.7v-109.1c0-1.6-1.6-2.5-3-1.8l-209.9,117.7c-.6.6-1,1.3-1,2Z"/><g id="clavier"><path class="cls-10" d="m210.3,387.8l37.9,24.1c.8.5,1.9.5,2.6.1l125.2-72.8c1.7-1,1.7-3.4,0-4.4l-39.3-23.7c-.8-.5-1.8-.5-2.6,0l-123.8,72.5c-1.5.8-1.5,3.2,0,4.2Z"/><ellipse class="cls-10" cx="386.68" cy="297.44" rx="10.5" ry="14.8" transform="translate(-87.28 413.02) rotate(-51.27)"/></g></g></g><g id="mur_gauche"><path id="mur" class="cls-2" d="m1070.7,1327.7L-863.5,295.6l2.7,644.1,1932.2,1108.9-.7-720.9Zm-1287.1-169.7l-337.9-202-.2-345.8,345.3,193.2-7.2,354.6Zm376.7,206.9l-346.1-196.1v-345.8l346.1,196.1v345.8Zm419.7,246.3l-393.2-227.1v-345.9l393.2,227v346Z"/><polyline class="cls-30" points="1070.7 1327.7 -863.5 295.6 -809 264.4 1124.2 1296.8 1070.7 1327.7"/><g id="fenetre"><path class="cls-12" d="m-582.3,545.1v427.1l1195,692.8v-440.2L-582.3,545.1Zm362.6,604l-334.5-193.2-.2-345.8,334.8,193.2-.1,345.8h0Zm373.6,215.8l-339.7-196.1v-345.8l339.7,196.1v345.8Zm426.1,246.3l-393.2-227.1v-345.9l393.2,227v346Z"/></g></g></g></g><g class="cls-29"><g id="ombre_toit"><polygon id="ombre_gauche" class="cls-1" points="-861.5 475.3 -861.5 352.1 1071.5 1391.8 1070.7 1572.4 -861.5 475.3"/></g></g></g></g></g></svg>