<?xml version="1.0" encoding="UTF-8"?><svg id="Calque_2" xmlns="http://www.w3.org/2000/svg" xmlns:xlink="http://www.w3.org/1999/xlink" viewBox="0 0 986 986"><defs><style>.cls-1{opacity:.22;}.cls-1,.cls-2,.cls-3,.cls-4,.cls-5,.cls-6,.cls-7,.cls-8,.cls-9,.cls-10,.cls-11,.cls-12,.cls-13,.cls-14,.cls-15,.cls-16,.cls-17{fill-rule:evenodd;}.cls-1,.cls-14{isolation:isolate;}.cls-2{fill:#b7aba7;}.cls-18{fill:#c0cadd;}.cls-3,.cls-19{fill:#d9dce8;}.cls-20,.cls-4{fill:#f3f7ff;}.cls-21{clip-path:url(#clippath-2);}.cls-5{fill:#7b7e8f;}.cls-22{fill:#7e8298;}.cls-6{fill:#abadb7;}.cls-23{clip-path:url(#clippath-7);}.cls-24{fill:#7e8a9e;}.cls-7{fill:#8d909e;}.cls-25{clip-path:url(#clippath-4);}.cls-8{fill:#dfe3ef;}.cls-26{fill:#68738e;}.cls-9{fill:#919299;}.cls-27{fill:#bac7e2;}.cls-28{fill:#ddf9d7;}.cls-10{fill:#7d8dad;}.cls-11{fill:#babdd1;}.cls-29{fill:#aeb8ce;}.cls-12{fill:#868ab0;}.cls-30{fill:#ccebca;}.cls-31{fill:#b8ccca;}.cls-32{fill:#d8f2d8;}.cls-33{fill:#9ba0b9;}.cls-13{fill:#eae9e8;}.cls-34,.cls-35{fill:none;}.cls-14{fill:#627184;opacity:.5;}.cls-36{clip-path:url(#clippath-3);}.cls-37{fill:#b4b8cd;}.cls-15{fill:#6a6c72;}.cls-38{clip-path:url(#clippath-8);}.cls-16,.cls-39{fill:#ededed;}.cls-35{stroke:#6a707c;stroke-linecap:round;stroke-miterlimit:7.77;stroke-width:1.55px;}.cls-40{fill:#8893aa;}.cls-41{fill:#dfe3ed;}.cls-42{clip-path:url(#clippath-5);}.cls-43{fill:#8594c9;}.cls-17{fill:#c0c3ce;}.cls-44{fill:#6a707c;}</style><clipPath id="clippath-2"><circle class="cls-34" cx="493" cy="493" r="493"/></clipPath><clipPath id="clippath-3"><circle class="cls-34" cx="493" cy="493" r="493"/></clipPath><clipPath id="clippath-4"><circle class="cls-34" cx="493" cy="493" r="493"/></clipPath><clipPath id="clippath-5"><circle class="cls-34" cx="493" cy="493" r="493"/></clipPath><clipPath id="clippath-7"><circle class="cls-34" cx="493" cy="493" r="493"/></clipPath><clipPath id="clippath-8"><circle class="cls-34" cx="493" cy="493" r="493"/></clipPath></defs><g id="Calque_1-2"><g id="Calque_2-2"><g><g class="cls-21"><g id="HAIE"><polygon class="cls-32" points="615.9 -17.6 749.6 59.6 749.3 707.9 608.4 634.5 615.9 -17.6"/><polygon class="cls-28" points="749.6 59.6 2039.7 -686.9 2039.7 -30.9 749.3 707.9 749.6 59.6"/><polygon class="cls-30" points="615.9 -17.6 749.6 59.6 2039.7 -686.9 1906.1 -767.8 615.9 -17.6"/></g></g><g class="cls-36"><g id="RDC"><g id="sol"><polygon class="cls-13" points="-1213.5 832 214.1 7.5 -855.7 -609.7 -2282.7 213.9 -1213.5 832"/></g><g id="mur_de_droite"><polygon class="cls-4" points="-900.8 -634.6 -900.8 -1254.3 215.3 -609.6 215.6 7.7 -900.8 -634.6"/><polygon class="cls-2" points="258.4 -636.1 215.3 -609.6 215.6 57.9 258.4 33.2 258.4 -636.1"/></g><polygon class="cls-2" points="-1213.5 832 -1213.5 883.5 258.4 33.2 258.4 -18.1 -1213.5 832"/><g id="mur_entrée"><g id="mur"><polygon class="cls-16" points="214.8 -662.1 -2818 1089 -2773.5 1115.5 258.7 -636.2 214.8 -662.1"/><path class="cls-41" d="m-2774.4,1115.5l-.2,669.4,490.7-283.4v-514.7l889.1-509.5,3.1,509.1L258.4,33.5l.4-669.5-3033.2,1751.5ZM-499.5,317l-713.7,412.1v-309L-499.5,8v309ZM75,15.6L-49,86.4v-381.2l124-70.7V15.6Z"/></g><g id="feneter"><polygon class="cls-14" points="-56.9 -286.9 -56.9 98 79.8 21.5 79.8 -365.5 -56.9 -286.9"/><path class="cls-9" d="m-67.9-292.5V119.6L88.8,28.5v-411.8l-156.7,90.8ZM70.7,7.7L-43.6,75v-360.5l114.5-65.8-.2,359Z"/><polygon class="cls-6" points="-43.6 74.9 70.7 7.7 62 4.6 -43.6 64.8 -43.6 74.9"/><polygon class="cls-15" points="62 4.6 62 -346.3 70.9 -351.4 70.7 7.7 62 4.6"/></g></g></g></g><g class="cls-25"><g id="EXTERIEUR"><g id="poteau"><g><polygon class="cls-20" points="615.9 755 538.2 710.3 538.2 143.6 615.7 188.3 615.9 755"/><polygon class="cls-19" points="704.6 136.9 626.9 91.7 538.2 143.6 615.7 188.3 704.6 136.9"/><polygon class="cls-41" points="704.6 136.9 704.6 703.5 615.9 755 615.7 188.3 704.6 136.9"/></g></g><g id="interphone"><polygon class="cls-3" points="639.4 435.5 675.9 414.4 676.1 480.4 639.8 501.4 639.4 435.5"/><polygon class="cls-3" points="645.3 437 681.8 415.8 681.9 481.8 645.8 502.9 645.3 437"/><polygon class="cls-8" points="639.4 435.5 645.3 437 645.8 502.9 639.8 501.4 639.4 435.5"/><polygon class="cls-17" points="675.9 414.4 681.8 415.8 645.3 437 639.4 435.5 675.9 414.4"/><ellipse class="cls-40" cx="665.5" cy="448.3" rx="10.6" ry="11.7"/><ellipse class="cls-44" cx="667.3" cy="448.7" rx="3.7" ry="4.2"/><circle class="cls-27" cx="670.7" cy="446.5" r="2"/><polygon class="cls-24" points="683.4 450.6 681.1 450.1 681.1 416.9 687 418.4 683.4 450.6"/><path class="cls-26" d="m638.5,462.3l-.2-29.5c0-.9.5-1.7,1.2-2.1l34.2-18,13.3,4.4-31.4,19.4c-1.3.7-2.9,1.9-3.3,3.2l-6.1,23.9-7.7-1.3Z"/><polygon class="cls-18" points="650 472.5 650 495.5 679 478.7 679 457.1 650 472.5"/><path class="cls-29" d="m646.2,463.7h.7l6.4-23.6c.3-1.1,1.5-2,3-2.9l29.1-17.9c.5-.3,1.2.2,1.2.8l-3.1,30.6.5-.1,4.1-31.4c.2-1.6-1.4-2.7-2.8-1.9-8.4,4.7-31,18.1-33,20.5-1.8,2.1-6.1,25.9-6.1,25.9Z"/><line class="cls-35" x1="653.8" y1="485.5" x2="676.1" y2="473.6"/><line class="cls-35" x1="653.8" y1="480.7" x2="676.1" y2="468.8"/><line class="cls-35" x1="653.8" y1="475.9" x2="676.1" y2="464"/></g><g id="portail_entrée"><g><polygon class="cls-22" points="582.8 770.8 582.8 222.1 608.1 207.3 608.1 756 582.8 770.8"/><polygon class="cls-37" points="608.1 207.3 583 193.5 558 207.3 582.8 222.1 608.1 207.3"/><polygon class="cls-33" points="558.1 207.3 558.1 756 583 770.7 583 222 558.1 207.3"/></g><g><polygon class="cls-22" points="334.9 356.6 577 219.7 577 348.4 334.9 486.2 334.9 356.6"/><polygon class="cls-37" points="571.3 216.6 577 219.7 326 362.7 321.4 358.6 571.3 216.6"/></g><g><polygon class="cls-22" points="334.9 773.1 577 636.2 577 765 334.9 902.7 334.9 773.1"/><polygon class="cls-37" points="571.3 633.1 577 636.2 326 779.2 321.4 775.2 571.3 633.1"/></g><g><polygon class="cls-22" points="334.9 634.8 577 497.9 577 626.6 334.9 764.4 334.9 634.8"/><polygon class="cls-37" points="571.3 494.8 577 497.9 326 640.8 321.4 636.9 571.3 494.8"/></g><g><polygon class="cls-22" points="334.9 495 577 358 577 486.7 334.9 624.5 334.9 495"/><polygon class="cls-37" points="571.3 354.9 577 358 326 501 321.4 496.9 571.3 354.9"/></g><g><polygon class="cls-22" points="311.7 924 311.7 375.3 337 360.5 337 909.2 311.7 924"/><polygon class="cls-37" points="337 360.5 311.9 346.7 286.9 360.5 311.7 375.3 337 360.5"/><polygon class="cls-33" points="287.1 360.4 287.1 909.1 311.9 923.9 311.9 375.2 287.1 360.4"/></g></g><g id="Calque_58"><polygon class="cls-19" points="258.7 600.5 324 638.1 -2714.1 2393.4 -2782.2 2354.2 258.7 600.5"/><polygon class="cls-41" points="324 638.1 324 923.3 -2723.7 2679 -2723.7 2397.2 324 638.1"/></g><g id="palissade"><g><g><polygon class="cls-22" points="-175 702.3 301.7 430.5 301.7 519 -176.9 796.9 -175 702.3"/><polygon class="cls-37" points="296.7 427.2 301.7 430.5 -177.3 709.8 -183.7 707.1 296.7 427.2"/></g><g><polygon class="cls-22" points="-175 800.5 301.7 528.7 301.7 617.2 -176.9 895.2 -175 800.5"/><polygon class="cls-37" points="296.7 525.4 301.7 528.7 -177.3 808 -183.7 805.3 296.7 525.4"/></g></g></g></g></g><g class="cls-42"><g id="ETAGE"><path id="sol-2" class="cls-43" d="m-901.3-1305.4c-.2-.2-838.7,482-1249.1,720.5l-713.4-411.6L-4654.4,30.7l811.2,467.7,1069.3,616.8L-1213.4,213.9,258.2-635.6c.2,0-1154.5-666.7-1159.5-669.8Zm-981.1,824.2l-222.8-128.8,490.9-283.1,222.8,128.5-490.9,283.4Z"/><g id="petite_chambre"><polygon class="cls-31" points="-522.5 -1008.6 -633.4 -944.9 -656.3 -958.2 -656.3 -983.2 -2372.2 7.9 -1609.7 445.8 214 -610.7 -498.4 -1022.5 -522.5 -1008.6"/></g><g id="mur_devant"><polygon class="cls-39" points="-2819.2 368.3 -2773.9 394.3 258.3 -1357.3 214.1 -1382.8 -2819.2 368.3"/><path class="cls-41" d="m-2774.6,394.3l.8,725.4L258.3-629.3l.5-727.7L-2774.6,394.3Zm133.8,231.8v-206l579.6-334.7.2,205.8-579.8,334.9ZM-1393.2,8v-309.9l356.4-204.3.9,309L-1393.2,8Zm402.1-230.1v-309.9l356.4-204.3.9,309-357.3,205.2Z"/></g></g></g><g class="cls-23"><g id="ombre_toit"><polygon id="ombre_droite" class="cls-1" points="258.8 -1087.1 -2774.6 639 -2774.4 494.1 258.8 -1241.1 258.8 -1087.1"/></g></g><g class="cls-38"><g id="TOIT"><path id="sol-3" class="cls-22" d="m-902-2026.2c-.2-.2-838.7,482-1249.1,720.5l-713.3-411.6-1790.6,1027.1,811.2,467.7h0l1069.3,616.8L-1214-507,257.6-1356.5c.1-.1-1154.6-666.8-1159.6-669.7Z"/><g id="gouttière"><polygon class="cls-5" points="-2774.5 574.5 322.6 -1213.7 246.7 -1246.3 -2774.6 473.9 -2774.5 574.5"/></g><g id="rebord"><polygon class="cls-11" points="-4729.6 -675.6 -4729.6 -628.1 -2774.6 517.6 315.9 -1303.9 315.6 -1324.2 -2773.8 458.4 -4729.6 -675.6"/><polygon class="cls-7" points="-2773.8 458.4 -2774.6 517.6 315.9 -1254.3 315.6 -1324.2 -2773.8 458.4"/><polygon class="cls-12" points="-4709.9 -677.8 -2773.9 445.7 303.4 -1331.2 315.7 -1324.1 -2773.8 458.4 -4729.6 -675.6 -4709.9 -677.8"/></g><g id="toiture"><polygon class="cls-10" points="-366 -1974.9 -2596 -687.5 -2774.6 445.8 303.4 -1331.2 -366 -1974.9"/></g></g></g></g></g></g></svg>