<?xml version="1.0" encoding="UTF-8"?><svg id="Calque_2" xmlns="http://www.w3.org/2000/svg" xmlns:xlink="http://www.w3.org/1999/xlink" viewBox="0 0 1184.4 1184.4"><defs><style>.cls-1{fill:#f0f0f0;}.cls-2{opacity:.22;}.cls-2,.cls-3,.cls-4,.cls-5,.cls-6,.cls-7,.cls-8,.cls-9,.cls-10,.cls-11,.cls-12,.cls-13{fill-rule:evenodd;}.cls-2,.cls-9{isolation:isolate;}.cls-3{fill:#b0b1c1;}.cls-14{fill:#c0cadd;}.cls-15{fill:#adb4c9;}.cls-4,.cls-16{fill:#d9dce8;}.cls-17{fill:#dbdad9;}.cls-5{fill:#f3f7ff;}.cls-18{fill:#d9beab;}.cls-6{fill:#eae8e8;}.cls-19{fill:#7e8298;}.cls-20{clip-path:url(#clippath-7);}.cls-21{fill:#7e8a9e;}.cls-22{clip-path:url(#clippath-4);}.cls-7{fill:#dfe3ef;}.cls-23{fill:#eaecf4;}.cls-24{fill:#68738e;}.cls-25{fill:#bac7e2;}.cls-26{fill:#aeb8ce;}.cls-27{fill:#dabfac;}.cls-8{fill:#d9d9d9;}.cls-9{fill:#ccdde2;opacity:.81;}.cls-28{fill:#f3f6ff;}.cls-10{fill:#9395aa;}.cls-29{fill:#9ba0b9;}.cls-30,.cls-31{fill:none;}.cls-32{clip-path:url(#clippath-3);}.cls-33{fill:#b4b8cd;}.cls-34{clip-path:url(#clippath-8);}.cls-35{fill:#f7f7f7;}.cls-36{fill:#778d9e;}.cls-11{fill:#ededed;}.cls-37{fill:#a3a7b2;}.cls-31{stroke:#6a707c;stroke-linecap:round;stroke-miterlimit:7.77;stroke-width:1.55px;}.cls-38{fill:#8893aa;}.cls-39{fill:#937b6a;}.cls-40{fill:#dfe3ed;}.cls-41{clip-path:url(#clippath-5);}.cls-12{fill:#d8d8d8;}.cls-42{fill:#8594c9;}.cls-13{fill:#c0c3ce;}.cls-43{fill:#8f95aa;}.cls-44{fill:#6a707c;}</style><clipPath id="clippath-3"><circle class="cls-30" cx="592.2" cy="592.2" r="592.2"/></clipPath><clipPath id="clippath-4"><circle class="cls-30" cx="592.2" cy="592.2" r="592.2"/></clipPath><clipPath id="clippath-5"><circle class="cls-30" cx="592.2" cy="592.2" r="592.2"/></clipPath><clipPath id="clippath-7"><circle class="cls-30" cx="592.2" cy="592.2" r="592.2"/></clipPath><clipPath id="clippath-8"><circle class="cls-30" cx="592.2" cy="592.2" r="592.2"/></clipPath></defs><g id="Calque_1-2"><g id="Calque_2-2"><g><g class="cls-32"><g id="RDC"><g id="mur_garage"><polyline class="cls-18" points="2565.2 -866.9 769.7 156.6 772.6 -446.4 2565.6 -1479.3"/><polygon class="cls-39" points="721.8 -476.1 721.8 128.4 769.7 156.6 772.6 -446.4 721.8 -476.1"/></g><polygon class="cls-12" points="2339.7 -739.8 769.4 156.4 1584.8 626.2 3162.2 -283.2 2339.7 -739.8"/><g id="mur_garage-2"><polygon class="cls-23" points="938.9 203.2 406.5 509.9 951.3 834.2 1474.3 511.3 938.9 203.2"/><polygon class="cls-40" points="937.7 200.9 936.5 -291 891.3 -265.2 892.6 227.7 937.7 200.9"/><g id="ensemble_porte"><polyline id="porte" class="cls-8" points="937.7 200.8 1407.8 471 1407.6 36.6 938.2 -234.4 938 199.7"/><g id="lames"><polygon class="cls-6" points="938.2 -232.3 938.2 -234.7 1407.6 36.6 1407.6 40.4 938.2 -232.3"/><polyline class="cls-6" points="937.7 149.9 1433.2 435.2 1433.2 485 937.7 200.8"/><polygon class="cls-6" points="937.7 -193.5 937.7 -244.4 1433.2 40.9 1433.2 90.7 937.7 -193.5"/><polygon class="cls-6" points="937.7 -137.2 937.7 -188 1433.2 97.3 1433.2 147 937.7 -137.2"/><polygon class="cls-6" points="937.7 -80.8 937.7 -131.7 1433.2 153.6 1433.2 203.3 937.7 -80.8"/><polygon class="cls-6" points="937.7 -24.5 937.7 -75.4 1433.2 209.9 1433.2 259.7 937.7 -24.5"/><polygon class="cls-6" points="937.7 31.8 937.7 -19.1 1433.2 266.2 1433.2 316 937.7 31.8"/><polygon class="cls-6" points="937.7 88.1 937.7 37.3 1433.2 322.6 1433.2 372.3 937.7 88.1"/><polygon class="cls-6" points="937.7 144.5 937.7 93.5 1433.2 378.9 1433.2 428.6 937.7 144.5"/></g></g><path class="cls-5" d="m2655.4,574.7L721.8-541.4V128.8l170.8,98.8-.7-489.9L1429.6,50.5l1.2,487.8,1225,706.5-.4-670.1Zm-446.8,52l-579.9-334.9v-154.6l579.9,334.9v154.6Z"/><polygon class="cls-11" points="819.2 -535.6 2699.3 549.4 2655.4 574.7 774.8 -510.3 819.2 -535.6"/></g></g></g><g class="cls-22"><g id="EXTERIEUR"><g id="mini_mur"><polygon class="cls-27" points="284.3 92.5 774.9 -171.8 774.9 159.9 284.3 424.5 284.3 92.5"/><polygon class="cls-16" points="90.2 260.2 832 -134.9 774.8 -171.8 26.6 228.7 90.2 260.2"/><g><g><polygon class="cls-19" points="164.7 -15.8 784.7 -347.2 784.7 -258.8 162.8 78.8 164.7 -15.8"/><g><polygon class="cls-19" points="164.7 82.4 784.7 -249.1 784.7 -160.6 162.8 177 164.7 82.4"/><polygon class="cls-33" points="779.8 -252.4 784.7 -249.1 162.4 89.7 156 87.1 779.8 -252.4"/></g></g><g><polygon class="cls-19" points="53.9 247 53.9 21.2 79.2 6.6 79.2 232.4 53.9 247"/><polygon class="cls-33" points="79.2 6.6 54 -7.2 29 6.6 53.9 21.2 79.2 6.6"/><polygon class="cls-29" points="29.2 6.5 29.2 232.3 54 246.9 54 21.1 29.2 6.5"/></g></g><polygon class="cls-40" points="832 -134.9 832 192.5 152 569 148.4 227.5 832 -134.9"/></g><g id="porte_garage"><polygon class="cls-17" points="26.6 228.6 118.9 278.9 118.9 603.5 26.6 551 26.6 228.6"/><g><polygon class="cls-17" points="120.3 632.9 42.5 588.3 42.5 -21.8 120 22.9 120.3 632.9"/><polygon class="cls-16" points="209 -28.5 131.3 -73.7 42.5 -21.8 120 22.9 209 -28.5"/><polygon class="cls-28" points="209 -28.5 209 581.5 120.3 632.9 120 22.9 209 -28.5"/></g><g><polygon class="cls-19" points="156 641.2 156 56.5 181.2 42 181.2 626.6 156 641.2"/><polygon class="cls-33" points="181.2 42 156.2 28.2 131.1 42 156 56.5 181.2 42"/><polygon class="cls-29" points="131.3 41.9 131.3 626.5 156.2 641.2 156.2 56.5 131.3 41.9"/></g><g><polygon class="cls-19" points="167.2 206.6 481.3 390 481.3 518.7 167.2 336.2 167.2 206.6"/><polygon class="cls-43" points="167.2 206.6 174.5 202.9 491.7 386.3 482.4 390.8 167.2 206.6"/></g><g><polygon class="cls-19" points="167.2 60.3 481.3 243.7 481.3 372.4 167.2 189.8 167.2 60.3"/><polygon class="cls-43" points="167.2 60.3 174.5 56.5 491.7 240 482.4 244.4 167.2 60.3"/></g><g><polygon class="cls-19" points="167.2 497.1 481.3 680.5 481.3 809.2 167.2 626.7 167.2 497.1"/><polygon class="cls-43" points="167.2 497.1 174.5 493.5 491.7 676.8 482.4 681.4 167.2 497.1"/></g><g><polygon class="cls-19" points="170.3 353.8 484.6 537.2 484.6 666 170.3 483.3 170.3 353.8"/><polygon class="cls-43" points="170.3 353.8 177.8 350.1 495 533.5 485.7 538 170.3 353.8"/></g><g><polygon class="cls-19" points="506.2 836.2 506 254.3 518.5 247 518.5 829 506.2 836.2"/><polygon class="cls-33" points="518.5 247 493.4 233.3 481.2 239.7 506 254.3 518.5 247"/><polygon class="cls-29" points="481.3 239.6 481.3 821.6 506.2 836.2 506.2 254.2 481.3 239.6"/></g><g><polygon class="cls-19" points="535.7 853.2 535.5 271.3 548.1 264 548.1 846 535.7 853.2"/><polygon class="cls-33" points="548.1 264 523 250.4 510.7 256.7 535.5 271.3 548.1 264"/><polygon class="cls-29" points="510.9 256.7 510.9 838.6 535.7 853.2 535.7 271.3 510.9 256.7"/></g><g><polygon class="cls-19" points="539.3 274.8 853.5 458.2 853.5 587 539.3 404.4 539.3 274.8"/><polygon class="cls-43" points="539.3 274.8 546.7 271.1 864 454.6 854.6 459 539.3 274.8"/></g><g><polygon class="cls-19" points="539.3 419.4 853.5 602.8 853.5 731.5 539.3 549 539.3 419.4"/><polygon class="cls-43" points="539.3 419.4 546.7 415.7 864 599.1 854.6 603.6 539.3 419.4"/></g><g><polygon class="cls-19" points="539.3 710.8 853.5 894.3 853.5 1023 539.3 840.4 539.3 710.8"/><polygon class="cls-43" points="539.3 710.8 546.7 707.2 864 890.6 854.6 895.1 539.3 710.8"/></g><g><polygon class="cls-19" points="539.3 565.4 853.5 748.8 853.5 877.6 539.3 695 539.3 565.4"/><polygon class="cls-43" points="539.3 565.4 546.7 561.7 864 745.2 854.6 749.7 539.3 565.4"/></g><g><polygon class="cls-19" points="877.8 1056.1 877.8 471.4 903.1 456.8 903.1 1041.5 877.8 1056.1"/><polygon class="cls-33" points="903.1 456.8 877.9 443.1 852.9 456.8 877.8 471.4 903.1 456.8"/><polygon class="cls-29" points="853.1 456.8 853.1 1041.4 877.9 1056 877.9 471.3 853.1 456.8"/></g><g><polygon class="cls-17" points="951.1 1122.3 873.4 1077.6 873.4 467.5 950.9 512.2 951.1 1122.3"/><polygon class="cls-16" points="1039.9 460.8 962.2 415.7 873.4 467.5 950.9 512.2 1039.9 460.8"/><polygon class="cls-28" points="1039.9 460.8 1039.9 1070.8 951.1 1122.3 950.9 512.2 1039.9 460.8"/></g></g><g id="palissade_cote_garage"><polygon class="cls-5" points="2715.1 2134.7 960.2 1103.3 960.2 835.4 2715.1 1852.8 2715.1 2134.7"/><polyline class="cls-4" points="2715.1 1852.8 960.2 835.4 1033 798.3 2759.5 1805.5 2771.9 1820"/><g><polygon class="cls-19" points="1004.3 841.1 1004.3 615.3 1029.5 600.7 1029.5 826.5 1004.3 841.1"/><polygon class="cls-33" points="1029.5 600.7 1004.4 587 979.4 600.7 1004.3 615.3 1029.5 600.7"/><polygon class="cls-29" points="979.6 600.6 979.6 826.4 1004.4 841 1004.4 615.2 979.6 600.6"/></g><g><g><polygon class="cls-19" points="1493.5 901.6 1016.9 629.7 1016.9 718.2 1495.4 996.2 1493.5 901.6"/><polygon class="cls-33" points="1021.8 626.4 1016.9 629.7 1495.8 909 1502.3 906.3 1021.8 626.4"/></g><g><polygon class="cls-19" points="1493.5 999.8 1016.9 727.9 1016.9 816.5 1495.4 1094.4 1493.5 999.8"/><polygon class="cls-33" points="1021.8 724.6 1016.9 727.9 1495.8 1007.2 1502.3 1004.5 1021.8 724.6"/></g></g></g><g id="interphone"><polygon class="cls-4" points="928.1 654.1 891.6 633.1 891.4 699.1 927.6 720 928.1 654.1"/><polygon class="cls-4" points="922.3 655.5 885.7 634.5 885.6 700.5 921.8 721.5 922.3 655.5"/><polygon class="cls-7" points="928.1 654.1 922.2 655.5 921.8 721.5 927.6 720 928.1 654.1"/><polygon class="cls-13" points="891.6 633.1 885.7 634.5 922.2 655.5 928.1 654.1 891.6 633.1"/><ellipse class="cls-38" cx="902" cy="666.9" rx="10.6" ry="11.7"/><ellipse class="cls-44" cx="900.3" cy="667.4" rx="3.7" ry="4.2"/><circle class="cls-25" cx="896.8" cy="665.1" r="2"/><polygon class="cls-21" points="884.1 669.2 886.4 668.8 886.4 635.6 880.4 637 884.1 669.2"/><path class="cls-24" d="m929,681l.2-29.5c0-.9-.5-1.7-1.2-2.1l-34.2-18-13.3,4.4,31.4,19.4c1.3.7,2.9,1.9,3.3,3.2l6.1,23.9,7.7-1.3Z"/><polygon class="cls-14" points="917.5 691.1 917.5 714.1 888.5 697.4 888.5 675.8 917.5 691.1"/><path class="cls-26" d="m921.2,682.2h-.7l-6.4-23.6c-.3-1.1-1.5-2-3-2.9l-29.1-17.9c-.5-.3-1.2.1-1.2.8l3.1,30.6-.5-.1-4.1-31.4c-.2-1.6,1.4-2.7,2.8-1.9,8.4,4.7,31,18.1,33,20.5,1.9,2.2,6.1,25.9,6.1,25.9Z"/><line class="cls-31" x1="913.7" y1="704.1" x2="891.4" y2="692.2"/><line class="cls-31" x1="913.7" y1="699.3" x2="891.4" y2="687.3"/><line class="cls-31" x1="913.7" y1="694.5" x2="891.4" y2="682.5"/></g><g id="spots"><g><ellipse class="cls-36" cx="851.4" cy="226.8" rx="14.5" ry="8.4"/><rect class="cls-1" x="837" y="127.1" width="28.9" height="26.5"/><rect class="cls-36" x="837" y="153.6" width="28.9" height="73.2"/><ellipse class="cls-35" cx="851.4" cy="127.1" rx="14.5" ry="8.4"/><ellipse class="cls-1" cx="851.4" cy="153.6" rx="14.5" ry="8.4"/><ellipse class="cls-36" cx="851.4" cy="127.1" rx="14.5" ry="8.4"/></g></g></g></g><g class="cls-41"><g id="ETAGE"><path id="sol" class="cls-42" d="m4527.9-1845.6c-.2-.2-838.7,482-1249.1,720.5l-713.4-411.6L774.8-509.5,1586-41.8l1069.3,616.8,1560.5-901.3,1471.6-849.5c.2,0-1154.5-666.7-1159.5-669.8Zm-981.1,824.2l-222.8-128.8,490.9-283.1,222.8,128.5-490.9,283.4Z"/><g id="mur_gauche"><path id="mur" class="cls-5" d="m2654.6-145.9L720.4-1178l2.7,644.1,1932.2,1108.9-.7-720.9Zm-1287.1-169.7l-337.9-202-.2-345.8,345.3,193.2-7.2,354.6Zm376.7,206.9l-346.1-196.1v-345.8l346.1,196.1V-108.7Zm419.7,246.3l-393.2-227.1v-345.9l393.2,227V137.6Z"/><polyline id="vitre" class="cls-9" points="1029.4 -863.4 1029.4 -517.7 2163.9 137.6 2163.9 -208.5 1029.4 -863.4"/><g id="fenetre"><polygon class="cls-37" points="1029.6 -517.7 1042.2 -524.4 2189.4 132.7 2189.4 152.1 1029.6 -517.7"/><path class="cls-15" d="m1001.6-928.5v427.1L2196.6,191.4V-248.8L1001.6-928.5Zm362.6,604l-334.5-193.2-.2-345.8,334.8,193.2v345.8h-.1Zm373.6,215.8l-339.7-196.1v-345.8l339.7,196.1V-108.7Zm426.1,246.3l-393.2-227.1v-345.9l393.2,227V137.6Z"/></g><polygon class="cls-5" points="1001.6 -501.4 963.1 -479.3 2163.9 210.7 2196.5 191.4 1001.6 -501.4"/><polygon class="cls-4" points="963.1 -479.3 2163.9 210.7 2163.9 240 963.1 -452.9 963.1 -479.3"/></g></g></g><g class="cls-20"><g id="ombre_toit"><polygon id="ombre_gauche" class="cls-2" points="722.4 -998.3 722.4 -1121.5 2655.4 -81.8 2654.6 98.8 722.4 -998.3"/></g></g><g class="cls-34"><g id="TOIT"><g id="gouttière"><polygon class="cls-10" points="689.3 -1178.3 2649.6 -46.8 2649.6 34.3 619.2 -1135.5 689.3 -1178.3"/><path class="cls-3" d="m2649.3-2.2l.3,36.4L612-1139.4c-6.1-3.5-12.3-10-17.3-21.9-3.4-8-3.2-16.9-3.2-16.9L2649.3-2.2Z"/></g></g></g></g></g></g></svg>