<?xml version="1.0" encoding="utf-8"?>
<!-- Generator: Adobe Illustrator 27.2.0, SVG Export Plug-In . SVG Version: 6.00 Build 0)  -->
<svg version="1.1" id="Calque_2_00000181793749440916244520000000475713419309121425_"
	 xmlns="http://www.w3.org/2000/svg" xmlns:xlink="http://www.w3.org/1999/xlink" x="0px" y="0px" viewBox="0 0 64.2 64.2"
	 style="enable-background:new 0 0 64.2 64.2;" xml:space="preserve">
<style type="text/css">
	.st0{clip-path:url(#SVGID_00000176742268353068803260000010463020041020729001_);}
	.st1{fill-rule:evenodd;clip-rule:evenodd;fill:#EAE9E8;}
	.st2{fill-rule:evenodd;clip-rule:evenodd;fill:#937B6A;}
	.st3{fill-rule:evenodd;clip-rule:evenodd;fill:#D8D8D8;}
	.st4{fill-rule:evenodd;clip-rule:evenodd;fill:#EDEDED;}
	.st5{fill:#DFE3ED;}
	.st6{fill:#ECF1FB;}
	.st7{fill:#9AA2B2;}
	.st8{fill:#C1C3DE;}
	.st9{fill:#8F97AD;}
</style>
<g id="Calque_1-2">
	<g id="Calque_2-2">
		<g>
			<defs>
				<circle id="SVGID_1_" cx="32.1" cy="32.1" r="32.1"/>
			</defs>
			<clipPath id="SVGID_00000002367644439682934690000013505545444808858047_">
				<use xlink:href="#SVGID_1_"  style="overflow:visible;"/>
			</clipPath>
			<g style="clip-path:url(#SVGID_00000002367644439682934690000013505545444808858047_);">
				<g id="RDC">
					<g id="sol">
						<polygon class="st1" points="140.3,58.1 -1421,959.2 -349.4,1577.7 1211.1,676.4 						"/>
					</g>
					<g id="escalier_cave">
						<polygon class="st2" points="-665.4,-406.8 93.2,29.9 305.5,-118.3 -439.9,-536.4 						"/>
					</g>
					<polygon class="st3" points="-665.4,-406.8 -2235.7,489.4 -1420.3,959.2 157.1,49.8 					"/>
					<g id="mur_du_fond">
						<polygon class="st4" points="1568,-1487.2 1518.5,-1515.5 -1470.6,213.2 -1422.5,240.9 51.1,-611.5 						"/>
						<path class="st5" d="M1523.3-1461.2L-1422.5,240.9l1.4,718.3l1204.9-695.3V-251l178.5-101.8v513.7L140.2,58.2L140,6.8
							l1383.3-798.4V-1461.2z M1210.8-727.2L1077-649.9v-399.3l134.1-77.1L1210.8-727.2L1210.8-727.2z"/>
					</g>
					<g id="mur_entrée">
						<g id="mur">
							<polygon class="st4" points="2638.9,-869.3 -393.9,881.8 -349.4,908.3 2682.8,-843.4 							"/>
							<path class="st5" d="M-350.3,908.3l-0.2,669.4l490.7-283.4V779.6l889.1-509.5l3.1,509.1l1650.1-952.9l0.4-669.5L-350.3,908.3
								z M1924.6,109.8l-713.7,412.1v-309l713.7-412.1L1924.6,109.8L1924.6,109.8L1924.6,109.8z M2499.1-191.6l-124,70.8V-502
								l124-70.7V-191.6L2499.1-191.6z"/>
						</g>
					</g>
					<g id="prise">
						<g>
							<polygon id="prise-2" class="st6" points="19,51.3 19,23 43.2,9 43.4,37.2 							"/>
							<circle class="st7" cx="33.8" cy="29.4" r="0.7"/>
							<path class="st8" d="M39.7,25.9c0.1,5.2-3.6,11.5-8.1,14.1s-8.2,0.5-8.2-4.7s3.6-11.4,8.1-14C35.9,18.6,39.6,20.7,39.7,25.9z
								"/>
							<path class="st5" d="M38.1,25.5c0.1,4.8-3.3,10.7-7.5,13.1s-7.5,0.4-7.5-4.4s3.3-10.6,7.5-13C34.7,18.8,38.1,20.7,38.1,25.5z
								"/>
							<polygon class="st8" points="42.1,8.5 43.2,9 19,23 19,51.3 17.8,50.6 17.7,22.5 							"/>
							<g>
								<g>
									<polygon class="st9" points="33.8,31 28.7,34.5 28.6,31.7 33.7,28.1 									"/>
									<polygon class="st9" points="32.3,29.1 30.1,30.7 30.1,29.4 32.3,27.8 									"/>
								</g>
								<polygon class="st8" points="33.8,31 30.1,29.9 30.1,29.4 32.3,27.8 32.3,29.1 33.7,28.1 								"/>
								<polygon class="st9" points="32.3,29.1 30.9,28.9 32.3,27.8 								"/>
								<polygon class="st8" points="33.7,29.7 33.8,31 30.1,29.9 32.4,29.7 								"/>
							</g>
						</g>
					</g>
				</g>
			</g>
		</g>
	</g>
</g>
</svg>
