<?xml version="1.0" encoding="UTF-8"?><svg id="Calque_2" xmlns="http://www.w3.org/2000/svg" xmlns:xlink="http://www.w3.org/1999/xlink" viewBox="0 0 64.2 64.2"><defs><style>.cls-1{fill:#c1c3de;}.cls-2{fill:#9aa2b2;}.cls-3{fill:#937b6a;}.cls-3,.cls-4,.cls-5,.cls-6{fill-rule:evenodd;}.cls-4{fill:#eae9e8;}.cls-7{fill:none;}.cls-8{fill:#ecf1fb;}.cls-9{fill:#8f97ad;}.cls-10{clip-path:url(#clippath-3);}.cls-5{fill:#ededed;}.cls-11{fill:#dfe3ed;}.cls-6{fill:#d8d8d8;}</style><clipPath id="clippath-3"><circle class="cls-7" cx="32.1" cy="32.1" r="32.1"/></clipPath></defs><g id="Calque_1-2"><g id="Calque_2-2"><g class="cls-10"><g id="RDC"><g id="sol"><polygon class="cls-4" points="140.3 58.1 -1421 959.2 -349.4 1577.7 1211.1 676.4 140.3 58.1"/></g><g id="escalier_cave"><polygon class="cls-3" points="-665.4 -406.8 93.2 29.9 305.5 -118.3 -439.9 -536.4 -665.4 -406.8"/></g><polygon class="cls-6" points="-665.4 -406.8 -2235.7 489.4 -1420.3 959.2 157.1 49.8 -665.4 -406.8"/><g id="mur_du_fond"><polygon class="cls-5" points="1568 -1487.2 1518.5 -1515.5 -1470.6 213.2 -1422.5 240.9 51.1 -611.5 1568 -1487.2"/><path class="cls-11" d="m1523.3-1461.2L-1422.5,240.9l1.4,718.3L-216.2,263.9V-251l178.5-101.8V160.9L140.2,58.2l-.2-51.4,1383.3-798.4v-669.6Zm-312.5,734l-133.8,77.3v-399.3l134.1-77.1-.3,399.1Z"/></g><g id="mur_entrée"><g id="mur"><polygon class="cls-5" points="2638.9 -869.3 -393.9 881.8 -349.4 908.3 2682.8 -843.4 2638.9 -869.3"/><path class="cls-11" d="m-350.3,908.3l-.2,669.4,490.7-283.4v-514.7l889.1-509.5,3.1,509.1L2682.5-173.7l.4-669.5L-350.3,908.3ZM1924.6,109.8l-713.7,412.1V212.9l713.7-412.1V109.8h0Zm574.5-301.4l-124,70.8v-381.2l124-70.7V-191.6Z"/></g></g><g id="prise"><g><polygon id="prise-2" class="cls-8" points="19 51.3 19 23 43.2 9 43.4 37.2 19 51.3"/><circle class="cls-2" cx="33.8" cy="29.4" r=".7"/><path class="cls-1" d="m39.7,25.9c.1,5.2-3.6,11.5-8.1,14.1s-8.2.5-8.2-4.7,3.6-11.4,8.1-14c4.4-2.7,8.1-.6,8.2,4.6Z"/><path class="cls-11" d="m38.1,25.5c.1,4.8-3.3,10.7-7.5,13.1s-7.5.4-7.5-4.4,3.3-10.6,7.5-13c4.1-2.4,7.5-.5,7.5,4.3Z"/><path class="cls-9" d="m29,31c0,.7-.5,1.6-1.1,1.9-.6.4-1.2.1-1.2-.7,0-.7.5-1.6,1.1-1.9.7-.3,1.2,0,1.2.7Z"/><path class="cls-9" d="m34.8,28.8c0,.7-.5,1.6-1.1,1.9-.6.4-1.2.1-1.2-.7,0-.7.5-1.6,1.1-1.9.8-.3,1.2-.1,1.2.7Z"/><polygon class="cls-1" points="42.1 8.5 43.2 9 19 23 19 51.3 17.8 50.6 17.7 22.5 42.1 8.5"/></g></g></g></g></g></g></svg>