<?xml version="1.0" encoding="UTF-8"?><svg id="Calque_2" xmlns="http://www.w3.org/2000/svg" xmlns:xlink="http://www.w3.org/1999/xlink" viewBox="0 0 471 471"><defs><style>.cls-1{fill:#e1a084;}.cls-1,.cls-2,.cls-3,.cls-4,.cls-5,.cls-6,.cls-7,.cls-8,.cls-9,.cls-10,.cls-11,.cls-12,.cls-13,.cls-14,.cls-15,.cls-16,.cls-17,.cls-18,.cls-19,.cls-20,.cls-21,.cls-22,.cls-23{fill-rule:evenodd;}.cls-2{opacity:.22;}.cls-2,.cls-18,.cls-23{isolation:isolate;}.cls-3{fill:#897e7e;}.cls-24{fill:#536087;}.cls-4{fill:#938f8f;}.cls-25{fill:#647082;}.cls-26,.cls-6{fill:#f3f7ff;}.cls-27{clip-path:url(#clippath-2);}.cls-5,.cls-28{fill:#dce6f4;}.cls-7{fill:#99582b;}.cls-8{fill:#e8d5be;}.cls-29{fill:#87c4c4;}.cls-30{clip-path:url(#clippath-7);}.cls-9{fill:#afacac;}.cls-10{fill:#f4d9bd;}.cls-31{fill:#ddf9d7;}.cls-11{fill:#bc7a6c;}.cls-32{fill:#63687c;}.cls-12{fill:#a7adb7;}.cls-33{stroke:#a6b7cc;stroke-linecap:round;stroke-width:6.62px;}.cls-33,.cls-34{fill:none;}.cls-33,.cls-20{stroke-miterlimit:7.77;}.cls-13{fill:#cad2dd;}.cls-35{fill:#ccebca;}.cls-14{fill:#938989;}.cls-36{fill:#b8ccca;}.cls-15{fill:#777070;}.cls-16{fill:#605c5c;}.cls-17{fill:#eae9e8;}.cls-18{fill:#627184;opacity:.5;}.cls-19{fill:#d1bba7;}.cls-37{clip-path:url(#clippath-3);}.cls-38{fill:#af8282;}.cls-20{stroke:#827267;stroke-width:3.11px;}.cls-20,.cls-22,.cls-39{fill:#ededed;}.cls-21{fill:#edecdf;}.cls-40{fill:#ce967f;}.cls-41{fill:#dfe3ed;}.cls-23{fill:#005507;opacity:.14;}.cls-42{clip-path:url(#clippath-5);}.cls-43{fill:#8594c9;}.cls-44{fill:#919299;}</style><clipPath id="clippath-2"><circle class="cls-34" cx="235.5" cy="235.5" r="235.5"/></clipPath><clipPath id="clippath-3"><circle class="cls-34" cx="235.5" cy="235.5" r="235.5"/></clipPath><clipPath id="clippath-5"><circle class="cls-34" cx="235.5" cy="235.5" r="235.5"/></clipPath><clipPath id="clippath-7"><circle class="cls-34" cx="235.5" cy="235.5" r="235.5"/></clipPath></defs><g id="Calque_1-2"><g id="Calque_2-2"><g><g class="cls-27"><g id="HAIE"><polygon class="cls-35" points="3760.8 229.5 1268.5 -1207.7 -830.4 4.2 -961.9 -72.7 1290.2 -1374.7 3897 159.2 3760.8 229.5"/><polygon class="cls-31" points="1268.3 -691 -830.3 521.3 -830.4 4.2 1268.5 -1207.7 1268.3 -691"/></g></g><g class="cls-37"><g id="RDC"><g id="sol"><polygon class="cls-17" points="643.8 1678.1 2071.4 853.6 1001.6 236.4 -425.4 1060 643.8 1678.1"/></g><g id="mur_du_fond"><g id="cadre"><polygon class="cls-20" points="376.4 132.8 465.6 81.3 465.6 184.4 376.1 236 376.4 132.8"/><polygon class="cls-7" points="400 140.4 400 202.2 450.3 175.1 450.3 113.3 400 140.4"/></g><polygon class="cls-22" points="1001.2 -433.9 951.7 -462.2 -2037.4 1266.5 -1989.3 1294.2 -515.7 441.8 1001.2 -433.9"/><polygon id="plainte" class="cls-40" points="-426.5 1059.8 956.8 261.7 956.8 241.7 -426.5 1034.5 -426.5 1059.8"/><path class="cls-41" d="m956.5-407.9L-1989.3,1294.2l1.4,718.3,1204.9-695.3v-514.9l178.5-101.8v513.7l177.9-102.7-.2-51.4L956.5,261.7V-407.9Zm-312.5,734l-133.8,77.3V4.1l134.1-77.1-.3,399.1Z"/></g><g id="enceintes"><g id="enceinte"><polygon class="cls-1" points="49.5 497 125.2 453.6 200.1 497.1 125 540.5 49.5 497"/></g></g><g id="mur_entrée"><g id="mur"><polygon class="cls-22" points="2072.1 184 -960.7 1935.1 -916.2 1961.6 2116 209.9 2072.1 184"/><path class="cls-41" d="m-917.1,1961.6l-.2,669.4,490.7-283.4v-514.7l889.1-509.5,3.1,509.1,1650.1-952.9.4-669.5L-917.1,1961.6Zm2274.9-798.5l-713.7,412.1v-309l713.7-412.1v309Zm574.5-301.4l-124,70.8v-381.2l124-70.7v381.1Z"/></g></g><g id="meuble_hifi"><polygon class="cls-21" points="502.4 366.9 600.6 423.7 295.7 601.1 197 544.3 502.4 366.9"/><polygon class="cls-19" points="295.7 732.3 600.9 554.1 600.6 423.7 295.7 601.1 295.7 732.3"/><g><polygon class="cls-8" points="456.9 515.3 456.9 642.5 608.7 553.5 608.7 427.6 456.9 515.3"/><polyline class="cls-21" points="451.9 512.4 602.9 424.7 608.7 427.6 456.9 515.3 451.9 512.4"/></g></g><g id="ensemble_hifi"><g id="tv"><polygon class="cls-15" points="238.8 501.6 238.8 273.2 506.5 118.4 506.5 346.1 238.8 501.6"/><polygon class="cls-16" points="253.1 484.4 253.1 278.7 498.4 137.6 498.4 342.7 253.1 484.4"/><polygon class="cls-14" points="238.8 501.6 228.7 496.2 228.7 269.3 238.8 273.2 238.8 501.6"/><polygon class="cls-14" points="506.5 118.4 498 114.2 228.7 269.3 238.8 273.2 506.5 118.4"/></g><g id="box"><polygon class="cls-4" points="246.6 508.9 322.5 465 368.1 491.9 292.9 534.7 246.6 508.9"/></g><g id="telecommande"><polygon class="cls-4" points="388.8 449.1 421 467.7 434.7 459.7 402 441.8 388.8 449.1"/><polygon class="cls-4" points="388.8 447.4 421 465.9 434.7 457.9 402 440 388.8 447.4"/><polygon class="cls-9" points="388.8 447.3 388.8 449.1 421 467.7 421 465.6 388.8 447.3"/><polygon class="cls-3" points="434.7 459.7 434.7 457.9 421 465.6 421 467.7 434.7 459.7"/><ellipse class="cls-38" cx="431.2" cy="457.7" rx=".8" ry=".5"/></g></g><g id="escalier"><g id="marche"><polygon class="cls-1" points="-30.1 487.3 129 579 179.5 549.8 21.3 457.6 -30.1 487.3"/><g><polygon class="cls-1" points="14.6 410.4 173.6 502 224.1 472.9 65.9 380.7 14.6 410.4"/><polygon class="cls-11" points="173.6 516.4 14.6 424 14.6 410.4 173.6 502 173.6 516.4"/></g><g><polygon class="cls-1" points="59.2 333.1 218.2 424.7 268.7 395.6 110.6 303.4 59.2 333.1"/><polygon class="cls-10" points="218.2 424.7 218.2 439.1 268.7 409.6 268.7 395.6 218.2 424.7"/><polygon class="cls-11" points="218.2 439.1 59.2 346.8 59.2 333.1 218.2 424.7 218.2 439.1"/></g><g><polygon class="cls-1" points="104.5 255.5 263.6 347.2 314 318.1 155.9 225.9 104.5 255.5"/><polygon class="cls-10" points="263.6 347.2 263.6 361.6 314 332 314 318.1 263.6 347.2"/><polygon class="cls-11" points="263.6 361.6 104.5 269.3 104.5 255.5 263.6 347.2 263.6 361.6"/></g><g><polygon class="cls-1" points="148.3 178.3 307.4 270 357.9 240.8 199.7 148.6 148.3 178.3"/><polygon class="cls-10" points="307.4 270 307.4 284.3 357.9 254.7 357.9 240.8 307.4 270"/><polygon class="cls-11" points="307.4 284.3 148.3 192 148.3 178.3 307.4 270 307.4 284.3"/></g><g><polygon class="cls-1" points="193 101 352 192.7 402.6 163.5 244.4 71.3 193 101"/><polygon class="cls-10" points="352 192.7 352 207.1 402.6 177.4 402.6 163.5 352 192.7"/><polygon class="cls-11" points="352 207.1 193 114.7 193 101 352 192.7 352 207.1"/></g><g><polygon class="cls-1" points="237.6 23.8 396.7 115.4 447.1 86.3 289 -5.9 237.6 23.8"/><polygon class="cls-10" points="396.7 115.4 396.7 129.8 447.1 100.3 447.1 86.3 396.7 115.4"/><polygon class="cls-11" points="396.7 129.8 237.6 37.5 237.6 23.8 396.7 115.4 396.7 129.8"/></g></g></g></g></g><g class="cls-42"><g id="ETAGE"><g id="escalier-2"><g><polygon class="cls-1" points="14.6 410.1 173.6 501.7 224.1 472.6 65.9 380.4 14.6 410.1"/><polygon class="cls-11" points="173.6 516.2 14.6 423.8 14.6 410.1 173.6 501.7 173.6 516.2"/></g><g><polygon class="cls-1" points="59.1 333.1 218.2 424.7 268.7 395.6 110.5 303.4 59.1 333.1"/><polygon class="cls-10" points="218.2 424.7 218.2 439.1 268.7 409.6 268.7 395.6 218.2 424.7"/><polygon class="cls-11" points="218.2 439.1 59.1 346.8 59.1 333.1 218.2 424.7 218.2 439.1"/></g><g><polygon class="cls-1" points="103.7 255.8 262.8 347.5 313.2 318.3 155.1 226.2 103.7 255.8"/><polygon class="cls-10" points="262.8 347.5 262.8 361.9 313.2 332.3 313.2 318.3 262.8 347.5"/><polygon class="cls-11" points="262.8 361.9 103.7 269.6 103.7 255.8 262.8 347.5 262.8 361.9"/></g><g><polygon class="cls-1" points="149 178.3 308.1 270 358.6 240.8 200.4 148.6 149 178.3"/><polygon class="cls-10" points="308.1 270 308.1 284.3 358.6 254.7 358.6 240.8 308.1 270"/><polygon class="cls-11" points="308.1 284.3 149 192 149 178.3 308.1 270 308.1 284.3"/></g><g><polygon class="cls-1" points="193 101 352 192.7 402.5 163.5 244.4 71.3 193 101"/><polygon class="cls-10" points="352 192.7 352 207.1 402.5 177.4 402.5 163.5 352 192.7"/><polygon class="cls-11" points="352 207.1 193 114.7 193 101 352 192.7 352 207.1"/></g><g><polygon class="cls-1" points="237.6 23.8 396.7 115.4 447.1 86.3 289 -5.9 237.6 23.8"/><polygon class="cls-10" points="396.7 115.4 396.7 129.8 447.1 100.3 447.1 86.3 396.7 115.4"/><polygon class="cls-11" points="396.7 129.8 237.6 37.5 237.6 23.8 396.7 115.4 396.7 129.8"/></g></g><path id="sol-2" class="cls-43" d="m956-459.3c-.2-.2-838.7,482-1249.1,720.5L-1006.5-150.4l-1790.6,1027.2,811.2,467.7,1069.3,616.8,1560.5-901.3L2115.5,210.5c.2,0-1154.5-666.7-1159.5-669.8ZM-25.1,364.9l-222.8-128.8L243-47l222.8,128.5L-25.1,364.9Z"/><polygon class="cls-24" points="-872.7 648.1 956.5 -408.2 1314.2 -202.5 -516 854.3 -872.7 648.1"/><polygon id="sol_marche" class="cls-32" points="287.1 -21.4 287.1 -5.9 452.4 89.3 465.8 81.5 287.1 -21.4"/><g id="mur_arriere_2"><polygon class="cls-41" points="956.5 -408.2 955.9 -1128.8 -292.8 -407.9 -292.8 313.3 956.5 -408.2"/></g><g id="mur_enfant"><polygon class="cls-41" points="1001.2 -485.4 1223.9 -613.9 1223.9 -98.8 1043.5 5.3 1357.8 -176.1 1357.8 -897.3 -426.5 133 -426.3 854.1 1001.2 29.8 1001.2 -485.4"/><polygon class="cls-29" points="433 -208.8 432.8 203.4 644 81.4 644 -330.6 433 -208.8"/></g><g id="petite_chambre"><polygon class="cls-36" points="1334.8 -162.5 1223.9 -98.8 1201 -112.1 1201 -137.1 -514.9 854 247.6 1291.9 2071.3 235.4 1358.9 -176.4 1334.8 -162.5"/><g id="radiateur"><polygon class="cls-23" points="124.6 229 126.2 430 393.2 275.6 393.2 74.3 124.6 229"/><polygon class="cls-12" points="93 411.5 126.2 430 124.6 229 92.7 212.9 93 411.5"/><polygon class="cls-13" points="404.3 67.9 373.1 50.7 92.7 212.9 124.6 229 404.3 67.9"/><polygon class="cls-6" points="93 411.5 96.1 413.3 95.8 214.5 92.7 212.9 93 411.5"/><polygon class="cls-6" points="373.2 50.7 377.1 52.9 95.8 214.5 92.7 212.9 373.2 50.7"/><g><polygon class="cls-6" points="156.9 210.3 185 194.2 185 396.8 156.9 412.4 156.9 210.3"/><polygon class="cls-5" points="182.6 192.6 185 194.2 156.9 210.3 154 209.1 182.6 192.6"/><polygon class="cls-41" points="154.9 411.2 156.9 412.4 156.9 210.3 154 209.1 154.9 411.2"/></g><g><polygon class="cls-6" points="377.8 82.4 405.8 66.3 405.8 268.9 377.8 284.4 377.8 82.4"/><polygon class="cls-5" points="403.5 64.7 405.8 66.3 377.8 82.4 375 81.2 403.5 64.7"/><polygon class="cls-41" points="375.7 283.3 377.8 284.4 377.8 82.4 375 81.2 375.7 283.3"/></g><g><polygon class="cls-6" points="346.2 100.7 374.3 84.5 374.3 287.1 346.2 302.7 346.2 100.7"/><polygon class="cls-5" points="371.9 83 374.3 84.5 346.2 100.7 343.4 99.5 371.9 83"/><polygon class="cls-41" points="344.2 301.5 346.2 302.7 346.2 100.7 343.4 99.5 344.2 301.5"/></g><g><polygon class="cls-6" points="314.6 119 342.7 102.8 342.7 305.4 314.6 321 314.6 119"/><polygon class="cls-5" points="340.4 101.3 342.7 102.8 314.6 119 311.8 117.7 340.4 101.3"/><polygon class="cls-41" points="312.7 319.8 314.6 321 314.6 119 311.8 117.7 312.7 319.8"/></g><g><polygon class="cls-6" points="283.1 137.3 311.1 121.1 311.1 323.7 283.1 339.2 283.1 137.3"/><polygon class="cls-5" points="308.8 119.5 311.1 121.1 283.1 137.3 280.3 136 308.8 119.5"/><polygon class="cls-41" points="281.1 338.1 283.1 339.2 283.1 137.3 280.3 136 281.1 338.1"/></g><g><polygon class="cls-6" points="251.5 155.5 279.6 139.4 279.6 341.9 251.5 357.5 251.5 155.5"/><polygon class="cls-5" points="277.2 137.8 279.6 139.4 251.5 155.5 248.7 154.3 277.2 137.8"/><polygon class="cls-41" points="249.6 356.3 251.5 357.5 251.5 155.5 248.7 154.3 249.6 356.3"/></g><g><polygon class="cls-6" points="220 173.8 248 157.6 248 360.2 220 375.8 220 173.8"/><polygon class="cls-5" points="245.7 156.1 248 157.6 220 173.8 217.2 172.6 245.7 156.1"/><polygon class="cls-41" points="218 374.6 220 375.8 220 173.8 217.2 172.6 218 374.6"/></g><g><polygon class="cls-6" points="188.5 192.1 216.5 175.9 216.5 378.5 188.5 394.1 188.5 192.1"/><polygon class="cls-5" points="214.1 174.3 216.5 175.9 188.5 192.1 185.6 190.8 214.1 174.3"/><polygon class="cls-41" points="186.4 392.9 188.5 394.1 188.5 192.1 185.6 190.8 186.4 392.9"/></g><g><polygon class="cls-6" points="125 228.7 153.1 212.6 153.1 415.1 125 430.7 125 228.7"/><polygon class="cls-5" points="150.8 211 153.1 212.6 125 228.7 122.2 227.4 150.8 211"/><polygon class="cls-41" points="123 429.6 125 430.7 125 228.7 122.2 227.4 123 429.6"/></g><polyline class="cls-41" points="96.1 411.1 123 426.1 122.2 228.9 96.1 215.9 96.1 411.1"/><ellipse class="cls-25" cx="108.2" cy="240.7" rx="10.6" ry="13.2"/><ellipse class="cls-28" cx="105.4" cy="241.1" rx="11.8" ry="12.4"/><polygon class="cls-5" points="89.8 236.1 100.4 229.5 109.2 252.9 96.1 259.8 89.8 236.1"/><ellipse class="cls-26" cx="92.4" cy="248.1" rx="11.2" ry="12.4"/><path class="cls-33" d="m82.3,398l13,7.7c2.5,1.5,5.6,1.4,8.1-.2l5.5-3.7"/></g></g><g id="mur_couloir"><polygon class="cls-6" points="-871 81 -649.5 210 -649.8 776.8 247.6 1294 242.6 570.5 -872.1 -76.3 -871 81"/><polygon class="cls-39" points="-872 -76.1 -827.5 -101.9 287.2 544.8 242.6 570.5 -872 -76.1"/></g><polygon class="cls-39" points="1313.2 -922.8 -471.2 107.2 -426.5 133 1357.8 -897.3 1313.2 -922.8"/><g id="mur_devant"><polygon class="cls-39" points="-961.9 1214.4 -916.6 1240.4 2115.6 -511.2 2071.4 -536.7 -961.9 1214.4"/><path class="cls-41" d="m-917.3,1240.4l.8,725.4L2115.6,216.8l.5-727.7L-917.3,1240.4Zm133.8,231.8v-206L-203.9,931.5l.2,205.8-579.8,334.9ZM464.1,854.1v-309.9l356.4-204.3.9,309-357.3,205.2Zm402.1-230.1v-309.9l356.4-204.3.9,309-357.3,205.2Z"/><polygon class="cls-18" points="449.7 875 1233.8 425.3 1233.8 94.3 453.3 532.8 449.7 875"/><path class="cls-44" d="m1247,436.5l-.9-375.9-808.4,461.3v382.5l809.3-467.9Zm-380.8-122.4l356.4-204.3.9,309-357.4,205.2.1-309.9h0Zm-402.1,540v-309.9l356.4-204.3.9,309-357.3,205.2Z"/></g></g></g><g class="cls-30"><g id="ombre_toit"><polygon id="ombre_droite" class="cls-2" points="2116.1 -241 -917.3 1485.1 -917.1 1340.2 2116.1 -395 2116.1 -241"/></g></g></g></g></g></svg>