<?xml version="1.0" encoding="UTF-8"?><svg id="Calque_2" xmlns="http://www.w3.org/2000/svg" xmlns:xlink="http://www.w3.org/1999/xlink" viewBox="0 0 112.6 112.6"><defs><style>.cls-1{isolation:isolate;opacity:.22;}.cls-1,.cls-2,.cls-3,.cls-4,.cls-5,.cls-6,.cls-7,.cls-8,.cls-9,.cls-10,.cls-11,.cls-12,.cls-13,.cls-14,.cls-15,.cls-16{fill-rule:evenodd;}.cls-2{fill:#b7aba7;}.cls-3{fill:#535250;}.cls-4{fill:#f3f7ff;}.cls-5{fill:#7b7e8f;}.cls-17{fill:#7e8298;}.cls-18{clip-path:url(#clippath-7);}.cls-6{fill:#8d909e;}.cls-7{fill:#7d8dad;}.cls-8{fill:#babdd1;}.cls-9{fill:#868ab0;}.cls-10{fill:#777a84;}.cls-11{fill:#b2b1b1;}.cls-19{fill:#b8ccca;}.cls-12{fill:#7c7a77;}.cls-13{fill:#eae9e8;}.cls-20{fill:none;}.cls-21{clip-path:url(#clippath-3);}.cls-14{fill:#dbdad9;}.cls-22{clip-path:url(#clippath-8);}.cls-15{fill:#babdc6;}.cls-16,.cls-23{fill:#ededed;}.cls-24{fill:#dfe3ed;}.cls-25{clip-path:url(#clippath-5);}.cls-26{fill:#8594c9;}</style><clipPath id="clippath-2"><circle class="cls-20" cx="56.3" cy="56.3" r="56.3"/></clipPath><clipPath id="clippath-3"><circle class="cls-20" cx="56.3" cy="56.3" r="56.3"/></clipPath><clipPath id="clippath-4"><circle class="cls-20" cx="56.3" cy="56.3" r="56.3"/></clipPath><clipPath id="clippath-5"><circle class="cls-20" cx="56.3" cy="56.3" r="56.3"/></clipPath><clipPath id="clippath-7"><circle class="cls-20" cx="56.3" cy="56.3" r="56.3"/></clipPath><clipPath id="clippath-8"><circle class="cls-20" cx="56.3" cy="56.3" r="56.3"/></clipPath></defs><g id="Calque_1-2"><g id="Calque_2-2"><g><g class="cls-21"><g id="RDC"><g id="sol"><polygon class="cls-13" points="-925.8 830.6 501.8 6.1 -568 -611.1 -1995 212.5 -925.8 830.6"/></g><g id="mur_de_droite"><polygon class="cls-4" points="-613.1 -636 -613.1 -1255.7 503 -611 503.3 6.3 -613.1 -636"/></g><polygon class="cls-2" points="-925.8 830.6 -925.8 882.1 546.1 31.8 546.1 -19.5 -925.8 830.6"/><g id="mur_entrée"><g id="mur"><polygon class="cls-16" points="502.5 -663.5 -2530.3 1087.6 -2485.8 1114.1 546.4 -637.6 502.5 -663.5"/><path class="cls-24" d="m-2486.7,1114.1l-.2,669.4,490.7-283.4v-514.7l889.1-509.5,3.1,509.1L546.1,32.1l.4-669.5-3033.2,1751.5ZM-211.8,315.6l-713.7,412.1v-309L-211.8,6.6v309ZM362.7,14.2l-124,70.8v-381.2l124-70.7V14.2Z"/></g><g id="grande_fenetre"><polyline class="cls-15" points="77.8 -212.2 100.5 -225.3 100.5 238.3 77.8 225.3 77.8 -212.2"/></g><g id="porte"><polygon class="cls-10" points="-78 316.9 -78 -121.4 77.8 -212.2 77.8 225.3 -78 316.9"/><g id="serrure"><g><path class="cls-11" d="m58.6,68.4l-5.6,3.4c-.5.3-1.1.5-1.6.4-1.1-.2-1.8-1.4-1.8-3.3l.1-16.6c0-2.6,1.6-5.7,3.3-6.7l5.5-3.2c1.8-1,3.3.2,3.3,2.9v16.2c.1,2.7-1.4,5.7-3.2,6.9Z"/><path class="cls-3" d="m56.7,55.7c.5-.6.8-1.6.8-2.3,0-1.2-.6-1.8-1.5-1.3s-1.5,1.8-1.5,3c0,.9.3,1.4.8,1.5l-.6,6.1c0,.2.1.4.3.3l1.9-1.2c.2-.1.3-.4.3-.6l-.5-5.5Z"/></g><path class="cls-11" d="m54.4,72.2l-2.1-2-.9.5.3,1.5h2.7Z"/><g><path class="cls-14" d="m61.4,68.4l-5.6,3.4c-1.9,1.1-3.3-.2-3.3-2.9l.1-16.6c0-2.6,1.6-5.7,3.3-6.7l5.5-3.2c1.8-1,3.3.2,3.3,2.9v16.2c0,2.7-1.5,5.7-3.3,6.9Z"/><path class="cls-12" d="m59.5,55.7c.5-.6.8-1.6.8-2.3,0-1.2-.6-1.8-1.5-1.3s-1.5,1.8-1.5,3c0,.9.3,1.4.8,1.5l-.6,6.1c0,.2.1.4.3.3l1.9-1.2c.2-.1.3-.4.3-.6l-.5-5.5Z"/></g><polygon class="cls-11" points="62.8 42.1 59.5 42.1 57.5 43.1 60 43.2 62.8 42.1"/></g></g></g></g></g><g class="cls-25"><g id="ETAGE"><path id="sol-2" class="cls-26" d="m-613.6-1306.8c-.2-.2-838.7,482-1249.1,720.5l-713.4-411.6L-4366.7,29.3l811.2,467.7,1069.3,616.8L-925.7,212.5,545.9-637c.2,0-1154.5-666.7-1159.5-669.8Zm-981.1,824.2l-222.8-128.8,490.9-283.1,222.8,128.5-490.9,283.4Z"/><g id="petite_chambre"><polygon class="cls-19" points="-234.8 -1010 -345.7 -946.3 -368.6 -959.6 -368.6 -984.6 -2084.5 6.5 -1322 444.4 501.7 -612.1 -210.7 -1023.9 -234.8 -1010"/></g><g id="mur_devant"><polygon class="cls-23" points="-2531.5 366.9 -2486.2 392.9 546 -1358.7 501.8 -1384.2 -2531.5 366.9"/><path class="cls-24" d="m-2486.9,392.9l.8,725.4L546-630.7l.5-727.7L-2486.9,392.9Zm133.8,231.8v-206L-1773.5,84l.2,205.8-579.8,334.9ZM-1105.5,6.6v-309.9l356.4-204.3.9,309L-1105.5,6.6Zm402.1-230.1v-309.9l356.4-204.3.9,309-357.3,205.2Z"/></g></g></g><g class="cls-18"><g id="ombre_toit"><polygon id="ombre_droite" class="cls-1" points="546.5 -1088.5 -2486.9 637.6 -2486.7 492.7 546.5 -1242.5 546.5 -1088.5"/></g></g><g class="cls-22"><g id="TOIT"><path id="sol-3" class="cls-17" d="m-614.3-2027.6c-.2-.2-838.7,482-1249.1,720.5l-713.3-411.6-1790.6,1027.1,811.2,467.7h0l1069.3,616.8L-926.3-508.4l1471.6-849.5c.1-.1-1154.6-666.8-1159.6-669.7Z"/><g id="gouttière"><polygon class="cls-5" points="-2486.8 573.1 610.3 -1215.1 534.4 -1247.7 -2486.9 472.5 -2486.8 573.1"/></g><g id="rebord"><polygon class="cls-8" points="-4441.9 -677 -4441.9 -629.5 -2486.9 516.2 603.6 -1305.3 603.3 -1325.6 -2486.1 457 -4441.9 -677"/><polygon class="cls-6" points="-2486.1 457 -2486.9 516.2 603.6 -1255.7 603.3 -1325.6 -2486.1 457"/><polygon class="cls-9" points="-4422.2 -679.2 -2486.2 444.3 591.1 -1332.6 603.4 -1325.5 -2486.1 457 -4441.9 -677 -4422.2 -679.2"/></g><g id="toiture"><polygon class="cls-7" points="-78.3 -1976.3 -2308.3 -688.9 -2486.9 444.4 591.1 -1332.6 -78.3 -1976.3"/></g></g></g></g></g></g></svg>