<?xml version="1.0" encoding="UTF-8"?><svg id="Calque_2" xmlns="http://www.w3.org/2000/svg" xmlns:xlink="http://www.w3.org/1999/xlink" viewBox="0 0 1013.39 1013.39"><defs><style>.cls-1{fill:#777a84;}.cls-2{opacity:.22;}.cls-2,.cls-3,.cls-4,.cls-5,.cls-6,.cls-7,.cls-8,.cls-9,.cls-10,.cls-11,.cls-12,.cls-13,.cls-14,.cls-15,.cls-16,.cls-17,.cls-18,.cls-19,.cls-20,.cls-21,.cls-22,.cls-23,.cls-24{fill-rule:evenodd;}.cls-2,.cls-15,.cls-17{isolation:isolate;}.cls-3,.cls-25{fill:#959fb0;}.cls-26{fill:#999caa;}.cls-4{fill:#f3f7ff;}.cls-27{fill:#afa79a;}.cls-5{fill:#7b7e8f;}.cls-28{fill:#7e8298;}.cls-29{clip-path:url(#clippath-7);}.cls-6{fill:#8d909e;}.cls-30{clip-path:url(#clippath-4);}.cls-7{fill:#9ba5ae;}.cls-8{fill:#e0d5c0;}.cls-9{fill:#7d8dad;}.cls-10{fill:#7f818f;}.cls-11{fill:#babdd1;}.cls-31{fill:#8e919b;}.cls-12{fill:#868ab0;}.cls-32{fill:#d9dce8;}.cls-33{fill:#c9c3b8;}.cls-34{fill:#e8ecfa;}.cls-13{fill:#ddafad;}.cls-35{fill:#858791;}.cls-36{fill:#b8ccca;}.cls-14{fill:#eae9e8;}.cls-37{fill:none;}.cls-15{fill:#627184;opacity:.5;}.cls-16{fill:#e2ded7;}.cls-38{clip-path:url(#clippath-3);}.cls-17{opacity:.09;}.cls-39{fill:#b4b8cd;}.cls-18{fill:#b8becc;}.cls-40{fill:#8d8f99;}.cls-41{clip-path:url(#clippath-8);}.cls-19,.cls-42{fill:#ededed;}.cls-43{fill:#dfe3ed;}.cls-44{clip-path:url(#clippath-5);}.cls-20{fill:#83879e;}.cls-21{fill:#d8d8d8;}.cls-22{fill:#f7edd6;}.cls-45{fill:#d5dbeb;}.cls-46{fill:#8594c9;}.cls-47{fill:#919299;}.cls-23{fill:#f5ebd4;}.cls-24{fill:#8e92a4;}</style><clipPath id="clippath-2"><circle class="cls-37" cx="506.7" cy="506.7" r="506.7"/></clipPath><clipPath id="clippath-3"><circle class="cls-37" cx="506.7" cy="506.7" r="506.7"/></clipPath><clipPath id="clippath-4"><circle class="cls-37" cx="506.7" cy="506.7" r="506.7"/></clipPath><clipPath id="clippath-5"><circle class="cls-37" cx="506.7" cy="506.7" r="506.7"/></clipPath><clipPath id="clippath-7"><circle class="cls-37" cx="506.7" cy="506.7" r="506.7"/></clipPath><clipPath id="clippath-8"><circle class="cls-37" cx="506.7" cy="506.7" r="506.7"/></clipPath></defs><g id="Calque_1-2"><g id="Calque_2-2"><g><g class="cls-38"><g id="RDC"><g id="sol"><polygon class="cls-14" points="1058.6 449.1 2486.2 -375.4 1416.4 -992.6 -10.6 -169 1058.6 449.1"/><g id="tapis"><path class="cls-13" d="m1171.2-655.5l665.9,382.8c10.4,6,10.4,21,0,27.1L1228.6,106.2c-4.8,2.8-10.7,2.8-15.5,0l-665.5-382.4c-10.4-6-10.4-21-.1-27.1l608.2-352.2c4.7-2.8,10.6-2.8,15.5,0Z"/></g><polyline class="cls-16" points="-12 -168.9 -11.7 -117.6 1059.1 500.7 1059.1 449.2 -12 -168.9"/><polygon class="cls-14" points="-11.7 -117.6 -1573 783.5 -501.4 1402 1059.1 500.7 -11.7 -117.6"/></g><polygon class="cls-21" points="-817.4 -582.5 -2387.7 313.7 -1572.3 783.5 5.1 -125.9 -817.4 -582.5"/><g id="mur_du_fond"><polygon class="cls-19" points="1416 -1662.9 1366.5 -1691.2 -1622.6 37.5 -1574.5 65.2 -100.9 -787.2 1416 -1662.9"/><path class="cls-43" d="m1371.3-1636.9L-1574.5,65.2l1.4,718.3L-368.2,88.2V-426.7l178.5-101.8V-14.8L-11.8-117.5l-.2-51.4,1383.3-798.4v-669.6Zm-312.5,734l-133.8,77.3v-399.3l134.1-77.1-.3,399.1Z"/></g><g id="table_a_manger"><polygon class="cls-17" points="-540.8 562.9 -102.9 313.5 130.8 418.1 -324.3 679 -540.8 562.9"/><g><polygon class="cls-22" points="99.7 269.8 99.7 419.8 111.6 426.4 111.6 275 99.7 269.8"/><polygon class="cls-8" points="122.3 420 111.6 426.4 111.6 275 122.3 281.2 122.3 420"/></g><polygon class="cls-23" points="-544.6 398.7 -322 527.8 124.8 269.8 -99.1 140.8 -544.6 398.7"/><polygon class="cls-8" points="124.8 269.8 124.8 281.2 -322 541.3 -322 527.8 124.8 269.8"/></g><g id="mur_entrée"><g id="mur"><polygon class="cls-19" points="2486.9 -1045 -545.9 706.1 -501.4 732.6 2530.8 -1019.1 2486.9 -1045"/><path class="cls-43" d="m-502.3,732.6l-.2,669.4L-11.8,1118.6v-514.7L877.3,94.4l3.1,509.1,1650.1-952.9.4-669.5L-502.3,732.6ZM1772.6-65.9l-713.7,412.1V37.2l713.7-412.1V-65.9h0Zm574.5-301.4l-124,70.8v-381.2l124-70.7v381.1Z"/></g><g id="veranda"><g id="Calque_52"><g><polygon class="cls-15" points="5.2 1093.7 5.2 624.4 630.7 268.7 630.7 707.5 458.2 796 458.2 835.9 5.2 1093.7"/><polygon class="cls-3" points="203.1 919.3 185.1 909.1 619 657.4 638.2 668.1 203.1 919.3"/><polygon class="cls-3" points="619 657.4 618.7 267 642.7 244.2 642.7 678.3 619 657.4"/><path class="cls-10" d="m652.2,223.7L179.2,489.7v493.8l473.4-270-.4-489.8Zm-14,444.4l-435,251.3v-412.2l435-251.1v412Z"/><polyline class="cls-7" points="187.7 939.6 652.8 674 654.6 679 187.8 945.3 187.7 939.6"/><polygon class="cls-10" points="654.6 679 654.6 712.5 188.5 980.5 187.8 945.3 654.6 679"/></g><rect class="cls-25" x="163.6" y="543.2" width="19.3" height="440.3"/><g><polygon class="cls-3" points="54.6 1060.3 36.7 1050 470.6 798.4 489.8 809 54.6 1060.3"/><polygon class="cls-3" points="470.6 798.4 470.2 407.9 494.3 385.1 494.3 819.2 470.6 798.4"/><path class="cls-10" d="m503.8,364.6L30.8,630.6v493.8l473.4-270-.4-489.8Zm-14,444.4l-435,251.3v-412.2l435-251.1v412Z"/><polyline class="cls-7" points="42.3 1080.8 507.3 815.2 509.1 820.3 42.4 1086.5 42.3 1080.8"/><polygon class="cls-10" points="509.1 820.3 509.1 852.3 43.1 1121.6 42.4 1086.5 509.1 820.3"/></g></g><polygon class="cls-24" points="847.3 614.8 864.3 624.4 864.5 111.3 846.6 110.4 847.3 614.8"/><polygon class="cls-20" points="-1.9 1124.4 -1.9 609.5 890.3 94.4 890.3 609.2 864.3 624.4 864.2 139.9 20.4 626.3 20.8 1111.6 -1.9 1124.4"/><polygon class="cls-24" points="30.9 1124.4 14.8 1114.1 14.8 604 30.9 609.8 30.9 1124.4"/><polygon class="cls-24" points="-11.7 603.6 879.3 88.3 890.3 94.4 -1.9 609.5 -11.7 603.6"/></g><g id="store"><g id="bandes"><polygon class="cls-45" points="32.9 629.4 210.3 784.2 1102.4 269.2 920.1 117.5 32.9 629.4"/><polyline class="cls-34" points="77.2 603.6 254.7 758.7 299.8 732.6 122.3 577.8 77.2 603.6"/><polyline class="cls-34" points="166.7 552.5 344.1 707.5 389.2 681.5 211.8 526.6 166.7 552.5"/><polyline class="cls-34" points="255.4 500.8 432.9 655.8 477.9 629.8 300.5 474.9 255.4 500.8"/><polyline class="cls-34" points="344.4 448.9 521.8 604 566.9 578 389.5 423.1 344.4 448.9"/><polyline class="cls-34" points="433.8 397.8 611.3 552.8 656.4 526.8 478.9 371.9 433.8 397.8"/><polyline class="cls-34" points="523.5 345.9 701 501 746.1 475 568.6 320.1 523.5 345.9"/><polyline class="cls-34" points="613 294.5 790.4 449.5 835.6 423.5 658.1 268.7 613 294.5"/><polyline class="cls-34" points="701.9 242.9 879.4 398 924.5 372 747.1 217.1 701.9 242.9"/><polyline class="cls-34" points="790.7 191.7 968.1 346.8 1013.2 320.7 835.8 165.9 790.7 191.7"/><polyline class="cls-34" points="875.3 143.3 1057.4 295.2 1102.4 269.2 920.4 117.5 875.3 143.3"/></g><g id="Calque_53"><polygon class="cls-18" points="1099.7 264.4 209.6 778.6 214.9 789.1 1105.6 274.6 1099.7 264.4"/><ellipse class="cls-40" cx="212.37" cy="783.59" rx="5" ry="5.9" transform="translate(-363.35 211.17) rotate(-30)"/></g><g id="Calque_55"><polygon class="cls-35" points="-14.2 543.2 -14.2 602.2 32.9 629.4 33.4 578.2 -14.2 543.2"/><polygon class="cls-47" points="32.9 629.4 920.1 117.5 920.1 65.7 33.4 578.2 32.9 629.4"/><polygon class="cls-26" points="920.1 65.7 875.3 32.6 -14.2 543.2 33.4 578.2 920.1 65.7"/></g></g></g></g></g><g class="cls-30"><g id="EXTERIEUR"><g id="Calque_58"><polygon class="cls-32" points="2530.8 217.6 2596.1 255.2 -442 2010.5 -510.1 1971.3 2530.8 217.6"/><polygon class="cls-43" points="2596.1 255.2 2596.1 540.4 -451.6 2296.1 -451.6 2014.3 2596.1 255.2"/></g><g id="palissade"><g><g><polygon class="cls-28" points="595.8 1182.3 1072.4 910.5 1072.4 999 593.9 1276.9 595.8 1182.3"/><polygon class="cls-39" points="1067.5 907.1 1072.4 910.5 593.5 1189.7 587.1 1187 1067.5 907.1"/></g><g><polygon class="cls-28" points="595.8 1280.5 1072.4 1008.7 1072.4 1097.1 593.9 1375.1 595.8 1280.5"/><polygon class="cls-39" points="1067.5 1005.3 1072.4 1008.7 593.5 1287.9 587.1 1285.3 1067.5 1005.3"/></g></g></g></g></g><g class="cls-44"><g id="ETAGE"><path id="sol-2" class="cls-46" d="m1370.8-1688.3c-.2-.2-838.7,482-1249.1,720.5l-713.4-411.6L-2382.3-352.2-1571.1,115.5-501.8,732.3,1058.7-169l1471.6-849.5c.2,0-1154.5-666.7-1159.5-669.8ZM389.7-864.1l-222.8-128.8,490.9-283.1,222.8,128.5-490.9,283.4Z"/><g id="petite_chambre"><polygon class="cls-36" points="1749.6 -1391.5 1638.7 -1327.8 1615.8 -1341.1 1615.8 -1366.1 -100.1 -375 662.4 62.9 2486.1 -993.6 1773.7 -1405.4 1749.6 -1391.5"/></g><g id="mur_couloir"><polygon class="cls-4" points="-456.2 -1148 -234.7 -1019 -235 -452.2 662.4 65 657.4 -658.5 -457.3 -1305.3 -456.2 -1148"/></g><g id="armoire"><polygon class="cls-33" points="178.7 -422.9 268 -371.3 268 246.7 178.7 195.3 178.7 -422.9"/><polygon class="cls-27" points="538.1 93.7 268 246.7 268 -371.3 538.1 -524.4 538.1 93.7"/></g><g id="mur_devant"><polygon class="cls-42" points="-547.1 -14.6 -501.8 11.4 2530.4 -1740.2 2486.2 -1765.7 -547.1 -14.6"/><polyline class="cls-15" points="-391.2 33.9 -391.2 259.3 227.6 -88.2 227.6 -313.8 -391.2 33.9"/><path class="cls-43" d="m-502.5,11.4l.8,725.4L2530.4-1012.2l.5-727.7L-502.5,11.4Zm133.8,231.8V37.2L210.9-297.5l.2,205.8L-368.7,243.2ZM878.9-374.9v-309.9l356.4-204.3.9,309-357.3,205.2Zm402.1-230.1v-309.9l356.4-204.3.9,309-357.3,205.2Z"/><path class="cls-1" d="m237.9-340.7L-398.3,24.6v271.6L238.2-72.6l-.3-268.1ZM-368.7,243.2V37.2L210.9-297.5l.2,205.8L-368.7,243.2Z"/><polygon class="cls-31" points="-368.7 243.2 211.3 -91.8 197 -97.4 -368.7 228.3 -368.7 243.2"/></g></g></g><g class="cls-29"><g id="ombre_toit"><polygon id="ombre_droite" class="cls-2" points="2530.9 -1470 -502.5 256.1 -502.3 111.2 2530.9 -1624 2530.9 -1470"/></g></g><g class="cls-41"><g id="TOIT"><path id="sol-3" class="cls-28" d="m1370.1-2409.11c-.2-.2-838.7,482-1249.1,720.5l-713.3-411.6-1790.6,1027.1,811.2,467.7h0L-502.4,11.4l1560.5-901.3,1471.6-849.5c.1-.1-1154.6-666.8-1159.6-669.7Z"/><g id="gouttière"><polygon class="cls-5" points="-502.4 191.6 2594.7 -1596.6 2518.8 -1629.2 -502.5 91 -502.4 191.6"/></g><g id="rebord"><polygon class="cls-11" points="-2457.5 -1058.5 -2457.5 -1011 -502.5 134.7 2588 -1686.8 2587.7 -1707.1 -501.7 75.5 -2457.5 -1058.5"/><polygon class="cls-6" points="-501.7 75.5 -502.5 134.7 2588 -1637.2 2587.7 -1707.1 -501.7 75.5"/><polygon class="cls-12" points="-2437.8 -1060.7 -501.8 62.8 2575.5 -1714.1 2587.8 -1707 -501.7 75.5 -2457.5 -1058.5 -2437.8 -1060.7"/></g><g id="toiture"><polygon class="cls-9" points="1906.1 -2357.8 -323.9 -1070.4 -502.5 62.9 2575.5 -1714.1 1906.1 -2357.8"/></g></g></g></g></g></g></svg>