<?xml version="1.0" encoding="utf-8"?>
<!-- Generator: Adobe Illustrator 27.2.0, SVG Export Plug-In . SVG Version: 6.00 Build 0)  -->
<svg version="1.1" id="Calque_1" xmlns="http://www.w3.org/2000/svg" xmlns:xlink="http://www.w3.org/1999/xlink" x="0px" y="0px"
	 viewBox="0 0 500 500" style="enable-background:new 0 0 500 500;" xml:space="preserve">
<style type="text/css">
	.st0{clip-path:url(#SVGID_00000030485335124695901260000011567623662578917548_);}
	.st1{fill-rule:evenodd;clip-rule:evenodd;fill:#F3F7FF;}
	.st2{fill-rule:evenodd;clip-rule:evenodd;fill:#777A84;}
	.st3{fill-rule:evenodd;clip-rule:evenodd;fill:#8C909B;}
	.st4{fill-rule:evenodd;clip-rule:evenodd;fill:#9FC6E3;}
	.st5{fill-rule:evenodd;clip-rule:evenodd;fill:#636770;}
	.st6{fill-rule:evenodd;clip-rule:evenodd;fill:#5F646B;}
	.st7{fill-rule:evenodd;clip-rule:evenodd;fill:#EFD978;}
	.st8{fill:#EFD978;}
	.st9{fill:#FFFFFF;}
</style>
<g>
	<defs>
		<circle id="SVGID_1_" cx="250" cy="250" r="250"/>
	</defs>
	<clipPath id="SVGID_00000077303838044285793500000007813074514172937123_">
		<use xlink:href="#SVGID_1_"  style="overflow:visible;"/>
	</clipPath>
	<g style="clip-path:url(#SVGID_00000077303838044285793500000007813074514172937123_);">
		<polygon class="st1" points="-553.3,200.3 -553.3,-782.9 1217.5,240 1218,1219.4 		"/>
		<polygon class="st2" points="115.5,86 115.5,286.9 360.7,429.8 360.7,227.7 		"/>
		<polygon class="st3" points="143.2,70.1 115.5,86 360.7,227.7 360.7,429.8 384.5,414.9 384.5,213.8 		"/>
		<polygon class="st4" points="141.3,121.9 141.3,258.8 334.9,369.1 334.9,233.3 		"/>
		<polygon class="st5" points="384.5,213.8 360.7,227.7 360.7,429.8 384.5,414.9 		"/>
		<polygon class="st2" points="135.9,269.5 329.5,381.7 329.5,415.4 135.9,303.9 		"/>
		<polygon class="st6" points="135.9,269.5 141.3,266.9 334.9,378.3 334.9,413.8 329.5,415.4 329.5,381.7 		"/>
	</g>
</g>
<g>
	<g>
		<path class="st7" d="M200.3,227c-0.1,12.7-6.9,19.2-15,14.5c-8.2-4.7-14.8-18.8-14.7-31.6c0.1-12.9,6.8-19.5,15.1-14.8
			C193.9,199.9,200.5,214.2,200.3,227z"/>
	</g>
	<g>
		<path class="st8" d="M175.9,187.3c-0.5-0.3-0.9-0.9-1.2-1.8l-4.5-15.8c-0.4-1.2-0.1-2.4,0.5-2.6c0.7-0.2,1.5,0.7,1.8,1.9l4.5,15.8
			c0.3,1.2,0.1,2.4-0.5,2.5C176.4,187.5,176.2,187.5,175.9,187.3z"/>
	</g>
	<g>
		<path class="st8" d="M168.3,194.4c-0.2-0.1-0.5-0.4-0.7-0.7l-8.1-12.4c-0.6-1-0.8-2.4-0.4-3.1c0.4-0.8,1.2-0.6,1.8,0.3l8.1,12.4
			c0.6,1,0.8,2.4,0.4,3.1C169.2,194.5,168.7,194.6,168.3,194.4z"/>
	</g>
	<g>
		<path class="st8" d="M165.3,208.4C165.3,208.4,165.3,208.4,165.3,208.4l-9.5-5.7c-0.7-0.4-1.3-1.7-1.3-2.9c0-1.1,0.6-1.7,1.3-1.3
			c0,0,0,0,0,0l9.5,5.7c0.7,0.4,1.3,1.7,1.3,2.9C166.7,208.3,166.1,208.9,165.3,208.4z"/>
	</g>
	<g>
		<path class="st8" d="M159.6,228.1c-0.5-0.3-0.9-0.9-1.2-1.7c-0.4-1.2-0.1-2.3,0.5-2.5l8.3-2.4c0.6-0.2,1.4,0.6,1.8,1.8
			c0.4,1.2,0.1,2.3-0.5,2.5l-8.3,2.4C160,228.2,159.8,228.2,159.6,228.1z"/>
	</g>
	<g>
		<path class="st8" d="M170.2,251.1c-0.2-0.1-0.5-0.4-0.7-0.7c-0.6-0.9-0.8-2.3-0.4-3l4.9-9.7c0.4-0.8,1.2-0.6,1.8,0.3
			c0.6,0.9,0.8,2.3,0.4,3.1l-4.9,9.7C171,251.2,170.6,251.3,170.2,251.1z"/>
	</g>
	<g>
		<path class="st8" d="M184.8,265.8C184.7,265.8,184.7,265.8,184.8,265.8c-0.7-0.4-1.3-1.7-1.3-2.8l0.2-14.4c0-1.1,0.6-1.7,1.3-1.3
			c0,0,0,0,0,0c0.7,0.4,1.3,1.7,1.3,2.8l-0.2,14.4C186.1,265.7,185.5,266.2,184.8,265.8z"/>
	</g>
	<g>
		<path class="st8" d="M199.5,268.4c-0.5-0.3-0.9-0.9-1.1-1.7l-4.5-15.2c-0.3-1.2-0.1-2.3,0.5-2.5c0.6-0.2,1.4,0.6,1.8,1.8l4.5,15.2
			c0.3,1.2,0.1,2.3-0.5,2.5C200,268.6,199.7,268.5,199.5,268.4z"/>
	</g>
	<g>
		<path class="st8" d="M210.6,258.2c-0.2-0.1-0.5-0.3-0.7-0.7l-8-12c-0.6-0.9-0.8-2.3-0.4-3.1c0.4-0.8,1.2-0.6,1.8,0.3l8,12
			c0.6,0.9,0.8,2.3,0.4,3C211.5,258.3,211,258.4,210.6,258.2z"/>
	</g>
	<g>
		<path class="st8" d="M214.9,237.7C214.9,237.7,214.9,237.7,214.9,237.7l-9.4-5.5c-0.7-0.4-1.3-1.7-1.3-2.8c0-1.1,0.6-1.7,1.3-1.3
			c0,0,0,0,0,0l9.4,5.5c0.7,0.4,1.3,1.7,1.3,2.8C216.3,237.6,215.7,238.1,214.9,237.7z"/>
	</g>
	<g>
		<path class="st8" d="M203.1,215c-0.5-0.3-0.9-0.9-1.1-1.7c-0.4-1.2-0.1-2.3,0.5-2.5l8.3-2.6c0.6-0.2,1.5,0.6,1.8,1.8
			c0.3,1.2,0.1,2.3-0.5,2.5l-8.3,2.6C203.5,215.2,203.3,215.1,203.1,215z"/>
	</g>
	<g>
		<path class="st8" d="M195.8,199.1c-0.2-0.1-0.5-0.4-0.7-0.7c-0.6-0.9-0.8-2.3-0.5-3.1l4.9-10.2c0.4-0.8,1.2-0.7,1.8,0.3
			c0.6,0.9,0.8,2.4,0.5,3.1l-4.9,10.2C196.7,199.3,196.3,199.4,195.8,199.1z"/>
	</g>
	<g>
		<path class="st8" d="M185.7,189c-0.7-0.4-1.3-1.7-1.3-2.9l0.1-15c0-1.2,0.6-1.8,1.4-1.3c0.7,0.4,1.3,1.7,1.3,2.9l-0.1,15
			C187,188.9,186.4,189.4,185.7,189z"/>
	</g>
</g>
<g>
	<path class="st9" d="M244.3,256.4c1.9-0.6,3.5-1.4,4.9-2.3c1.4-0.9,2.3-2.1,2.6-3.5c0.3-1.3,0.2-2.5-0.2-3.6
		c-0.5-1.1-1.4-1.9-2.8-2.6c-1.4-0.7-2.5-0.8-3.5-0.4c-1,0.4-1.7,1.3-2.1,2.7l-2.6-1.3c0.7-2.1,1.8-3.4,3.4-4
		c1.6-0.5,3.3-0.3,5.3,0.7c2.1,1,3.6,2.4,4.5,4.1c1,1.8,1.2,3.7,0.8,5.7c-0.4,1.7-1.3,3.1-2.7,4.2c-1.4,1.1-3,2-4.6,2.5
		c-1.7,0.6-3.7,1.2-6.2,1.7l11,6.1l-0.6,2.6l-15.4-8.6l0.6-2.1C239.9,257.6,242.4,257,244.3,256.4z"/>
	<path class="st9" d="M262.9,266.4c1.9-0.6,3.6-1.5,5-2.5c1.4-1,2.2-2.3,2.5-3.8c0.2-1.4,0.1-2.7-0.5-3.9c-0.6-1.1-1.6-2.1-3.1-2.9
		c-1.5-0.7-2.7-0.9-3.7-0.4c-1,0.5-1.7,1.4-2,2.9l-2.8-1.5c0.6-2.3,1.7-3.7,3.3-4.3c1.6-0.6,3.5-0.3,5.7,0.8
		c2.2,1.1,3.9,2.6,5.1,4.5c1.2,1.9,1.6,4,1.2,6.2c-0.3,1.9-1.2,3.4-2.6,4.6c-1.4,1.2-3,2.1-4.7,2.7c-1.7,0.6-3.8,1.2-6.4,1.9
		l12.1,6.6l-0.4,2.9l-16.8-9.4l0.5-2.3C258.4,267.7,261,267,262.9,266.4z"/>
	<path class="st9" d="M279,259.7c1.3-0.5,2.8-0.3,4.7,0.6c1.8,0.9,3.3,2.2,4.3,3.9c1.1,1.7,1.5,3.5,1.3,5.3
		c-0.1,1.3-0.5,2.2-1.2,2.9c-0.7,0.7-1.5,1-2.6,1c-1.1,0-2.2-0.3-3.5-1c-1.9-1-3.3-2.4-4.3-4.1c-1-1.7-1.3-3.5-1.1-5.3
		C277,261.3,277.7,260.2,279,259.7z M286,264.5c-0.6-1.1-1.5-1.9-2.5-2.4c-1-0.5-1.9-0.6-2.7-0.2c-0.8,0.4-1.3,1.2-1.4,2.5
		c-0.2,1.3,0,2.6,0.6,3.7c0.6,1.1,1.4,1.9,2.5,2.5c1.1,0.6,2,0.7,2.9,0.3c0.8-0.4,1.3-1.3,1.4-2.6
		C286.8,266.8,286.6,265.6,286,264.5z"/>
	<path class="st9" d="M293.8,271.5c1.3-1.4,3-2.1,5.1-2.2c2.1-0.1,4.3,0.5,6.8,1.7c3,1.5,5.5,3.4,7.8,5.9c2.3,2.5,4,5.4,5,8.6
		l-4.5-2.3c-0.8-2-1.9-3.9-3.3-5.5c-1.4-1.6-3.1-2.9-5.1-3.9c-1.9-1-3.6-1.4-5.1-1.3c-1.5,0.1-2.8,0.7-3.7,1.8
		c-1,1.1-1.5,2.7-1.7,4.8c-0.2,2.1,0.1,4.2,0.9,6.3c0.8,2.1,1.9,4.1,3.4,5.9c1.5,1.8,3.3,3.3,5.3,4.4c2.1,1.2,4,1.7,5.6,1.6
		c1.6-0.1,2.8-0.8,3.6-2.2l4.7,2.5c-1.1,2.3-3,3.6-5.4,3.8c-2.5,0.2-5.4-0.5-8.6-2.4c-2.7-1.5-5.1-3.5-7.2-6
		c-2.1-2.4-3.6-5.1-4.6-7.9c-1-2.8-1.4-5.4-1.2-8C291.7,274.8,292.4,272.8,293.8,271.5z"/>
</g>
</svg>
