<?xml version="1.0" encoding="UTF-8"?><svg id="Calque_2" xmlns="http://www.w3.org/2000/svg" xmlns:xlink="http://www.w3.org/1999/xlink" viewBox="0 0 425.4 425.4"><defs><style>.cls-1{fill:#e1a084;}.cls-1,.cls-2,.cls-3,.cls-4,.cls-5,.cls-6,.cls-7,.cls-8,.cls-9,.cls-10{fill-rule:evenodd;}.cls-11{clip-path:url(#clippath-16);}.cls-2{opacity:.22;}.cls-2,.cls-12{isolation:isolate;}.cls-13{fill:#ede6dd;}.cls-14{stroke:#8a95a0;stroke-linecap:round;stroke-miterlimit:7.77;stroke-width:1.55px;}.cls-14,.cls-15{fill:none;}.cls-16{fill:#536087;}.cls-17{fill:#d0d4e2;}.cls-18{fill:#b1cbe0;}.cls-12{opacity:.18;}.cls-19{clip-path:url(#clippath-2);}.cls-3{fill:#a2adba;}.cls-4{fill:#f3f7ff;}.cls-20{fill:#53536b;}.cls-21{fill:#e4e6f2;}.cls-22{fill:#afa79a;}.cls-23{fill:#ddf9d7;}.cls-5,.cls-24{fill:#937b6a;}.cls-6{fill:#bc7a6c;}.cls-25{fill:#f0eade;}.cls-26{fill:#d4c7d0;}.cls-27{fill:#e5e9fb;}.cls-28{fill:#b8ccca;}.cls-7{fill:#eae9e8;}.cls-29{clip-path:url(#clippath-3);}.cls-8{fill:#c0cad8;}.cls-30{fill:#9bb5ce;}.cls-31{fill:#ce967f;}.cls-9,.cls-32{fill:#ededed;}.cls-33{clip-path:url(#clippath-14);}.cls-34{fill:#e6daca;}.cls-35{fill:#dfe3ed;}.cls-36{fill:#c1c5d1;}.cls-37{fill:#6e7b8e;}.cls-10{fill:#d8d8d8;}.cls-38{fill:#869ab2;}.cls-39{fill:#8594c9;}</style><clipPath id="clippath-2"><circle class="cls-15" cx="212.7" cy="212.7" r="212.7"/></clipPath><clipPath id="clippath-3"><circle class="cls-15" cx="212.7" cy="212.7" r="212.7"/></clipPath><clipPath id="clippath-14"><circle class="cls-15" cx="212.7" cy="212.7" r="212.7"/></clipPath><clipPath id="clippath-16"><circle class="cls-15" cx="212.7" cy="212.7" r="212.7"/></clipPath></defs><g id="Calque_1-2"><g id="Calque_2-2"><g><g class="cls-19"><g id="HAIE"><polygon class="cls-23" points="1827.1 -1004.7 -271.5 207.6 -271.6 -309.5 1827.3 -1521.4 1827.1 -1004.7"/></g></g><g class="cls-29"><g id="RDC"><g id="mur_garage"><polygon class="cls-24" points="-447.5 -406.7 266.3 -.6 265.4 617.3 -447.9 205.7 -447.5 -406.7"/><polyline class="cls-32" points="264 .3 -497.6 -434.2 -453.3 -459.5 315 -28.5 264 .3"/></g><g id="sol"><polygon class="cls-7" points="1202.6 1364.4 2630.2 539.9 1560.4 -77.3 133.4 746.3 1202.6 1364.4"/></g><g id="escalier_cave"><polygon class="cls-5" points="-673.4 332.8 85.2 769.5 297.5 621.3 -447.9 203.2 -673.4 332.8"/></g><polygon class="cls-10" points="-673.4 332.8 -2243.7 1229 -1428.3 1698.8 149.1 789.4 -673.4 332.8"/><g id="mur_du_fond"><polygon class="cls-9" points="1560 -747.6 1510.5 -775.9 -1478.6 952.8 -1430.5 980.5 43.1 128.1 1560 -747.6"/><polygon id="plainte" class="cls-31" points="132.3 746.1 1515.6 -52 1515.6 -72 132.3 720.8 132.3 746.1"/><path class="cls-35" d="m1515.3-721.6L-1430.5,980.5l1.4,718.3L-224.2,1003.5V488.6l178.5-101.8v513.7l177.9-102.7-.2-51.4L1515.3-52v-669.6ZM1202.8,12.4l-133.8,77.3v-399.3l134.1-77.1-.3,399.1Z"/></g><g id="mur_entrée"><g id="mur"><polygon class="cls-9" points="2630.9 -129.7 -401.9 1621.4 -357.4 1647.9 2674.8 -103.8 2630.9 -129.7"/><path class="cls-35" d="m-358.3,1647.9l-.2,669.4,490.7-283.4v-514.7l889.1-509.5,3.1,509.1,1650.1-952.9.4-669.5L-358.3,1647.9ZM1916.6,849.4l-713.7,412.1v-309l713.7-412.1v309h0Zm574.5-301.4l-124,70.8V237.6l124-70.7v381.1Z"/></g></g><g id="escalier"><g id="marche"><g><polygon class="cls-1" points="394.9 405.5 554 497 604.5 468 446.3 375.8 394.9 405.5"/><polygon class="cls-6" points="554 511.5 394.9 419.1 394.9 405.5 554 497 554 511.5"/></g></g></g></g></g><g class="cls-33"><g id="ETAGE"><path id="sol-2" class="cls-39" d="m1514.8-773c-.2-.2-838.7,482-1249.1,720.5L-447.7-464.1l-1790.6,1027.2,811.2,467.7L-357.8,1647.6l1560.5-901.3L2674.3-103.2c.2,0-1154.5-666.7-1159.5-669.8ZM533.7,51.2l-222.8-128.8,490.9-283.1,222.8,128.5L533.7,51.2Z"/><polygon class="cls-16" points="-313.9 334.4 1515.3 -721.9 1873 -516.2 42.8 540.6 -313.9 334.4"/><g id="mur_enfant"><polygon class="cls-35" points="1560 -799.1 1782.7 -927.6 1782.7 -412.5 1602.3 -308.4 1916.6 -489.8 1916.6 -1211 132.3 -180.7 132.5 540.4 1560 -283.9 1560 -799.1"/></g><g id="petite_chambre"><polygon class="cls-28" points="1893.6 -476.2 1782.7 -412.5 1759.8 -425.8 1759.8 -450.8 43.9 540.3 806.4 978.2 2630.1 -78.3 1917.7 -490.1 1893.6 -476.2"/><g id="lit"><path class="cls-12" d="m318.9,479l547,315.9c9.6,5.5,21.5,5.5,31-.2l228-134.4c9.2-5.4,9.1-18.7-.1-23.9l-549.4-318.6c-5.8-3.3-12.7-3.3-18.5,0l-238,137.1c-9.2,5.4-9.2,18.8,0,24.1Z"/><path class="cls-36" d="m333,445.6l547,315.9c9.6,5.5,21.5,5.5,31-.2l228-134.4c9.2-5.4,9.1-18.7-.1-23.9l-549.4-318.6c-5.8-3.3-12.7-3.3-18.5,0l-238,137.1c-9.3,5.5-9.3,18.9,0,24.1Z"/><polygon class="cls-36" points="326.1 433 326.3 379.6 900.3 708.6 1145.7 561.3 1145.7 612.8 880 761.6 326.1 433"/><path class="cls-17" d="m333,394.2l547,315.9c9.6,5.5,21.5,5.5,31-.2l228-134.4c9.2-5.4,9.1-18.7-.1-23.9L589.5,233c-5.8-3.3-12.7-3.3-18.5,0l-238,137.1c-9.3,5.3-9.3,18.7,0,24.1Z"/><path class="cls-27" d="m366.4,360.5s63.6-55,90.6-70.3,65.2-32.9,76.6-37.8c7.6-3.3,32.7-7.2,32.7-7.2,0,0,43.1,20.9,54.6,27.1s36.8,25.8,36.8,25.8c0,0-67.6,49.2-86.2,64.5-18.7,15.3-101.1,62.6-101.1,62.6,0,0-60.2-31-66.9-35.9-7-4.8-37.1-28.8-37.1-28.8Z"/><path class="cls-27" d="m392.3,495.2c-10.5-8.4-19.9-58.2,8.9-78.5,28.8-20.3,146.9-77.7,183.3-100.8,36.4-23,89.6-42.6,109.8-44s141.4,73.3,176.9,95.6c35.4,22.3,263.5,160.5,270.6,174.5,8.9,17.4,12,62.7,6.3,70-13.2,17.4-72,60.5-142.7,84.4-44.9,15.2-85,10.8-117.1,27.6-23.8,12.4-31.6,39.2-46.6,34.7-25.2-7.2-429-247.1-449.4-263.5Z"/></g></g><g id="salle_de_bain"><polygon class="cls-21" points="-983.3 -102.8 -447.7 -412.5 221.4 -26.2 -309.8 285.7 -983.3 -102.8"/><g id="pavés"><g><path class="cls-26" d="m54-30.2l73.2-42.3c2.6-1.5,5.7-1.5,8.2,0l75.3,43.5c2.1,1.2,2.1,4.3,0,5.5l-74.9,43.2c-2.8,1.6-6.2,1.6-9,0L54-22.4c-3.1-1.7-3.1-6.1,0-7.8Z"/><path class="cls-26" d="m-34.9,21.5L38.3-20.8c2.6-1.5,5.7-1.5,8.2,0L121.8,22.7c2.1,1.2,2.1,4.3,0,5.5l-74.9,43.2c-2.8,1.6-6.2,1.6-9,0L-34.9,29.3c-3-1.7-3-6,0-7.8Z"/><path class="cls-26" d="m-123.6,73.3L-50.4,31c2.6-1.5,5.7-1.5,8.2,0l75.3,43.5c2.1,1.2,2.1,4.3,0,5.5l-74.9,43.2c-2.8,1.6-6.2,1.6-9,0l-72.8-42.1c-3-1.7-3-6.1,0-7.8Z"/></g><path class="cls-26" d="m-124.1-30l73.2-42.3c2.6-1.5,5.7-1.5,8.2,0L32.6-28.8c2.1,1.2,2.1,4.3,0,5.5L-42.3,19.9c-2.8,1.6-6.2,1.6-9,0L-124.1-22.2c-3-1.6-3-6,0-7.8Z"/></g></g><polygon class="cls-16" points="-47.7 131 .5 155.1 -224.4 285.7 -224.4 234.8 -47.7 131"/><g id="mur_couloir"><polygon class="cls-4" points="-312.2 -232.7 -90.7 -103.7 -91 463.1 806.4 980.3 801.4 256.8 -313.3 -390 -312.2 -232.7"/><polygon class="cls-32" points="-313.2 -389.8 -268.7 -415.6 846 231.1 801.4 256.8 -313.2 -389.8"/><g id="television"><polygon class="cls-30" points="345.3 425.3 351.2 422 351.2 203.2 345.3 206.3 345.3 425.3"/><polygon class="cls-38" points="73.9 51.2 81.3 47.4 351.2 203.2 345.3 206.3 73.9 51.2"/><polygon class="cls-37" points="73.9 51.2 73.9 268.8 345.3 425.3 345.3 206.3 73.9 51.2"/><polygon class="cls-20" points="87.4 69.2 87.4 256.8 332 397.8 332 208.9 87.4 69.2"/></g><g id="meuble_hifi"><polygon class="cls-20" points="87.6 411.7 -1.2 463.4 211.5 586.4 301 535 87.6 411.7"/></g><g id="bafle"><g><polygon class="cls-30" points="-21.6 21.8 -21.6 125 23.2 151 23.2 47.7 -21.6 21.8"/><polygon class="cls-13" points="9.5 3.9 -18 19.8 26.8 45.7 55.9 28.9 9.5 3.9"/><polygon class="cls-34" points="26.8 148.9 55.9 132.1 55.9 28.9 26.8 45.7 26.8 148.9"/><polygon class="cls-34" points="26.8 148.9 55.9 132.1 55.9 28.9 26.8 45.7 26.8 148.9"/><polygon class="cls-18" points="23.2 47.7 26.8 45.7 26.8 148.9 23.2 151 23.2 47.7"/><polygon class="cls-18" points="-18 19.8 -21.6 21.8 23.2 47.7 26.8 45.7 -18 19.8"/></g></g><g><polygon class="cls-30" points="386.5 232.4 386.5 335.6 431.3 361.6 431.3 258.3 386.5 232.4"/><polygon class="cls-13" points="417.6 214.5 390 230.3 434.9 256.2 464.1 239.4 417.6 214.5"/><polygon class="cls-18" points="390 230.3 386.5 232.4 431.3 258.3 434.9 256.2 390 230.3"/></g><g id="console"><polyline class="cls-8" points="68.6 472.3 113.2 446.7 113.2 368.3 68.6 394.7 68.6 472.3"/><polygon class="cls-35" points="55.4 464.8 68.6 472.3 68.6 394.7 55.4 387.1 55.4 464.8"/><polyline class="cls-3" points="55.4 387.1 68.6 394.7 113.2 368.3 100.1 361 55.4 387.1"/><line class="cls-14" x1="61.1" y1="397.8" x2="61.1" y2="429.9"/></g></g><g id="armoire"><polygon class="cls-22" points="682.1 1009 412 1162 412 544 682.1 390.9 682.1 1009"/><polygon class="cls-25" points="322.7 492.4 590.6 337.8 682.1 390.9 412 544 322.7 492.4"/></g><g id="mur_devant"><polygon class="cls-32" points="-403.1 900.7 -357.8 926.7 2674.4 -824.9 2630.2 -850.4 -403.1 900.7"/><path class="cls-35" d="m-358.5,926.7l.8,725.4L2674.4-96.9l.5-727.7L-358.5,926.7Zm133.8,231.8v-206l579.6-334.7.2,205.8-579.8,334.9ZM1022.9,540.4V230.5L1379.3,26.2l.9,309-357.3,205.2Zm402.1-230.1V.4l356.4-204.3.9,309-357.3,205.2Z"/></g></g></g><g class="cls-11"><g id="ombre_toit"><polygon id="ombre_droite" class="cls-2" points="2674.9 -554.7 -358.5 1171.4 -358.3 1026.5 2674.9 -708.7 2674.9 -554.7"/></g></g></g></g></g></svg>