<?xml version="1.0" encoding="UTF-8"?><svg id="Calque_2" xmlns="http://www.w3.org/2000/svg" xmlns:xlink="http://www.w3.org/1999/xlink" viewBox="0 0 699.6 699.6"><defs><style>.cls-1{opacity:.22;}.cls-1,.cls-2,.cls-3,.cls-4,.cls-5,.cls-6,.cls-7,.cls-8,.cls-9,.cls-10,.cls-11,.cls-12,.cls-13,.cls-14,.cls-15,.cls-16,.cls-17,.cls-18,.cls-19,.cls-20,.cls-21,.cls-22,.cls-23{fill-rule:evenodd;}.cls-1,.cls-17,.cls-24,.cls-21{isolation:isolate;}.cls-2{fill:#b8c5d8;}.cls-25{fill:#ccc4b8;}.cls-3{fill:#b0b1c1;}.cls-26{fill:#a8b6cc;}.cls-27{fill:#8192aa;}.cls-28{fill:#adb4c9;}.cls-4{fill:#9b9da5;}.cls-29{fill:#ccc8c2;}.cls-5{fill:#d5e2e4;}.cls-6{fill:#f3f7ff;}.cls-30{clip-path:url(#clippath-6);}.cls-31{fill:#53536b;}.cls-32{fill:#d9beab;}.cls-33{fill:#5f6d84;}.cls-34{fill:#e4e6f2;}.cls-35{fill:#7e8298;}.cls-7{fill:#636685;}.cls-8{fill:#5f6975;}.cls-9{fill:#9facca;}.cls-10{fill:#647e9e;}.cls-36{stroke:#8194b5;stroke-linejoin:round;stroke-width:81.63px;}.cls-36,.cls-37,.cls-38,.cls-39{fill:none;}.cls-36,.cls-38,.cls-39{stroke-linecap:round;}.cls-11{fill:#7a8cac;}.cls-12{fill:#babdd1;}.cls-13{fill:#8c95aa;}.cls-40{fill:#f0eade;}.cls-14{fill:#868ab0;}.cls-41{fill:#a7a8b0;}.cls-42{fill:#d4c7d0;}.cls-15{fill:#bac0ce;}.cls-16{fill:#d1d2d3;}.cls-17{fill:#ccdde2;opacity:.81;}.cls-43{fill:#97acc6;}.cls-44{clip-path:url(#clippath-9);}.cls-45{fill:#a69c90;}.cls-46{fill:#515964;}.cls-18{fill:#9395aa;}.cls-47{fill:#7988a5;}.cls-24{opacity:.15;}.cls-48{fill:#f2ede4;}.cls-49{clip-path:url(#clippath-3);}.cls-50{clip-path:url(#clippath-8);}.cls-19{fill:#a8b4c7;}.cls-20,.cls-51{fill:#ededed;}.cls-52{fill:#dfe3ed;}.cls-53{clip-path:url(#clippath-5);}.cls-21{fill:#627184;opacity:.2;}.cls-38{stroke-width:13.18px;}.cls-38,.cls-39{stroke:#515964;stroke-miterlimit:7.77;}.cls-54{fill:#8594c9;}.cls-22{fill:#797b82;}.cls-55{fill:#e5dfd6;}.cls-56{fill:#94a1b2;}.cls-23{fill:#83a5c6;}.cls-39{stroke-width:19.91px;}</style><clipPath id="clippath-3"><circle class="cls-37" cx="349.8" cy="349.8" r="349.8"/></clipPath><clipPath id="clippath-5"><circle class="cls-37" cx="349.8" cy="349.8" r="349.8"/></clipPath><clipPath id="clippath-6"><polygon class="cls-37" points="634.8 362.1 681.2 388.8 1215.5 78.4 1209.5 61.6 1182.8 45.7 634.8 362.1"/></clipPath><clipPath id="clippath-8"><circle class="cls-37" cx="349.8" cy="349.8" r="349.8"/></clipPath><clipPath id="clippath-9"><circle class="cls-37" cx="349.8" cy="349.8" r="349.8"/></clipPath></defs><g id="Calque_1-2"><g id="Calque_2-2"><g><g class="cls-49"><g id="RDC"><g id="mur_garage"><polyline class="cls-32" points="1170.2 670.6 -625.3 1694.1 -622.4 1091.1 1170.6 58.2"/><polyline class="cls-51" points="-622.4 1091.1 -673.2 1061.4 1164.8 5.4 1215 33.5"/></g><g id="mur_du_fond"><polygon class="cls-20" points="3178.1 -282.7 3128.6 -311 139.5 1417.7 187.6 1445.4 1661.2 593 3178.1 -282.7"/><path class="cls-52" d="m3133.4-256.7L187.6,1445.4l1.4,718.3,1204.9-695.3v-514.9l178.5-101.8v513.7l177.9-102.7-.2-51.4,1383.3-798.4V-256.7h0Zm-312.5,734l-133.8,77.3V155.3l134.1-77.1-.3,399.1Z"/></g></g></g><g class="cls-53"><g id="ETAGE"><path id="sol-2" class="cls-54" d="m3132.9-308.1c-.2-.2-838.7,482-1249.1,720.5L1170.4.8-620.2,1028l811.2,467.7,1069.3,616.8,1560.5-901.3,1471.6-849.5c.2,0-1154.5-666.7-1159.5-669.8Zm-981.1,824.2l-222.8-128.8,490.9-283.1,222.8,128.5-490.9,283.4Z"/><g id="mur_arriere"><polygon class="cls-51" points="-674.6 359.5 1170.2 -720.1 1214.9 -694.1 -622.2 387.5 -674.6 359.5"/><path class="cls-52" d="m-622.2,387.5l102.9,639.7L1170.4,52.4l.2-721.4L-622.2,387.5ZM55.2,438.8l-486.7,279.9v-359.6L55.5,77.5l-.3,361.3Z"/><polygon class="cls-13" points="-431.5 704 44.3 431.8 55.2 438.8 -431.5 718.7 -431.5 704"/><g id="fenetre"><polygon class="cls-16" points="-431.5 554.4 44.3 281 44.3 84.2 -431.5 359.1 -431.5 554.4"/><polygon class="cls-2" points="44.3 431.8 55.2 438.8 55.5 77.5 44.3 84.2 44.3 431.8"/><polygon class="cls-21" points="-443.6 352 -443.6 738.8 65.9 445.8 65.9 62.5 -443.6 352"/><path class="cls-55" d="m-454.3,343.7v420.7L78.3,452.8V36.7L-454.3,343.7ZM55.2,438.8l-486.7,279.9v-359.6L55.2,78.1v360.7Z"/></g></g><g id="salle_de_bain"><polygon class="cls-34" points="634.8 362.1 1170.4 52.4 1839.5 438.7 1308.3 750.6 634.8 362.1"/><g id="pavés"><path class="cls-42" d="m691.8,383.6l73.2-42.3c2.6-1.5,5.7-1.5,8.2,0l75.3,43.5c2.1,1.2,2.1,4.3,0,5.5l-74.9,43.2c-2.8,1.6-6.2,1.6-9,0l-72.8-42.1c-3-1.6-3-6.1,0-7.8Z"/><g class="cls-30"><g><path class="cls-42" d="m603.4,332.1l73.2-42.3c2.6-1.5,5.7-1.5,8.2,0l75.3,43.5c2.1,1.2,2.1,4.3,0,5.5l-74.9,43.2c-2.8,1.6-6.2,1.6-9,0l-72.8-42.1c-3-1.6-3-6,0-7.8Z"/><path class="cls-42" d="m692,280.7l73.2-42.3c2.6-1.5,5.7-1.5,8.2,0l75.3,43.5c2.1,1.2,2.1,4.3,0,5.5l-74.9,43.2c-2.8,1.6-6.2,1.6-9,0l-72.8-42.1c-3.1-1.7-3.1-6.1,0-7.8Z"/></g></g></g></g><g id="grde_chambre"><g id="armoire"><polygon class="cls-40" points="-1.9 276.6 9.3 899 -332.6 1096.1 -332.6 466.7 -1.9 276.6"/><g><polygon class="cls-48" points="-155.7 375.1 8.9 281.1 8.9 909 -155.7 1002.5 -155.7 375.1"/><polygon class="cls-25" points="-160.6 373.6 -155.7 375.1 8.9 281.1 1.9 280 -160.6 373.6"/></g></g><g id="table"><polygon class="cls-24" points="240.7 598.1 416.8 697.9 727.5 516.9 554.4 417 240.7 598.1"/><g><polygon class="cls-25" points="408.1 568.5 408.1 692.9 416.8 697.9 416.8 571.9 408.1 568.5"/><polygon class="cls-29" points="426.1 692.8 416.8 697.9 416.8 571.9 426.1 572.4 426.1 692.8"/></g><g><polygon class="cls-25" points="240.7 474.2 240.7 598.1 249.3 602.8 249.3 477.6 240.7 474.2"/><polygon class="cls-45" points="258.6 597 249.3 602.8 249.3 477.6 258.6 481.8 258.6 597"/></g><polygon class="cls-40" points="551 284.8 729.5 387.8 417.2 568.1 238.3 465.3 551 284.8"/><polygon class="cls-29" points="417.1 578.6 417.2 568.1 729.5 387.8 729.5 399.2 417.1 578.6"/><polygon class="cls-25" points="238.3 465.3 238.3 474.6 417.1 578.6 417.2 568.1 238.3 465.3"/></g><g id="chaise"><ellipse class="cls-24" cx="692.3" cy="719.1" rx="119.1" ry="75.3"/><line class="cls-39" x1="692.1" y1="580.6" x2="692.1" y2="712.6"/><path class="cls-8" d="m602.7,610l59.1,34.1c10.5,6.1,23.4,6.1,33.9,0l94.8-53.9c9.9-5.8,9.8-20.1-.2-25.7l-56-31.4c-19.7-11-43.8-10.9-63.4.4l-68.3,38.6c-14.5,8.5-14.5,29.5.1,37.9Z"/><path class="cls-8" d="m602.7,604.9l59.1,34.1c10.5,6.1,23.4,6.1,33.9,0l94.8-53.9c9.9-5.8,9.8-20.1-.2-25.7l-56-31.4c-19.7-11-39.6-11-59.2.4l-23.2,14-49.3,24.6c-14.5,8.5-14.5,29.5.1,37.9Z"/><path class="cls-10" d="m605.5,596.5l62.2,35.2c8.9,5.1,19.7,5.1,28.6,0l96.2-53.7c8.4-4.8,8.3-16.9-.2-21.6l-62.8-36.2c-16.6-9.3-23.6-9.7-41.1-1.7-8.9,4.1-16.9,12.9-35.4,22.9-17.7,9.6-39.5,17.6-51.2,26-11.5,8.3-8.6,22,3.7,29.1Z"/><path class="cls-23" d="m685.4,584.3l-10.7-7.2c-5.9-4-9.5-10.6-9.6-17.7l-.2-56.8c0-5.3,2.8-10.2,7.4-12.8l87.5-48.2c6.4-3.5,14.1-3.3,20.4.2l4.8,2.8v85.7l-99.6,54Z"/><path class="cls-8" d="m679.8,492.6l88.2-49.6c10-5.6,22.4,1.6,22.4,13.1v66.3c0,5.5-3,10.7-8,13.3l-88.2,46.8c-10,5.3-22.1-1.9-22.1-13.3v-63.6c0-5.3,2.9-10.4,7.7-13Z"/><line class="cls-38" x1="745.5" y1="773.3" x2="648.7" y2="657"/><line class="cls-38" x1="650.2" y1="768.7" x2="734.5" y2="653.3"/><circle class="cls-46" cx="648.4" cy="662.9" r="9.5"/></g><g id="ordi"><path class="cls-47" d="m302.8,275.9l8.3-1,217.5-127.9-7.7-1.5c-1-.2-2.1,0-3,.5l-213.5,123c-1.4.8-3.2,1.9-3,5.8.1.1,1.4,1.1,1.4,1.1Z"/><path class="cls-33" d="m312.4,425.6l-7.6-2.6c-2.7-1.8-3.3-2.9-3.3-6.5l.1-143.4c0-.2,13.6,3.3,13.6,3.3l-2.8,149.2Z"/><g><path class="cls-27" d="m449.3,324.8c-.2.5-5.5,14.9-9.3,25-2,5.6.4,11.7,5.8,14.5l23.2,12.5-55.5,32-24.1-14.5c-4.9-2.8-7.2-8.6-5.4-13.8l7.8-23.9,57.5-31.8Z"/><path class="cls-56" d="m450,324.2c-.2.5-5.4,14.9-9.1,25-2,5.6.4,11.7,5.6,14.5l22.4,11.7-55.5,31.9-22.2-13.5c-4.8-2.8-7.1-8.6-5.4-13.8l7.6-23.9,56.6-31.9Z"/><polygon class="cls-43" points="413.4 407.3 413.4 408.9 468.9 376.8 468.9 375.4 413.4 407.3"/></g><path class="cls-26" d="m311,272.4c-1.2.7-1.9,1.9-1.9,3.2v145.2c-.2,3.3,2.9,5.8,5.4,4.2l215-124.2c1.7-1,2.7-2.8,2.7-4.7l-.2-146.5c0-2.1-2.3-3.3-4-2.3l-217,125.1Z"/><path class="cls-31" d="m312.9,277v109.1c0,1.6,1.7,2.6,3,1.7l209.9-117.9c.6-.4,1-1,1-1.7v-109.1c0-1.6-1.6-2.5-3-1.8l-209.9,117.7c-.6.6-1,1.3-1,2Z"/><g id="clavier"><path class="cls-26" d="m399.2,451.7l37.9,24.1c.8.5,1.9.5,2.6.1l125.2-72.8c1.7-1,1.7-3.4,0-4.4l-39.3-23.7c-.8-.5-1.8-.5-2.6,0l-123.8,72.5c-1.5.8-1.5,3.2,0,4.2Z"/><ellipse class="cls-26" cx="575.58" cy="361.34" rx="10.5" ry="14.8" transform="translate(-66.41 584.3) rotate(-51.27)"/></g></g></g><g id="mur_gauche"><path id="mur" class="cls-6" d="m1259.6,1391.6L-674.6,359.5l2.7,644.1,1932.2,1108.9-.7-720.9ZM-27.5,1221.9l-337.9-202-.2-345.8L-20.3,867.3l-7.2,354.6Zm376.7,206.9L3.1,1232.7v-345.8l346.1,196.1v345.8Zm419.7,246.3l-393.2-227.1v-345.9l393.2,227v346Z"/><polyline class="cls-51" points="1259.6 1391.6 -674.6 359.5 -620.1 328.3 1313.1 1360.7 1259.6 1391.6"/><polyline id="vitre" class="cls-17" points="-365.6 674.1 -365.6 1019.8 768.9 1675.1 768.9 1329 -365.6 674.1"/><g id="fenetre-2"><path class="cls-28" d="m-393.4,609v427.1l1195,692.8v-440.2L-393.4,609ZM-30.8,1213l-334.5-193.2-.2-345.8L-30.7,867.2l-.1,345.8h0Zm373.6,215.8L3.1,1232.7v-345.8l339.7,196.1v345.8Zm426.1,246.3l-393.2-227.1v-345.9l393.2,227v346Z"/></g></g></g></g><g class="cls-50"><g id="ombre_toit"><polygon id="ombre_gauche" class="cls-1" points="-672.6 539.2 -672.6 416 1260.4 1455.7 1259.6 1636.3 -672.6 539.2"/></g></g><g class="cls-44"><g id="TOIT"><path id="sol-3" class="cls-35" d="m3132.2-1028.9c-.2-.2-838.7,482-1249.1,720.5l-713.3-411.6L-620.8,307.1,190.4,774.8h0l1069.3,616.8,1560.5-901.3,1471.6-849.5c.1-.1-1154.6-666.8-1159.6-669.7Z"/><g id="gouttière"><polygon class="cls-18" points="-705.7 359.2 1254.6 1490.7 1254.6 1571.8 -775.8 402 -705.7 359.2"/><path class="cls-7" d="m-37,525.4c0,26.1,21.1,47.3,47.3,47.3s47.3-21.1,47.3-47.3"/><path class="cls-3" d="m1254.3,1535.3l.3,36.4L-783,398.1c-6.1-3.5-12.3-10-17.3-21.9-3.4-8-3.2-16.9-3.2-16.9L1254.3,1535.3Z"/></g><g id="rebord"><polygon class="cls-12" points="-695.4 321.7 -695.4 369.2 1259.6 1514.9 4350.1 -306.6 4349.8 -326.9 1260.4 1455.7 -695.4 321.7"/><polygon class="cls-14" points="-675.7 319.5 1260.3 1443 4337.6 -333.9 4349.9 -326.8 1260.4 1455.7 -695.4 321.7 -675.7 319.5"/></g><g id="toiture"><polygon class="cls-11" points="-31.9 -539.3 1216.7 -745 1828.3 -367.1 1438.2 309.8 -31.9 -539.3"/><polygon class="cls-9" points="-675.7 319.5 -31.9 -539.3 1438.1 298.9 1260.3 1443 -675.7 319.5"/><polyline class="cls-36" points="-3.5 -522.9 1438.2 309.8 3653.8 -953.6"/><g><polygon class="cls-41" points="371.8 81.1 64.7 486.7 310.5 622.6 599.9 211.3 371.8 81.1"/><polygon class="cls-5" points="381.9 115.6 112.7 477.1 302.7 585.6 562.1 216.9 381.9 115.6"/><polygon class="cls-19" points="320.7 632.4 606 218.3 599.9 211.3 310.5 622.6 320.7 632.4"/><polygon class="cls-22" points="320.7 632.4 71.2 493.3 64.7 486.6 310.5 622.6 320.7 632.4"/><polygon class="cls-19" points="620.9 197.6 605.1 176.2 590.5 197 600.2 226.5 620.9 197.6"/><polygon class="cls-4" points="605.1 176.2 380.5 51.3 367.4 70.2 590.5 197 605.1 176.2"/><polygon class="cls-22" points="596.7 215.7 370.2 87.5 367.4 70.2 590.5 197 596.7 215.7"/><polygon class="cls-22" points="470.5 347.1 285.4 245.2 381.9 115.6 562.1 216.9 470.5 347.1"/></g><polygon class="cls-15" points="276.5 256.2 461.7 359.5 470.5 347.1 285.4 245.2 276.5 256.2"/></g></g></g></g></g></g></svg>