<?xml version="1.0" encoding="UTF-8"?><svg id="Calque_2" xmlns="http://www.w3.org/2000/svg" xmlns:xlink="http://www.w3.org/1999/xlink" viewBox="0 0 753.8 753.8"><defs><style>.cls-1{opacity:.22;}.cls-1,.cls-2,.cls-3,.cls-4,.cls-5,.cls-6,.cls-7,.cls-8,.cls-9,.cls-10,.cls-11,.cls-12,.cls-13,.cls-14,.cls-15,.cls-16,.cls-17,.cls-18,.cls-19,.cls-20,.cls-21,.cls-22,.cls-23,.cls-24{fill-rule:evenodd;}.cls-1,.cls-18,.cls-25{isolation:isolate;}.cls-26{fill:#fff;}.cls-27{fill:#b08b53;}.cls-28{fill:#e8d2cd;}.cls-29{fill:#bc957f;}.cls-2{fill:#b7aba7;}.cls-30{fill:#536087;}.cls-3{fill:#edebd5;}.cls-4{fill:#dce9f4;}.cls-5{fill:#d1d1cc;}.cls-6{fill:#f3f7ff;}.cls-7{fill:#7b7e8f;}.cls-31{fill:#7e8298;}.cls-8,.cls-32{fill:#abadb7;}.cls-33{clip-path:url(#clippath-7);}.cls-34{fill:#f9d1aa;}.cls-9{fill:#8d909e;}.cls-10{fill:#c1cddb;}.cls-35{clip-path:url(#clippath-4);}.cls-11,.cls-36{fill:#919299;}.cls-12{fill:#7d8dad;}.cls-37{fill:#8d94a8;}.cls-13{fill:#babdd1;}.cls-14{fill:#868ab0;}.cls-38{fill:#d9dce8;}.cls-39{fill:#e8ecfa;}.cls-15{fill:#ddafad;}.cls-16{fill:#dedcca;}.cls-40{fill:#b8ccca;}.cls-17{fill:#eae9e8;}.cls-41{fill:none;}.cls-18{fill:#627184;opacity:.5;}.cls-19{fill:#d1cfbf;}.cls-42{clip-path:url(#clippath-3);}.cls-43{fill:#b4b8cd;}.cls-25{opacity:.1;}.cls-20,.cls-44{fill:#b8becc;}.cls-21{fill:#6a6c72;}.cls-45{clip-path:url(#clippath-8);}.cls-46{fill:#ce967f;}.cls-22{fill:#b5b5b5;}.cls-47{fill:#76798c;}.cls-23,.cls-48{fill:#ededed;}.cls-49{fill:#dfe3ed;}.cls-50{clip-path:url(#clippath-5);}.cls-51{fill:#efe1df;}.cls-52{fill:#d5dbeb;}.cls-53{fill:#8594c9;}.cls-24{fill:#ebe8ce;}</style><clipPath id="clippath-2"><circle class="cls-41" cx="376.9" cy="376.9" r="376.9"/></clipPath><clipPath id="clippath-3"><circle class="cls-41" cx="376.9" cy="376.9" r="376.9"/></clipPath><clipPath id="clippath-4"><circle class="cls-41" cx="376.9" cy="376.9" r="376.9"/></clipPath><clipPath id="clippath-5"><circle class="cls-41" cx="376.9" cy="376.9" r="376.9"/></clipPath><clipPath id="clippath-7"><circle class="cls-41" cx="376.9" cy="376.9" r="376.9"/></clipPath><clipPath id="clippath-8"><circle class="cls-41" cx="376.9" cy="376.9" r="376.9"/></clipPath></defs><g id="Calque_1-2"><g id="Calque_2-2"><g><g class="cls-42"><g id="RDC"><g id="sol"><polygon class="cls-17" points="-3.5 860.1 1424.1 35.6 354.3 -581.6 -1072.7 242 -3.5 860.1"/><g id="tapis"><path class="cls-15" d="m109.1-244.5L775,138.3c10.4,6,10.4,21,0,27.1L166.5,517.2c-4.8,2.8-10.7,2.8-15.5,0L-514.5,134.8c-10.4-6-10.4-21-.1-27.1L93.6-244.5c4.7-2.8,10.6-2.8,15.5,0Z"/></g></g><g id="mur_du_fond"><polygon class="cls-23" points="353.9 -1251.9 304.4 -1280.2 -2684.7 448.5 -2636.6 476.2 -1163 -376.2 353.9 -1251.9"/><polygon id="plainte" class="cls-46" points="-1073.8 241.8 309.5 -556.3 309.5 -576.3 -1073.8 216.5 -1073.8 241.8"/><path class="cls-49" d="m309.2-1225.9L-2636.6,476.2l1.4,718.3L-1430.3,499.2V-15.7l178.5-101.8V396.2l177.9-102.7-.2-51.4L309.2-556.3v-669.6ZM-3.3-491.9l-133.8,77.3v-399.3L-3-891l-.3,399.1Z"/></g><g id="mur_de_droite"><polygon class="cls-6" points="309.2 -606.5 309.2 -1226.2 1425.3 -581.5 1425.6 35.8 309.2 -606.5"/></g><g id="canap"><polygon class="cls-16" points="-57.5 28.4 325.3 -190.7 480.9 -106.4 98.6 116 -57.5 28.4"/><g><path class="cls-3" d="m273-163.5l.4,221.8,36.7,22.2L481.3-18.7v-221.2c0-1.7-.9-3.3-2.3-4.2l-34.8-19.7c-1.9-1.1-4.1-1-6,.1l-162.6,95.5c-1.6,1.1-2.6,2.9-2.6,4.7Z"/><path class="cls-19" d="m311-148.4l-33.4-18.5c-2.1-1.2-4.7.4-4.7,2.8V8.4l41.7,23.9v-174.4c.2-2.6-1.2-5-3.6-6.3Z"/><polygon class="cls-22" points="314.8 32.3 314.8 -141.1 481.4 -238.2 481.4 -64.6 314.8 32.3"/></g><g><path class="cls-3" d="m98.7-64.2l.4,223.7,37,22.5,172.7-100.1v-223c0-1.7-.9-3.3-2.3-4.2l-35-19.9c-1.9-1.1-4.2-1-6,.1L101.5-68.7c-1.8.9-2.8,2.7-2.8,4.5Z"/><path class="cls-19" d="m137.1-48.9l-33.6-18.7c-2.1-1.2-4.7.4-4.7,2.8V109.2l42.1,24.1V-42.6c0-2.7-1.5-5.1-3.8-6.3Z"/><polygon class="cls-22" points="140.9 133.3 140.9 -41.6 308.9 -139.2 308.9 35.9 140.9 133.3"/></g><g><path class="cls-24" d="m-26.7-67.3L139.3,29l-39,23.2L-73-25.1v-18.3c0-4,2.2-7.9,5.7-9.9l24.4-14.1c4.9-2.8,11.1-2.8,16.2.1Z"/><path class="cls-5" d="m-73.2-41.3V104.5c0,.4.2.8.5,1l169.2,97.6c.8.5,1.7-.1,1.7-1l.6-150.2c0-.4-.2-.8-.5-1L-65.8-45.5c-3.2-2-7.4.4-7.4,4.2Z"/><polygon class="cls-22" points="99 51.1 139.2 29 139.8 180.4 98.3 203.9 99 51.1"/></g><polygon class="cls-22" points="141.7 135.1 141.7 179.2 487.2 -20.8 487.2 -65 141.7 135.1"/></g><g id="table_basse"><polygon class="cls-25" points="-316.7 202.2 -175.6 120 129.6 304.9 .3 383.9 -316.7 202.2"/><g><polygon class="cls-29" points="109.6 220.9 109.9 304.9 119.9 310.7 119.9 227.7 109.6 220.9"/><polygon class="cls-27" points="119.9 310.7 129.7 305 129.7 221.7 119.9 227.7 119.9 310.7"/></g><g><polygon class="cls-29" points="109.6 220.9 109.9 304.9 119.9 310.7 119.9 227.7 109.6 220.9"/><polygon class="cls-27" points="119.9 310.7 129.7 305 129.7 221.7 119.9 227.7 119.9 310.7"/></g><polygon class="cls-34" points="-316.6 99.2 -4.3 279.6 129.5 202.3 -183 22 -316.6 99.2"/><polygon class="cls-27" points="-4.3 301.6 -4.3 279.6 129.5 202.3 129.5 221.8 -4.3 301.6"/><polygon class="cls-27" points="-4.4 382.6 5.3 377.1 5.3 295.7 -4.3 301.6 -4.4 382.6"/></g><polygon class="cls-2" points="-3.5 860.1 -3.5 911.6 1468.4 61.3 1468.4 10 -3.5 860.1"/><g id="lampe"><ellipse class="cls-37" cx="541.2" cy="455.9" rx="49" ry="37.7"/><rect class="cls-47" x="535.8" y="338.1" width="10.1" height="115.1"/><ellipse class="cls-28" cx="540.8" cy="366.5" rx="60.2" ry="35.4"/><rect class="cls-28" x="480.6" y="128.6" width="120.5" height="237.9"/><ellipse class="cls-51" cx="540.8" cy="128.6" rx="60.2" ry="35.4"/><circle class="cls-26" cx="541.2" cy="150" r="14"/><circle class="cls-47" cx="540.8" cy="453.2" r="5.1"/></g><g id="mur_entrée"><g id="mur"><polygon class="cls-23" points="1424.8 -634 -1608 1117.1 -1563.5 1143.6 1468.7 -608.1 1424.8 -634"/><path class="cls-49" d="m-1564.4,1143.6l-.2,669.4,490.7-283.4v-514.7L-184.8,505.4l3.1,509.1L1468.4,61.6l.4-669.5L-1564.4,1143.6ZM710.5,345.1L-3.2,757.2v-309L710.5,36.1v309ZM1285,43.7l-124,70.8v-381.2l124-70.7V43.7Z"/><polygon class="cls-21" points="702.5 341.2 710.5 345.1 710.5 36.1 702.3 40.8 702.5 341.2"/><polyline class="cls-8" points="-3.3 748.7 702.5 341.2 710.5 345.1 -3.3 757.2 -3.3 750.9"/></g><g id="grande_fenetre"><polygon class="cls-18" points="-19.1 448.1 -19.1 778.4 722.7 351.7 722.7 22 -19.1 448.1"/><g id="volet"><polygon class="cls-10" points="-19.1 433 -15.6 661.2 723.6 234.4 722.7 10.5 -19.1 433"/><polygon class="cls-4" points="-7.3 635.2 -7.3 657.7 710.9 241.8 710.9 221.7 -7.3 635.2"/><polygon class="cls-4" points="-7.3 609.8 -7.3 632.2 710.9 216.4 710.9 196.3 -7.3 609.8"/><polygon class="cls-4" points="-7.3 584.7 -7.3 607.2 710.9 191.4 710.9 171.1 -7.3 584.7"/><polygon class="cls-4" points="-7.3 435.7 -7.3 458.2 710.9 42.3 710.9 22.1 -7.3 435.7"/><polygon class="cls-4" points="-7.3 460.5 -7.3 483 710.9 67.1 710.9 47 -7.3 460.5"/><polygon class="cls-4" points="-7.3 485.4 -7.3 507.8 710.9 92 710.9 71.8 -7.3 485.4"/><polygon class="cls-4" points="-7.3 510.2 -7.3 532.6 710.9 116.8 710.9 96.7 -7.3 510.2"/><polygon class="cls-4" points="-7.3 535.1 -7.3 557.5 710.9 141.7 710.9 121.5 -7.3 535.1"/><g id="Calque_167"><polygon class="cls-4" points="-7.3 559.9 -7.3 582.3 710.9 166.5 710.9 146.3 -7.3 559.9"/></g></g><path class="cls-11" d="m-38.6,431.5v381.2l773.5-452.3-1.3-370.5L-38.6,431.5Zm749.1-86.4L-3.2,757.2v-304.8L710.5,40.3v304.8Z"/></g><g id="store"><g id="bandes"><polygon class="cls-52" points="-1029.2 1040.4 -851.8 1195.2 40.3 680.2 -142 528.5 -1029.2 1040.4"/><polyline class="cls-39" points="-186.8 554.3 -4.7 706.2 40.3 680.2 -141.7 528.5 -186.8 554.3"/></g><g id="Calque_53"><ellipse class="cls-44" cx="40.4" cy="680.36" rx="5" ry="5.9" transform="translate(-334.77 111.36) rotate(-30)"/><polygon class="cls-20" points="37.6 675.4 -852.5 1189.6 -847.2 1200.1 43.5 685.6 37.6 675.4"/></g></g></g></g></g><g class="cls-35"><g id="EXTERIEUR"><g id="Calque_58"><polygon class="cls-38" points="1468.7 628.6 1534 666.2 -1504.1 2421.5 -1572.2 2382.3 1468.7 628.6"/><polygon class="cls-49" points="1534 666.2 1534 951.4 -1513.7 2707.1 -1513.7 2425.3 1534 666.2"/></g><g id="palissade"><g><polygon class="cls-31" points="534.1 1019 1010.7 747.2 1010.7 835.7 532.2 1113.6 534.1 1019"/><polygon class="cls-43" points="1005.7 743.9 1010.7 747.2 531.7 1026.4 525.4 1023.7 1005.7 743.9"/></g></g></g></g><g class="cls-50"><g id="ETAGE"><path id="sol-2" class="cls-53" d="m308.7-1277.3c-.2-.2-838.7,482-1249.1,720.5l-713.4-411.6L-3444.4,58.8l811.2,467.7,1069.3,616.8L-3.4,242l1471.6-849.5c.2,0-1154.5-666.7-1159.5-669.8ZM-672.4-453.1l-222.8-128.8,490.9-283.1,222.8,128.5-490.9,283.4Z"/><polygon class="cls-30" points="-1520 -169.9 309.2 -1226.2 666.9 -1020.5 -1163.3 36.3 -1520 -169.9"/><g id="mur_enfant"><polygon class="cls-49" points="353.9 -1303.4 576.6 -1431.9 576.6 -916.8 396.2 -812.7 710.5 -994.1 710.5 -1715.3 -1073.8 -685 -1073.6 36.1 353.9 -788.2 353.9 -1303.4"/></g><g id="petite_chambre"><polygon class="cls-40" points="687.5 -980.5 576.6 -916.8 553.7 -930.1 553.7 -955.1 -1162.2 36 -399.7 473.9 1424 -582.6 711.6 -994.4 687.5 -980.5"/></g><g id="mur_devant"><polygon class="cls-48" points="-1609.2 396.4 -1563.9 422.4 1468.3 -1329.2 1424.1 -1354.7 -1609.2 396.4"/><path class="cls-49" d="m-1564.6,422.4l.8,725.4L1468.3-601.2l.5-727.7L-1564.6,422.4Zm133.8,231.8v-206L-851.2,113.5l.2,205.8-579.8,334.9ZM-183.2,36.1v-309.9l356.4-204.3.9,309L-183.2,36.1ZM218.9-194v-309.9l356.4-204.3.9,309L218.9-194Z"/><polygon class="cls-32" points="-183 22 158.3 -175.5 174.1 -169.1 -183.2 36.1 -183 22"/><polygon class="cls-18" points="-197.6 57 586.5 -392.7 586.5 -723.7 -194 -285.2 -197.6 57"/><path class="cls-36" d="m599.7-381.5l-.9-375.9L-209.6-296.1V86.4l809.3-467.9Zm-380.8-122.4l356.4-204.3.9,309L218.8-194l.1-309.9h0ZM-183.2,36.1v-309.9l356.4-204.3.9,309L-183.2,36.1Z"/></g></g></g><g class="cls-33"><g id="ombre_toit"><polygon id="ombre_droite" class="cls-1" points="1468.8 -1059 -1564.6 667.1 -1564.4 522.2 1468.8 -1213 1468.8 -1059"/></g></g><g class="cls-45"><g id="TOIT"><path id="sol-3" class="cls-31" d="m308-1998.1c-.2-.2-838.7,482-1249.1,720.5l-713.3-411.6-1790.6,1027.1,811.2,467.7h0L-1564.5,422.4-4-478.9l1471.6-849.5c.1-.1-1154.6-666.8-1159.6-669.7Z"/><g id="gouttière"><polygon class="cls-7" points="-1564.5 602.6 1532.6 -1185.6 1456.7 -1218.2 -1564.6 502 -1564.5 602.6"/></g><g id="rebord"><polygon class="cls-13" points="-3519.6 -647.5 -3519.6 -600 -1564.6 545.7 1525.9 -1275.8 1525.6 -1296.1 -1563.8 486.5 -3519.6 -647.5"/><polygon class="cls-9" points="-1563.8 486.5 -1564.6 545.7 1525.9 -1226.2 1525.6 -1296.1 -1563.8 486.5"/><polygon class="cls-14" points="-3499.9 -649.7 -1563.9 473.8 1513.4 -1303.1 1525.7 -1296 -1563.8 486.5 -3519.6 -647.5 -3499.9 -649.7"/></g><g id="toiture"><polygon class="cls-12" points="844 -1946.8 -1386 -659.4 -1564.6 473.9 1513.4 -1303.1 844 -1946.8"/></g></g></g></g></g></g></svg>