<?xml version="1.0" encoding="utf-8"?>
<!-- Generator: Adobe Illustrator 27.2.0, SVG Export Plug-In . SVG Version: 6.00 Build 0)  -->
<svg version="1.1" id="Calque_1" xmlns="http://www.w3.org/2000/svg" xmlns:xlink="http://www.w3.org/1999/xlink" x="0px" y="0px"
	 viewBox="0 0 500 500" style="enable-background:new 0 0 500 500;" xml:space="preserve">
<style type="text/css">
	.st0{clip-path:url(#SVGID_00000101068112637573388210000015815368627282390707_);fill:#DFE3ED;}
	.st1{fill:#B0B9D4;}
	.st2{fill:#ECF1FB;}
	.st3{fill:#C7D1F0;}
	.st4{clip-path:url(#SVGID_00000046319642966144201930000004020814210052446110_);}
	.st5{fill:none;stroke:#C7D1F0;stroke-width:0.6613;stroke-miterlimit:10;}
	.st6{fill:#C5EDE6;}
</style>
<g>
	<defs>
		<circle id="SVGID_1_" cx="250" cy="250" r="250"/>
	</defs>
	<clipPath id="SVGID_00000051370462140353675480000012896619357014001062_">
		<use xlink:href="#SVGID_1_"  style="overflow:visible;"/>
	</clipPath>
	<path style="clip-path:url(#SVGID_00000051370462140353675480000012896619357014001062_);fill:#DFE3ED;" d="M1918.8-1163.4
		L-1870.5,1026l1.8,923.9l1549.9-894.4V393.2l229.6-131V923l228.9-132.1l-0.3-66.1l1779.4-1027V-1163.4z M1516.8-219.3l-172.1,99.4
		v-513.6l172.5-99.2L1516.8-219.3z"/>
</g>
<path class="st1" d="M154,182.2l186-107c5-2.9,11.2,0.7,11.2,6.5v236.6c0,4.7-2.5,9.1-6.7,11.5L160.7,434.7
	c-8.8,5-19.8-1.3-19.8-11.5V204.8C141,195.5,145.9,186.9,154,182.2z"/>
<polygon class="st1" points="168.3,443.1 148.3,435 146.2,195.7 159.3,197.2 "/>
<polygon class="st1" points="345.9,74.6 364.7,82.1 344.1,101.2 327.9,101.2 "/>
<path class="st2" d="M172.7,189.7l186-107c5-2.9,11.2,0.7,11.2,6.5v236.6c0,4.7-2.5,9.1-6.7,11.5L179.4,442.2
	c-8.8,5-19.8-1.3-19.8-11.5V212.3C159.6,203,164.6,194.4,172.7,189.7z"/>
<g id="Calque_2">
	<g>
		<path class="st3" d="M283.1,325.4c0,10.6-4,21.4-9,24.2c-5,2.8-9-3.5-9-14.1c0-10.6,4-21.4,9-24.2
			C279.1,308.4,283.1,314.8,283.1,325.4z"/>
		<g>
			<defs>
				<polygon id="SVGID_00000155858826091086599600000005074905342935607942_" points="274.1,330.4 220.3,257 167.2,184.5 274.1,122 
					383.7,57.8 328.5,195 				"/>
			</defs>
			<clipPath id="SVGID_00000156567592431582007420000006662234233583775364_">
				<use xlink:href="#SVGID_00000155858826091086599600000005074905342935607942_"  style="overflow:visible;"/>
			</clipPath>
			<g style="clip-path:url(#SVGID_00000156567592431582007420000006662234233583775364_);">
				<g>
					<path class="st3" d="M274.1,471.9c-36.5,19.9-66.1-27-66.1-104.4s29.5-157.4,66.1-178.5c36.9-21.3,67.1,25.2,67.1,103.8
						S310.9,451.8,274.1,471.9z M274.1,204.4c-32.6,18.8-58.9,90.1-58.9,159.1s26.3,110.8,58.9,93c32.8-17.9,59.7-89.6,59.7-159.5
						S306.9,185.5,274.1,204.4z"/>
				</g>
			</g>
			<g style="clip-path:url(#SVGID_00000156567592431582007420000006662234233583775364_);">
				<path class="st5" d="M318.3,305.6c0,51.9-19.8,104.9-44.2,118.3c-24.2,13.3-43.8-17.6-43.8-68.9s19.5-104.2,43.8-118
					C298.4,223,318.3,253.7,318.3,305.6z"/>
			</g>
			<g style="clip-path:url(#SVGID_00000156567592431582007420000006662234233583775364_);">
				<path class="st3" d="M274.1,431.6c-26.2,14.4-47.4-19.1-47.4-74.6s21.2-112.8,47.4-127.8c26.3-15.1,47.9,18.2,47.9,74.3
					S300.4,417.2,274.1,431.6z M274.1,244.7c-22.2,12.7-40.2,61.2-40.2,108.3s18,75.4,40.2,63.2c22.3-12.3,40.5-61,40.5-108.5
					S296.4,231.9,274.1,244.7z"/>
			</g>
			<g style="clip-path:url(#SVGID_00000156567592431582007420000006662234233583775364_);">
				<path class="st3" d="M274.1,396.2c-17,9.4-30.8-12.3-30.8-48.5s13.8-73.4,30.8-83.1c17.1-9.7,31.1,11.9,31.1,48.3
					S291.2,386.7,274.1,396.2z M274.1,280.1c-13,7.4-23.6,35.9-23.6,63.6s10.6,44.3,23.6,37.1c13.1-7.3,23.7-35.8,23.7-63.6
					C297.8,289.3,287.1,272.7,274.1,280.1z"/>
			</g>
		</g>
	</g>
</g>
<g>
	<path class="st6" d="M353.9,122.7c0,6.7-3.2,13.8-7.3,15.9c-4.3,2.2-7.9-1.8-7.9-9.1c0-7.4,3.7-14.7,8-16.3
		C350.8,111.7,353.9,116,353.9,122.7z"/>
	<path class="st2" d="M352.5,123.4c0,5.4-2.6,11.1-5.9,12.8c-3.4,1.7-6.3-1.5-6.3-7.4c0-5.9,2.9-11.7,6.3-13
		C350,114.5,352.5,117.9,352.5,123.4z"/>
</g>
</svg>
