<?xml version="1.0" encoding="utf-8"?>
<!-- Generator: Adobe Illustrator 26.4.1, SVG Export Plug-In . SVG Version: 6.00 Build 0)  -->
<svg version="1.1" id="Calque_1" xmlns="http://www.w3.org/2000/svg" xmlns:xlink="http://www.w3.org/1999/xlink" x="0px" y="0px"
	 viewBox="0 0 667 801" style="enable-background:new 0 0 667 801;" xml:space="preserve">
<style type="text/css">
	.st0{fill:none;stroke:#FFBB00;stroke-width:22.6489;stroke-miterlimit:10;}
	.st1{fill:none;stroke:#FFBB00;stroke-width:22.6489;stroke-linecap:round;stroke-miterlimit:10;}
</style>
<g>
	<path class="st0" d="M549.4,344.3c0-118.6-97-214.5-215.9-212.9c-115.3,1.6-209.1,96.2-209.9,211.5c-0.4,69,31.9,130.4,82.3,169.6
		c12.7,9.9,20.2,25.2,20.2,41.3v5.5c0,13.6,11.1,24.7,24.7,24.7h171.4c13.6,0,24.7-11.1,24.7-24.7v-5.5c0-16.2,7.5-31.5,20.3-41.4
		C517.2,473.5,549.4,412.7,549.4,344.3z"/>
	<path class="st0" d="M363.1,584.1V353.6c0-17.4,14.1-31.5,31.5-31.5s31.5,14.1,31.5,31.5s-14.1,31.5-31.5,31.5H278.4
		c-17.4,0-31.5-14.1-31.5-31.5S261,322,278.4,322s31.5,14.1,31.5,31.5V584"/>
	<path class="st0" d="M426.2,584.1v115.3c0,13.6-11.1,24.7-24.7,24.7H271.6c-13.6,0-24.7-11.1-24.7-24.7V584.1"/>
	<path class="st0" d="M381.4,725.5c0,24.8-20.1,44.9-44.9,44.9s-44.9-20.1-44.9-44.9"/>
	<line class="st0" x1="246.9" y1="633.6" x2="426.2" y2="633.6"/>
	<line class="st0" x1="246.9" y1="682" x2="426.2" y2="682"/>
	<line class="st1" x1="203.8" y1="116.6" x2="178.3" y2="71.9"/>
	<line class="st1" x1="333.5" y1="82.2" x2="333.5" y2="30.7"/>
	<line class="st1" x1="461.4" y1="115.6" x2="486.6" y2="70.6"/>
	<line class="st1" x1="559.2" y1="211.4" x2="603.6" y2="185.4"/>
	<line class="st1" x1="63.4" y1="502.3" x2="107.8" y2="476.2"/>
	<line class="st1" x1="559.7" y1="475.2" x2="604.3" y2="501.1"/>
	<line class="st1" x1="62.7" y1="186.6" x2="107.3" y2="212.4"/>
	<line class="st1" x1="595.1" y1="343.8" x2="646.6" y2="343.8"/>
	<line class="st1" x1="20.4" y1="343.8" x2="71.9" y2="343.8"/>
</g>
</svg>
