<svg xmlns="http://www.w3.org/2000/svg" viewBox="0 0 453.54 453.54"><g id="clim"><path d="M31.45,164.78s29.36,0,40.6,17.61S171.62,343.84,199.2,346s164.42-59.5,164.42-59.5l11.75-24.54V366H31.45l1.66-198.38-1.66-2.81" fill="#f4f1ed"/><polygon points="376.47 365.97 425.88 324.82 424.75 119.25 376.47 157.88 376.47 365.97" fill="#b2a8a3"/><path d="M67.77,128.3s19.68,18.25,78.41,20.77,124.93-13.78,170.55-11.76,74.34,7.78,74.34,7.78l25.38-25.84H88.3Z" fill="#f4f1ed"/><line x1="272.81" y1="207.37" x2="331.88" y2="207.37" fill="none" stroke="#272d44" stroke-linecap="round" stroke-linejoin="round" stroke-width="3"/><path d="M62,213s51.76-83.82,134.94-14.13C232,228.22,220,275.75,220,275.75s-5.56,28.25-27.6,49.14c-15.64,14.84-43.9,25.42-65,22C76.71,338.72,58.82,309,50.57,280.45,39.88,243.43,62,213,62,213Z" fill="#b2a8a3"/><circle cx="134.53" cy="260.01" r="86.88" fill="none" stroke="#1a1b23" stroke-miterlimit="10" stroke-width="3"/><path d="M134.34,259.73c29.42,5.07,87.72-37.84,78.86,13.59s-49.44-8.52-78.86-13.59" fill="#f4f1ed" stroke="#272d44" stroke-miterlimit="10" stroke-width="3"/><path d="M135.28,259.89c-29.42-5.07-70-65-78.86-13.59s49.44,8.52,78.86,13.59" fill="#f4f1ed" stroke="#272d44" stroke-miterlimit="10" stroke-width="3"/><path d="M134.73,260.28c5.07-29.42-37.85-87.72,13.59-78.86s-8.52,49.44-13.59,78.86" fill="#f4f1ed" stroke="#272d44" stroke-miterlimit="10" stroke-width="3"/><path d="M134.89,259.34c-5.07,29.42-65,70-13.59,78.86s8.52-49.44,13.59-78.86" fill="#f4f1ed" stroke="#272d44" stroke-miterlimit="10" stroke-width="3"/><line x1="272.81" y1="230.86" x2="331.88" y2="230.86" fill="none" stroke="#272d44" stroke-linecap="round" stroke-linejoin="round" stroke-width="3"/><line x1="272.81" y1="254.35" x2="331.88" y2="254.35" fill="none" stroke="#272d44" stroke-linecap="round" stroke-linejoin="round" stroke-width="3"/><line x1="272.81" y1="277.84" x2="331.88" y2="277.84" fill="none" stroke="#272d44" stroke-linecap="round" stroke-linejoin="round" stroke-width="3"/><line x1="272.81" y1="301.33" x2="331.88" y2="301.33" fill="none" stroke="#272d44" stroke-linecap="round" stroke-linejoin="round" stroke-width="3"/><line x1="272.81" y1="324.82" x2="331.88" y2="324.82" fill="none" stroke="#272d44" stroke-linecap="round" stroke-linejoin="round" stroke-width="3"/><line x1="73.75" y1="199.23" x2="195.31" y2="320.79" fill="none" stroke="#272d44" stroke-linecap="round" stroke-linejoin="round" stroke-width="3"/><line x1="195.31" y1="199.23" x2="73.75" y2="320.79" fill="none" stroke="#272d44" stroke-linecap="round" stroke-linejoin="round" stroke-width="3"/><line x1="48.57" y1="260.01" x2="220.49" y2="260.01" fill="none" stroke="#272d44" stroke-linecap="round" stroke-linejoin="round" stroke-width="3"/><line x1="134.53" y1="174.05" x2="134.53" y2="345.97" fill="none" stroke="#272d44" stroke-linecap="round" stroke-linejoin="round" stroke-width="3"/><circle cx="134.53" cy="260.01" r="26.46" fill="#fff" stroke="#272d44" stroke-linecap="round" stroke-linejoin="round" stroke-width="3"/><rect x="252.56" y="182.39" width="99.57" height="163.58" rx="12" fill="none" stroke="#1a1b23" stroke-miterlimit="10" stroke-width="3"/><line x1="375.37" y1="365.97" x2="425.88" y2="324.82" fill="none" stroke="#272d44" stroke-linecap="round" stroke-linejoin="round" stroke-width="3"/><line x1="425.88" y1="116.73" x2="375.37" y2="157.88" fill="none" stroke="#272d44" stroke-linecap="round" stroke-linejoin="round" stroke-width="3"/><line x1="31.45" y1="157.88" x2="81.96" y2="116.73" fill="none" stroke="#272d44" stroke-linecap="round" stroke-linejoin="round" stroke-width="3"/><line x1="81.96" y1="116.73" x2="425.88" y2="116.73" fill="none" stroke="#272d44" stroke-linecap="round" stroke-linejoin="round" stroke-width="3"/><line x1="425.88" y1="324.82" x2="425.88" y2="116.73" fill="none" stroke="#272d44" stroke-linecap="round" stroke-linejoin="round" stroke-width="3"/><rect x="405.47" y="270.43" width="10.98" height="52.28" rx="5.49" fill="#272d44"/><rect x="387.11" y="282.03" width="10.98" height="52.28" rx="5.49" fill="#272d44"/><rect x="405.47" y="209.75" width="10.98" height="52.28" rx="5.49" fill="#272d44"/><rect x="387.11" y="221.35" width="10.98" height="52.28" rx="5.49" fill="#272d44"/><rect x="31.45" y="157.88" width="343.91" height="208.09" fill="none" stroke="#272d44" stroke-linecap="round" stroke-linejoin="round" stroke-width="3"/><rect x="405.47" y="149.07" width="10.98" height="52.28" rx="5.49" fill="#272d44"/><rect x="387.11" y="160.67" width="10.98" height="52.28" rx="5.49" fill="#272d44"/></g></svg>