<?xml version="1.0" encoding="UTF-8"?><svg xmlns="http://www.w3.org/2000/svg" viewBox="0 0 942 864"><g id="Calque_2"><polygon points="298.23 154.28 161 154.28 161 54 298.23 54 346.79 104.14 298.23 154.28" fill="#268b2f"/><polygon points="379.51 261.61 161 261.61 161 161.32 379.51 161.32 428.07 211.46 379.51 261.61" fill="#42a330"/><polygon points="465.02 368.93 161 368.93 161 268.64 465.02 268.64 513.58 318.79 465.02 368.93" fill="#aec829"/><polygon points="541.02 476.25 161 476.25 161 375.96 541.02 375.96 589.58 426.11 541.02 476.25" fill="#e4df2d"/><polygon points="621.25 583.57 161 583.57 161 483.29 621.25 483.29 669.81 533.43 621.25 583.57" fill="#f2bf25"/><polyline points="161 590.61 708.87 590.61 757.43 640.75 708.87 690.89 161 690.89" fill="#e48237"/><polygon points="788.04 798.21 161 798.21 161 697.93 788.04 697.93 836.6 748.07 788.04 798.21" fill="#d10d21"/></g><g id="Calque_3"><path d="M238.13,129.3h-11.62l-4.62-12.02h-21.14l-4.37,12.02h-11.33l20.6-52.89h11.29l21.18,52.89Zm-19.66-20.93l-7.29-19.63-7.14,19.63h14.43Z" fill="#fff"/><path d="M190.47,183.9h21.14c4.19,0,7.31,.17,9.36,.52,2.06,.35,3.9,1.08,5.52,2.18,1.62,1.11,2.98,2.58,4.06,4.42s1.62,3.9,1.62,6.19c0,2.48-.67,4.75-2,6.82s-3.15,3.62-5.43,4.65c3.22,.94,5.7,2.54,7.43,4.8,1.73,2.26,2.6,4.92,2.6,7.97,0,2.41-.56,4.74-1.68,7.02-1.12,2.27-2.65,4.09-4.58,5.45-1.94,1.36-4.32,2.2-7.16,2.51-1.78,.19-6.07,.31-12.88,.36h-18v-52.89Zm10.68,8.8v12.23h7c4.16,0,6.75-.06,7.76-.18,1.83-.22,3.27-.85,4.31-1.89s1.57-2.42,1.57-4.13-.45-2.96-1.35-3.99c-.9-1.02-2.24-1.64-4.02-1.86-1.06-.12-4.1-.18-9.13-.18h-6.13Zm0,21.04v14.14h9.89c3.85,0,6.29-.11,7.32-.32,1.59-.29,2.88-.99,3.88-2.11,1-1.12,1.5-2.62,1.5-4.49,0-1.59-.39-2.93-1.15-4.04-.77-1.11-1.88-1.91-3.34-2.42-1.46-.51-4.61-.76-9.47-.76h-8.62Z" fill="#fff"/><path d="M224.27,324.85l10.36,3.28c-1.59,5.77-4.23,10.06-7.92,12.86s-8.38,4.2-14.05,4.2c-7.02,0-12.8-2.4-17.32-7.2-4.52-4.8-6.78-11.36-6.78-19.68,0-8.8,2.27-15.64,6.82-20.51,4.55-4.87,10.52-7.31,17.93-7.31,6.47,0,11.73,1.91,15.77,5.74,2.41,2.26,4.21,5.51,5.41,9.74l-10.57,2.53c-.63-2.74-1.93-4.91-3.91-6.49-1.98-1.59-4.4-2.38-7.23-2.38-3.92,0-7.1,1.41-9.54,4.22-2.44,2.81-3.66,7.37-3.66,13.67,0,6.69,1.2,11.45,3.61,14.29,2.4,2.84,5.53,4.26,9.38,4.26,2.84,0,5.28-.9,7.32-2.71,2.04-1.8,3.51-4.64,4.4-8.52Z" fill="#fff"/><path d="M190.4,398.9h19.52c4.4,0,7.76,.34,10.07,1.01,3.1,.91,5.76,2.54,7.97,4.87,2.21,2.33,3.9,5.19,5.05,8.57,1.15,3.38,1.73,7.55,1.73,12.5,0,4.35-.54,8.11-1.62,11.26-1.32,3.85-3.21,6.96-5.66,9.34-1.85,1.8-4.35,3.21-7.5,4.22-2.36,.75-5.51,1.12-9.45,1.12h-20.1v-52.89Zm10.68,8.95v35.03h7.97c2.98,0,5.14-.17,6.46-.5,1.73-.43,3.17-1.17,4.31-2.2s2.07-2.74,2.8-5.11c.72-2.37,1.08-5.6,1.08-9.69s-.36-7.23-1.08-9.42-1.73-3.9-3.03-5.12c-1.3-1.23-2.95-2.06-4.94-2.49-1.49-.34-4.41-.5-8.77-.5h-4.8Z" fill="#fff"/><path d="M190.43,559.29v-52.89h39.22v8.95h-28.54v11.73h26.56v8.91h-26.56v14.4h29.55v8.91h-40.23Z" fill="#fff"/><path d="M190.5,666.79v-52.89h36.26v8.95h-25.58v12.52h22.08v8.95h-22.08v22.48h-10.68Z" fill="#fff"/><path d="M215.04,754.84v-8.91h23.02v21.07c-2.24,2.17-5.48,4.07-9.72,5.72-4.25,1.65-8.55,2.47-12.9,2.47-5.53,0-10.35-1.16-14.47-3.48-4.11-2.32-7.2-5.64-9.27-9.96s-3.1-9.01-3.1-14.09c0-5.51,1.15-10.4,3.46-14.68,2.31-4.28,5.69-7.56,10.14-9.85,3.39-1.75,7.61-2.63,12.66-2.63,6.57,0,11.7,1.38,15.39,4.13,3.69,2.75,6.07,6.56,7.13,11.42l-10.61,1.98c-.75-2.6-2.15-4.65-4.2-6.15-2.06-1.5-4.62-2.25-7.7-2.25-4.67,0-8.38,1.48-11.13,4.44-2.75,2.96-4.13,7.35-4.13,13.17,0,6.28,1.4,10.99,4.19,14.13,2.79,3.14,6.45,4.71,10.97,4.71,2.24,0,4.48-.44,6.73-1.32,2.25-.88,4.18-1.94,5.79-3.19v-6.71h-12.23Z" fill="#fff"/><line x1="101" y1="798" x2="101" y2="63.5" fill="none" stroke="#535370" stroke-linecap="round" stroke-miterlimit="10" stroke-width="13"/><polyline points="75.62 104.57 88.21 82.75 100.81 60.93 113.4 82.75 126 104.57" fill="none" stroke="#535370" stroke-linecap="round" stroke-linejoin="round" stroke-width="13"/></g></svg>