<svg xmlns="http://www.w3.org/2000/svg" viewBox="0 0 453.54 453.54"><g id="fenetre"><polygon points="294.81 104.36 312.98 99.58 314.13 215.46 295.71 213.23 294.81 104.36" fill="#eed2b5"/><g id="Calque_7" data-name="Calque 7"><polygon points="294.81 235.76 312.98 234.28 314.13 350.16 295.71 347.93 294.81 235.76" fill="#eed2b5"/><polygon points="232.77 80.56 253.1 75.81 254.58 212.27 232.77 209.97 232.77 80.56" fill="#eed2b5"/><polygon points="232.77 236.91 254.58 235.5 254.58 373.23 232.77 365.84 232.77 236.91" fill="#eed2b5"/><polygon points="185.72 49.37 185.72 60.86 232.77 79.25 253.1 75.81 185.72 49.37" fill="#b2a8a3"/><polygon points="266.47 81.42 267.44 94.02 294.81 103.12 310.64 99.19 266.47 81.42" fill="#b2a8a3"/><polygon points="187.2 382.12 232.77 365.84 252.05 373.23 186.6 399.21 187.2 382.12" fill="#b2a8a3"/><polygon points="267.54 354.78 294.81 345.27 312.56 349.97 266.47 368.1 267.54 354.78" fill="#b2a8a3"/></g><polygon points="314.13 215.46 266.47 213.64 266.47 80.22 314.13 99.28 314.13 215.46" fill="none" stroke="#272d44" stroke-linecap="round" stroke-linejoin="round" stroke-width="3"/><polygon points="254.58 213.19 185.72 210.56 185.72 47.92 254.58 75.46 254.58 213.19" fill="none" stroke="#272d44" stroke-linecap="round" stroke-linejoin="round" stroke-width="3"/><polygon points="314.13 350.47 266.47 368.68 266.47 235.26 314.13 234.28 314.13 350.47" fill="none" stroke="#272d44" stroke-linecap="round" stroke-linejoin="round" stroke-width="3"/><polygon points="254.58 373.23 185.72 399.55 185.72 236.91 254.58 235.5 254.58 373.23" fill="none" stroke="#272d44" stroke-linecap="round" stroke-linejoin="round" stroke-width="3"/><polygon points="314.13 215.46 266.47 213.64 266.47 80.22 314.13 99.28 314.13 215.46" fill="none" stroke="#272d44" stroke-linecap="round" stroke-linejoin="round" stroke-width="3"/><polygon points="254.58 213.19 185.72 210.56 185.72 47.92 254.58 75.46 254.58 213.19" fill="none" stroke="#272d44" stroke-linecap="round" stroke-linejoin="round" stroke-width="3"/><polygon points="314.13 350.47 266.47 368.68 266.47 235.26 314.13 234.28 314.13 350.47" fill="none" stroke="#272d44" stroke-linecap="round" stroke-linejoin="round" stroke-width="3"/><polygon points="254.58 373.23 185.72 399.55 185.72 236.91 254.58 235.5 254.58 373.23" fill="none" stroke="#272d44" stroke-linecap="round" stroke-linejoin="round" stroke-width="3"/><polyline points="166.47 13.63 143.54 13.63 143.54 441.8 166.47 441.8" fill="#eed2b5" stroke="#272d44" stroke-linecap="round" stroke-linejoin="round" stroke-width="3"/><polygon points="323.28 370.19 166.47 441.8 166.47 13.63 323.28 85.24 323.28 370.19" fill="none" stroke="#272d44" stroke-linecap="round" stroke-linejoin="round" stroke-width="3"/><line x1="294.81" y1="104.36" x2="294.81" y2="213.23" fill="none" stroke="#272d44" stroke-linecap="round" stroke-linejoin="round" stroke-width="3"/><line x1="232.77" y1="80.56" x2="232.77" y2="211.33" fill="none" stroke="#272d44" stroke-linecap="round" stroke-linejoin="round" stroke-width="3"/><line x1="294.81" y1="104.36" x2="267.44" y2="94.02" fill="none" stroke="#272d44" stroke-linecap="round" stroke-linejoin="round" stroke-width="3"/><polyline points="254.58 75.46 232.77 80.56 187.05 62.13" fill="none" stroke="#272d44" stroke-linecap="round" stroke-linejoin="round" stroke-width="3"/><line x1="294.81" y1="104.36" x2="314.13" y2="99.28" fill="none" stroke="#272d44" stroke-linecap="round" stroke-linejoin="round" stroke-width="3"/><polyline points="185.72 382.12 232.77 365.84 232.77 236.91" fill="none" stroke="#272d44" stroke-linecap="round" stroke-linejoin="round" stroke-width="3"/><polyline points="266.47 354.78 294.81 345.27 294.81 235.76" fill="none" stroke="#272d44" stroke-linecap="round" stroke-linejoin="round" stroke-width="3"/><line x1="254.58" y1="373.23" x2="232.05" y2="366.08" fill="none" stroke="#272d44" stroke-linecap="round" stroke-linejoin="round" stroke-width="3"/><line x1="312.56" y1="350.14" x2="294.81" y2="345.27" fill="none" stroke="#272d44" stroke-linecap="round" stroke-linejoin="round" stroke-width="3"/></g></svg>