<svg xmlns="http://www.w3.org/2000/svg" viewBox="0 0 453.54 453.54"><g id="murs"><path d="M226.77,416.52,366.18,321.8V69.46S276.05,133.88,262,176.27,226.77,416.52,226.77,416.52Z" fill="#f4f1ed"/><polygon points="87.37 416.52 130.77 416.52 130.77 120.86 266.35 52.5 226.77 51.42 87.37 120.86 87.37 416.52" fill="#bf947a"/><polygon points="130.77 416.52 130.77 120.86 271.26 52.5 287 52.5 151.26 121.44 151.71 416.52 130.77 416.52" fill="#f4f1ed"/><polygon points="152.57 415.95 187.32 415.95 187.96 120.86 326.18 52.5 291.41 52.5 151.71 120.86 152.57 415.95" fill="#eed2b5"/><rect x="87.37" y="120.86" width="139.4" height="295.66" fill="none" stroke="#272d44" stroke-linecap="round" stroke-linejoin="round" stroke-width="3"/><polygon points="90.77 120.18 226.77 120.86 363.93 52.53 226.77 51.42 90.77 120.18" fill="#272d44" opacity="0.27"/><polyline points="130.77 416.52 130.77 120.86 270.77 51.42" fill="none" stroke="#272d44" stroke-linecap="round" stroke-linejoin="round" stroke-width="3"/><polyline points="151.71 416.52 151.71 120.86 291.94 51.42" fill="none" stroke="#272d44" stroke-linecap="round" stroke-linejoin="round" stroke-width="3"/><polyline points="187.96 416.52 187.96 120.86 329.58 51.42" fill="none" stroke="#272d44" stroke-linecap="round" stroke-linejoin="round" stroke-width="3"/><line x1="226.77" y1="416.52" x2="366.18" y2="321.8" fill="none" stroke="#272d44" stroke-linecap="round" stroke-linejoin="round" stroke-width="3"/><line x1="226.77" y1="120.86" x2="366.18" y2="51.42" fill="none" stroke="#272d44" stroke-linecap="round" stroke-linejoin="round" stroke-width="3"/><line x1="366.18" y1="321.8" x2="366.18" y2="51.42" fill="none" stroke="#272d44" stroke-linecap="round" stroke-linejoin="round" stroke-width="3"/><g id="Calque_3" data-name="Calque 3"><line x1="87.37" y1="120.86" x2="226.77" y2="51.42" fill="none" stroke="#272d44" stroke-linecap="round" stroke-linejoin="round" stroke-width="3"/><line x1="87.37" y1="120.86" x2="226.77" y2="51.42" fill="none" stroke="#272d44" stroke-linecap="round" stroke-linejoin="round" stroke-width="3"/></g><line x1="226.77" y1="51.42" x2="366.18" y2="51.42" fill="none" stroke="#272d44" stroke-linecap="round" stroke-linejoin="round" stroke-width="3"/></g></svg>