<svg xmlns="http://www.w3.org/2000/svg" viewBox="0 0 453.54 453.54"><g id="rouleau"><g id="Calque_9" data-name="Calque 9"><path d="M50.1,225.7,111,151.2s36.57-31.18,72.51-20.8,55,30.69,64.28,58.83S237.11,261,237.11,261l-51.22,77.66s33.61-79.32-30-119C102,186.05,50.1,225.7,50.1,225.7Z" fill="#b2a8a3"/><path d="M18.15,317.11c-.29-.84.9,36.73,28.84,60.81,5.71,4.92,17.58,13.08,33.23,15.16,64.76,8.57,202.47,7.27,202.47,7.27V388.67s-184-.82-197.55-5.25S34.47,364,18.15,317.11Z" fill="#b2a8a3"/><polygon points="283.97 386.6 362.09 263.76 362.09 272.52 283.97 398.29 283.97 386.6" fill="#b2a8a3"/><path d="M121.88,386.78s33.19-9.34,47.47-26.56S235,261,235,261s23.52,23.15,30.2,48.51,17.52,79.13,17.52,79.13Z" fill="#f4f1ed"/><path d="M109.42,205.39l57.17-76.48s16.68-2,38.3,8.72a83,83,0,0,1,32.4,29.43l-55.92,77.37s-18.91-20.34-31-27.91-36.22-11.16-36.22-11.16" fill="#f4f1ed" opacity="0.42"/></g><path d="M237.11,261l122.68,1.09L284,386.6,126.6,384.44s29.81-5.74,45.36-25.68C189.19,336.67,237.11,261,237.11,261Z" fill="#c6bfb5"/><polyline points="104.44 385.73 282.69 388.67 362.09 261.03 235.96 261.03" fill="none" stroke="#272d44" stroke-linecap="round" stroke-linejoin="round" stroke-width="3"/><line x1="174.86" y1="353.71" x2="239.5" y2="254.53" fill="none" stroke="#272d44" stroke-linecap="round" stroke-linejoin="round" stroke-width="3"/><line x1="33.58" y1="243.39" x2="108.69" y2="153.46" fill="none" stroke="#272d44" stroke-linecap="round" stroke-linejoin="round" stroke-width="3"/><path d="M98.67,165.66A83.3,83.3,0,0,1,239.5,254.54" fill="none" stroke="#272d44" stroke-linecap="round" stroke-linejoin="round" stroke-width="3"/><path d="M197.21,295.46c0,49.76-41.73,90.36-91.49,90.36S17,345.22,17,295.46a90.1,90.1,0,1,1,180.19,0Z" fill="#c6bfb5" stroke="#272d44" stroke-miterlimit="10" stroke-width="3"/><circle cx="107.12" cy="295.46" r="17.02" fill="none" stroke="#272d44" stroke-linecap="round" stroke-linejoin="round" stroke-width="3"/><circle cx="107.12" cy="295.46" r="37.86" fill="none" stroke="#272d44" stroke-linecap="round" stroke-linejoin="round" stroke-width="3"/><circle cx="107.12" cy="295.46" r="63.13" fill="none" stroke="#272d44" stroke-linecap="round" stroke-linejoin="round" stroke-width="3"/><polyline points="362.09 261.03 362.09 272.52 282.69 400.35 282.69 388.67" fill="none" stroke="#272d44" stroke-linecap="round" stroke-linejoin="round" stroke-width="3"/><path d="M282.69,400.35s-184.34-1.27-202.47-7.27S17,379.17,17,295.46" fill="none" stroke="#272d44" stroke-linecap="round" stroke-linejoin="round" stroke-width="3"/></g></svg>