<?xml version="1.0" encoding="UTF-8"?><svg id="VMC" xmlns="http://www.w3.org/2000/svg" viewBox="0 0 453.54 453.54"><ellipse cx="160.43" cy="229.97" rx="48.69" ry="99.49" fill="#b2a8a3"/><g><path d="M269.67,180.72c52.34,0,52.34,23.98,104.68,23.98" fill="none" stroke="#272d44" stroke-linecap="round" stroke-linejoin="round" stroke-width="3"/><g><polygon points="51.67 122.46 84.13 122.46 84.13 404.01 52.13 404.01 51.67 122.46" fill="#b2a8a3"/><polyline points="84.13 122.46 228.1 52.53 193.75 51.42 52.48 121.78" fill="#272d44" opacity=".27"/><polygon points="228.1 52.53 84.13 122.46 84.13 406.82 228.81 321.25 228.1 52.53" fill="#f4f1ed"/><polyline points="230.35 321.8 84.13 404.01 52.13 404.01 52.13 121.78 193.75 51.42" fill="none" stroke="#272d44" stroke-linecap="round" stroke-linejoin="round" stroke-width="3"/><polyline points="230.35 51.42 84.13 122.46 84.13 404.01" fill="none" stroke="#272d44" stroke-linecap="round" stroke-linejoin="round" stroke-width="3"/><line x1="230.35" y1="321.8" x2="230.35" y2="51.42" fill="none" stroke="#272d44" stroke-linecap="round" stroke-linejoin="round" stroke-width="3"/><line x1="193.75" y1="51.42" x2="230.35" y2="51.42" fill="none" stroke="#272d44" stroke-linecap="round" stroke-linejoin="round" stroke-width="3"/><line x1="52.48" y1="121.78" x2="85.32" y2="121.78" fill="none" stroke="#272d44" stroke-miterlimit="10" stroke-width="3"/></g><path d="M179.33,166.82c0,15.79-8.08,68.16-18.04,68.16s-18.04-52.37-18.04-68.16,8.08-28.6,18.04-28.6,18.04,12.8,18.04,28.6Z" fill="#fff" stroke="#272d44" stroke-linecap="round" stroke-linejoin="round" stroke-width="3"/><path d="M124.46,208.73c5.26,0,22.69,8.08,22.69,18.04s-17.44,18.04-22.69,18.04-9.52-8.08-9.52-18.04,4.26-18.04,9.52-18.04Z" fill="#fff" stroke="#272d44" stroke-linecap="round" stroke-linejoin="round" stroke-width="3"/><path d="M188.15,209.67c-9.2,0-39.72,8.08-39.72,18.04s30.52,18.04,39.72,18.04,16.66-8.08,16.66-18.04-7.46-18.04-16.66-18.04Z" fill="#fff" stroke="#272d44" stroke-linecap="round" stroke-linejoin="round" stroke-width="3"/><path d="M179.33,292.93c0-15.79-8.08-68.16-18.04-68.16s-18.04,52.37-18.04,68.16,8.08,28.6,18.04,28.6,18.04-12.8,18.04-28.6Z" fill="#fff" stroke="#272d44" stroke-linecap="round" stroke-linejoin="round" stroke-width="3"/><ellipse cx="161.29" cy="230.06" rx="19.57" ry="28.43" fill="#fff" stroke="#272d44" stroke-linecap="round" stroke-linejoin="round" stroke-width="3"/><polygon points="215.86 85.71 102.71 144.06 102.71 368.27 215.77 306.31 215.86 85.71" fill="none" stroke="#272d44" stroke-linecap="round" stroke-linejoin="round" stroke-width="3"/><g><polygon points="102.71 157.69 102.71 173.37 109.92 173.37 105.03 157.69 102.71 157.69" fill="#b2a8a3" stroke="#272d44" stroke-linecap="round" stroke-linejoin="round" stroke-width="3"/><polygon points="110.15 173.37 221.22 115.66 214.39 102.47 104.79 157.69 110.15 173.37" fill="#fff" stroke="#272d44" stroke-linecap="round" stroke-linejoin="round" stroke-width="3"/></g><g><polygon points="102.71 335.4 102.71 351.07 109.92 351.07 105.03 335.4 102.71 335.4" fill="#b2a8a3" stroke="#272d44" stroke-linecap="round" stroke-linejoin="round" stroke-width="3"/><polygon points="110.15 351.07 221.22 293.37 214.39 280.18 104.79 335.4 110.15 351.07" fill="#fff" stroke="#272d44" stroke-linecap="round" stroke-linejoin="round" stroke-width="3"/></g><g><polygon points="102.71 305.78 102.71 321.45 109.92 321.45 105.03 305.78 102.71 305.78" fill="#b2a8a3" stroke="#272d44" stroke-linecap="round" stroke-linejoin="round" stroke-width="3"/><polygon points="110.15 321.45 221.22 263.75 214.39 250.56 104.79 305.78 110.15 321.45" fill="#fff" stroke="#272d44" stroke-linecap="round" stroke-linejoin="round" stroke-width="3"/></g><g><polygon points="102.71 276.16 102.71 291.83 109.92 291.83 105.03 276.16 102.71 276.16" fill="#b2a8a3" stroke="#272d44" stroke-linecap="round" stroke-linejoin="round" stroke-width="3"/><polygon points="110.15 291.83 221.22 234.13 214.39 220.94 104.79 276.16 110.15 291.83" fill="#fff" stroke="#272d44" stroke-linecap="round" stroke-linejoin="round" stroke-width="3"/></g><g><polygon points="102.71 246.55 102.71 262.22 109.92 262.22 105.03 246.55 102.71 246.55" fill="#b2a8a3" stroke="#272d44" stroke-linecap="round" stroke-linejoin="round" stroke-width="3"/><polygon points="110.15 262.22 221.22 204.52 214.39 191.32 104.79 246.55 110.15 262.22" fill="#fff" stroke="#272d44" stroke-linecap="round" stroke-linejoin="round" stroke-width="3"/></g><g><polygon points="102.71 216.93 102.71 232.6 109.92 232.6 105.03 216.93 102.71 216.93" fill="#b2a8a3" stroke="#272d44" stroke-linecap="round" stroke-linejoin="round" stroke-width="3"/><polygon points="110.15 232.6 221.22 174.9 214.39 161.71 104.79 216.93 110.15 232.6" fill="#fff" stroke="#272d44" stroke-linecap="round" stroke-linejoin="round" stroke-width="3"/></g><g><polygon points="102.71 187.31 102.71 202.98 109.92 202.98 105.03 187.31 102.71 187.31" fill="#b2a8a3" stroke="#272d44" stroke-linecap="round" stroke-linejoin="round" stroke-width="3"/><polygon points="110.15 202.98 221.22 145.28 214.39 132.09 104.79 187.31 110.15 202.98" fill="#fff" stroke="#272d44" stroke-linecap="round" stroke-linejoin="round" stroke-width="3"/></g><path d="M269.67,293.64c52.34,0,52.34,23.98,104.68,23.98" fill="none" stroke="#272d44" stroke-linecap="round" stroke-linejoin="round" stroke-width="3"/><path d="M269.67,124.26c52.34,0,52.34,23.98,104.68,23.98" fill="none" stroke="#272d44" stroke-linecap="round" stroke-linejoin="round" stroke-width="3"/><path d="M269.67,237.18c52.34,0,52.34,23.98,104.68,23.98" fill="none" stroke="#272d44" stroke-linecap="round" stroke-linejoin="round" stroke-width="3"/></g></svg>