<?xml version="1.0" encoding="UTF-8"?><svg id="Calque_1" xmlns="http://www.w3.org/2000/svg" viewBox="0 0 479.4 131.42"><defs><style>.cls-1{fill:#13ad64;}</style></defs><g><path d="M161.35,49.87v13.06h15.36v5.95h-15.36v13.63h17.28v5.95h-24.58V43.92h24.58v5.95h-17.28Z"/><path d="M186.92,54.42c2.03-3.46,4.78-6.15,8.26-8.1,3.48-1.94,7.29-2.91,11.42-2.91,4.74,0,8.95,1.16,12.64,3.49,3.69,2.33,6.37,5.62,8.03,9.89h-8.77c-1.15-2.35-2.75-4.1-4.8-5.25-2.05-1.15-4.42-1.73-7.1-1.73-2.94,0-5.57,.66-7.87,1.98-2.3,1.32-4.11,3.22-5.41,5.7-1.3,2.48-1.95,5.35-1.95,8.64s.65,6.17,1.95,8.64c1.3,2.48,3.1,4.38,5.41,5.73s4.93,2.02,7.87,2.02c2.69,0,5.06-.58,7.1-1.73,2.05-1.15,3.65-2.9,4.8-5.25h8.77c-1.66,4.27-4.34,7.55-8.03,9.86s-7.9,3.46-12.64,3.46c-4.18,0-8-.97-11.46-2.91-3.46-1.94-6.2-4.64-8.22-8.1-2.03-3.46-3.04-7.36-3.04-11.71s1.01-8.26,3.04-11.71Z"/><path d="M243.37,86c-3.48-1.94-6.23-4.65-8.26-8.13-2.03-3.48-3.04-7.39-3.04-11.74s1.01-8.26,3.04-11.71c2.03-3.46,4.78-6.15,8.26-8.1,3.48-1.94,7.29-2.91,11.42-2.91s8.01,.97,11.49,2.91c3.48,1.94,6.22,4.64,8.22,8.1,2,3.46,3.01,7.36,3.01,11.71s-1,8.27-3.01,11.74c-2.01,3.48-4.75,6.19-8.22,8.13-3.48,1.94-7.31,2.91-11.49,2.91s-7.95-.97-11.42-2.91Zm19.3-5.44c2.3-1.34,4.11-3.26,5.41-5.76,1.3-2.5,1.95-5.39,1.95-8.67s-.65-6.17-1.95-8.64c-1.3-2.47-3.1-4.37-5.41-5.7-2.3-1.32-4.93-1.98-7.87-1.98s-5.57,.66-7.87,1.98c-2.3,1.32-4.11,3.22-5.41,5.7-1.3,2.48-1.95,5.35-1.95,8.64s.65,6.18,1.95,8.67c1.3,2.5,3.1,4.42,5.41,5.76s4.93,2.02,7.87,2.02,5.57-.67,7.87-2.02Z"/><path d="M290.7,82.58h15.04v5.89h-22.34V43.98h7.3v38.59Z"/><path d="M317.83,43.98v44.48h-7.3V43.98h7.3Z"/><path d="M364.49,43.98l-16.7,44.48h-8.45l-16.77-44.48h7.81l13.18,36.99,13.25-36.99h7.68Z"/><path d="M376.58,49.87v13.06h15.36v5.95h-15.36v13.63h17.28v5.95h-24.58V43.92h24.58v5.95h-17.28Z"/><path d="M424.64,88.46l-10.24-17.79h-5.57v17.79h-7.3V43.98h15.36c3.41,0,6.3,.6,8.67,1.79,2.37,1.2,4.14,2.79,5.31,4.8,1.17,2.01,1.76,4.25,1.76,6.72,0,2.9-.84,5.54-2.53,7.9-1.69,2.37-4.28,3.98-7.78,4.83l11.01,18.43h-8.7Zm-15.81-23.62h8.06c2.73,0,4.79-.68,6.18-2.05,1.39-1.36,2.08-3.2,2.08-5.5s-.68-4.11-2.05-5.41c-1.37-1.3-3.44-1.95-6.21-1.95h-8.06v14.91Z"/><path d="M473.67,43.98l-14.72,28.35v16.13h-7.3v-16.13l-14.78-28.35h8.13l10.3,21.82,10.3-21.82h8.06Z"/></g><g><polygon class="cls-1" points="60.62 .02 .03 35 .03 61.7 .03 61.7 .03 62.14 23.57 75.97 23.57 48.54 60.62 27.15 121.02 62.02 121.02 34.9 60.62 .02"/><polygon class="cls-1" points="60.43 131.41 121.02 96.42 121.02 69.73 121.02 69.73 121.02 69.29 97.48 55.46 97.48 82.89 60.43 104.28 .03 69.4 .03 96.53 60.43 131.41"/></g></svg>