<?xml version="1.0" encoding="utf-8"?>
<!-- Generator: Adobe Illustrator 25.2.1, SVG Export Plug-In . SVG Version: 6.00 Build 0)  -->
<svg version="1.1" id="Calque_1" xmlns="http://www.w3.org/2000/svg" xmlns:xlink="http://www.w3.org/1999/xlink" x="0px" y="0px"
	 viewBox="0 0 440.6 164" style="enable-background:new 0 0 440.6 164;" xml:space="preserve">
<style type="text/css">
	.st0{fill:#894943;}
	.st1{enable-background:new    ;}
	.st2{fill:#FFFFFF;}
</style>
<circle class="st0" cx="147.7" cy="82" r="82"/>
<g class="st1">
	<path class="st2" d="M92.5,97.3l-6.3-11.4h-1.8v11.4h-7.4V67.1h12.3c2.4,0,4.4,0.4,6.1,1.2c1.7,0.8,2.9,2,3.8,3.4
		c0.8,1.4,1.2,3.1,1.2,4.8c0,2-0.6,3.8-1.7,5.4c-1.1,1.6-2.8,2.7-5,3.4l7,12H92.5z M84.5,80.7H89c1.3,0,2.4-0.3,3-1
		c0.7-0.7,1-1.6,1-2.8c0-1.1-0.3-2-1-2.7c-0.7-0.7-1.7-1-3-1h-4.6V80.7z"/>
	<path class="st2" d="M112.1,73v6.1h9.8v5.7h-9.8v6.6h11.1v5.9h-18.5V67.1h18.5V73H112.1z"/>
	<path class="st2" d="M154.7,97.3h-7.4L135,78.7v18.6h-7.4V67.1h7.4l12.3,18.7V67.1h7.4V97.3z"/>
	<path class="st2" d="M166.1,95.6c-2.4-1.3-4.2-3.2-5.6-5.5c-1.4-2.4-2.1-5-2.1-8s0.7-5.6,2.1-8c1.4-2.4,3.3-4.2,5.6-5.5
		c2.4-1.3,5-2,7.8-2s5.4,0.7,7.8,2c2.4,1.3,4.2,3.2,5.6,5.5c1.4,2.4,2,5,2,8s-0.7,5.6-2.1,8c-1.4,2.4-3.2,4.2-5.6,5.5
		c-2.4,1.3-4.9,2-7.8,2S168.4,96.9,166.1,95.6z M179.7,88.5c1.4-1.6,2.2-3.7,2.2-6.4c0-2.7-0.7-4.8-2.2-6.4
		c-1.4-1.6-3.4-2.4-5.8-2.4c-2.4,0-4.4,0.8-5.8,2.4c-1.4,1.6-2.2,3.7-2.2,6.4c0,2.7,0.7,4.8,2.2,6.4c1.4,1.6,3.4,2.4,5.8,2.4
		C176.3,90.9,178.2,90.1,179.7,88.5z"/>
	<path class="st2" d="M221.4,67.1l-10.7,30.2h-9.2l-10.7-30.2h7.8l7.5,22.8l7.5-22.8H221.4z"/>
</g>
<g class="st1">
	<path class="st0" d="M19.2,96.6L5.7,81v15.5H0V61.8h5.7v15.8l13.5-15.8h7.1L11.3,79.2l15.4,17.3H19.2z"/>
	<path class="st0" d="M36.8,95.7c-1.9-0.8-3.3-2-4.4-3.5c-1.1-1.5-1.6-3.2-1.6-5.2h6.1c0.1,1.5,0.7,2.7,1.8,3.7
		c1.1,1,2.5,1.5,4.4,1.5c2,0,3.5-0.5,4.6-1.4c1.1-1,1.7-2.2,1.7-3.7c0-1.2-0.3-2.1-1-2.9c-0.7-0.7-1.5-1.3-2.5-1.7
		c-1-0.4-2.4-0.8-4.2-1.3c-2.3-0.6-4.1-1.2-5.5-1.8c-1.4-0.6-2.6-1.6-3.6-2.9c-1-1.3-1.5-3-1.5-5.2c0-2,0.5-3.8,1.5-5.2
		s2.4-2.7,4.2-3.5c1.8-0.8,3.9-1.2,6.2-1.2c3.4,0,6.1,0.8,8.3,2.5c2.1,1.7,3.3,4,3.6,6.9h-6.3c-0.1-1.3-0.7-2.3-1.8-3.2
		c-1.1-0.9-2.6-1.3-4.4-1.3c-1.6,0-3,0.4-4,1.2c-1,0.8-1.6,2-1.6,3.6c0,1.1,0.3,1.9,1,2.6c0.6,0.7,1.5,1.2,2.5,1.6s2.4,0.8,4.1,1.3
		c2.3,0.6,4.2,1.3,5.6,1.9c1.4,0.6,2.7,1.6,3.7,2.9c1,1.3,1.5,3.1,1.5,5.3c0,1.8-0.5,3.4-1.4,5c-0.9,1.6-2.3,2.8-4.1,3.8
		c-1.8,1-4,1.4-6.4,1.4C40.8,96.9,38.7,96.5,36.8,95.7z"/>
</g>
<g class="st1">
	<path class="st0" d="M268.1,61.8v34.8h-5.7V81.4H246v15.2h-5.7V61.8h5.7v14.9h16.3V61.8H268.1z"/>
	<path class="st0" d="M296.5,89.5H282l-2.5,7.1h-5.9L286,61.8h6.6L305,96.6h-6L296.5,89.5z M294.9,84.8l-5.6-16.2l-5.7,16.2H294.9z"
		/>
	<path class="st0" d="M333.8,81.7c1.3,1.6,1.9,3.5,1.9,5.6c0,1.8-0.5,3.4-1.4,4.8c-0.9,1.4-2.2,2.5-4,3.4c-1.7,0.8-3.8,1.2-6,1.2
		h-13.9V61.8h13.2c2.4,0,4.4,0.4,6.1,1.2c1.7,0.8,3,1.9,3.8,3.2c0.9,1.4,1.3,2.9,1.3,4.5c0,2-0.5,3.7-1.6,5c-1.1,1.3-2.5,2.3-4.3,3
		C330.9,79.1,332.5,80,333.8,81.7z M316.1,76.4h7c1.9,0,3.3-0.4,4.4-1.3c1-0.9,1.6-2.1,1.6-3.7c0-1.6-0.5-2.8-1.6-3.7
		c-1-0.9-2.5-1.3-4.4-1.3h-7V76.4z M328.4,90.5c1.1-0.9,1.7-2.2,1.7-3.9c0-1.7-0.6-3.1-1.8-4.1c-1.2-1-2.7-1.5-4.7-1.5h-7.5v10.9
		h7.7C325.8,91.9,327.3,91.5,328.4,90.5z"/>
	<path class="st0" d="M347.6,61.8v34.8h-5.7V61.8H347.6z"/>
	<path class="st0" d="M377.6,61.8v4.7h-9.2v30.1h-5.7V66.5h-9.3v-4.7H377.6z"/>
	<path class="st0" d="M404.3,89.5h-14.6l-2.5,7.1h-5.9l12.4-34.8h6.6l12.5,34.8h-6L404.3,89.5z M402.7,84.8L397,68.7l-5.7,16.2
		H402.7z"/>
	<path class="st0" d="M440.6,61.8v4.7h-9.2v30.1h-5.7V66.5h-9.3v-4.7H440.6z"/>
</g>
</svg>
