<?xml version="1.0" encoding="UTF-8"?><svg id="Calque_1" xmlns="http://www.w3.org/2000/svg" viewBox="0 0 519.76 131.6"><g><path d="M178.54,88.34l-17.21-19.9v19.9h-7.3V43.86h7.3v20.29l17.28-20.29h9.15l-19.33,22.27,19.65,22.21h-9.54Z"/><path d="M199.85,87.22c-2.39-1.04-4.27-2.53-5.63-4.45s-2.05-4.16-2.05-6.72h7.81c.17,1.92,.93,3.5,2.27,4.74,1.34,1.24,3.23,1.86,5.66,1.86s4.48-.61,5.89-1.82c1.41-1.22,2.11-2.78,2.11-4.7,0-1.49-.44-2.71-1.31-3.65-.88-.94-1.96-1.66-3.26-2.18-1.3-.51-3.1-1.07-5.41-1.66-2.9-.77-5.26-1.55-7.07-2.34-1.81-.79-3.36-2.02-4.64-3.68-1.28-1.66-1.92-3.88-1.92-6.66,0-2.56,.64-4.8,1.92-6.72,1.28-1.92,3.07-3.39,5.38-4.42,2.3-1.02,4.97-1.54,8-1.54,4.31,0,7.84,1.08,10.59,3.23,2.75,2.16,4.28,5.11,4.58,8.86h-8.06c-.13-1.62-.9-3.01-2.3-4.16-1.41-1.15-3.26-1.73-5.57-1.73-2.09,0-3.8,.53-5.12,1.6-1.32,1.07-1.98,2.6-1.98,4.61,0,1.37,.42,2.49,1.25,3.36,.83,.88,1.89,1.57,3.17,2.08,1.28,.51,3.03,1.07,5.25,1.66,2.95,.81,5.35,1.62,7.2,2.43,1.86,.81,3.43,2.06,4.74,3.74,1.3,1.69,1.95,3.94,1.95,6.75,0,2.26-.61,4.4-1.82,6.4-1.21,2.01-2.99,3.62-5.31,4.83s-5.07,1.82-8.22,1.82c-2.99,0-5.68-.52-8.06-1.57Z"/><path d="M281.52,43.86v44.48h-7.3v-19.46h-20.93v19.46h-7.3V43.86h7.3v19.07h20.93v-19.07h7.3Z"/><path d="M298.7,85.88c-3.48-1.94-6.23-4.65-8.26-8.13-2.03-3.48-3.04-7.39-3.04-11.74s1.01-8.26,3.04-11.71c2.03-3.46,4.78-6.15,8.26-8.1,3.48-1.94,7.29-2.91,11.42-2.91s8.01,.97,11.49,2.91c3.48,1.94,6.22,4.64,8.22,8.1,2,3.46,3.01,7.36,3.01,11.71s-1,8.27-3.01,11.74c-2.01,3.48-4.75,6.19-8.22,8.13-3.48,1.94-7.31,2.91-11.49,2.91s-7.95-.97-11.42-2.91Zm19.3-5.44c2.3-1.34,4.11-3.26,5.41-5.76,1.3-2.5,1.95-5.39,1.95-8.67s-.65-6.16-1.95-8.64c-1.3-2.47-3.11-4.37-5.41-5.7-2.3-1.32-4.93-1.98-7.87-1.98s-5.57,.66-7.87,1.98c-2.3,1.32-4.11,3.22-5.41,5.7-1.3,2.47-1.95,5.35-1.95,8.64s.65,6.18,1.95,8.67c1.3,2.5,3.1,4.42,5.41,5.76,2.3,1.34,4.93,2.02,7.87,2.02s5.57-.67,7.87-2.02Z"/><path d="M346.03,82.46h15.04v5.89h-22.34V43.86h7.3v38.59Z"/><path d="M392.84,46.58c3.56,1.81,6.31,4.42,8.26,7.81,1.94,3.39,2.91,7.35,2.91,11.87s-.97,8.45-2.91,11.78c-1.94,3.33-4.7,5.88-8.26,7.65-3.56,1.77-7.71,2.66-12.45,2.66h-14.53V43.86h14.53c4.74,0,8.88,.91,12.45,2.72Zm-.48,31.58c2.77-2.82,4.16-6.78,4.16-11.9s-1.39-9.19-4.16-12.1c-2.77-2.9-6.76-4.35-11.97-4.35h-7.23v32.58h7.23c5.21,0,9.2-1.41,11.97-4.22Z"/><path d="M417.26,43.86v44.48h-7.29V43.86h7.29Z"/><path d="M462.12,88.34h-7.29l-21.95-33.22v33.22h-7.29V43.8h7.29l21.95,33.15V43.8h7.29v44.54Z"/><path d="M502.63,56.66c-1.15-2.22-2.75-3.89-4.8-5.02-2.05-1.13-4.42-1.7-7.1-1.7-2.95,0-5.57,.66-7.87,1.98-2.3,1.32-4.11,3.2-5.41,5.63-1.3,2.43-1.95,5.25-1.95,8.45s.65,6.03,1.95,8.48c1.3,2.45,3.11,4.34,5.41,5.66,2.3,1.32,4.93,1.98,7.87,1.98,3.97,0,7.19-1.11,9.66-3.33,2.47-2.22,3.99-5.23,4.54-9.02h-16.7v-5.82h24.51v5.7c-.47,3.46-1.7,6.64-3.68,9.54-1.98,2.9-4.57,5.22-7.74,6.94-3.18,1.73-6.71,2.59-10.59,2.59-4.18,0-8-.97-11.46-2.91-3.46-1.94-6.2-4.64-8.22-8.1-2.03-3.46-3.04-7.36-3.04-11.71s1.01-8.26,3.04-11.71c2.03-3.46,4.78-6.15,8.26-8.1,3.48-1.94,7.29-2.91,11.42-2.91,4.74,0,8.95,1.16,12.64,3.49,3.69,2.33,6.37,5.62,8.03,9.89h-8.77Z"/></g><g><polygon points="60.59 .14 0 35.12 0 61.82 0 61.82 0 62.26 23.54 76.09 23.54 48.66 60.59 27.27 120.99 62.14 120.99 35.02 60.59 .14"/><polygon points="60.4 131.53 120.99 96.55 120.99 69.85 120.99 69.85 120.99 69.41 97.45 55.58 97.45 83.01 60.4 104.4 0 69.53 0 96.65 60.4 131.53"/></g></svg>