<?xml version="1.0" encoding="UTF-8"?>
<svg id="Calque_18" data-name="Calque 18" xmlns="http://www.w3.org/2000/svg" viewBox="0 0 512 512">
  <path d="M469.56,200.31h-72.45c-9.09-24.6-18.18-42.69-27.28-67.29-3.12-8.32-11.23-15.05-18.04-14.96-63.87,.29-127.74,.52-191.61,.81-6.8-.02-14.92,6.63-18.04,14.78-9.2,24.39-18.39,42.27-27.59,66.66h-33.73c-9.47,0-17.14,7.67-17.14,17.14v77.65c0,9.47,7.67,17.14,17.14,17.14H469.56c9.47,0,17.14-7.67,17.14-17.14v-77.65c0-9.47-7.67-17.14-17.14-17.14Z" fill="#fff" stroke="#000" stroke-linecap="round" stroke-linejoin="round" stroke-width="6"/>
  <circle cx="155.07" cy="312.24" r="49.61" fill="#fff" stroke="#000" stroke-linecap="round" stroke-linejoin="round" stroke-width="6"/>
  <circle cx="395.67" cy="312.24" r="49.61" fill="#fff" stroke="#000" stroke-linecap="round" stroke-linejoin="round" stroke-width="6"/>
  <polygon points="259.31 156.44 299.26 156.44 272.17 208.9 308.28 208.9 252.47 286.39 268.23 231.47 232.42 231.47 259.31 156.44" fill="#fff" stroke="#000" stroke-linecap="round" stroke-linejoin="round" stroke-width="6"/>
  <path d="M63.69,262.63h-18.51c-10.39,0-18.81,7.69-18.81,17.18v110.79c0,9.49,8.42,17.18,18.81,17.18h53.12" fill="none" stroke="#000" stroke-linecap="round" stroke-linejoin="round" stroke-width="6"/>
  <path d="M122.45,431.93c-13.34,0-24.16-10.82-24.16-24.16s10.82-24.16,24.16-24.16h24.09v48.32h-24.09Z" fill="#fff" stroke="#000" stroke-linecap="round" stroke-linejoin="round" stroke-width="6"/>
  <line x1="148.09" y1="421.6" x2="168.29" y2="421.6" fill="none" stroke="#000" stroke-linecap="round" stroke-linejoin="round" stroke-width="6"/>
  <line x1="148.09" y1="393.94" x2="168.29" y2="393.94" fill="none" stroke="#000" stroke-linecap="round" stroke-linejoin="round" stroke-width="6"/>
</svg>