<svg xmlns="http://www.w3.org/2000/svg" viewBox="0 0 512 512"><defs><style>.cls-1{fill:none;stroke:#000;stroke-linecap:round;stroke-linejoin:round;stroke-width:12px;}</style></defs><g id="mur"><rect class="cls-1" x="29.83" y="326.41" width="131.14" height="70.43" rx="4.92"/><rect class="cls-1" x="160.97" y="326.41" width="131.14" height="70.43" rx="4.92"/><rect class="cls-1" x="292.11" y="326.41" width="131.14" height="70.43" rx="4.92"/><rect class="cls-1" x="88.74" y="256.05" width="131.14" height="70.43" rx="4.92"/><rect class="cls-1" x="219.89" y="256.05" width="131.14" height="70.43" rx="4.92"/><rect class="cls-1" x="351.03" y="256.05" width="131.14" height="70.43" rx="4.92"/><rect class="cls-1" x="29.83" y="185.62" width="131.14" height="70.43" rx="4.92"/><rect class="cls-1" x="160.97" y="185.62" width="131.14" height="70.43" rx="4.92"/><rect class="cls-1" x="292.11" y="185.62" width="131.14" height="70.43" rx="4.92"/><rect class="cls-1" x="88.74" y="115.16" width="131.14" height="70.43" rx="4.92"/><rect class="cls-1" x="219.89" y="115.16" width="131.14" height="70.43" rx="4.92"/><rect class="cls-1" x="351.03" y="115.16" width="131.14" height="70.43" rx="4.92"/></g></svg>