<svg xmlns="http://www.w3.org/2000/svg" viewBox="0 0 512 508.77"><defs><style>.cls-1{fill:none;}.cls-1,.cls-2{stroke:#000;stroke-linecap:round;stroke-linejoin:round;stroke-width:12px;}.cls-2{fill:#fff;}</style></defs><g id="électricité"><path class="cls-1" d="M304,484.93A120.89,120.89,0,0,1,183.21,364.18a18.51,18.51,0,1,1,37,0,83.74,83.74,0,0,0,167.48,0V214.63a18.51,18.51,0,0,1,37,0V364.18A120.89,120.89,0,0,1,304,484.93Z"/><path class="cls-2" d="M103.09,178.83V237.1c0,31,17.7,58.33,44.67,74.59a5.63,5.63,0,0,1,2.7,4.83v43.32h110V316.52a5.62,5.62,0,0,1,2.7-4.82c27-16.27,44.68-43.61,44.68-74.6V178.83Z"/><rect class="cls-2" x="87.29" y="123.2" width="232.34" height="55.63"/><path class="cls-1" d="M244.76,119.24V49a16.7,16.7,0,0,1,16.69-16.7h0A16.7,16.7,0,0,1,278.15,49v70.22"/><path class="cls-1" d="M132.77,119.24V49a16.7,16.7,0,0,1,16.69-16.7h0A16.7,16.7,0,0,1,166.16,49v70.22"/><line class="cls-1" x1="172.79" y1="315.9" x2="236.98" y2="315.9"/><polyline class="cls-1" points="199.9 205.38 226.96 241.93 179.97 241.93 205.99 276.83"/></g></svg>