<?xml version="1.0" encoding="utf-8"?>
<!-- Generator: Adobe Illustrator 26.0.1, SVG Export Plug-In . SVG Version: 6.00 Build 0)  -->
<svg version="1.1" id="Calque_1" xmlns="http://www.w3.org/2000/svg" xmlns:xlink="http://www.w3.org/1999/xlink" x="0px" y="0px"
	 viewBox="0 0 169.5 15" style="enable-background:new 0 0 169.5 15;" xml:space="preserve">
<style type="text/css">
	.st0{fill:#313131;}
</style>
<g>
	<path class="st0" d="M0.4,5.7C0.7,5.2,1,4.8,1.5,4.5c0.5-0.3,1-0.4,1.7-0.4c0.8,0,1.5,0.2,2,0.6s0.9,0.9,1,1.6H5.1
		C5,5.9,4.7,5.6,4.4,5.4C4.1,5.1,3.7,5,3.2,5C2.6,5,2.1,5.2,1.7,5.6s-0.6,1-0.6,1.8s0.2,1.4,0.6,1.8c0.4,0.4,0.9,0.6,1.5,0.6
		c0.5,0,0.9-0.1,1.2-0.3s0.5-0.5,0.7-1h1.2c-0.2,0.7-0.5,1.2-1.1,1.6c-0.5,0.4-1.2,0.6-2,0.6c-0.6,0-1.2-0.1-1.7-0.4
		C1,10,0.6,9.6,0.4,9.1C0.2,8.8,0,8.2,0,7.5S0.2,6.2,0.4,5.7z"/>
	<path class="st0" d="M8.9,10.5C8.4,10.2,8,9.8,7.7,9.3S7.3,8.2,7.3,7.5s0.1-1.3,0.4-1.8s0.7-0.9,1.2-1.2s1.1-0.4,1.7-0.4
		s1.2,0.1,1.7,0.4s0.9,0.7,1.2,1.2c0.3,0.5,0.4,1.1,0.4,1.8c0,0.7-0.1,1.3-0.5,1.8c-0.3,0.5-0.7,0.9-1.2,1.2s-1.1,0.4-1.7,0.4
		C10,10.9,9.4,10.7,8.9,10.5z M11.7,9.6c0.3-0.2,0.6-0.5,0.8-0.8c0.2-0.4,0.3-0.8,0.3-1.3s-0.1-1-0.3-1.3c-0.2-0.4-0.5-0.6-0.8-0.8
		C11.4,5.1,11,5,10.6,5S9.8,5.1,9.5,5.3C9.2,5.5,8.9,5.8,8.7,6.1C8.5,6.5,8.4,6.9,8.4,7.4s0.1,1,0.3,1.4s0.5,0.6,0.8,0.8
		s0.7,0.3,1.1,0.3S11.3,9.8,11.7,9.6z"/>
	<path class="st0" d="M24.7,4.4c0.4,0.2,0.7,0.5,0.9,1c0.2,0.4,0.3,0.9,0.3,1.5v3.9h-1.1V7c0-0.7-0.2-1.2-0.5-1.5
		C24.1,5.2,23.6,5,23.1,5c-0.6,0-1,0.2-1.4,0.5c-0.3,0.4-0.5,0.9-0.5,1.6v3.6h-1.1V7c0-0.7-0.2-1.2-0.5-1.5C19.3,5.2,18.9,5,18.3,5
		s-1,0.2-1.4,0.5c-0.3,0.4-0.4,1-0.4,1.6v3.6h-1.1V4.2h1.1v0.9c0.2-0.3,0.5-0.6,0.9-0.8C17.8,4.1,18.2,4,18.6,4c0.6,0,1,0.1,1.5,0.4
		C20.5,4.6,20.8,5,21,5.5c0.2-0.5,0.5-0.8,0.9-1.1C22.3,4.1,22.8,4,23.3,4C23.8,4.1,24.3,4.2,24.7,4.4z"/>
	<path class="st0" d="M37,4.4c0.4,0.2,0.7,0.5,0.9,1c0.2,0.4,0.3,0.9,0.3,1.5v3.9h-1.1V7c0-0.7-0.2-1.2-0.5-1.5
		C36.4,5.2,36,5,35.4,5s-1,0.2-1.4,0.5c-0.3,0.4-0.5,0.9-0.5,1.6v3.6h-1V7c0-0.7-0.2-1.2-0.5-1.5S31.3,5,30.7,5s-1,0.2-1.4,0.5
		c-0.3,0.4-0.5,0.9-0.5,1.6v3.6h-1.1V4.2h1.1v0.9c0.2-0.3,0.5-0.6,0.9-0.8C30.1,4.1,30.5,4,30.9,4c0.6,0,1,0.1,1.5,0.4
		c0.4,0.2,0.7,0.6,0.9,1.1c0.2-0.5,0.5-0.8,0.9-1.1C34.6,4.1,35.1,4,35.6,4C36.2,4.1,36.6,4.2,37,4.4z"/>
	<path class="st0" d="M46.1,7.9h-5.3c0,0.6,0.3,1.2,0.7,1.5c0.4,0.4,0.9,0.5,1.5,0.5c0.5,0,0.9-0.1,1.2-0.3s0.5-0.5,0.7-0.9h1.2
		c-0.2,0.6-0.5,1.1-1.1,1.5c-0.5,0.4-1.2,0.6-2,0.6c-0.6,0-1.2-0.1-1.7-0.4c-0.5-0.3-0.9-0.7-1.2-1.2s-0.4-1.1-0.4-1.8
		s0.1-1.3,0.4-1.8c0.3-0.5,0.7-0.9,1.1-1.2C41.7,4.1,42.3,4,42.9,4c0.6,0,1.2,0.1,1.7,0.4s0.9,0.6,1.1,1.1c0.3,0.5,0.4,1,0.4,1.6
		C46.1,7.4,46.1,7.7,46.1,7.9z M44.7,5.9c-0.2-0.3-0.4-0.5-0.8-0.7C43.6,5,43.2,5,42.9,5c-0.6,0-1,0.2-1.4,0.5
		c-0.4,0.4-0.6,0.8-0.7,1.5H45C45,6.6,44.9,6.2,44.7,5.9z"/>
	<path class="st0" d="M49.5,4.4c0.4-0.2,0.8-0.3,1.3-0.3v1.1h-0.3c-1.2,0-1.8,0.7-1.8,2v3.6h-1.2V4.2h1.1v1.1
		C48.8,4.9,49.1,4.6,49.5,4.4z"/>
	<path class="st0" d="M52,5.7c0.3-0.5,0.6-0.9,1.1-1.2c0.5-0.3,1-0.4,1.7-0.4c0.8,0,1.5,0.2,2,0.6s0.9,0.9,1,1.6h-1.2
		c-0.1-0.4-0.3-0.7-0.7-0.9C55.7,5.1,55.3,5,54.8,5c-0.6,0-1.1,0.2-1.5,0.6s-0.6,1-0.6,1.8s0.2,1.4,0.6,1.8c0.4,0.4,0.9,0.6,1.5,0.6
		c0.5,0,0.9-0.1,1.2-0.3s0.5-0.5,0.7-1h1.2c-0.2,0.7-0.5,1.2-1.1,1.6c-0.5,0.4-1.2,0.6-2,0.6c-0.6,0-1.2-0.1-1.7-0.4
		C52.6,10,52.2,9.6,52,9.1c-0.3-0.5-0.4-1.1-0.4-1.8C51.6,6.8,51.8,6.2,52,5.7z"/>
	<path class="st0" d="M59.3,2.9c-0.1-0.1-0.2-0.3-0.2-0.5s0.1-0.4,0.2-0.5s0.3-0.2,0.5-0.2c0.2,0,0.4,0.1,0.5,0.2
		c0.2,0.1,0.3,0.3,0.3,0.5s-0.1,0.4-0.2,0.5s-0.3,0.2-0.5,0.2C59.7,3.1,59.5,3,59.3,2.9z M60.4,4.2v6.6h-1.1V4.2H60.4z"/>
	<path class="st0" d="M62.3,5.7c0.3-0.5,0.6-0.9,1.1-1.2c0.5-0.3,1-0.4,1.6-0.4s1.1,0.1,1.5,0.4c0.4,0.2,0.7,0.6,0.9,0.9V4.2h1.1
		v6.6h-1.1V9.5c-0.2,0.4-0.5,0.7-1,1c-0.4,0.3-0.9,0.4-1.5,0.4s-1.1-0.1-1.6-0.4c-0.5-0.3-0.8-0.7-1.1-1.2s-0.4-1.1-0.4-1.8
		C61.9,6.8,62,6.2,62.3,5.7z M67.1,6.2c-0.2-0.4-0.5-0.6-0.8-0.8C66,5.1,65.6,5,65.2,5s-0.8,0.1-1.1,0.3c-0.3,0.2-0.6,0.5-0.8,0.8
		C63.1,6.5,63,6.9,63,7.4s0.1,0.9,0.3,1.3c0.2,0.4,0.5,0.7,0.8,0.9s0.7,0.3,1.1,0.3s0.8-0.1,1.1-0.3c0.3-0.2,0.6-0.5,0.8-0.9
		c0.2-0.4,0.3-0.8,0.3-1.3S67.3,6.5,67.1,6.2z"/>
	<path class="st0" d="M71.5,1.9v8.9h-1.1V1.9H71.5z"/>
	<path class="st0" d="M81.6,3.6c0.7,0.3,1.2,0.8,1.5,1.4s0.5,1.3,0.5,2.1c0,0.6-0.1,1.2-0.3,1.8c-0.2,0.6-0.5,1.1-0.9,1.4
		s-0.9,0.5-1.4,0.5c-0.4,0-0.7-0.1-0.9-0.3c-0.2-0.2-0.3-0.5-0.4-0.8c-0.2,0.3-0.6,0.6-0.9,0.8c-0.4,0.2-0.8,0.3-1.2,0.3
		c-0.6,0-1.1-0.2-1.4-0.6c-0.3-0.4-0.5-0.9-0.5-1.5s0.1-1.2,0.4-1.7s0.6-0.9,1.1-1.3c0.4-0.3,1-0.5,1.5-0.5c0.8,0,1.3,0.3,1.5,0.9
		l0.1-0.7h0.9L80.6,9c0,0.2,0,0.3,0,0.4c0,0.5,0.2,0.7,0.6,0.7c0.3,0,0.6-0.2,0.8-0.5c0.3-0.3,0.5-0.6,0.6-1.1s0.2-0.9,0.2-1.4
		c0-1-0.3-1.9-0.9-2.4c-0.6-0.6-1.5-0.9-2.7-0.9c-1,0-1.8,0.2-2.6,0.7c-0.8,0.5-1.4,1.1-1.8,1.9s-0.6,1.7-0.6,2.7
		c0,1.1,0.3,1.9,0.9,2.4c0.6,0.6,1.5,0.9,2.7,0.9c0.8,0,1.4-0.1,2-0.4l0.1,0.7c-0.7,0.3-1.5,0.4-2.4,0.4s-1.6-0.2-2.3-0.5
		c-0.7-0.3-1.2-0.8-1.5-1.4c-0.4-0.6-0.5-1.3-0.5-2.1C73.3,8,73.5,7,74,6.1s1.2-1.7,2.2-2.2c0.9-0.5,2-0.8,3.1-0.8
		C80.2,3.1,81,3.2,81.6,3.6z M79,9.7c0.3-0.2,0.5-0.5,0.7-0.9S80,8,80,7.6c0-0.4-0.1-0.8-0.3-1c-0.2-0.3-0.5-0.4-1-0.4
		c-0.4,0-0.7,0.1-1,0.3S77.2,7,77,7.4s-0.2,0.8-0.2,1.2s0.1,0.8,0.3,1C77.2,9.9,77.5,10,78,10C78.3,10,78.6,9.9,79,9.7z"/>
	<path class="st0" d="M89.2,10.8l-2.6-2.9v2.9h-1.1V1.9h1.1v5.2l2.5-2.9h1.5l-3.1,3.3l3.1,3.3H89.2z"/>
	<path class="st0" d="M92.6,10.6c-0.4-0.2-0.7-0.4-0.9-0.7c-0.2-0.3-0.4-0.7-0.4-1.1h1.1c0,0.3,0.2,0.6,0.5,0.8s0.6,0.3,1.1,0.3
		c0.4,0,0.7-0.1,1-0.3c0.2-0.2,0.4-0.4,0.4-0.7S95.3,8.4,95,8.3S94.3,8,93.8,7.9s-0.9-0.3-1.2-0.4c-0.3-0.1-0.6-0.3-0.8-0.6
		c-0.2-0.3-0.3-0.6-0.3-1c0-0.3,0.1-0.6,0.3-0.9c0.2-0.3,0.5-0.5,0.9-0.7s0.8-0.2,1.3-0.2c0.7,0,1.3,0.2,1.8,0.6
		c0.4,0.4,0.7,0.9,0.7,1.5h-1.1c0-0.3-0.2-0.6-0.4-0.8c-0.3-0.2-0.6-0.3-1-0.3s-0.7,0.1-0.9,0.3c-0.5,0-0.6,0.2-0.6,0.5
		c0,0.2,0.1,0.4,0.2,0.5s0.3,0.3,0.5,0.3s0.5,0.2,0.9,0.3c0.5,0.1,0.9,0.3,1.2,0.4s0.5,0.3,0.8,0.6c0.3,0.3,0.3,0.6,0.3,1
		s-0.1,0.7-0.3,1c-0.2,0.3-0.5,0.5-0.8,0.7c-0.4,0.2-0.8,0.2-1.3,0.2C93.5,10.9,93,10.8,92.6,10.6z"/>
	<path class="st0" d="M102.5,5.9v0.9h-4.8V5.9H102.5z"/>
	<path class="st0" d="M106.4,4.4c0.4-0.2,0.8-0.3,1.3-0.3v1.1h-0.2c-1.2,0-1.8,0.7-1.8,2v3.6h-1.2V4.2h1.1v1.1
		C105.8,4.9,106.1,4.6,106.4,4.4z"/>
	<path class="st0" d="M115,7.9h-5.3c0,0.6,0.3,1.2,0.7,1.5c0.4,0.4,0.9,0.5,1.5,0.5c0.5,0,0.9-0.1,1.2-0.3c0.3-0.2,0.5-0.5,0.7-0.9
		h1.2c-0.2,0.6-0.5,1.1-1.1,1.5c-0.5,0.4-1.2,0.6-2,0.6c-0.6,0-1.2-0.1-1.7-0.4c-0.5-0.3-0.9-0.7-1.2-1.2c-0.3-0.5-0.4-1.1-0.4-1.8
		s0.1-1.3,0.4-1.8s0.7-0.9,1.1-1.2c0.5-0.3,1.1-0.4,1.7-0.4s1.2,0.1,1.7,0.4s0.9,0.6,1.1,1.1c0.3,0.5,0.4,1,0.4,1.6
		C115,7.4,115,7.7,115,7.9z M113.6,5.9c-0.2-0.3-0.4-0.5-0.8-0.7c-0.3-0.2-0.7-0.2-1-0.2c-0.6,0-1,0.2-1.4,0.5
		c-0.4,0.4-0.6,0.8-0.7,1.5h4.2C113.9,6.6,113.8,6.2,113.6,5.9z"/>
	<path class="st0" d="M121.6,4.8c0.5,0.5,0.7,1.2,0.7,2.1v3.9h-1.1V7c0-0.7-0.2-1.2-0.5-1.5S119.9,5,119.4,5c-0.6,0-1,0.2-1.4,0.5
		s-0.5,0.9-0.5,1.6v3.6h-1.1V4.2h1.1v0.9c0.2-0.3,0.5-0.6,0.9-0.8s0.8-0.3,1.2-0.3C120.5,4.1,121.1,4.3,121.6,4.8z"/>
	<path class="st0" d="M125.3,10.5c-0.5-0.3-0.9-0.7-1.2-1.2s-0.4-1.1-0.4-1.8s0.1-1.3,0.4-1.8s0.7-0.9,1.2-1.2s1.1-0.4,1.7-0.4
		s1.2,0.1,1.7,0.4s0.9,0.7,1.2,1.2s0.4,1.1,0.4,1.8c0,0.7-0.1,1.3-0.5,1.8c-0.3,0.5-0.7,0.9-1.2,1.2s-1.1,0.4-1.7,0.4
		C126.4,10.9,125.8,10.7,125.3,10.5z M128.1,9.6c0.3-0.2,0.6-0.5,0.8-0.8c0.2-0.4,0.3-0.8,0.3-1.3s-0.1-1-0.3-1.3
		c-0.2-0.4-0.5-0.6-0.8-0.8c-0.3-0.2-0.7-0.3-1.1-0.3c-0.4,0-0.8,0.1-1.1,0.3c-0.3,0.2-0.6,0.5-0.8,0.8c-0.2,0.4-0.3,0.8-0.3,1.3
		s0.1,1,0.3,1.4s0.5,0.6,0.8,0.8s0.7,0.3,1.1,0.3S127.8,9.8,128.1,9.6z"/>
	<path class="st0" d="M134.3,9.8l2-5.6h1.2l-2.6,6.6h-1.3L131,4.2h1.2L134.3,9.8z"/>
	<path class="st0" d="M138.4,10.6c-0.1-0.1-0.2-0.3-0.2-0.5s0.1-0.4,0.2-0.5s0.3-0.2,0.5-0.2s0.4,0.1,0.5,0.2
		c0.1,0.1,0.2,0.3,0.2,0.5s-0.1,0.4-0.2,0.5c-0.1,0.1-0.3,0.2-0.5,0.2S138.5,10.8,138.4,10.6z"/>
	<path class="st0" d="M141.1,5.7c0.3-0.5,0.6-0.9,1.1-1.2c0.5-0.3,1-0.4,1.7-0.4c0.8,0,1.5,0.2,2,0.6s0.9,0.9,1,1.6h-1.2
		c-0.1-0.4-0.3-0.7-0.7-0.9c-0.3-0.2-0.7-0.3-1.2-0.3c-0.6,0-1.1,0.2-1.5,0.6s-0.6,1-0.6,1.8s0.2,1.4,0.6,1.8
		c0.4,0.4,0.9,0.6,1.5,0.6c0.5,0,0.9-0.1,1.2-0.3s0.5-0.5,0.7-1h1.2c-0.2,0.7-0.5,1.2-1.1,1.6c-0.5,0.4-1.2,0.6-2,0.6
		c-0.6,0-1.2-0.1-1.7-0.4c-0.5-0.3-0.9-0.7-1.1-1.2c-0.3-0.5-0.4-1.1-0.4-1.8C140.7,6.8,140.8,6.2,141.1,5.7z"/>
	<path class="st0" d="M149.5,10.5c-0.5-0.3-0.9-0.7-1.2-1.2s-0.4-1.1-0.4-1.8s0.1-1.3,0.4-1.8s0.7-0.9,1.2-1.2s1.1-0.4,1.7-0.4
		s1.2,0.1,1.7,0.4s0.9,0.7,1.2,1.2s0.4,1.1,0.4,1.8c0,0.7-0.1,1.3-0.5,1.8c-0.3,0.5-0.7,0.9-1.2,1.2s-1.1,0.4-1.7,0.4
		C150.6,10.9,150,10.7,149.5,10.5z M152.3,9.6c0.3-0.2,0.6-0.5,0.8-0.8c0.2-0.4,0.3-0.8,0.3-1.3s-0.1-1-0.3-1.3
		c-0.2-0.4-0.5-0.6-0.8-0.8c-0.3-0.2-0.7-0.3-1.1-0.3c-0.4,0-0.8,0.1-1.1,0.3c-0.3,0.2-0.6,0.5-0.8,0.8C149.1,6.6,149,7,149,7.5
		s0.1,1,0.3,1.4s0.5,0.6,0.8,0.8s0.7,0.3,1.1,0.3S152,9.8,152.3,9.6z"/>
	<path class="st0" d="M165.3,4.4c0.4,0.2,0.7,0.5,0.9,1c0.2,0.4,0.3,0.9,0.3,1.5v3.9h-1V7c0-0.7-0.2-1.2-0.5-1.5S164.2,5,163.7,5
		c-0.6,0-1,0.2-1.4,0.5c-0.3,0.4-0.5,0.9-0.5,1.6v3.6h-1.1V7c0-0.7-0.2-1.2-0.5-1.5C160,5.2,159.5,5,159,5c-0.6,0-1,0.2-1.4,0.5
		c-0.3,0.4-0.5,0.9-0.5,1.6v3.6H156V4.2h1.1v0.9c0.2-0.3,0.5-0.6,0.9-0.8c0.4-0.2,0.8-0.3,1.2-0.3c0.6,0,1,0.1,1.5,0.4
		c0.4,0.2,0.7,0.6,0.9,1.1c0.2-0.5,0.5-0.8,0.9-1.1c0.4-0.3,0.9-0.4,1.4-0.4C164.4,4.1,164.9,4.2,165.3,4.4z"/>
</g>
</svg>
