<?xml version="1.0" encoding="utf-8"?>
<!-- Generator: Adobe Illustrator 25.4.1, SVG Export Plug-In . SVG Version: 6.00 Build 0)  -->
<svg version="1.1" id="Calque_1" xmlns="http://www.w3.org/2000/svg" xmlns:xlink="http://www.w3.org/1999/xlink" x="0px" y="0px"
	 viewBox="0 0 164 164" style="enable-background:new 0 0 164 164;" xml:space="preserve">
<style type="text/css">
	.st0{fill:#2A3352;}
	.st1{enable-background:new    ;}
	.st2{fill:#FFFFFF;}
</style>
<circle class="st0" cx="82" cy="82" r="82"/>
<g class="st1">
	<path class="st2" d="M26.3,92.8h11v6.5H17.9V64.8h8.4V92.8z"/>
	<path class="st2" d="M80.4,64.8v34.5H72V78.6l-7.7,20.7h-6.8l-7.8-20.8v20.8h-8.4V64.8h9.9L61,88.7l9.6-23.9
		C70.6,64.8,80.4,64.8,80.4,64.8z"/>
	<path class="st2" d="M109,66.9c2.7,1.4,4.8,3.5,6.3,6.1s2.2,5.6,2.2,9s-0.7,6.4-2.2,9s-3.6,4.7-6.3,6.1c-2.7,1.4-5.9,2.2-9.5,2.2
		h-13V64.8h12.9C103,64.8,106.2,65.5,109,66.9z M106.3,89.4c1.8-1.7,2.7-4.2,2.7-7.4c0-3.2-0.9-5.7-2.7-7.4S102,72,98.9,72h-4v20h4
		C102,92,104.5,91.2,106.3,89.4z"/>
	<path class="st2" d="M139.8,99.3l-7.2-13h-2v13h-8.4V64.8h14.1c2.7,0,5,0.5,7,1.4s3.4,2.3,4.3,3.9c1,1.7,1.4,3.5,1.4,5.5
		c0,2.3-0.6,4.3-1.9,6.1c-1.3,1.8-3.2,3.1-5.7,3.8l8,13.7L139.8,99.3L139.8,99.3z M130.6,80.3h5.2c1.5,0,2.7-0.4,3.5-1.1
		c0.8-0.8,1.2-1.8,1.2-3.2c0-1.3-0.4-2.3-1.2-3.1c-0.8-0.8-1.9-1.1-3.5-1.1h-5.2V80.3z"/>
</g>
</svg>
