<?xml version="1.0" encoding="utf-8"?>
<!-- Generator: Adobe Illustrator 26.3.1, SVG Export Plug-In . SVG Version: 6.00 Build 0)  -->
<svg version="1.1" id="Calque_2" xmlns="http://www.w3.org/2000/svg" xmlns:xlink="http://www.w3.org/1999/xlink" x="0px" y="0px"
	 viewBox="0 0 868 868" style="enable-background:new 0 0 868 868;" xml:space="preserve">
<style type="text/css">
	.st0{fill:#E9E9E8;}
	.st1{fill:none;stroke:#FFFFFF;stroke-width:13;stroke-linecap:round;stroke-linejoin:round;stroke-miterlimit:10;}
	.st2{fill:#FFFFFF;}
</style>
<rect class="st0" width="868" height="868"/>
<path class="st1" d="M541.7,530.5H326.3c-8.6,0-15.6-7-15.6-15.6V353.1c0-8.6,7-15.6,15.6-15.6h215.5c8.6,0,15.6,7,15.6,15.6v161.9
	C557.3,523.5,550.3,530.5,541.7,530.5z"/>
<path class="st2" d="M328.6,484.6v21.6c0,4.5,3.6,8.1,8.1,8.1h194.6c4.5,0,8.1-3.6,8.1-8.1v-59.6l-63.8-61.5l-72.7,76.1l-26.3-24.2
	L328.6,484.6z"/>
<circle class="st2" cx="363.2" cy="390.8" r="24"/>
</svg>
