<?xml version="1.0" encoding="UTF-8"?><svg id="rouleau" xmlns="http://www.w3.org/2000/svg" viewBox="0 0 453.54 453.54"><path d="M50.1,225.7l60.94-74.5s36.57-31.18,72.51-20.8,54.96,30.7,64.28,58.84-10.72,71.8-10.72,71.8l-51.22,77.66s33.6-79.31-29.99-118.98c-53.95-33.65-105.8,5.99-105.8,5.99Z" fill="#b2a8a3"/><path d="M18.15,317.11c-.29-.84,.9,36.74,28.84,60.82,5.7,4.92,17.58,13.08,33.23,15.15,64.76,8.58,202.47,7.28,202.47,7.28v-11.69s-183.98-.82-197.55-5.24c-13.56-4.42-50.67-19.43-66.99-66.32Z" fill="#b2a8a3"/><polygon points="283.97 386.6 362.09 263.76 362.09 272.52 283.97 398.28 283.97 386.6" fill="#b2a8a3"/><path d="M121.88,386.78s33.19-9.34,47.46-26.56c14.28-17.22,65.63-99.19,65.63-99.19,0,0,23.51,23.15,30.19,48.51,6.68,25.36,17.52,79.12,17.52,79.12l-160.81-1.88Z" fill="#f4f1ed"/><path d="M109.42,205.39l57.17-76.48s16.68-2,38.3,8.72,32.4,29.43,32.4,29.43l-55.92,77.37s-18.91-20.34-30.97-27.91-36.23-11.16-36.23-11.16" fill="#f4f1ed" opacity=".42"/><path d="M237.11,261.03l122.68,1.09-75.82,124.48-157.37-2.16s29.81-5.74,45.36-25.68c17.23-22.09,65.15-97.73,65.15-97.73Z" fill="#c6bfb5"/><g><polyline points="104.44 385.73 282.69 388.67 362.09 261.03 235.96 261.03" fill="none" stroke="#272d44" stroke-linecap="round" stroke-linejoin="round" stroke-width="3"/><line x1="174.86" y1="353.71" x2="239.5" y2="254.53" fill="none" stroke="#272d44" stroke-linecap="round" stroke-linejoin="round" stroke-width="3"/><line x1="33.58" y1="243.39" x2="108.69" y2="153.46" fill="none" stroke="#272d44" stroke-linecap="round" stroke-linejoin="round" stroke-width="3"/><path d="M98.67,165.66c13.56-20.1,35.74-34.14,61.78-36.43,45.83-4.04,86.25,29.84,90.29,75.67,1.59,18.01-2.68,35.18-11.23,49.64" fill="none" stroke="#272d44" stroke-linecap="round" stroke-linejoin="round" stroke-width="3"/><path d="M197.21,295.46c0,49.76-41.74,90.36-91.5,90.36s-88.7-40.6-88.7-90.36,40.34-90.1,90.1-90.1,90.1,40.34,90.1,90.1Z" fill="#c6bfb5" stroke="#272d44" stroke-miterlimit="10" stroke-width="3"/><circle cx="107.12" cy="295.46" r="17.02" fill="none" stroke="#272d44" stroke-linecap="round" stroke-linejoin="round" stroke-width="3"/><circle cx="107.12" cy="295.46" r="37.86" fill="none" stroke="#272d44" stroke-linecap="round" stroke-linejoin="round" stroke-width="3"/><circle cx="107.12" cy="295.46" r="63.13" fill="none" stroke="#272d44" stroke-linecap="round" stroke-linejoin="round" stroke-width="3"/><polyline points="362.09 261.03 362.09 272.52 282.69 400.35 282.69 388.67" fill="none" stroke="#272d44" stroke-linecap="round" stroke-linejoin="round" stroke-width="3"/><path d="M282.69,400.35s-184.34-1.28-202.47-7.28-63.2-13.91-63.2-97.61" fill="none" stroke="#272d44" stroke-linecap="round" stroke-linejoin="round" stroke-width="3"/></g></svg>