<svg xmlns="http://www.w3.org/2000/svg" viewBox="0 0 512 512"><defs><style>.cls-1{fill:none;}.cls-1,.cls-2{stroke:#000;stroke-linecap:round;stroke-linejoin:round;stroke-width:5px;}.cls-2{fill:#fff;}</style></defs><g id="zincerie"><path class="cls-1" d="M91.27,379.21a43.92,43.92,0,0,1,0-87.83"/><path class="cls-1" d="M47.36,110.83A43.91,43.91,0,0,1,91.27,66.92"/></g><g id="conception"><polyline class="cls-1" points="91.27 379.21 477.31 379.21 477.31 100.77 98.57 100.77 91.27 100.77 91.27 66.92 91.27 291.38"/><path class="cls-2" d="M144.73,225V459.44l327-1.17Zm54,105.08L312,408.84l-113.22.39Z"/><line class="cls-1" x1="47.36" y1="110.83" x2="47.36" y2="338.04"/><path class="cls-2" d="M273.25,209.87l-17.88-45.32,45.32,17.88L408.51,290.24c6.27,6.27,5.21,17.5-2.37,25.08s-18.8,8.64-25.07,2.37Z"/><line class="cls-1" x1="394.48" y1="276.22" x2="368.26" y2="302.44"/><polyline class="cls-1" points="297.43 181.75 293.06 202.24 272.25 207.08"/></g></svg>