<svg xmlns="http://www.w3.org/2000/svg" viewBox="0 0 512 512"><defs><style>.cls-1,.cls-3,.cls-5{fill:#fff;}.cls-2,.cls-4{fill:none;}.cls-2,.cls-3,.cls-4,.cls-5{stroke:#000;stroke-width:5px;}.cls-2,.cls-3{stroke-linecap:round;stroke-linejoin:round;}.cls-4,.cls-5{stroke-miterlimit:10;}</style></defs><g id="construction"><path class="cls-1" d="M409.89,90.68,270.08,306.14c-7.92,12.72-36.28,9.42-60.93-10.15h0c-24.68-19.51-34.4-46.35-23.83-57L363,53.57c10.6-10.68,27.91-10.9,39.52-1.76h0C414.11,61,417.86,77.92,409.89,90.68Z"/><path class="cls-2" d="M409.89,90.68,270.08,306.14c-7.92,12.72-36.28,9.42-60.93-10.15h0c-24.68-19.51-34.4-46.35-23.83-57L363,53.57c10.6-10.68,27.91-10.9,39.52-1.76h0C414.11,61,417.86,77.92,409.89,90.68Z"/><path class="cls-3" d="M281.34,104.11,137.41,77.55a12,12,0,0,0-12,12V226.06H294.87Z"/><rect class="cls-3" x="170.79" y="205.21" width="139.4" height="170.55" rx="12"/><rect class="cls-4" x="27.81" y="396.85" width="319.66" height="78.63" rx="39.32"/><rect class="cls-3" x="58.45" y="243" width="140.94" height="135.83" rx="12"/><circle class="cls-4" cx="226.62" cy="436.17" r="23.34"/><circle class="cls-4" cx="147.7" cy="436.17" r="23.34"/><circle class="cls-4" cx="68.79" cy="436.17" r="23.34"/><circle class="cls-4" cx="305.53" cy="436.17" r="23.34"/><path class="cls-2" d="M489.19,321.13a69.34,69.34,0,1,1-138.68,0"/><rect class="cls-3" x="51.45" y="226.06" width="147.94" height="41.94" rx="12"/><rect class="cls-3" x="34.96" y="268.91" width="90.89" height="90.89" rx="9.36"/><rect class="cls-5" x="105.43" y="73.47" width="184.34" height="30.64" rx="12"/><line class="cls-3" x1="149.74" y1="106.61" x2="160.47" y2="221.98"/><rect class="cls-3" x="350.51" y="297.75" width="138.68" height="27.08"/><line class="cls-2" x1="34.96" y1="295.17" x2="98.13" y2="295.17"/><line class="cls-2" x1="36.38" y1="321.69" x2="66.54" y2="321.69"/><line class="cls-4" x1="110.02" y1="378.83" x2="110.02" y2="390.87"/><line class="cls-4" x1="249.94" y1="375.77" x2="249.94" y2="396.85"/><path class="cls-5" d="M454.94,315.37a17.7,17.7,0,0,0,33.11-12.5L412.59,66.25A30.65,30.65,0,0,0,355.23,87.9Z"/><circle class="cls-4" cx="383.98" cy="77.55" r="13.94"/><circle class="cls-3" cx="470.89" cy="308.98" r="0.3"/><polygon class="cls-2" points="375.81 296.17 350.51 296.17 350.51 266.81 364.81 266.81 375.81 296.17"/></g></svg>