<svg xmlns="http://www.w3.org/2000/svg" viewBox="0 0 512 512"><defs><style>.cls-1{fill:#fff;stroke:#000;stroke-linecap:round;stroke-linejoin:round;stroke-width:5px;}</style></defs><g id="renovation"><polygon class="cls-1" points="408.46 140.83 408.46 55.97 345.56 55.97 345.56 93.9 258.29 28.79 56.55 176.67 57.37 489.98 459.2 489.98 459.56 178.96 408.46 140.83"/><rect class="cls-1" x="207.9" y="144.82" width="46.92" height="277.82" transform="translate(-132.86 246.7) rotate(-45)"/><path class="cls-1" d="M386.78,439.15h0a23.51,23.51,0,0,1-33.17,0L291.06,376.6l33.18-33.17L386.78,406A23.52,23.52,0,0,1,386.78,439.15Z"/><rect class="cls-1" x="105.47" y="194.08" width="156.16" height="83.68" rx="13.53" transform="translate(-113.06 198.89) rotate(-45)"/><path class="cls-1" d="M296.5,256.91,330.59,291,177,444.55c-8.39,8.4-22.72,7.69-32-1.57h0c-9.56-9.56-10.29-24.33-1.63-33Z"/><path class="cls-1" d="M403.61,213.25l-44.89,44.88-29.35-29.35,44.89-44.89a60.2,60.2,0,1,0,29.35,29.36Z"/></g></svg>