<?xml version="1.0" standalone="no"?>
<!DOCTYPE svg PUBLIC "-//W3C//DTD SVG 20010904//EN"
 "http://www.w3.org/TR/2001/REC-SVG-20010904/DTD/svg10.dtd">
<svg version="1.0" xmlns="http://www.w3.org/2000/svg"
 width="365.000000pt" height="77.000000pt" viewBox="0 0 365.000000 77.000000"
 preserveAspectRatio="xMidYMid meet">

<g transform="translate(0.000000,77.000000) scale(0.100000,-0.100000)"
fill="#000000" stroke="none">
<path d="M148 572 l-118 -67 0 -52 c0 -51 2 -54 40 -78 22 -14 42 -25 45 -25
3 0 5 23 5 50 0 55 1 56 106 111 l40 22 115 -67 114 -66 3 41 c2 23 1 47 -2
54 -2 7 -42 34 -88 60 -45 26 -97 56 -113 66 l-30 18 -117 -67z"/>
<path d="M964 526 c-41 -18 -61 -65 -44 -105 11 -27 27 -37 118 -72 49 -19 34
-69 -20 -69 -21 0 -31 6 -35 20 -4 15 -14 20 -40 20 -31 0 -34 -2 -28 -22 11
-37 39 -59 83 -65 79 -11 132 23 132 83 0 44 -26 71 -90 92 -46 16 -56 23 -58
45 -3 21 2 28 24 33 21 5 31 2 45 -14 18 -23 79 -31 79 -11 0 24 -24 52 -55
65 -42 17 -71 17 -111 0z"/>
<path d="M2223 520 c-55 -25 -83 -70 -83 -135 0 -119 116 -191 226 -139 79 38
105 157 50 229 -49 64 -117 80 -193 45z m124 -55 c26 -18 43 -71 36 -109 -7
-36 -57 -76 -95 -76 -19 0 -39 10 -59 29 -39 40 -41 109 -4 146 28 29 88 34
122 10z"/>
<path d="M640 380 l0 -150 30 0 c29 0 29 0 32 66 l3 66 53 -66 c47 -58 58 -66
88 -66 19 0 34 3 34 6 0 3 -27 37 -60 76 -51 61 -58 74 -47 87 7 9 35 42 61
74 l48 57 -38 0 c-36 -1 -43 -6 -89 -66 l-50 -64 -3 65 c-3 65 -3 65 -32 65
l-30 0 0 -150z"/>
<path d="M1270 380 l0 -150 30 0 30 0 0 150 0 150 -30 0 -30 0 0 -150z"/>
<path d="M1380 381 l0 -151 30 0 29 0 3 97 3 97 39 -97 c35 -90 40 -98 63 -95
21 3 31 16 62 93 l36 90 3 -92 3 -93 29 0 30 0 0 150 0 150 -34 0 c-33 0 -34
-1 -82 -112 -38 -87 -50 -107 -56 -92 -91 214 -82 199 -122 202 l-36 3 0 -150z"/>
<path d="M1770 381 l0 -151 30 0 29 0 3 97 3 97 39 -97 c35 -90 40 -98 63 -95
21 3 31 16 62 93 l36 90 3 -92 3 -93 29 0 30 0 0 150 0 150 -34 0 c-33 0 -34
-1 -82 -112 -38 -87 -50 -107 -56 -92 -91 214 -82 199 -122 202 l-36 3 0 -150z"/>
<path d="M2480 380 l0 -150 80 0 c84 0 132 15 144 45 12 33 6 66 -18 90 -23
23 -23 24 -5 41 25 23 25 78 -1 104 -17 17 -33 20 -110 20 l-90 0 0 -150z
m144 97 c11 -8 17 -23 14 -38 -3 -21 -9 -24 -50 -27 l-48 -3 0 40 c0 40 1 41
33 41 18 0 41 -6 51 -13z m20 -139 c19 -30 -4 -53 -58 -56 l-46 -3 0 41 0 41
46 -3 c31 -2 51 -9 58 -20z"/>
<path d="M2760 380 l0 -150 30 0 30 0 0 150 0 150 -30 0 -30 0 0 -150z"/>
<path d="M2870 380 l0 -150 80 0 c79 0 80 0 80 25 0 23 -3 25 -50 25 l-50 0 0
125 0 125 -30 0 -30 0 0 -150z"/>
<path d="M3060 380 l0 -150 30 0 30 0 0 150 0 150 -30 0 -30 0 0 -150z"/>
<path d="M3170 380 l0 -150 90 0 c89 0 90 0 90 25 0 24 -3 25 -60 25 l-60 0 0
40 0 40 50 0 c47 0 50 2 50 25 0 23 -3 25 -50 25 l-50 0 0 40 0 40 60 0 c53 0
60 2 60 20 0 19 -7 20 -90 20 l-90 0 0 -150z"/>
<path d="M3400 380 l0 -150 30 0 30 0 0 61 c0 51 3 60 17 57 9 -2 30 -29 47
-60 28 -52 34 -58 64 -58 17 0 32 2 32 5 0 3 -14 31 -32 62 -24 42 -28 58 -19
61 54 18 70 104 26 147 -22 23 -32 25 -110 25 l-85 0 0 -150z m152 94 c4 -3 8
-18 8 -34 0 -34 -23 -50 -69 -50 -31 0 -31 1 -31 51 l0 52 42 -7 c22 -4 45 -9
50 -12z"/>
<path d="M410 372 l0 -50 -69 -41 c-38 -22 -73 -41 -77 -41 -6 0 -123 65 -201
112 l-33 20 0 -54 0 -53 57 -33 c32 -17 85 -47 118 -66 l60 -34 115 67 115 67
0 53 c0 52 -1 53 -42 78 l-43 25 0 -50z"/>
</g>
</svg>
