<?xml version="1.0" encoding="UTF-8"?> <!-- Generator: Adobe Illustrator 23.0.6, SVG Export Plug-In . SVG Version: 6.00 Build 0) --> <svg xmlns="http://www.w3.org/2000/svg" xmlns:xlink="http://www.w3.org/1999/xlink" id="Calque_1" x="0px" y="0px" viewBox="0 0 304.4 119.8" style="enable-background:new 0 0 304.4 119.8;" xml:space="preserve"> <style type="text/css"> .st0{fill:#7EBA28;} .st1{fill:#FFFFFF;} .st2{fill:#04719F;} .st3{fill:none;stroke:#00A9D1;stroke-width:0.8;stroke-miterlimit:15.349;} .st4{fill:#03709F;} .st5{fill:#00A9D1;} .st6{fill:#81BB27;} .st7{fill:#70706F;} </style> <path class="st0" d="M116.4,46c-1.6-6.2-0.9-13.3-4.1-18.5c-3.3-5.4-10-7.8-14.8-11.8S89.1,5.5,83.4,3.1c-3.7-1.5-7.8-1.2-11.9-1 c-2.3,0.1-4.6,0.3-6.9,0.1c-6-0.4-12.5-3.4-18.7-1.8S35.4,7.6,30.2,10.9C24.9,14.2,18,15.8,14,20.5c-4,4.8-4.2,11.9-6.6,17.7 c-2.2,5.7-6.9,11-7.4,17.3c-0.4,6.1,3.5,12,5.1,18.3C6.7,80,6,87.1,9.2,92.3c3.3,5.4,10,7.8,14.8,11.8s8.4,10.2,14.1,12.6 c3.7,1.5,7.8,1.2,11.9,1c2.3-0.1,4.6-0.3,6.9-0.1c6,0.4,12.5,3.4,18.7,1.8c6.2-1.5,10.5-7.2,15.7-10.4c5.3-3.3,12.2-4.9,16.2-9.6 c4-4.8,4.2-11.9,6.6-17.7c2.3-5.7,7.1-11.1,7.5-17.3C121.9,58.2,117.9,52.3,116.4,46"></path> <path class="st1" d="M110.6,47.5C103.7,19.7,75.8,2.8,48.2,9.6c-27.5,6.9-44.3,35-37.3,62.7c6.9,27.8,34.9,44.7,62.4,37.8 C100.8,103.3,117.5,75.2,110.6,47.5"></path> <path class="st2" d="M50.1,13.8c-0.5,0.1-1-0.2-1.2-0.7c-0.1-0.5,0.2-1,0.7-1.2c0.5-0.1,1,0.2,1.2,0.7C51,13.2,50.7,13.7,50.1,13.8 M45.7,14.1c-0.2-0.5,0.1-1.1,0.6-1.2c0.5-0.2,1,0.1,1.2,0.7c0.2,0.5-0.1,1.1-0.6,1.2C46.4,14.8,45.9,14.5,45.7,14.1 M53.4,13.2 c-0.5,0.1-1-0.3-1.1-0.8s0.3-1,0.8-1.1s1,0.3,1.1,0.8S54,13.1,53.4,13.2 M42.6,15.2c-0.2-0.5,0.1-1.1,0.6-1.3s1.1,0.1,1.2,0.6 c0.2,0.5-0.1,1.1-0.6,1.3h-0.1C43.2,15.9,42.7,15.7,42.6,15.2 M56.7,12.8c-0.5,0-1-0.4-1-0.9s0.3-1,0.9-1.1c0.5,0,1,0.4,1,0.9 s-0.3,0.9-0.7,1L56.7,12.8 M39.5,16.6c-0.2-0.5,0-1.1,0.5-1.3s1.1,0,1.3,0.5c0.2,0.5,0,1.1-0.5,1.3l-0.2,0.1 C40.2,17.2,39.7,17,39.5,16.6 M60,12.7c-0.5,0-1-0.4-1-1c0-0.5,0.4-1,0.9-1s1,0.4,1,1c0,0.5-0.3,0.9-0.7,1H60 M36.5,18.2 c-0.3-0.5-0.1-1.1,0.4-1.3c0.5-0.3,1.1-0.1,1.3,0.4c0.3,0.5,0.1,1.1-0.4,1.3l-0.2,0.1C37.2,18.8,36.7,18.6,36.5,18.2 M63.3,12.7 c-0.5,0-0.9-0.5-0.9-1s0.5-0.9,1-0.9s0.9,0.5,0.9,1c0,0.4-0.3,0.8-0.7,0.9H63.3 M33.7,20c-0.3-0.5-0.2-1.1,0.3-1.3 c0.4-0.3,1-0.2,1.3,0.3s0.2,1.1-0.3,1.3c-0.1,0.1-0.2,0.1-0.3,0.1C34.3,20.5,33.9,20.4,33.7,20 M66.6,13c-0.5-0.1-0.9-0.6-0.8-1.1 s0.5-0.9,1.1-0.8c0.5,0.1,0.9,0.6,0.8,1.1c-0.1,0.4-0.3,0.7-0.7,0.8C66.8,13,66.7,13.1,66.6,13 M30.9,22c-0.3-0.4-0.2-1,0.2-1.4 c0.4-0.3,1-0.2,1.4,0.2c0.3,0.4,0.2,1-0.2,1.4c-0.1,0.1-0.2,0.1-0.4,0.2C31.6,22.5,31.2,22.4,30.9,22 M69.9,13.6 c-0.5-0.1-0.9-0.6-0.8-1.1s0.6-0.9,1.1-0.8s0.9,0.6,0.8,1.1c-0.1,0.4-0.4,0.7-0.7,0.8H69.9 M28.4,24.2c-0.4-0.4-0.3-1,0.1-1.4 s1-0.3,1.4,0.1s0.3,1-0.1,1.4c-0.1,0.1-0.2,0.2-0.4,0.2C29,24.6,28.6,24.5,28.4,24.2 M73.1,14.4c-0.5-0.1-0.8-0.7-0.7-1.2 s0.7-0.8,1.2-0.7s0.8,0.7,0.7,1.2c-0.1,0.3-0.4,0.6-0.7,0.7H73.1 M26,26.6c-0.4-0.4-0.4-1,0-1.4s1-0.4,1.4,0s0.4,1,0,1.4 c-0.1,0.1-0.3,0.2-0.5,0.3C26.6,26.9,26.2,26.9,26,26.6 M76.2,15.4c-0.5-0.2-0.8-0.7-0.6-1.2s0.7-0.8,1.2-0.6s0.8,0.7,0.6,1.2 c-0.1,0.3-0.4,0.5-0.7,0.6H76.2 M23.7,29.2c-0.4-0.4-0.5-1-0.1-1.4c0.3-0.4,1-0.5,1.4-0.1c0,0,0,0,0,0c0.4,0.3,0.5,1,0.1,1.4 c0,0,0,0,0,0c-0.1,0.2-0.3,0.3-0.5,0.3C24.3,29.4,24,29.4,23.7,29.2 M79.3,16.6c-0.5-0.2-0.7-0.8-0.5-1.3s0.8-0.7,1.3-0.5 s0.7,0.8,0.5,1.3c-0.1,0.3-0.4,0.5-0.7,0.6C79.7,16.7,79.5,16.7,79.3,16.6 M21.7,31.9c-0.4-0.3-0.5-0.9-0.2-1.4 c0.3-0.4,0.9-0.5,1.3-0.2c0.4,0.3,0.5,0.9,0.2,1.4c-0.1,0.2-0.3,0.3-0.5,0.4C22.2,32.1,21.9,32.1,21.7,31.9 M82.3,18 c-0.5-0.2-0.7-0.8-0.4-1.3c0.2-0.5,0.8-0.7,1.3-0.4s0.7,0.8,0.4,1.3c-0.1,0.3-0.4,0.4-0.6,0.5S82.5,18.1,82.3,18 M19.8,34.7 c-0.5-0.3-0.6-0.9-0.3-1.3c0.3-0.5,0.9-0.6,1.3-0.3c0.5,0.3,0.6,0.9,0.3,1.3c-0.1,0.2-0.3,0.4-0.6,0.4C20.3,34.9,20,34.9,19.8,34.7 M85.2,19.7c-0.5-0.3-0.6-0.9-0.3-1.3c0.3-0.5,0.9-0.6,1.3-0.3c0.5,0.3,0.6,0.9,0.3,1.3c-0.1,0.2-0.4,0.4-0.6,0.4 S85.4,19.8,85.2,19.7 M18.2,37.7c-0.5-0.3-0.6-0.8-0.4-1.3c0.3-0.5,0.8-0.6,1.3-0.4c0.5,0.3,0.6,0.8,0.4,1.3 c-0.1,0.2-0.4,0.4-0.6,0.5C18.6,37.8,18.4,37.8,18.2,37.7 M88,21.5c-0.4-0.3-0.5-0.9-0.2-1.4c0.3-0.4,0.9-0.5,1.3-0.2 c0.4,0.3,0.5,0.9,0.2,1.4c-0.1,0.2-0.3,0.3-0.6,0.4C88.5,21.7,88.2,21.7,88,21.5 M16.7,40.7c-0.5-0.2-0.7-0.8-0.5-1.3 s0.8-0.7,1.3-0.5s0.7,0.8,0.5,1.3c-0.1,0.3-0.4,0.5-0.6,0.5C17.1,40.8,16.9,40.8,16.7,40.7 M90.6,23.6c-0.4-0.3-0.5-1-0.1-1.4 c0,0,0,0,0,0c0.3-0.4,0.9-0.5,1.4-0.1c0.4,0.3,0.5,1,0.1,1.4c0,0,0,0,0,0c-0.1,0.2-0.3,0.3-0.5,0.3C91.1,23.8,90.8,23.8,90.6,23.6 M15.5,43.9c-0.5-0.2-0.8-0.7-0.6-1.2s0.7-0.8,1.2-0.6c0.5,0.2,0.8,0.7,0.6,1.2c-0.1,0.3-0.4,0.5-0.7,0.6C15.9,44,15.7,44,15.5,43.9 M93.1,25.8c-0.4-0.4-0.4-1,0-1.4s1-0.4,1.4,0s0.4,1,0,1.4C94.3,25.9,94.1,26,94,26C93.7,26.1,93.3,26,93.1,25.8 M14.5,47.2 C14,47,13.7,46.5,13.8,46c0.2-0.5,0.7-0.8,1.2-0.7c0.5,0.2,0.8,0.7,0.7,1.2c-0.1,0.3-0.4,0.6-0.7,0.7H14.5 M95.4,28.2 c-0.4-0.4-0.3-1,0.1-1.4s1-0.3,1.4,0.1s0.3,1-0.1,1.4c-0.1,0.1-0.2,0.2-0.4,0.2C96,28.5,95.6,28.4,95.4,28.2 M13.7,50.5 c-0.5-0.1-0.8-0.6-0.7-1.2c0.1-0.5,0.6-0.9,1.1-0.7c0.5,0.1,0.8,0.6,0.7,1.2c-0.1,0.4-0.4,0.6-0.7,0.7H13.7 M97.5,30.7 c-0.3-0.4-0.3-1,0.2-1.4c0.4-0.3,1-0.3,1.4,0.2c0.3,0.4,0.3,1-0.2,1.4c-0.1,0.1-0.2,0.1-0.4,0.2C98.2,31.1,97.8,31,97.5,30.7 M13.2,53.8c-0.5-0.1-0.9-0.6-0.8-1.1s0.6-0.9,1.1-0.8s0.9,0.6,0.8,1.1c-0.1,0.4-0.3,0.7-0.7,0.8H13.2 M99.5,33.4 c-0.3-0.4-0.2-1,0.3-1.3c0.4-0.3,1-0.2,1.3,0.3c0.3,0.4,0.2,1-0.3,1.3c-0.1,0.1-0.2,0.1-0.3,0.1C100.2,33.9,99.7,33.8,99.5,33.4 M12.9,57.2c-0.5,0-0.9-0.5-0.9-1s0.5-0.9,1-0.9s0.9,0.5,0.9,1c0,0.4-0.3,0.8-0.7,0.9H12.9 M101.3,36.2c-0.3-0.5-0.1-1.1,0.3-1.3 c0.5-0.3,1-0.1,1.3,0.4s0.1,1.1-0.3,1.3l-0.2,0.1C101.9,36.8,101.5,36.6,101.3,36.2 M12.8,60.6c-0.5,0-1-0.4-1-1c0-0.5,0.4-1,1-1 c0.5,0,1,0.4,1,1c0,0.5-0.3,0.8-0.7,0.9L12.8,60.6 M102.8,39.2c-0.2-0.5,0-1.1,0.4-1.3c0.5-0.2,1.1,0,1.3,0.4c0.2,0.5,0,1.1-0.4,1.3 l-0.2,0.1C103.5,39.8,103,39.6,102.8,39.2 M13,64c-0.5,0-1-0.4-1-0.9s0.4-1,0.9-1s1,0.4,1,0.9s-0.3,0.9-0.7,1H13 M104.2,42.2 c-0.2-0.5,0-1.1,0.5-1.3s1.1,0,1.3,0.5s0,1.1-0.5,1.3h-0.1C105,42.9,104.4,42.7,104.2,42.2C104.2,42.2,104.2,42.2,104.2,42.2 M13.4,67.4c-0.5,0.1-1-0.3-1.1-0.8s0.3-1,0.8-1.1s1,0.3,1.1,0.8s-0.2,1-0.7,1.1H13.4 M105.3,45.4c-0.2-0.5,0.1-1.1,0.6-1.2 c0.5-0.2,1.1,0.1,1.2,0.6c0.2,0.5-0.1,1.1-0.6,1.2h-0.1C106,46.1,105.5,45.8,105.3,45.4 M14.1,70.7c-0.5,0.1-1-0.2-1.1-0.8 c-0.1-0.5,0.2-1,0.7-1.1s1,0.2,1.1,0.8C15,70.1,14.6,70.6,14.1,70.7 M106.3,48.7L106.3,48.7c-0.1-0.6,0.2-1.1,0.7-1.3 c0.5-0.1,1,0.2,1.2,0.7v0.2c0.1,0.5-0.2,1-0.7,1.2C106.9,49.5,106.4,49.2,106.3,48.7 M13.8,73.3c-0.1-0.5,0.2-1.1,0.7-1.2 s1,0.1,1.2,0.7c0.1,0.5-0.2,1.1-0.7,1.2S13.9,73.8,13.8,73.3 M108.1,52.7c-0.5,0.1-1-0.3-1.1-0.8s0.3-1,0.8-1.1s1,0.3,1.1,0.8 C108.9,52.1,108.6,52.6,108.1,52.7 M14.9,76.6c-0.2-0.5,0.1-1.1,0.6-1.2c0.5-0.2,1.1,0.1,1.2,0.6c0.2,0.5-0.1,1.1-0.6,1.2H16 c-0.4,0.2-0.9,0-1-0.4C14.9,76.7,14.9,76.7,14.9,76.6 M108.5,56.1c-0.5,0.1-1-0.3-1.1-0.9c-0.1-0.5,0.3-1,0.9-1.1 c0.5-0.1,1,0.3,1.1,0.9c0,0.5-0.3,0.9-0.7,1L108.5,56.1 M16.2,79.9c-0.2-0.5,0-1.1,0.5-1.3s1.1,0,1.3,0.5s0,1.1-0.5,1.3l-0.2,0.1 C16.8,80.5,16.4,80.3,16.2,79.9 M108.6,59.5c-0.5,0-1-0.4-1-0.9s0.4-1,0.9-1s1,0.4,1,0.9s-0.3,0.9-0.7,1H108.6 M17.7,83 c-0.3-0.5-0.1-1.1,0.4-1.3c0.5-0.3,1.1-0.1,1.3,0.4s0.1,1.1-0.4,1.3l-0.2,0.1C18.3,83.6,17.9,83.4,17.7,83 M108.6,62.9 c-0.5,0-0.9-0.5-0.9-1s0.5-1,1-0.9c0.5,0,0.9,0.5,0.9,1c0,0.4-0.3,0.8-0.7,0.9H108.6 M19.4,86c-0.3-0.5-0.2-1.1,0.3-1.3 c0.4-0.3,1-0.1,1.3,0.3s0.1,1-0.3,1.3c-0.1,0.1-0.2,0.1-0.3,0.1C20.1,86.5,19.6,86.4,19.4,86 M108.2,66.3c-0.5-0.1-0.9-0.5-0.9-1.1 c0.1-0.5,0.5-0.9,1.1-0.9c0.5,0.1,0.9,0.5,0.9,1.1c0,0.4-0.3,0.7-0.7,0.8C108.5,66.3,108.4,66.3,108.2,66.3 M21.3,88.9 c-0.3-0.4-0.2-1,0.2-1.4c0.4-0.3,1-0.2,1.3,0.2c0.3,0.4,0.2,1-0.2,1.4c-0.1,0.1-0.2,0.1-0.3,0.2C22,89.3,21.6,89.2,21.3,88.9 M107.7,69.6c-0.5-0.1-0.9-0.6-0.8-1.1s0.6-0.9,1.1-0.8s0.9,0.6,0.8,1.1c-0.1,0.4-0.4,0.7-0.7,0.8C108,69.7,107.8,69.7,107.7,69.6 M23.5,91.6c-0.3-0.4-0.3-1,0.1-1.4c0.4-0.3,1-0.3,1.4,0.1c0.3,0.4,0.3,1-0.1,1.4c-0.1,0.1-0.2,0.2-0.4,0.2 C24.1,92,23.7,91.9,23.5,91.6 M106.9,72.9c-0.5-0.1-0.8-0.7-0.7-1.2s0.7-0.8,1.2-0.7s0.8,0.7,0.7,1.2c-0.1,0.4-0.4,0.6-0.7,0.7 C107.2,73,107.1,73,106.9,72.9 M25.8,94.2c-0.4-0.4-0.4-1,0-1.4s1-0.4,1.4,0s0.4,1,0,1.4c-0.1,0.1-0.2,0.2-0.4,0.2 C26.4,94.5,26.1,94.4,25.8,94.2 M105.9,76.2c-0.5-0.2-0.8-0.7-0.6-1.2s0.7-0.8,1.2-0.6s0.8,0.7,0.6,1.2c-0.1,0.3-0.4,0.6-0.7,0.6 C106.3,76.3,106.1,76.2,105.9,76.2 M28.3,96.6c-0.4-0.4-0.4-1-0.1-1.4c0.4-0.4,1-0.4,1.4-0.1c0.4,0.4,0.4,1,0.1,1.4 c-0.1,0.2-0.3,0.3-0.5,0.3C28.9,96.9,28.6,96.8,28.3,96.6 M104.6,79.3c-0.5-0.2-0.7-0.8-0.5-1.3s0.8-0.7,1.3-0.5s0.7,0.8,0.5,1.3 c-0.1,0.3-0.4,0.5-0.7,0.6C105.1,79.4,104.8,79.4,104.6,79.3 M31,98.8c-0.4-0.3-0.5-0.9-0.2-1.4c0.3-0.4,0.9-0.5,1.4-0.2 c0.4,0.3,0.5,0.9,0.2,1.4c-0.1,0.2-0.3,0.3-0.5,0.4C31.5,99,31.2,99,31,98.8 M103.2,82.4c-0.5-0.2-0.7-0.8-0.4-1.3 c0.2-0.5,0.8-0.7,1.3-0.4c0.5,0.2,0.7,0.8,0.4,1.3c-0.1,0.3-0.4,0.4-0.6,0.5C103.6,82.5,103.4,82.5,103.2,82.4 M33.8,100.8 c-0.4-0.3-0.6-0.9-0.3-1.3s0.9-0.6,1.3-0.3s0.6,0.9,0.3,1.3c-0.1,0.2-0.3,0.3-0.6,0.4C34.3,101,34,101,33.8,100.8 M101.5,85.4 c-0.5-0.3-0.6-0.9-0.3-1.3c0.3-0.5,0.9-0.6,1.3-0.3c0.5,0.3,0.6,0.9,0.3,1.3c-0.1,0.2-0.3,0.4-0.6,0.4 C102,85.5,101.7,85.5,101.5,85.4 M36.7,102.6c-0.5-0.3-0.6-0.9-0.4-1.3c0.3-0.5,0.9-0.6,1.3-0.4c0.5,0.3,0.6,0.9,0.4,1.3 c-0.1,0.2-0.4,0.4-0.6,0.5S37,102.8,36.7,102.6 M99.6,88.2c-0.4-0.3-0.6-0.9-0.2-1.3c0.3-0.4,0.9-0.5,1.3-0.2 c0.4,0.3,0.5,0.9,0.2,1.4c-0.1,0.2-0.3,0.3-0.6,0.4C100.2,88.4,99.9,88.4,99.6,88.2 M39.8,104.3c-0.5-0.2-0.7-0.8-0.5-1.3 s0.8-0.7,1.3-0.5s0.7,0.8,0.5,1.3c-0.1,0.3-0.4,0.5-0.6,0.5C40.2,104.4,40,104.4,39.8,104.3 M97.6,90.9c-0.4-0.3-0.5-0.9-0.2-1.4 c0.3-0.4,0.9-0.5,1.4-0.2c0.4,0.4,0.5,0.9,0.2,1.4c-0.1,0.2-0.3,0.3-0.5,0.3C98.1,91.1,97.8,91.1,97.6,90.9 M42.9,105.7 c-0.5-0.2-0.7-0.8-0.5-1.3s0.8-0.7,1.2-0.5c0.5,0.2,0.7,0.8,0.5,1.3c-0.1,0.3-0.4,0.5-0.7,0.6C43.3,105.7,43.1,105.7,42.9,105.7 M95.3,93.4c-0.4-0.4-0.4-1-0.1-1.4c0.4-0.4,1-0.4,1.4,0c0.4,0.4,0.4,1,0.1,1.4c-0.1,0.1-0.3,0.2-0.5,0.3 C95.9,93.7,95.6,93.6,95.3,93.4 M46.2,106.8c-0.5-0.2-0.8-0.7-0.6-1.2s0.7-0.8,1.2-0.6s0.8,0.7,0.6,1.2c-0.1,0.3-0.4,0.6-0.7,0.7 C46.6,106.9,46.4,106.9,46.2,106.8 M92.9,95.8c-0.4-0.4-0.4-1,0-1.4s1-0.3,1.4,0c0.4,0.4,0.4,1,0,1.4C94.1,95.9,94,96,93.8,96 C93.5,96.1,93.2,96,92.9,95.8 M49.5,107.7c-0.5-0.1-0.8-0.7-0.7-1.2s0.6-0.8,1.2-0.7c0.5,0.1,0.8,0.6,0.7,1.2 c-0.1,0.4-0.4,0.6-0.7,0.7C49.8,107.8,49.7,107.8,49.5,107.7 M90.3,98c-0.3-0.4-0.3-1,0.1-1.4c0.4-0.3,1-0.3,1.4,0.1 c0.3,0.4,0.3,1-0.1,1.4c-0.1,0.1-0.2,0.2-0.4,0.2C91,98.4,90.6,98.3,90.3,98 M52.9,108.4c-0.5-0.1-0.9-0.6-0.8-1.1s0.6-0.9,1.1-0.8 s0.9,0.6,0.8,1.1c-0.1,0.4-0.4,0.7-0.7,0.8C53.2,108.5,53,108.5,52.9,108.4 M87.6,100c-0.3-0.4-0.2-1,0.2-1.4c0.4-0.3,1-0.2,1.3,0.2 c0.3,0.4,0.2,1-0.2,1.4c-0.1,0.1-0.2,0.1-0.3,0.1C88.2,100.4,87.8,100.3,87.6,100 M56.3,108.9c-0.5,0-0.9-0.5-0.9-1.1 c0-0.5,0.5-0.9,1.1-0.9c0.5,0,0.9,0.5,0.9,1.1c0,0.4-0.3,0.8-0.7,0.8C56.5,108.9,56.4,108.9,56.3,108.9 M84.7,101.8 c-0.3-0.5-0.1-1.1,0.3-1.3c0.5-0.3,1.1-0.1,1.3,0.3c0.3,0.5,0.1,1.1-0.3,1.3c-0.1,0.1-0.2,0.1-0.3,0.1 C85.4,102.3,84.9,102.1,84.7,101.8 M59.8,109.1c-0.5,0-1-0.5-0.9-1c0-0.5,0.5-1,1-0.9c0.5,0,1,0.5,0.9,1c0,0.4-0.3,0.8-0.7,0.9H59.8 M81.7,103.3c-0.2-0.5-0.1-1.1,0.4-1.3s1.1-0.1,1.3,0.4s0.1,1.1-0.4,1.3l-0.2,0.1C82.4,104,81.9,103.8,81.7,103.3 M63.2,109 c-0.5,0-1-0.4-1-0.9s0.4-1,0.9-1s1,0.4,1,0.9s-0.3,0.9-0.7,1H63.2 M78.6,104.7c-0.2-0.5,0-1.1,0.5-1.3s1.1,0,1.3,0.5s0,1.1-0.5,1.3 h-0.1C79.4,105.4,78.8,105.2,78.6,104.7C78.6,104.7,78.6,104.7,78.6,104.7 M66.6,108.8c-0.5,0.1-1-0.3-1.1-0.9 c-0.1-0.5,0.3-1,0.8-1.1s1,0.3,1.1,0.8s-0.3,0.9-0.7,1.1L66.6,108.8 M75.5,105.8c-0.2-0.5,0.1-1.1,0.6-1.2c0.5-0.2,1.1,0.1,1.2,0.6 c0.2,0.5-0.1,1.1-0.6,1.2h-0.1c-0.4,0.2-0.9,0-1-0.4C75.5,105.9,75.5,105.9,75.5,105.8 M70,108.2c-0.5,0.1-1-0.2-1.1-0.8 c-0.1-0.5,0.2-1,0.8-1.1c0.5-0.1,1,0.2,1.1,0.8C70.9,107.6,70.6,108.1,70,108.2 M72.2,106.8c-0.1-0.5,0.2-1.1,0.7-1.2s1,0.2,1.2,0.7 c0.1,0.5-0.2,1-0.7,1.2C72.9,107.6,72.4,107.3,72.2,106.8"></path> <path class="st3" d="M131,60.2h4.5c3.8,0,6-2,6-6.2V43.4c0-3.7-2-5.9-5.7-5.9H131V60.2z M134.3,40.5h1.5c1.9,0,2.5,1,2.5,2.8v11 c0,2-0.7,2.8-2.5,2.8h-1.5V40.5z M145.1,43.1l3.3-2.4v-3.3h-3.3V43.1z M151.9,60.2h9.7V57h-6.5v-6.7h5.6v-3.1h-5.6v-6.7h6.5v-3.1 h-9.7C151.9,37.4,151.9,60.2,151.9,60.2z M154.5,36.5h2.1l4.2-4.5h-3.5L154.5,36.5z M174.7,53.8h-3.3v1.1c0,1.8-1.2,2.3-2,2.3 c-1.5,0-2-1-2-2.3V43.2c0-1.5,0.4-2.7,2-2.7c1.2,0,2,1.1,2,2.4V44h3.3v-1.3c0-3.2-2.2-5.4-5.2-5.4c-3.2,0-5.3,2.3-5.3,5.2V55 c0,4.2,2.9,5.4,5.4,5.4c2.9,0,5.2-2.5,5.2-5.3L174.7,53.8L174.7,53.8L174.7,53.8z M177.8,54.9c0,3.7,2.8,5.6,5.5,5.6 s5.5-1.9,5.5-5.6v-12c0-3.7-2.8-5.6-5.5-5.6s-5.5,1.9-5.5,5.6V54.9z M181.1,42.8c0-1.6,1-2.3,2.2-2.3s2.2,0.7,2.2,2.3v12 c0,1.6-1,2.3-2.2,2.3s-2.2-0.7-2.2-2.3V42.8z M192.2,60.2h3.3V46.6h0.1l5,13.7h3.1V37.5h-3.3v13.7h-0.1l-4.9-13.7h-3.1v22.7 C192.3,60.2,192.2,60.2,192.2,60.2z M206.9,54.9c0,3.7,2.8,5.6,5.5,5.6s5.5-1.9,5.5-5.6v-12c0-3.7-2.8-5.6-5.5-5.6s-5.5,1.9-5.5,5.6 V54.9z M210.2,42.8c0-1.6,1-2.3,2.2-2.3s2.2,0.7,2.2,2.3v12c0,1.6-1,2.3-2.2,2.3s-2.2-0.7-2.2-2.3V42.8z M221.4,60.2h3.3V46.4h0.1 l3.2,9.8h1.6l3.2-9.8h0.1v13.8h3.3V37.5H233l-4.2,12.1h-0.1l-4.2-12.1h-3.1L221.4,60.2L221.4,60.2z M239.9,60.2h3.3V37.5h-3.3 C239.9,37.5,239.9,60.2,239.9,60.2z M247,60.2h9.7V57h-6.5v-6.7h5.6v-3.1h-5.6v-6.7h6.5v-3.1H247L247,60.2L247,60.2z M270,42.4 c0-2.5-2.2-5.2-5.4-5.2c-3.7,0-5.6,2.8-5.6,6.2c0,2.8,0.7,4.7,3.6,5.9l2.3,1c1.6,0.6,1.9,1,1.9,3.5c0,2.1-0.2,3.4-2.4,3.4 c-1.7,0-2.3-1.2-2.3-2.3v-1h-3.3V55c0,3.1,2.4,5.4,5.6,5.4c4.2,0,5.6-2.8,5.6-6.7c0-3.3-0.5-5.1-3.4-6.2l-2.5-1 c-1.7-0.7-1.9-1.3-1.9-3c0-1.5,0.4-2.9,2.2-2.9c1.7,0,2.3,1.2,2.3,2.8V44h3.3L270,42.4L270,42.4z"></path> <path class="st4" d="M130.3,9.3h3v17.6h5.8v3h-8.8V9.3z M143.2,23.7v2c0,0.9,0.5,1.4,1.4,1.4c1.1,0,1.4-0.8,1.4-1.5h3 c0,1.2-0.4,2.3-1.2,3.1s-1.9,1.3-3.2,1.3c-1.8,0-3.2-0.8-3.8-2.1c-0.4-0.8-0.5-1.8-0.5-3v-4.8c0-1.2,0.1-2.2,0.5-3 c0.7-1.3,2.1-2.1,3.8-2.1c2.7,0,4.4,2,4.4,4.6v4.1L143.2,23.7L143.2,23.7z M143.2,21.4h2.9v-1.7c0-1.1-0.5-1.7-1.4-1.7 s-1.4,0.6-1.4,1.7v1.7H143.2z M156.3,19.3c0-1-0.7-1.5-1.5-1.5c-0.9,0-1.4,0.7-1.4,1.5c0,0.5,0.1,1.1,1.2,1.5l1.7,0.7 c2.2,0.8,2.9,2.4,2.9,4.1c0,2.4-1.9,4.4-4.4,4.4c-2.3,0-4.3-1.5-4.4-4.4h2.8c0.1,0.8,0.5,1.6,1.6,1.6c0.8,0,1.6-0.6,1.6-1.6 c0-0.8-0.3-1.4-1.5-1.8l-1.4-0.5c-1.9-0.7-3-2.1-3-4.1c0-2.5,2-4.3,4.3-4.3c2.4,0,4.1,1.9,4.2,4.3L156.3,19.3L156.3,19.3z M266,17.7 c0-1.1-0.8-1.7-1.7-1.7c-1.1,0-1.7,0.8-1.7,1.7c0,0.6,0.2,1.2,1.4,1.7l2,0.8c2.5,1,3.4,2.8,3.4,4.8c0,2.8-2.1,5.1-5.1,5.1 c-2.7,0-5-1.8-5.1-5.1h3.2c0.1,0.9,0.6,1.9,1.8,1.9c1,0,1.9-0.7,1.9-1.8c0-0.9-0.4-1.6-1.7-2.1l-1.6-0.6c-2.1-0.8-3.5-2.4-3.5-4.7 c0-2.9,2.3-5,5-5c2.8,0,4.8,2.1,4.8,5H266z M252.9,7.7h3.4v5.2h2.1v2.7h-2.1V25c0,1.6,0.6,1.7,2.1,1.7v3.2H257c-3.1,0-4.1-2.2-4.1-4 V15.6h-1.7v-2.7h1.7C252.9,12.9,252.9,7.7,252.9,7.7z M247,22.6c-0.4-0.1-0.6-0.1-0.9-0.1c-1.5,0-2.7,0.6-2.7,2.4 c0,1.3,0.7,2.2,1.8,2.2s1.8-0.8,1.8-2.2L247,22.6L247,22.6z M247,28.2c-1,1.2-1.7,1.9-3.4,1.9c-1.6,0-3.7-0.8-3.7-4.5 c0-3.9,1.1-5.8,5.4-5.8c0.5,0,0.9,0.1,1.6,0.1v-1.8c0-1.1-0.4-2-1.7-2c-0.9,0-1.7,0.6-1.9,1.7H240c0.1-1.5,0.6-2.8,1.5-3.7 s2.2-1.4,3.7-1.4c2.8,0,5.1,1.8,5.1,5.4v11.8H247V28.2z M231.7,25c0,1.1,0.6,1.7,1.7,1.7c1.3,0,1.6-1,1.7-1.7h3.4 c0,1.4-0.5,2.7-1.4,3.6s-2.1,1.5-3.7,1.5c-2.1,0-3.7-1-4.5-2.4c-0.5-0.9-0.6-2.1-0.6-3.5v-5.6c0-1.4,0.2-2.6,0.6-3.5 c0.8-1.5,2.4-2.4,4.5-2.4c3.2,0,5.1,2.3,5.1,5.4h-3.4c0-1.4-0.6-2-1.7-2s-1.7,0.7-1.7,1.9L231.7,25L231.7,25z M221.9,12.9h3.4v17 h-3.4V12.9z M221.9,6h3.4v3.4h-3.4C221.9,9.4,221.9,6,221.9,6z M214.9,15.6h-1.7v-2.7h1.7v-2.3c0-3.3,2.2-4.6,4.4-4.6h1.6v3.2h-1.5 c-0.6,0-1,0.4-1,1.2v2.5h2.5v2.7h-2.5v14.3H215V15.6H214.9z M208.2,12.9h3.4v17h-3.4C208.2,29.9,208.2,12.9,208.2,12.9z M208.2,6 h3.4v3.4h-3.4C208.2,9.4,208.2,6,208.2,6z M201.4,7.7h3.4v5.2h2.1v2.7h-2.1V25c0,1.6,0.6,1.7,2.1,1.7v3.2h-1.4c-3.1,0-4.1-2.2-4.1-4 V15.6h-1.7v-2.7h1.7C201.4,12.9,201.4,7.7,201.4,7.7z M192.1,12.9h3.4v1.8c1.4-1.2,2.5-2,4.5-2v3.6c-0.3-0.1-0.7-0.2-1-0.2 c-1.4,0-3.5,0.9-3.5,3.7v10.1h-3.4C192.1,29.9,192.1,12.9,192.1,12.9z M182.8,20h3.4v-1.9c0-1.3-0.6-1.9-1.7-1.9s-1.7,0.7-1.7,1.9 V20z M182.8,22.7V25c0,1.1,0.6,1.7,1.7,1.7c1.3,0,1.6-1,1.7-1.7h3.4c0,1.4-0.5,2.7-1.4,3.6s-2.1,1.5-3.7,1.5c-2.1,0-3.7-1-4.5-2.4 c-0.5-0.9-0.6-2.1-0.6-3.5v-5.6c0-1.4,0.2-2.6,0.6-3.5c0.8-1.5,2.4-2.4,4.5-2.4c3.2,0,5.1,2.3,5.1,5.3v4.7H182.8z M170.9,25 c0,1.1,0.6,1.7,1.7,1.7c1.3,0,1.6-1,1.7-1.7h3.4c0,1.4-0.5,2.7-1.4,3.6s-2.1,1.5-3.7,1.5c-2.1,0-3.7-1-4.5-2.4 c-0.5-0.9-0.6-2.1-0.6-3.5v-5.6c0-1.4,0.2-2.6,0.6-3.5c0.8-1.5,2.4-2.4,4.5-2.4c3.2,0,5.1,2.3,5.1,5.4h-3.4c0-1.4-0.6-2-1.7-2 s-1.7,0.7-1.7,1.9L170.9,25L170.9,25z"></path> <path class="st5" d="M131,37.5h4.8c3.7,0,5.7,2.2,5.7,5.9V54c0,4.2-2.2,6.2-6,6.2H131V37.5z M134.3,57.2h1.5c1.8,0,2.5-0.9,2.5-2.8 v-11c0-1.8-0.6-2.8-2.5-2.8h-1.5C134.3,40.6,134.3,57.2,134.3,57.2z M145.1,37.5h3.3v3.3l-3.3,2.4V37.5z M151.8,37.5h9.7v3.1H155 v6.7h5.6v3.1H155V57h6.5v3.3h-9.7V37.5z M157.3,31.9h3.5l-4.2,4.5h-2.1C154.5,36.4,157.3,31.9,157.3,31.9z M174.6,55.2 c0,2.8-2.3,5.3-5.2,5.3c-2.5,0-5.4-1.2-5.4-5.4V42.5c0-3,2.1-5.2,5.3-5.2c3,0,5.2,2.3,5.2,5.4V44h-3.3v-1.1c0-1.3-0.8-2.4-2-2.4 c-1.6,0-2,1.1-2,2.7v11.6c0,1.3,0.5,2.3,2,2.3c0.9,0,2-0.5,2-2.3v-1.1h3.3L174.6,55.2L174.6,55.2z M177.7,42.9 c0-3.7,2.8-5.6,5.5-5.6s5.5,1.9,5.5,5.6v12c0,3.7-2.8,5.6-5.5,5.6s-5.5-1.9-5.5-5.6V42.9z M181,54.9c0,1.6,1,2.3,2.2,2.3 s2.2-0.7,2.2-2.3v-12c0-1.6-1-2.3-2.2-2.3s-2.2,0.7-2.2,2.3V54.9z M192,37.5h3.1l4.9,13.7h0.1V37.5h3.3v22.8h-3.1l-5-13.7h-0.1v13.7 H192L192,37.5L192,37.5z M206.8,42.9c0-3.7,2.8-5.6,5.5-5.6s5.5,1.9,5.5,5.6v12c0,3.7-2.8,5.6-5.5,5.6s-5.5-1.9-5.5-5.6V42.9z M210,54.9c0,1.6,1,2.3,2.2,2.3s2.2-0.7,2.2-2.3v-12c0-1.6-1-2.3-2.2-2.3s-2.2,0.7-2.2,2.3V54.9z M221.2,37.5h3.1l4.2,12.1h0.1 l4.2-12.1h3.2v22.8h-3.3V46.4h-0.1l-3.2,9.8h-1.6l-3.2-9.8h-0.1v13.8h-3.3L221.2,37.5L221.2,37.5z M239.7,37.5h3.3v22.8h-3.3V37.5z M246.7,37.5h9.7v3.1H250v6.7h5.6v3.1H250V57h6.5v3.3h-9.7L246.7,37.5L246.7,37.5z M269.7,44h-3.3v-0.7c0-1.5-0.6-2.8-2.3-2.8 c-1.8,0-2.2,1.4-2.2,2.9c0,1.8,0.2,2.4,1.9,3l2.5,1c2.9,1.1,3.4,2.9,3.4,6.2c0,3.8-1.4,6.7-5.6,6.7c-3.2,0-5.6-2.3-5.6-5.4v-1.2h3.3 v1c0,1.2,0.6,2.3,2.3,2.3c2.2,0,2.4-1.3,2.4-3.4c0-2.4-0.3-2.8-1.9-3.5l-2.3-1c-2.8-1.2-3.5-3-3.5-5.9c0-3.5,1.9-6.2,5.6-6.2 c3.3,0,5.4,2.6,5.4,5.1L269.7,44L269.7,44z"></path> <path class="st6" d="M138.7,87.3c2.7,0,4.9-0.9,6.5-2.6c1.7-1.7,2.5-4,2.5-6.8c0-2.4-0.8-4.6-2.3-6.5s-3.9-2.8-7.1-2.8h-7.2v18.7 H138.7z M136.9,72.9h1.5c1.1,0,1.9,0.5,2.5,1.5s0.9,2.2,0.9,3.5c0,1.6-0.3,2.8-1,3.8c-0.7,0.9-1.5,1.4-2.4,1.4h-1.5V72.9z M150.1,68.6V73h1.9l-1.9,3.7h2.2l2.6-4.2v-3.9H150.1z M163.5,82.9v-3.1h6.8v-4.2h-6.8v-2.7h8.4v-4.3h-14.1v18.7H172v-4.5 L163.5,82.9L163.5,82.9L163.5,82.9z M163.1,67l6.5-2.3l-1-2.7l-6.3,3.1L163.1,67z M190.2,68.6h-4.7v5.5c0,1.7,0.1,3.3,0.4,4.9 c-0.4-1-1.1-2.2-2-3.6l-4.4-6.8h-5.4v18.7h4.7v-9.1c0-0.8-0.2-1.9-0.5-3.1l2,3.9l5.1,8.3h4.7L190.2,68.6L190.2,68.6L190.2,68.6z M199.1,82.9v-3.1h6.8v-4.2h-6.8v-2.7h8.4v-4.3h-14.1v18.7h14.1v-4.5L199.1,82.9L199.1,82.9z M223.1,79.2c1.3-0.6,2.2-1.4,2.7-2.2 c0.4-0.8,0.7-1.8,0.7-2.9c0-1.7-0.6-3-1.8-4s-2.9-1.5-5-1.5h-9.8v18.7h5.7v-7.2h1.8l2.7,7.2h6.4L223.1,79.2L223.1,79.2z M215.6,72.6 h2.6c1.5,0,2.2,0.6,2.2,1.8c0,0.6-0.2,1-0.7,1.3c-0.4,0.3-1,0.5-1.7,0.5h-2.5L215.6,72.6L215.6,72.6L215.6,72.6z M236.9,76.8v4h3.1 c0,0.7-0.3,1.3-0.7,1.7c-0.5,0.4-1.1,0.6-1.8,0.6c-0.9,0-1.6-0.3-2.2-1s-0.9-2.1-0.9-4.3c0-3.6,0.9-5.4,2.8-5.4c1.4,0,2.3,1,2.6,2.9 l5.6-0.5c-0.4-2.1-1.3-3.7-2.6-4.8c-1.4-1.1-3.2-1.7-5.4-1.7c-3,0-5.2,1-6.7,2.9s-2.3,4.3-2.3,7c0,2.9,0.8,5.2,2.3,6.8 c1.6,1.7,3.5,2.5,5.9,2.5c2.3,0,4-0.7,5.2-2.2c0.3,0.5,0.5,1.2,0.8,2h2.8V76.8H236.9L236.9,76.8z M248.4,68.6v18.7h5.7V68.6 C254.1,68.6,248.4,68.6,248.4,68.6z M262.8,82.9v-3.1h6.9v-4.1h-6.9v-2.8h8.5v-4.3h-14.1v18.7h14.1v-4.4 C271.3,82.9,262.8,82.9,262.8,82.9z"></path> <path class="st5" d="M48.2,74.5c0.7,5.9-3.4,11.6-9.4,12.3c-5.2,0.6-11.5-1.2-12.6-9.8L23,50.9c-0.8-6.2,3.1-11.5,9.7-12.3 C39,37.8,44.2,42,45,48.6l0.3,2.7l-6.8,0.8l-0.3-2.3c-0.3-2.7-2.2-4.7-4.8-4.4c-3.4,0.4-3.9,2.8-3.5,6l3,24.2 c0.3,2.7,1.7,4.7,4.7,4.4c1.9-0.2,4.1-1.6,3.7-5.3L41,72.4l6.8-0.8C47.8,71.6,48.2,74.5,48.2,74.5z M48.6,37.1l20.2-2.5l0.8,6.4 l-13.4,1.7l1.7,13.9l11.7-1.4l0.8,6.4L58.7,63l1.7,13.9l13.4-1.7l0.8,6.8l-20.2,2.5C54.4,84.5,48.6,37.1,48.6,37.1z M72.5,34.1 l20.2-2.5l0.8,6.4l-13.4,1.7l1.7,13.9l11.7-1.4l0.8,6.4L82.6,60l1.7,13.9l13.4-1.7l0.8,6.8l-20.2,2.5C78.3,81.5,72.5,34.1,72.5,34.1 z"></path> <g> <path class="st7" d="M141.4,97.5c0.1-0.2,0.2-0.3,0.3-0.4c0.2-0.1,0.3-0.1,0.5-0.1s0.3,0.1,0.4,0.3c0.1,0.1,0.1,0.3,0,0.5 c-0.2,0.5-0.3,0.9-0.6,1.3c-0.2,0.4-0.4,0.6-0.7,0.9c-0.2,0.2-0.5,0.4-0.8,0.5s-0.6,0.1-0.8,0.1s-0.5,0-0.7-0.1l-0.6-0.3 c-0.2-0.1-0.3-0.3-0.4-0.5s-0.1-0.4-0.1-0.7s0-0.5,0.1-0.8l1.4-3.9c0-0.1,0-0.1,0.1-0.2v-0.2c0-0.2,0-0.3-0.1-0.4s-0.2-0.1-0.4-0.1 c-0.3,0-0.5,0.1-0.7,0.3c-0.2,0.2-0.4,0.5-0.5,0.9l-1.9,5.3c-0.1,0.2-0.2,0.3-0.3,0.4c-0.1,0.1-0.2,0.2-0.4,0.2h-0.4 c-0.2,0-0.3-0.1-0.4-0.2c-0.1-0.1-0.2-0.2-0.2-0.4c0-0.1,0-0.3,0.1-0.5l1.7-4.9c0.1-0.2,0.1-0.4,0.2-0.6v-0.4 c0-0.1-0.1-0.2-0.1-0.2c-0.1,0-0.1-0.1-0.2-0.1c-0.3,0-0.5,0.1-0.7,0.3c-0.2,0.2-0.4,0.5-0.6,0.8l-1.9,5.5 c-0.1,0.2-0.2,0.3-0.3,0.4s-0.2,0.2-0.4,0.2h-0.4c-0.2,0-0.3-0.1-0.4-0.2c-0.1-0.1-0.2-0.2-0.2-0.3v-0.5l2.6-7.3 c0.1-0.2,0.2-0.4,0.4-0.5s0.3-0.1,0.5-0.1s0.3,0.1,0.5,0.2l0.3,0.3l0.1-0.1c0.1-0.1,0.2-0.1,0.3-0.2s0.2-0.1,0.4-0.2 c0.2,0,0.3-0.1,0.5,0c0.3,0,0.6,0.1,0.7,0.2c0.2,0.1,0.3,0.3,0.5,0.5c0.2-0.3,0.5-0.4,0.9-0.6c0.3-0.1,0.7-0.2,1-0.2s0.5,0,0.7,0.1 s0.4,0.2,0.6,0.4s0.3,0.3,0.4,0.5s0.1,0.4,0.1,0.7s0,0.5-0.1,0.8l-1.6,4.4c0,0.1,0,0.1-0.1,0.2v0.2c0,0.1,0,0.2,0.1,0.3 s0.1,0.1,0.2,0.1c0.2,0,0.5-0.1,0.8-0.4C140.9,98.6,141.2,98.1,141.4,97.5"></path> <g> <path id="B" class="st7" d="M144.1,93.5c-0.2,0-0.4-0.1-0.6-0.2c-0.2-0.2-0.2-0.4-0.2-0.6s0.1-0.4,0.2-0.6 c0.2-0.2,0.4-0.2,0.6-0.2s0.4,0.1,0.6,0.2c0.2,0.2,0.2,0.4,0.2,0.6s-0.1,0.4-0.2,0.6C144.5,93.4,144.3,93.5,144.1,93.5 M142.7,98.8V99c0,0.1,0,0.2,0.1,0.2c0.1,0.1,0.2,0.1,0.3,0.1s0.2,0,0.3-0.1s0.2-0.2,0.4-0.3c0.1-0.1,0.2-0.3,0.4-0.5 c0.1-0.2,0.3-0.5,0.4-0.8c0.1-0.2,0.2-0.3,0.4-0.4c0.2-0.1,0.3-0.1,0.5-0.1s0.3,0.1,0.4,0.2s0.1,0.3,0.1,0.5 c-0.2,0.5-0.4,1-0.6,1.3c-0.2,0.4-0.5,0.6-0.7,0.9c-0.2,0.2-0.5,0.4-0.8,0.5s-0.5,0.1-0.8,0.1c-0.2,0-0.5,0-0.7-0.1l-0.6-0.3 c-0.2-0.1-0.3-0.3-0.4-0.5s-0.1-0.4-0.1-0.6v-0.3c0-0.1,0.1-0.2,0.1-0.3c0.1-0.2,0.2-0.5,0.3-0.8l0.9-2.4c0.1-0.3,0.2-0.5,0.4-0.6 s0.4-0.1,0.6-0.1s0.3,0.2,0.4,0.3c0.1,0.2,0.1,0.4,0,0.7L142.7,98.8L142.7,98.8z"></path> </g> <path class="st7" d="M150.2,97.6c0.1-0.2,0.2-0.3,0.3-0.4c0.2-0.1,0.3-0.1,0.5-0.1s0.3,0.1,0.4,0.2s0.1,0.3,0,0.5 c-0.2,0.5-0.4,0.9-0.6,1.3s-0.5,0.6-0.7,0.9c-0.3,0.2-0.5,0.4-0.8,0.5s-0.5,0.1-0.8,0.1c-0.2,0-0.4,0-0.6-0.1s-0.4-0.2-0.5-0.3 c-0.2-0.1-0.3-0.3-0.4-0.5s-0.1-0.4-0.1-0.6s0-0.5,0.1-0.7l0.7-2.1v-0.2c0-0.1,0-0.2-0.1-0.2c-0.1-0.1-0.1-0.1-0.2-0.1 s-0.3,0.1-0.5,0.2s-0.3,0.3-0.5,0.6c-0.1,0.2-0.2,0.5-0.3,0.8l-0.6,1.8l-0.3,0.8c-0.1,0.2-0.1,0.3-0.2,0.4s-0.2,0.2-0.4,0.2 c-0.1,0-0.3,0.1-0.4,0.1s-0.2,0-0.3-0.1s-0.2-0.2-0.2-0.3v-0.4l1.7-4.8c0-0.1,0.1-0.3,0.2-0.3c0.1-0.1,0.3-0.1,0.4-0.1 s0.3,0,0.4,0.1s0.2,0.1,0.2,0.2c0.3-0.2,0.6-0.2,1-0.2c0.2,0,0.4,0,0.6,0.1s0.3,0.2,0.5,0.3c0.1,0.1,0.2,0.3,0.3,0.4 c0.1,0.2,0.1,0.4,0.1,0.6s0,0.4-0.1,0.6l-0.8,2.3c0,0.1-0.1,0.2-0.1,0.3c0,0.2,0.1,0.3,0.3,0.3s0.5-0.1,0.8-0.4 C149.7,98.7,150,98.2,150.2,97.6"></path> <g> <path class="st7" d="M152.9,93.5c-0.2,0-0.4-0.1-0.6-0.2c-0.2-0.2-0.2-0.4-0.2-0.6s0.1-0.4,0.2-0.6c0.2-0.2,0.4-0.2,0.6-0.2 s0.4,0.1,0.6,0.2c0.2,0.2,0.2,0.4,0.2,0.6s-0.1,0.4-0.2,0.6C153.3,93.4,153.1,93.5,152.9,93.5 M151.5,98.8V99c0,0.1,0,0.2,0.1,0.2 c0.1,0.1,0.2,0.1,0.3,0.1s0.2,0,0.3-0.1s0.2-0.2,0.4-0.3c0.1-0.1,0.2-0.3,0.4-0.5c0.1-0.2,0.3-0.5,0.4-0.8 c0.1-0.2,0.2-0.3,0.4-0.4c0.2-0.1,0.3-0.1,0.5-0.1s0.3,0.1,0.4,0.2s0.1,0.3,0.1,0.5c-0.2,0.5-0.4,1-0.6,1.3 c-0.2,0.4-0.5,0.6-0.7,0.9c-0.2,0.2-0.5,0.4-0.8,0.5s-0.5,0.1-0.8,0.1c-0.2,0-0.5,0-0.7-0.1l-0.6-0.3c-0.2-0.1-0.3-0.3-0.4-0.5 s-0.1-0.4-0.1-0.6v-0.3c0-0.1,0.1-0.2,0.1-0.3c0.1-0.2,0.2-0.5,0.3-0.8l0.9-2.4c0.1-0.3,0.2-0.5,0.4-0.6s0.4-0.1,0.6-0.1 s0.3,0.2,0.4,0.3c0.1,0.2,0.1,0.4,0,0.7L151.5,98.8L151.5,98.8z"></path> </g> <path class="st7" d="M155.5,97.4c0.1,0.1,0.2,0.3,0.2,0.5s0,0.4-0.1,0.6c-0.1,0.2-0.2,0.3-0.4,0.4c-0.2,0.1-0.4,0.1-0.7,0.1 l0.3,0.3c0.1,0.1,0.3,0.1,0.5,0.1s0.3-0.1,0.5-0.2c0.1-0.1,0.2-0.2,0.3-0.4c0.1-0.3,0.1-0.6,0-0.9s-0.3-0.6-0.5-0.8L155.5,97.4z M158.8,97.6c0.1-0.2,0.2-0.3,0.3-0.4c0.2-0.1,0.3-0.1,0.5,0c0.2,0,0.3,0.1,0.4,0.2s0.1,0.2,0.1,0.4c-0.2,0.5-0.4,0.9-0.6,1.2 c-0.3,0.3-0.6,0.6-0.9,0.8c-0.4,0.2-0.7,0.4-1.2,0.5c-0.4,0.1-0.9,0.2-1.5,0.2h-0.6c-0.3,0-0.6-0.1-0.8-0.2 c-0.3-0.1-0.5-0.2-0.7-0.4s-0.4-0.4-0.5-0.6s-0.2-0.5-0.2-0.7s0-0.3,0.1-0.5c0-0.2,0.1-0.3,0.2-0.5s0.2-0.3,0.3-0.4 s0.3-0.2,0.5-0.2l1.2-2.4c0.1-0.2,0.2-0.3,0.4-0.4c0.1-0.1,0.2-0.1,0.4-0.2h0.4c0.1,0,0.2,0.1,0.3,0.1c0.1,0.1,0.2,0.1,0.2,0.2 c0.1,0.1,0.1,0.2,0.1,0.3v0.3c0,0.2-0.1,0.3-0.2,0.4l-0.3,0.3c0,0.2,0.1,0.3,0.2,0.5s0.2,0.3,0.3,0.5s0.3,0.5,0.4,0.8 s0.2,0.6,0.2,0.9v0.4C158.2,98.7,158.5,98.2,158.8,97.6"></path> <g> <path id="C" class="st7" d="M162.4,97.6c0.1-0.2,0.2-0.3,0.4-0.4c0.2-0.1,0.3-0.1,0.5-0.1s0.3,0.1,0.4,0.2s0.1,0.3,0,0.5 c-0.3,0.9-0.7,1.5-1.2,2s-1.1,0.7-1.8,0.7c-0.3,0-0.5,0-0.8-0.1c-0.2-0.1-0.5-0.2-0.6-0.3c-0.2-0.1-0.3-0.3-0.4-0.5 s-0.2-0.4-0.2-0.7c0-0.2,0-0.4,0.1-0.7c0.1-0.2,0.1-0.4,0.2-0.6s0.1-0.4,0.2-0.6s0.1-0.4,0.2-0.6s0.1-0.4,0.2-0.6h-0.3 c-0.2,0-0.3-0.1-0.4-0.2s-0.1-0.3-0.1-0.4c0-0.2,0.1-0.3,0.2-0.4s0.3-0.2,0.6-0.2h0.4l0.8-2.2c0.1-0.3,0.2-0.4,0.4-0.5 s0.4-0.1,0.6-0.1s0.3,0.1,0.4,0.3c0.1,0.1,0.1,0.3,0.1,0.5l-0.7,1.9h0.5c0.2,0,0.4,0.1,0.5,0.2s0.1,0.3,0.1,0.4 c0,0.2-0.1,0.3-0.2,0.4s-0.3,0.2-0.6,0.2h-0.7l-1,2.8v0.2c0,0.2,0.1,0.3,0.2,0.4c0.1,0.1,0.3,0.1,0.4,0.1c0.3,0,0.6-0.1,0.9-0.4 C161.9,98.6,162.2,98.2,162.4,97.6"></path> </g> <path class="st7" d="M165.3,95.7c-0.1,0-0.2,0-0.3,0.1s-0.2,0.2-0.3,0.4l-0.2,0.6c0.1,0.1,0.2,0.1,0.3,0.1h0.4 c0.1,0,0.2-0.1,0.3-0.1c0.1-0.1,0.2-0.2,0.2-0.3v-0.2c0-0.1,0-0.3-0.1-0.4C165.6,95.8,165.5,95.7,165.3,95.7 M166.3,93.5v0.2 c0,0.1-0.1,0.1-0.1,0.1c-0.1,0-0.2,0.1-0.3,0.1s-0.3,0-0.4-0.1l-0.3-0.3l-1.2-1.8c0-0.1-0.1-0.1,0-0.2c0-0.1,0.1-0.1,0.1-0.1 c0.2-0.1,0.3-0.1,0.5-0.1s0.4,0,0.6,0.2c0.2,0.1,0.3,0.3,0.5,0.5L166.3,93.5L166.3,93.5z M167.6,97.6c0.1-0.2,0.2-0.3,0.3-0.4 c0.2-0.1,0.3-0.1,0.5-0.1s0.3,0.1,0.4,0.2s0.1,0.3,0,0.5c-0.2,0.5-0.4,0.9-0.7,1.3c-0.3,0.3-0.6,0.6-0.9,0.8s-0.7,0.4-1.1,0.5 s-0.7,0.1-1.1,0.1s-0.7,0-1.1-0.1c-0.3-0.1-0.6-0.2-0.8-0.4l-0.6-0.6c-0.1-0.2-0.2-0.5-0.2-0.8v-0.4c0-0.1,0.1-0.2,0.1-0.4L163,96 c0.1-0.3,0.2-0.5,0.4-0.7s0.3-0.4,0.5-0.5l0.6-0.3c0.2-0.1,0.5-0.1,0.7-0.1c0.3,0,0.6,0,0.8,0.1s0.4,0.2,0.6,0.4s0.3,0.3,0.4,0.6 c0.1,0.2,0.1,0.4,0.1,0.7c0,0.2,0,0.4-0.1,0.6l-0.3,0.6c-0.1,0.2-0.3,0.3-0.5,0.5l-0.6,0.3c-0.2,0.1-0.4,0.1-0.7,0.1 c-0.2,0-0.4,0-0.6-0.1s-0.4-0.1-0.5-0.2l-0.1,0.2c0,0.1-0.1,0.2-0.1,0.3c0,0.2,0.1,0.4,0.3,0.6s0.5,0.2,0.9,0.2 c0.2,0,0.4,0,0.7-0.1c0.2-0.1,0.5-0.2,0.7-0.3s0.4-0.3,0.6-0.5C167.3,98.2,167.5,97.9,167.6,97.6"></path> <path class="st7" d="M172.8,97.6c0.1-0.2,0.2-0.3,0.3-0.4c0.2-0.1,0.3-0.1,0.5,0c0.2,0,0.3,0.1,0.4,0.2s0.1,0.3,0.1,0.4 c-0.3,0.9-0.7,1.6-1.2,2c-0.5,0.5-1,0.7-1.6,0.7c-0.2,0-0.4,0-0.6-0.1s-0.4-0.2-0.5-0.3s-0.3-0.3-0.3-0.5c-0.1-0.2-0.1-0.4-0.1-0.6 s0-0.4,0.1-0.7l0.5-1.3v-0.3c0-0.1-0.1-0.1-0.2-0.2s-0.2-0.1-0.2-0.1c-0.1,0-0.2-0.1-0.3-0.1l-0.6,1.6c-0.1,0.2-0.2,0.3-0.3,0.4 c-0.2,0.1-0.3,0.1-0.5,0.1s-0.3-0.1-0.4-0.2s-0.1-0.3,0-0.5l0.8-2c-0.2-0.2-0.3-0.4-0.3-0.7v-0.2c0-0.1,0-0.2,0.1-0.2 c0.1-0.2,0.2-0.3,0.3-0.5c0.2-0.1,0.3-0.2,0.6-0.2c0.1,0,0.3,0,0.4,0.1l0.3,0.3c0.1,0.1,0.1,0.2,0.2,0.4v0.4c0.1,0,0.3,0.1,0.5,0.2 l0.6,0.3c0.2,0.1,0.4,0.3,0.5,0.4c0.1,0.2,0.2,0.4,0.2,0.6v0.3c0,0.1,0,0.2-0.1,0.3l-0.6,1.7v0.2c0,0.1,0,0.1,0.1,0.2 c0,0.1,0.1,0.1,0.2,0.1s0.2,0,0.3-0.1l0.4-0.4c0.1-0.2,0.2-0.3,0.3-0.6C172.6,98.1,172.7,97.8,172.8,97.6"></path> <path class="st7" d="M175.7,95.7c-0.1,0-0.2,0-0.3,0.1c-0.1,0.1-0.2,0.2-0.3,0.4l-0.2,0.6c0.1,0.1,0.2,0.1,0.3,0.1h0.4 c0.1,0,0.2-0.1,0.3-0.1c0.1-0.1,0.2-0.2,0.2-0.3v-0.2c0-0.1,0-0.3-0.1-0.4S175.8,95.7,175.7,95.7 M178,97.6 c0.1-0.2,0.2-0.3,0.3-0.4c0.2-0.1,0.3-0.1,0.5-0.1s0.3,0.1,0.4,0.2s0.1,0.3,0,0.5c-0.2,0.5-0.4,0.9-0.7,1.3 c-0.3,0.3-0.6,0.6-0.9,0.8s-0.7,0.4-1.1,0.5s-0.7,0.1-1.1,0.1s-0.7,0-1.1-0.1c-0.3-0.1-0.6-0.2-0.8-0.4l-0.6-0.6 c-0.1-0.2-0.2-0.5-0.2-0.8v-0.4c0-0.1,0.1-0.2,0.1-0.4l0.6-1.8c0.1-0.3,0.2-0.5,0.4-0.7s0.3-0.4,0.5-0.5l0.6-0.3 c0.2-0.1,0.5-0.1,0.7-0.1c0.3,0,0.6,0,0.8,0.1s0.4,0.2,0.6,0.4s0.3,0.3,0.4,0.6c0.1,0.2,0.1,0.5,0.1,0.7c0,0.2,0,0.4-0.1,0.6 l-0.3,0.6c-0.1,0.2-0.3,0.3-0.5,0.5l-0.6,0.3c-0.2,0.1-0.4,0.1-0.7,0.1c-0.2,0-0.4,0-0.6-0.1s-0.4-0.1-0.5-0.2l-0.1,0.2 c0,0.1-0.1,0.2-0.1,0.3c0,0.2,0.1,0.4,0.3,0.6s0.5,0.2,0.9,0.2c0.2,0,0.4,0,0.7-0.1c0.2-0.1,0.5-0.2,0.7-0.3s0.4-0.3,0.6-0.5 C177.7,98.2,177.8,97.9,178,97.6 M183.9,99h0.2c0.1,0,0.2,0,0.2-0.1c0.1-0.1,0.2-0.1,0.3-0.3c0.1-0.1,0.2-0.3,0.2-0.5l0.4-1.1 c0.1-0.2,0.1-0.4,0.1-0.6c0-0.1,0-0.3-0.1-0.3c0-0.1-0.1-0.1-0.1-0.2h-0.4c-0.1,0-0.2,0.1-0.2,0.2c-0.1,0.1-0.2,0.3-0.3,0.5 l-0.5,1.6c0,0.1,0,0.1-0.1,0.2v0.2c0,0.1,0,0.1,0.1,0.2C183.7,98.9,183.8,98.9,183.9,99 M188.1,97.6c0-0.1,0.1-0.2,0.2-0.3 s0.2-0.1,0.3-0.2h0.3c0.1,0,0.2,0.1,0.3,0.1l0.2,0.2v0.3c-0.2,0.5-0.4,0.9-0.6,1.3c-0.2,0.3-0.5,0.6-0.7,0.9 c-0.3,0.2-0.5,0.4-0.8,0.5s-0.5,0.1-0.8,0.1s-0.5-0.1-0.8-0.2c-0.2-0.1-0.4-0.3-0.6-0.4c-0.2,0.2-0.4,0.3-0.7,0.4 c-0.2,0.1-0.5,0.1-0.7,0.1s-0.4,0-0.6-0.1s-0.4-0.2-0.5-0.3s-0.3-0.3-0.4-0.5s-0.1-0.4-0.1-0.6v-0.3c0-0.1,0-0.2,0.1-0.3l1-2.7 c0.1-0.2,0.2-0.4,0.3-0.5l0.4-0.4c0.1-0.1,0.3-0.2,0.5-0.2s0.3-0.1,0.5-0.1s0.5,0,0.7,0.1s0.4,0.2,0.6,0.4l0.8-2.4 c0.1-0.2,0.2-0.4,0.3-0.5s0.2-0.2,0.4-0.2h0.4c0.1,0,0.2,0.1,0.3,0.2s0.1,0.2,0.2,0.4c0,0.1,0,0.3-0.1,0.5l-2,5.9V99 c0,0.1,0,0.2,0.1,0.2c0.1,0.1,0.1,0.1,0.2,0.1c0.2,0,0.5-0.1,0.7-0.4C187.6,98.6,187.8,98.2,188.1,97.6"></path> <path class="st7" d="M190.9,95.7c-0.1,0-0.2,0-0.3,0.1c-0.1,0.1-0.2,0.2-0.3,0.4l-0.2,0.6c0.1,0.1,0.2,0.1,0.3,0.1h0.4 c0.1,0,0.2-0.1,0.3-0.1c0.1-0.1,0.2-0.2,0.2-0.3v-0.2c0-0.1,0-0.3-0.1-0.4C191.2,95.8,191.1,95.7,190.9,95.7 M193.2,97.6 c0.1-0.2,0.2-0.3,0.3-0.4c0.2-0.1,0.3-0.1,0.5-0.1s0.3,0.1,0.4,0.2s0.1,0.3,0,0.5c-0.2,0.5-0.4,0.9-0.7,1.3 c-0.3,0.3-0.6,0.6-0.9,0.8s-0.7,0.4-1.1,0.5s-0.7,0.1-1.1,0.1s-0.7,0-1.1-0.1c-0.3-0.1-0.6-0.2-0.8-0.4l-0.6-0.6 c-0.1-0.2-0.2-0.5-0.2-0.8v-0.4c0-0.1,0.1-0.2,0.1-0.4l0.6-1.8c0.1-0.3,0.2-0.5,0.4-0.7s0.3-0.4,0.5-0.5l0.6-0.3 c0.2-0.1,0.5-0.1,0.7-0.1c0.3,0,0.6,0,0.8,0.1s0.4,0.2,0.6,0.4s0.3,0.3,0.4,0.6c0.1,0.2,0.1,0.4,0.1,0.7c0,0.2,0,0.4-0.1,0.6 l-0.3,0.6c-0.1,0.2-0.3,0.3-0.5,0.5l-0.6,0.3c-0.2,0.1-0.4,0.1-0.7,0.1c-0.2,0-0.4,0-0.6-0.1s-0.4-0.1-0.5-0.2l-0.1,0.2 c0,0.1-0.1,0.2-0.1,0.3c0,0.2,0.1,0.4,0.3,0.6s0.5,0.2,0.9,0.2c0.2,0,0.4,0,0.7-0.1c0.2-0.1,0.5-0.2,0.7-0.3s0.4-0.3,0.6-0.5 C192.9,98.2,193.1,97.9,193.2,97.6 M198.8,98.9v0.2c0,0.1,0,0.1,0.1,0.2s0.1,0.1,0.2,0.1c0.2,0,0.5-0.1,0.8-0.4s0.5-0.7,0.8-1.4 c0.1-0.2,0.2-0.4,0.4-0.5s0.3-0.1,0.5-0.1s0.3,0.1,0.4,0.3c0.1,0.1,0.1,0.3,0,0.5c-0.2,0.5-0.4,1-0.6,1.3c-0.2,0.4-0.5,0.6-0.7,0.9 c-0.3,0.2-0.5,0.4-0.8,0.4c-0.3,0.1-0.5,0.1-0.8,0.1c-0.2,0-0.4,0-0.7-0.1c-0.2-0.1-0.4-0.2-0.5-0.3c-0.2-0.1-0.3-0.3-0.4-0.5 s-0.1-0.4-0.1-0.6s0-0.4,0.1-0.7l2-5.9c0.1-0.2,0.1-0.3,0.3-0.4c0.1-0.1,0.2-0.2,0.4-0.2h0.4c0.1,0,0.2,0.1,0.3,0.2 s0.2,0.2,0.2,0.3s0,0.3-0.1,0.5L198.8,98.9L198.8,98.9z"></path> <g> <path id="D" class="st7" d="M202.3,99h0.2c0.1,0,0.1,0,0.2-0.1s0.2-0.1,0.3-0.3c0.1-0.1,0.2-0.3,0.2-0.5l0.4-1.1 c0.1-0.2,0.1-0.4,0.1-0.6c0-0.1,0-0.3-0.1-0.3c0-0.1-0.1-0.1-0.1-0.2h-0.4c-0.1,0-0.2,0.1-0.2,0.2c-0.1,0.1-0.2,0.3-0.3,0.5 l-0.5,1.6c0,0.1,0,0.1-0.1,0.2v0.2c0,0.1,0,0.1,0.1,0.2C202.1,98.9,202.2,98.9,202.3,99 M206.2,97.8c0-0.2,0.1-0.3,0.2-0.4 s0.2-0.1,0.3-0.2h0.3c0.1,0,0.2,0.1,0.3,0.1c0.1,0.1,0.1,0.2,0.1,0.3s0,0.3-0.1,0.4c0,0.1-0.1,0.2-0.1,0.3s-0.1,0.1-0.1,0.2 c-0.2,0.4-0.4,0.7-0.6,0.9c-0.2,0.3-0.4,0.5-0.6,0.6s-0.4,0.3-0.7,0.3c-0.2,0.1-0.4,0.1-0.7,0.1h-0.3c-0.1,0-0.3,0-0.4-0.1 c-0.2,0-0.3-0.1-0.4-0.2l-0.3-0.3c-0.2,0.2-0.4,0.3-0.6,0.4s-0.5,0.1-0.7,0.1s-0.4,0-0.6-0.1s-0.4-0.2-0.5-0.3s-0.3-0.3-0.3-0.5 c-0.1-0.2-0.1-0.4-0.1-0.6v-0.3c0-0.1,0-0.2,0.1-0.3l1-2.7c0.2-0.4,0.4-0.7,0.7-0.9c0.3-0.2,0.6-0.3,1-0.3c0.3,0,0.5,0,0.7,0.1 s0.4,0.1,0.5,0.2c0.1-0.2,0.3-0.2,0.5-0.3h0.5c0.2,0.1,0.3,0.2,0.4,0.3c0.1,0.2,0.1,0.4,0,0.6l-1.2,3.3c0,0.1-0.1,0.2-0.1,0.3 c0,0.2,0.1,0.3,0.3,0.3s0.5-0.1,0.7-0.4C205.8,98.7,206,98.3,206.2,97.8"></path> </g> <path class="st7" d="M217.6,91.7c0.2,0,0.3,0.1,0.4,0.2s0.1,0.3,0.1,0.4c0,0.2-0.1,0.3-0.2,0.4s-0.3,0.2-0.6,0.2h-1.6l-2.4,6.9 c-0.1,0.2-0.2,0.4-0.4,0.5s-0.4,0.1-0.6,0.1c-0.2,0-0.4-0.1-0.5-0.3c-0.1-0.2-0.1-0.4-0.1-0.6L214,93h-1.7c-0.2,0-0.3-0.1-0.5-0.2 c-0.1-0.1-0.2-0.2-0.2-0.4c0-0.2,0.1-0.3,0.2-0.4s0.3-0.2,0.6-0.2h5.2V91.7z M220.4,97.6c0.1-0.2,0.2-0.3,0.3-0.4 c0.2-0.1,0.3-0.1,0.5,0c0.2,0,0.3,0.1,0.4,0.2s0.1,0.3,0.1,0.4c-0.3,0.9-0.7,1.6-1.2,2c-0.5,0.5-1,0.7-1.6,0.7 c-0.2,0-0.4,0-0.6-0.1s-0.4-0.2-0.5-0.3s-0.3-0.3-0.3-0.5c-0.1-0.2-0.1-0.4-0.1-0.6s0-0.4,0.1-0.7L218,97v-0.3 c0-0.1-0.1-0.1-0.2-0.2s-0.2-0.1-0.2-0.1c-0.1,0-0.2-0.1-0.3-0.1l-0.5,1.4c0,0.1-0.2,0.8-0.4,1.3c0,0.2-0.3,0.6-0.4,0.8 c-0.9,1.6-1.2,0.1-1.3,0s0.7-1.9,0.8-2.1l0.8-2c-0.2-0.2-0.3-0.4-0.3-0.7v-0.2c0-0.1,0-0.2,0.1-0.2c0.1-0.2,0.2-0.3,0.3-0.5 c0.2-0.1,0.3-0.2,0.6-0.2c0.1,0,0.3,0,0.4,0.1l0.3,0.3c0.1,0.1,0.1,0.2,0.2,0.4v0.4c0.1,0,0.3,0.1,0.5,0.2l0.6,0.3 c0.2,0.1,0.4,0.3,0.5,0.5s0.2,0.4,0.2,0.6V97c0,0.1,0,0.2-0.1,0.3L219,99v0.2c0,0,0,0.1,0.1,0.2c0,0.1,0.1,0.1,0.2,0.1 s0.2,0,0.3-0.1L220,99c0.1-0.2,0.2-0.3,0.3-0.6C220.2,98.1,220.3,97.8,220.4,97.6"></path> <g> <path class="st7" d="M223.3,99h0.2c0.1,0,0.1,0,0.2-0.1s0.2-0.1,0.3-0.3c0.1-0.1,0.2-0.3,0.2-0.5l0.4-1.1c0.1-0.2,0.1-0.4,0.1-0.6 c0-0.1,0-0.3-0.1-0.3c0-0.1-0.1-0.1-0.1-0.2h-0.4c-0.1,0-0.2,0.1-0.2,0.2c-0.1,0.1-0.2,0.3-0.3,0.5l-0.5,1.6c0,0.1,0,0.1-0.1,0.2 v0.2c0,0.1,0,0.1,0.1,0.2C223.1,98.9,223.2,98.9,223.3,99 M227.2,97.8c0-0.2,0.1-0.3,0.2-0.4s0.2-0.1,0.3-0.2h0.3 c0.1,0,0.2,0.1,0.3,0.1c0.1,0.1,0.1,0.2,0.1,0.3s0,0.3-0.1,0.4c0,0.1-0.1,0.2-0.1,0.3s-0.1,0.1-0.1,0.2c-0.2,0.4-0.4,0.7-0.6,0.9 c-0.2,0.3-0.4,0.5-0.6,0.6s-0.4,0.3-0.7,0.3c-0.2,0.1-0.4,0.1-0.7,0.1h-0.3c-0.1,0-0.3,0-0.4-0.1c-0.2,0-0.3-0.1-0.4-0.2l-0.3-0.3 c-0.2,0.2-0.4,0.3-0.6,0.4s-0.5,0.1-0.7,0.1s-0.4,0-0.6-0.1s-0.4-0.2-0.5-0.3s-0.3-0.3-0.3-0.5c-0.1-0.2-0.1-0.4-0.1-0.6v-0.3 c0-0.1,0-0.2,0.1-0.3l1-2.7c0.2-0.4,0.4-0.7,0.7-0.9c0.3-0.2,0.6-0.3,1-0.3c0.3,0,0.5,0,0.7,0.1s0.4,0.1,0.5,0.2 c0.1-0.2,0.3-0.2,0.5-0.3h0.5c0.2,0.1,0.3,0.2,0.4,0.3c0.1,0.2,0.1,0.4,0,0.6l-1.2,3.3c0,0.1-0.1,0.2-0.1,0.3 c0,0.2,0.1,0.3,0.3,0.3s0.5-0.1,0.7-0.4C226.8,98.7,227,98.3,227.2,97.8"></path> </g> <path class="st7" d="M233,97.6c0.1-0.2,0.2-0.3,0.3-0.4c0.2-0.1,0.3-0.1,0.5-0.1s0.3,0.1,0.4,0.2s0.1,0.3,0,0.5 c-0.2,0.5-0.4,0.9-0.6,1.3s-0.5,0.6-0.7,0.9c-0.3,0.2-0.5,0.4-0.8,0.5s-0.5,0.1-0.8,0.1c-0.2,0-0.4,0-0.6-0.1s-0.4-0.2-0.5-0.3 c-0.2-0.1-0.3-0.3-0.4-0.5s-0.1-0.4-0.1-0.6s0-0.5,0.1-0.7l0.7-2.1v-0.2c0-0.1,0-0.2-0.1-0.2c-0.1-0.1-0.1-0.1-0.2-0.1 s-0.3,0.1-0.5,0.2s-0.3,0.3-0.5,0.6c-0.1,0.2-0.2,0.5-0.3,0.8l-0.6,1.8L228,100c-0.1,0.2-0.1,0.3-0.3,0.4c-0.1,0.1-0.2,0.2-0.4,0.2 c-0.1,0-0.3,0.1-0.4,0.1s-0.2,0-0.3-0.1s-0.2-0.2-0.2-0.3v-0.4l1.7-4.8c0-0.1,0.1-0.3,0.2-0.3c0.1-0.1,0.3-0.1,0.4-0.1 s0.3,0,0.4,0.1s0.2,0.1,0.2,0.2c0.3-0.2,0.6-0.2,1-0.2c0.2,0,0.4,0,0.6,0.1s0.3,0.2,0.5,0.3c0.1,0.1,0.2,0.3,0.3,0.4 c0.1,0.2,0.1,0.4,0.1,0.6s0,0.4-0.1,0.6l-0.8,2.3c0,0.1-0.1,0.2-0.1,0.3c0,0.2,0.1,0.3,0.3,0.3s0.5-0.1,0.8-0.4 C232.5,98.7,232.8,98.2,233,97.6"></path> <path class="st7" d="M235.2,97.4c0.1,0.1,0.2,0.3,0.2,0.5s0,0.4-0.1,0.6c-0.1,0.2-0.2,0.3-0.4,0.4c-0.2,0.1-0.4,0.1-0.7,0.1 l0.3,0.3c0.1,0.1,0.3,0.1,0.5,0.1s0.3-0.1,0.5-0.2c0.1-0.1,0.2-0.2,0.3-0.4c0.1-0.3,0.1-0.6,0-0.9s-0.3-0.6-0.5-0.8L235.2,97.4z M238.4,97.6c0.1-0.2,0.2-0.3,0.3-0.4c0.2-0.1,0.3-0.1,0.5,0c0.2,0,0.3,0.1,0.4,0.2s0.1,0.2,0.1,0.4c-0.2,0.5-0.4,0.9-0.6,1.2 c-0.3,0.3-0.6,0.6-0.9,0.8c-0.4,0.2-0.7,0.4-1.2,0.5c-0.4,0.1-0.9,0.2-1.5,0.2h-0.6c-0.3,0-0.6-0.1-0.8-0.2 c-0.3-0.1-0.5-0.2-0.7-0.4s-0.4-0.4-0.5-0.6s-0.2-0.5-0.2-0.7s0-0.3,0.1-0.5c0-0.2,0.1-0.3,0.2-0.5s0.2-0.3,0.3-0.4 s0.3-0.2,0.5-0.2l1.2-2.4c0.1-0.2,0.2-0.3,0.4-0.4c0.1-0.1,0.2-0.1,0.4-0.2h0.4c0.1,0,0.2,0.1,0.3,0.1c0.1,0.1,0.2,0.1,0.2,0.2 c0.1,0.1,0.1,0.2,0.1,0.3v0.3c0,0.2-0.1,0.3-0.2,0.4l-0.3,0.3c0,0.2,0.1,0.3,0.2,0.5s0.2,0.3,0.3,0.5s0.3,0.5,0.4,0.8 s0.2,0.6,0.2,0.9v0.4C237.8,98.7,238.2,98.2,238.4,97.6"></path> <g> <path class="st7" d="M241.2,93.5c-0.2,0-0.4-0.1-0.6-0.2c-0.2-0.2-0.2-0.4-0.2-0.6s0.1-0.4,0.2-0.6c0.2-0.2,0.4-0.2,0.6-0.2 s0.4,0.1,0.6,0.2c0.2,0.2,0.2,0.4,0.2,0.6s-0.1,0.4-0.2,0.6C241.6,93.4,241.4,93.5,241.2,93.5 M239.8,98.8V99c0,0.1,0,0.2,0.1,0.2 c0.1,0.1,0.2,0.1,0.3,0.1s0.2,0,0.3-0.1s0.2-0.2,0.4-0.3c0.1-0.1,0.2-0.3,0.4-0.5c0.1-0.2,0.3-0.5,0.4-0.8 c0.1-0.2,0.2-0.3,0.4-0.4c0.2-0.1,0.3-0.1,0.5-0.1c0.2,0,0.3,0.1,0.4,0.2c0.1,0.1,0.1,0.3,0.1,0.5c-0.2,0.5-0.4,1-0.6,1.3 c-0.2,0.4-0.5,0.6-0.7,0.9c-0.2,0.2-0.5,0.4-0.8,0.5c-0.3,0.1-0.5,0.1-0.8,0.1c-0.2,0-0.5,0-0.7-0.1l-0.6-0.3 c-0.2-0.1-0.3-0.3-0.4-0.5c-0.1-0.2-0.1-0.4-0.1-0.6v-0.3c0-0.1,0.1-0.2,0.1-0.3c0.1-0.2,0.2-0.5,0.3-0.8l0.9-2.4 c0.1-0.3,0.2-0.5,0.4-0.6c0.2-0.1,0.4-0.1,0.6-0.1s0.3,0.2,0.4,0.3c0.1,0.2,0.1,0.4,0,0.7L239.8,98.8L239.8,98.8z"></path> </g> <path class="st7" d="M245.2,97.6c0.1-0.2,0.2-0.3,0.4-0.4c0.2-0.1,0.3-0.1,0.5-0.1s0.3,0.1,0.4,0.2s0.1,0.3,0,0.5 c-0.3,0.9-0.7,1.5-1.2,2s-1.1,0.7-1.8,0.7c-0.3,0-0.5,0-0.8-0.1c-0.2-0.1-0.5-0.2-0.6-0.3c-0.2-0.1-0.3-0.3-0.4-0.5 s-0.2-0.4-0.2-0.7c0-0.2,0-0.4,0.1-0.7c0.1-0.2,0.1-0.4,0.2-0.6s0.1-0.4,0.2-0.6s0.1-0.4,0.2-0.6s0.1-0.4,0.2-0.6H242 c-0.2,0-0.3-0.1-0.4-0.2s-0.1-0.3-0.1-0.4c0-0.2,0.1-0.3,0.2-0.4s0.3-0.2,0.6-0.2h0.4l0.8-2.2c0.1-0.3,0.2-0.4,0.4-0.5 s0.4-0.1,0.6-0.1s0.3,0.1,0.4,0.3c0.1,0.1,0.1,0.3,0.1,0.5l-0.7,1.9h0.5c0.2,0,0.4,0.1,0.5,0.2s0.1,0.3,0.1,0.4 c0,0.2-0.1,0.3-0.2,0.4s-0.3,0.2-0.6,0.2H244l-1,2.8v0.2c0,0.2,0.1,0.3,0.2,0.4c0.1,0.1,0.3,0.1,0.4,0.1c0.3,0,0.6-0.1,0.9-0.4 C244.7,98.6,245,98.2,245.2,97.6"></path> <g> <path class="st7" d="M248,93.5c-0.2,0-0.4-0.1-0.6-0.2c-0.2-0.2-0.2-0.4-0.2-0.6s0.1-0.4,0.2-0.6c0.2-0.2,0.4-0.2,0.6-0.2 s0.4,0.1,0.6,0.2c0.2,0.2,0.2,0.4,0.2,0.6s-0.1,0.4-0.2,0.6C248.4,93.4,248.2,93.5,248,93.5 M246.6,98.8V99c0,0.1,0,0.2,0.1,0.2 c0.1,0.1,0.2,0.1,0.3,0.1s0.2,0,0.3-0.1s0.2-0.2,0.4-0.3c0.1-0.1,0.2-0.3,0.4-0.5c0.1-0.2,0.3-0.5,0.4-0.8 c0.1-0.2,0.2-0.3,0.4-0.4c0.2-0.1,0.3-0.1,0.5-0.1c0.2,0,0.3,0.1,0.4,0.2c0.1,0.1,0.1,0.3,0.1,0.5c-0.2,0.5-0.4,1-0.6,1.3 c-0.2,0.4-0.5,0.6-0.7,0.9c-0.2,0.2-0.5,0.4-0.8,0.5c-0.3,0.1-0.5,0.1-0.8,0.1c-0.2,0-0.5,0-0.7-0.1l-0.6-0.3 c-0.2-0.1-0.3-0.3-0.4-0.5c-0.1-0.2-0.1-0.4-0.1-0.6v-0.3c0-0.1,0.1-0.2,0.1-0.3c0.1-0.2,0.2-0.5,0.3-0.8l0.9-2.4 c0.1-0.3,0.2-0.5,0.4-0.6c0.2-0.1,0.4-0.1,0.6-0.1s0.3,0.2,0.4,0.3c0.1,0.2,0.1,0.4,0,0.7L246.6,98.8L246.6,98.8z"></path> </g> <path class="st7" d="M251.7,96.8c0-0.1,0.1-0.2,0.1-0.4c0-0.1,0.1-0.3,0.1-0.4s0-0.2-0.1-0.3s-0.2-0.1-0.4-0.1s-0.3,0-0.4,0.1 s-0.2,0.2-0.3,0.4l-0.5,1.4c-0.1,0.4-0.2,0.7-0.3,0.9c0,0.1,0,0.1-0.1,0.3V99c0,0.1,0.1,0.2,0.1,0.3c0.1,0.1,0.2,0.1,0.4,0.1 s0.3,0,0.4-0.2c0.1-0.1,0.2-0.2,0.3-0.4l-0.3-0.3c-0.1-0.1-0.1-0.2-0.1-0.4s0-0.3,0.1-0.4s0.1-0.2,0.2-0.3s0.2-0.2,0.3-0.2 s0.3-0.1,0.4,0v-0.1C251.7,96.9,251.7,96.8,251.7,96.8 M252.7,98.4h0.1c0.3,0,0.6-0.1,0.8-0.3s0.4-0.5,0.5-0.8 c0.1-0.2,0.2-0.4,0.4-0.5s0.3-0.1,0.5-0.1s0.3,0.1,0.4,0.3s0.1,0.4,0,0.6c-0.1,0.3-0.2,0.5-0.4,0.8c-0.2,0.2-0.3,0.4-0.6,0.6 c-0.2,0.2-0.5,0.3-0.7,0.4c-0.3,0.1-0.6,0.2-0.9,0.2c-0.2,0-0.4,0-0.6-0.1c-0.2,0.4-0.5,0.6-0.8,0.8s-0.7,0.2-1.1,0.2 c-0.3,0-0.5,0-0.8-0.1c-0.2-0.1-0.5-0.2-0.6-0.3c-0.2-0.1-0.3-0.3-0.4-0.5s-0.2-0.5-0.2-0.7v-0.4c0-0.1,0.1-0.3,0.1-0.4l0.8-2.3 c0.1-0.2,0.2-0.4,0.4-0.6l0.5-0.5l0.6-0.3c0.2-0.1,0.5-0.1,0.7-0.1c0.3,0,0.5,0,0.8,0.1s0.5,0.2,0.7,0.4s0.3,0.3,0.4,0.6 c0.1,0.2,0.1,0.5,0.1,0.7c0,0.1,0,0.2-0.1,0.4c0,0.2-0.1,0.3-0.1,0.5c-0.1,0.2-0.1,0.3-0.2,0.5c-0.1,0.1-0.1,0.3-0.2,0.3 c-0.1,0.1-0.1,0.2-0.2,0.2C252.7,98.1,252.7,98.2,252.7,98.4"></path> <path class="st7" d="M259.8,97.6c0.1-0.2,0.2-0.3,0.3-0.4c0.2-0.1,0.3-0.1,0.5-0.1s0.3,0.1,0.4,0.2s0.1,0.3,0,0.5 c-0.2,0.5-0.4,0.9-0.6,1.3s-0.5,0.6-0.7,0.9c-0.3,0.2-0.5,0.4-0.8,0.5s-0.5,0.1-0.8,0.1c-0.2,0-0.4,0-0.6-0.1s-0.4-0.2-0.5-0.3 c-0.2-0.1-0.3-0.3-0.4-0.5s-0.1-0.4-0.1-0.6s0-0.5,0.1-0.7l0.7-2.1v-0.2c0-0.1,0-0.2-0.1-0.2c-0.1-0.1-0.1-0.1-0.2-0.1 s-0.3,0.1-0.5,0.2s-0.3,0.3-0.5,0.6c-0.1,0.2-0.2,0.5-0.3,0.8l-0.6,1.8l-0.3,0.8c-0.1,0.2-0.1,0.3-0.2,0.4s-0.2,0.2-0.4,0.2 c-0.1,0-0.3,0.1-0.4,0.1s-0.2,0-0.3-0.1s-0.2-0.2-0.2-0.3v-0.4l1.7-4.8c0-0.1,0.1-0.3,0.2-0.3c0.1-0.1,0.3-0.1,0.4-0.1 s0.3,0,0.4,0.1s0.2,0.1,0.2,0.2c0.3-0.2,0.6-0.2,1-0.2c0.2,0,0.4,0,0.6,0.1s0.3,0.2,0.5,0.3c0.1,0.1,0.2,0.3,0.3,0.4 c0.1,0.2,0.1,0.4,0.1,0.6s0,0.4-0.1,0.6l-0.8,2.3c0,0.1-0.1,0.2-0.1,0.3c0,0.2,0.1,0.3,0.3,0.3s0.5-0.1,0.8-0.4 C259.3,98.7,259.5,98.2,259.8,97.6 M135.3,105.9l-0.3,0.3c-0.1,0.1-0.3,0.1-0.4,0.1s-0.2,0-0.3-0.1c-0.1,0-0.1-0.1-0.1-0.1v-0.2 l0.7-1.6c0.1-0.2,0.3-0.4,0.5-0.5s0.4-0.1,0.6-0.1c0.2,0,0.3,0,0.5,0.1c0.1,0,0.1,0.1,0.1,0.1v0.2 C136.6,104.1,135.3,105.9,135.3,105.9z M134.5,108.1c-0.1,0-0.2,0-0.3,0.1c-0.1,0.1-0.2,0.2-0.3,0.4l-0.2,0.6 c0.1,0.1,0.2,0.1,0.3,0.1h0.4c0.1,0,0.2-0.1,0.3-0.1c0.1-0.1,0.2-0.2,0.2-0.3v-0.2c0-0.1,0-0.3-0.1-0.4 C134.8,108.2,134.7,108.1,134.5,108.1 M136.8,110.1c0.1-0.2,0.2-0.3,0.3-0.4c0.2-0.1,0.3-0.1,0.5-0.1s0.3,0.1,0.4,0.2 s0.1,0.3,0,0.5c-0.2,0.5-0.4,0.9-0.7,1.3c-0.3,0.3-0.6,0.6-0.9,0.8s-0.7,0.4-1.1,0.5s-0.7,0.1-1.1,0.1s-0.7,0-1.1-0.1 c-0.3-0.1-0.6-0.2-0.8-0.4l-0.6-0.6c-0.1-0.2-0.2-0.5-0.2-0.8v-0.4c0-0.1,0.1-0.2,0.1-0.4l0.6-1.8c0.1-0.3,0.2-0.5,0.4-0.7 s0.3-0.4,0.5-0.5l0.6-0.3c0.2-0.1,0.5-0.1,0.7-0.1c0.3,0,0.6,0,0.8,0.1s0.4,0.2,0.6,0.4s0.3,0.3,0.4,0.5s0.1,0.4,0.1,0.7 c0,0.2,0,0.4-0.1,0.6l-0.3,0.6c-0.1,0.2-0.3,0.3-0.5,0.5l-0.6,0.3c-0.2,0.1-0.4,0.1-0.7,0.1c-0.2,0-0.4,0-0.6-0.1s-0.4-0.1-0.5-0.2 l-0.1,0.2c0,0.1-0.1,0.2-0.1,0.3c0,0.2,0.1,0.4,0.3,0.6s0.5,0.2,0.9,0.2c0.2,0,0.5,0,0.7-0.1s0.5-0.2,0.7-0.3s0.4-0.3,0.6-0.5 C136.5,110.6,136.7,110.4,136.8,110.1"></path> <path class="st7" d="M141.8,109.9c0.1-0.2,0.2-0.3,0.3-0.4c0.2-0.1,0.3-0.1,0.5,0c0.2,0,0.3,0.1,0.4,0.3c0.1,0.1,0.1,0.3,0,0.5 c-0.2,0.5-0.4,0.9-0.6,1.2l-0.9,0.9c-0.3,0.2-0.7,0.4-1.1,0.5s-0.8,0.2-1.1,0.2c-0.4,0-0.7-0.1-1-0.2s-0.6-0.2-0.8-0.4 s-0.4-0.4-0.5-0.6c-0.1-0.3-0.2-0.5-0.2-0.8c0-0.2,0-0.5,0.1-0.7l0.6-1.7c0.1-0.3,0.2-0.5,0.4-0.7s0.3-0.4,0.5-0.5l0.6-0.3 c0.2-0.1,0.4-0.1,0.7-0.1s0.5,0.1,0.8,0.2c0.2,0.1,0.4,0.3,0.6,0.5c0.1,0.2,0.2,0.5,0.3,0.7c0,0.3,0,0.6-0.1,0.9s-0.3,0.5-0.5,0.6 s-0.4,0.1-0.6,0s-0.3-0.2-0.4-0.3c-0.1-0.2-0.1-0.4,0-0.6s0.1-0.3,0.1-0.5c0-0.1-0.1-0.2-0.3-0.2c-0.1,0-0.2,0-0.3,0.1 s-0.2,0.2-0.2,0.3l-0.6,1.8c0,0.1-0.1,0.3-0.1,0.4c0,0.3,0.1,0.5,0.3,0.7s0.5,0.3,0.9,0.3c0.2,0,0.4,0,0.6-0.1l0.6-0.3 c0.2-0.1,0.4-0.3,0.6-0.6C141.5,110.5,141.6,110.3,141.8,109.9"></path> <path class="st7" d="M145.1,109.2c0-0.1,0.1-0.2,0.1-0.4c0-0.1,0.1-0.3,0.1-0.4s0-0.2-0.1-0.3s-0.2-0.1-0.4-0.1s-0.3,0-0.4,0.1 s-0.2,0.2-0.3,0.4l-0.5,1.4c-0.1,0.4-0.2,0.7-0.3,0.9c0,0.1,0,0.1-0.1,0.3v0.3c0,0.1,0.1,0.2,0.1,0.3c0.1,0.1,0.2,0.1,0.4,0.1 s0.3,0,0.4-0.2c0.1-0.1,0.2-0.2,0.3-0.4l-0.3-0.3c-0.1-0.1-0.1-0.2-0.1-0.4s0-0.3,0.1-0.4s0.1-0.2,0.2-0.3s0.2-0.2,0.3-0.2 s0.3-0.1,0.4,0v-0.1C145,109.3,145.1,109.3,145.1,109.2 M146,110.8h0.1c0.3,0,0.6-0.1,0.8-0.3s0.4-0.5,0.5-0.8 c0.1-0.2,0.2-0.4,0.4-0.5s0.3-0.1,0.5-0.1s0.3,0.1,0.4,0.3s0.1,0.4,0,0.6c-0.1,0.3-0.2,0.5-0.4,0.8c-0.2,0.2-0.3,0.4-0.6,0.6 c-0.2,0.2-0.5,0.3-0.7,0.4c-0.3,0.1-0.6,0.2-0.9,0.2c-0.2,0-0.4,0-0.6-0.1c-0.2,0.4-0.5,0.6-0.8,0.8s-0.7,0.2-1.1,0.2 c-0.3,0-0.5,0-0.8-0.1c-0.2-0.1-0.5-0.2-0.6-0.3c-0.2-0.1-0.3-0.3-0.4-0.5s-0.2-0.5-0.2-0.7v-0.4c0-0.1,0.1-0.3,0.1-0.4l0.8-2.3 c0.1-0.2,0.2-0.4,0.4-0.6l0.5-0.5l0.6-0.3c0.2-0.1,0.5-0.1,0.7-0.1c0.3,0,0.5,0,0.8,0.1s0.5,0.2,0.7,0.4s0.3,0.3,0.4,0.6 s0.1,0.5,0.1,0.7c0,0.1,0,0.2-0.1,0.4c0,0.2-0.1,0.3-0.1,0.5c-0.1,0.2-0.1,0.3-0.2,0.5c-0.1,0.1-0.1,0.3-0.2,0.3 c-0.1,0.1-0.1,0.2-0.2,0.2C146,110.6,146,110.7,146,110.8"></path> <path class="st7" d="M148.8,111.3C148.7,111.3,148.7,111.4,148.8,111.3v0.2c0,0.1,0,0.1,0.1,0.2s0.1,0.1,0.2,0.1 c0.2,0,0.5-0.1,0.8-0.4s0.5-0.7,0.8-1.4c0.1-0.2,0.2-0.4,0.4-0.5s0.3-0.1,0.5-0.1s0.3,0.1,0.4,0.3c0.1,0.1,0.1,0.3,0,0.5 c-0.2,0.5-0.4,1-0.6,1.3c-0.2,0.4-0.5,0.6-0.7,0.8c-0.3,0.2-0.5,0.4-0.8,0.4c-0.3,0.1-0.5,0.1-0.8,0.1c-0.2,0-0.4,0-0.7-0.1 c-0.2-0.1-0.4-0.2-0.5-0.3c-0.2-0.1-0.3-0.3-0.4-0.5s-0.1-0.4-0.1-0.6s0-0.4,0.1-0.7l2-5.9c0.1-0.2,0.1-0.3,0.3-0.4 c0.1-0.1,0.2-0.2,0.4-0.2h0.4c0.1,0,0.2,0.1,0.3,0.2s0.2,0.2,0.2,0.3s0,0.3-0.1,0.5L148.8,111.3L148.8,111.3z"></path> <path class="st7" d="M153.9,109.2c0-0.1,0.1-0.2,0.1-0.4c0-0.1,0.1-0.3,0.1-0.4s0-0.2-0.1-0.3s-0.2-0.1-0.4-0.1s-0.3,0-0.4,0.1 s-0.2,0.2-0.3,0.4l-0.5,1.4c-0.1,0.4-0.2,0.7-0.3,0.9c0,0.1,0,0.1-0.1,0.3v0.3c0,0.1,0.1,0.2,0.1,0.3c0.1,0.1,0.2,0.1,0.4,0.1 s0.3,0,0.4-0.2c0.1-0.1,0.2-0.2,0.3-0.4l-0.3-0.3c-0.1-0.1-0.1-0.2-0.1-0.4s0-0.3,0.1-0.4s0.1-0.2,0.2-0.3s0.2-0.2,0.3-0.2 s0.3-0.1,0.4,0v-0.1C153.9,109.3,153.9,109.3,153.9,109.2 M154.9,110.8h0.1c0.3,0,0.6-0.1,0.8-0.3s0.4-0.5,0.5-0.8 c0.1-0.2,0.2-0.4,0.4-0.5s0.3-0.1,0.5-0.1s0.3,0.1,0.4,0.3s0.1,0.4,0,0.6c-0.1,0.3-0.2,0.5-0.4,0.8c-0.2,0.2-0.3,0.4-0.6,0.6 c-0.2,0.2-0.5,0.3-0.7,0.4c-0.3,0.1-0.6,0.2-0.9,0.2c-0.2,0-0.4,0-0.6-0.1c-0.2,0.4-0.5,0.6-0.9,0.8c-0.3,0.2-0.7,0.2-1.1,0.2 c-0.3,0-0.5,0-0.8-0.1c-0.2-0.1-0.5-0.2-0.6-0.3c-0.2-0.1-0.3-0.3-0.4-0.5s-0.2-0.5-0.2-0.7v-0.4c0-0.1,0.1-0.3,0.1-0.4l0.8-2.3 c0.1-0.2,0.2-0.4,0.4-0.6l0.5-0.5l0.6-0.3c0.2-0.1,0.5-0.1,0.7-0.1c0.3,0,0.5,0,0.8,0.1s0.5,0.2,0.7,0.4s0.3,0.3,0.4,0.6 s0.1,0.5,0.1,0.7c0,0.1,0,0.2-0.1,0.4c0,0.2-0.1,0.3-0.1,0.5c-0.1,0.2-0.1,0.3-0.2,0.5c-0.1,0.1-0.1,0.3-0.2,0.3 c-0.1,0.1-0.1,0.2-0.2,0.2C154.9,110.6,154.9,110.7,154.9,110.8"></path> <path class="st7" d="M159.7,108.8C159.7,108.7,159.7,108.7,159.7,108.8L159.7,108.8c0-0.3-0.1-0.4-0.2-0.5s-0.2-0.2-0.4-0.2 c-0.1,0-0.2,0-0.4,0.1l-0.3,0.3l-1,2.8v0.2c0,0.1,0,0.2,0.1,0.3s0.2,0.1,0.3,0.1c0.2,0,0.4,0,0.5-0.2c0.2-0.1,0.3-0.3,0.4-0.5 L159.7,108.8L159.7,108.8z M157.7,114.2l-0.9,0.3c-0.2,0.1-0.4,0.3-0.5,0.4c0,0.1-0.1,0.2-0.1,0.2c0,0.1,0,0.2,0.1,0.2 c0.1,0.1,0.1,0.1,0.3,0.1s0.3,0,0.5-0.1c0.1-0.1,0.3-0.2,0.3-0.4L157.7,114.2L157.7,114.2z M160.1,112.1c0.4-0.2,0.8-0.5,1.1-0.8 c0.3-0.3,0.6-0.8,0.8-1.3c0.1-0.2,0.2-0.4,0.4-0.5s0.3-0.1,0.5-0.1s0.3,0.1,0.4,0.3c0.1,0.1,0.1,0.3,0,0.5c-0.2,0.5-0.4,1-0.7,1.4 s-0.6,0.7-0.9,1s-0.7,0.5-1,0.7c-0.4,0.2-0.7,0.3-1.1,0.4c-0.1,0.2-0.2,0.4-0.2,0.7c-0.1,0.2-0.2,0.4-0.2,0.7 c-0.1,0.3-0.2,0.6-0.4,0.8s-0.4,0.4-0.6,0.5s-0.4,0.3-0.7,0.3c-0.2,0.1-0.5,0.1-0.8,0.1s-0.6-0.1-0.8-0.2c-0.3-0.1-0.5-0.3-0.7-0.4 c-0.2-0.2-0.3-0.4-0.4-0.7s-0.1-0.6,0-0.9s0.2-0.5,0.4-0.7s0.4-0.3,0.6-0.5c0.2-0.1,0.5-0.2,0.7-0.3c0.3-0.1,0.5-0.1,0.8-0.2 c-0.4-0.1-0.7-0.2-0.9-0.5s-0.4-0.6-0.4-1c0-0.2,0-0.4,0.1-0.7l0.9-2.7c0.1-0.2,0.2-0.5,0.3-0.6c0.1-0.2,0.3-0.3,0.5-0.4 s0.4-0.2,0.5-0.3c0.2-0.1,0.4-0.1,0.6-0.1c0.3,0,0.5,0,0.7,0.1s0.4,0.2,0.6,0.4c0-0.1,0.1-0.2,0.2-0.3s0.2-0.1,0.2-0.2 c0.1,0,0.2-0.1,0.3-0.1h0.3c0,0,0.1,0,0.2,0.1c0.1,0,0.1,0.1,0.2,0.2s0.1,0.2,0.1,0.3s0,0.3-0.1,0.6L160.1,112.1L160.1,112.1z"></path> <g> <path id="E" class="st7" d="M164.8,106c-0.2,0-0.4-0.1-0.6-0.2c-0.2-0.2-0.2-0.4-0.2-0.6s0.1-0.4,0.2-0.6c0.2-0.2,0.4-0.2,0.6-0.2 s0.4,0.1,0.6,0.2c0.2,0.2,0.2,0.4,0.2,0.6s-0.1,0.4-0.2,0.6C165.2,105.9,165,106,164.8,106 M163.4,111.2v0.2c0,0.1,0,0.2,0.1,0.2 c0.1,0.1,0.2,0.1,0.3,0.1s0.2,0,0.3-0.1s0.2-0.2,0.4-0.3c0.1-0.1,0.2-0.3,0.4-0.5c0.1-0.2,0.3-0.5,0.4-0.8 c0.1-0.2,0.2-0.3,0.4-0.4c0.2-0.1,0.3-0.1,0.5-0.1s0.3,0.1,0.4,0.2s0.1,0.3,0.1,0.5c-0.2,0.5-0.4,1-0.6,1.3 c-0.2,0.4-0.5,0.6-0.7,0.9c-0.2,0.2-0.5,0.4-0.8,0.5s-0.5,0.1-0.8,0.1c-0.2,0-0.5,0-0.7-0.1l-0.6-0.3c-0.2-0.1-0.3-0.3-0.4-0.5 s-0.1-0.4-0.1-0.6v-0.3c0-0.1,0.1-0.2,0.1-0.3c0.1-0.2,0.2-0.5,0.3-0.8l0.9-2.4c0.1-0.3,0.2-0.5,0.4-0.6s0.4-0.1,0.6-0.1 s0.3,0.2,0.4,0.3c0.1,0.2,0.1,0.4,0,0.7L163.4,111.2L163.4,111.2z"></path> </g> <path class="st7" d="M168.7,114.6L168.7,114.6c0-0.3,0-0.4-0.1-0.5l-0.3-0.3c-0.1,0.2-0.1,0.3-0.2,0.5c-0.1,0.1-0.1,0.3-0.2,0.5 v0.2c0,0.1,0,0.1,0.1,0.2s0.1,0.1,0.2,0.1s0.2,0,0.3-0.1C168.6,114.9,168.7,114.8,168.7,114.6z M168.3,109.1v-0.3 c0-0.2-0.1-0.4-0.2-0.5s-0.2-0.2-0.3-0.2s-0.2,0-0.3,0.1s-0.1,0.1-0.2,0.3l-0.9,2.6v0.2c0,0.1,0,0.2,0.1,0.2 c0.1,0.1,0.1,0.1,0.2,0.1s0.3,0,0.5-0.2c0.2-0.1,0.3-0.3,0.5-0.6L168.3,109.1L168.3,109.1z M170.7,110.2c0.1-0.2,0.2-0.4,0.4-0.5 s0.3-0.1,0.5-0.1s0.3,0.1,0.4,0.2s0.1,0.3,0.1,0.5c-0.3,0.8-0.6,1.4-1,1.9s-0.8,0.8-1.3,1.1c0.2,0.2,0.3,0.3,0.4,0.5 s0.1,0.4,0.1,0.7v0.4c-0.1,0.2-0.2,0.5-0.3,0.7s-0.3,0.4-0.5,0.5l-0.6,0.3c-0.2,0.1-0.4,0.1-0.6,0.1s-0.5,0-0.7-0.1l-0.6-0.3 c-0.2-0.1-0.3-0.3-0.4-0.5s-0.1-0.4-0.1-0.6s0-0.4,0.1-0.6s0.1-0.3,0.1-0.4s0.1-0.2,0.1-0.3s0.1-0.2,0.1-0.3s0.1-0.2,0.1-0.4h-0.4 c-0.2,0-0.4,0-0.6-0.1s-0.4-0.2-0.5-0.3s-0.3-0.3-0.3-0.5c-0.1-0.2-0.1-0.4-0.1-0.6v-0.3c0-0.1,0-0.2,0.1-0.3l1-2.7 c0.2-0.4,0.4-0.7,0.7-0.9c0.3-0.2,0.6-0.3,1-0.3c0.3,0,0.5,0,0.7,0.1s0.4,0.2,0.5,0.4c0-0.2,0.1-0.3,0.2-0.4 c0.1-0.1,0.2-0.1,0.3-0.2h0.4c0.1,0,0.2,0.1,0.3,0.2s0.2,0.2,0.2,0.3v0.5l-1.6,4.4c0.2-0.1,0.3-0.1,0.5-0.3 c0.2-0.1,0.3-0.2,0.5-0.4s0.3-0.4,0.5-0.6C170.4,110.8,170.5,110.5,170.7,110.2"></path> <path class="st7" d="M176.6,110c0.1-0.2,0.2-0.3,0.3-0.4c0.2-0.1,0.3-0.1,0.5-0.1s0.3,0.1,0.4,0.2s0.1,0.3,0.1,0.5 c-0.2,0.5-0.4,1-0.6,1.3c-0.2,0.4-0.5,0.6-0.7,0.9c-0.2,0.2-0.5,0.4-0.8,0.4c-0.3,0.1-0.5,0.1-0.8,0.1s-0.6-0.1-0.9-0.2 s-0.5-0.3-0.6-0.5c-0.2,0.2-0.4,0.4-0.7,0.5s-0.5,0.2-0.9,0.2c-0.2,0-0.4,0-0.6-0.1s-0.4-0.2-0.5-0.3s-0.3-0.3-0.3-0.4 c-0.1-0.2-0.1-0.4-0.1-0.6s0-0.4,0.1-0.5l1.3-3.6c0.1-0.2,0.2-0.3,0.3-0.4s0.2-0.2,0.4-0.2h0.4c0.1,0,0.2,0.1,0.3,0.2 s0.1,0.2,0.2,0.3c0,0.1,0,0.3-0.1,0.5l-1.2,3.3c0,0.1-0.1,0.2-0.1,0.3c0,0.2,0.1,0.3,0.2,0.3s0.2,0,0.3-0.1s0.2-0.1,0.3-0.2 l0.3-0.3c0.1-0.1,0.2-0.3,0.3-0.4l1.1-3.2c0.1-0.3,0.2-0.4,0.4-0.5s0.4-0.1,0.6,0c0.2,0.1,0.3,0.2,0.4,0.3c0.1,0.2,0.1,0.4,0,0.6 l-1.2,3.5v0.2c0,0.1,0,0.1,0.1,0.2c0.1,0,0.1,0.1,0.2,0.1c0.2,0,0.5-0.1,0.8-0.4C176.1,111.1,176.3,110.7,176.6,110"></path> <path class="st7" d="M179.5,108.1c-0.1,0-0.2,0-0.3,0.1c-0.1,0.1-0.2,0.2-0.3,0.4l-0.2,0.6c0.1,0.1,0.2,0.1,0.3,0.1h0.4 c0.1,0,0.2-0.1,0.3-0.1c0.1-0.1,0.2-0.2,0.2-0.3v-0.2c0-0.1,0-0.3-0.1-0.4S179.6,108.1,179.5,108.1 M181.7,110.1 c0.1-0.2,0.2-0.3,0.3-0.4c0.2-0.1,0.3-0.1,0.5-0.1s0.3,0.1,0.4,0.2s0.1,0.3,0,0.5c-0.2,0.5-0.4,0.9-0.7,1.3 c-0.3,0.3-0.6,0.6-0.9,0.8s-0.7,0.4-1.1,0.5s-0.7,0.1-1.1,0.1s-0.7,0-1.1-0.1c-0.3-0.1-0.6-0.2-0.8-0.4l-0.6-0.6 c-0.1-0.2-0.2-0.5-0.2-0.8v-0.4c0-0.1,0.1-0.2,0.1-0.4l0.6-1.8c0.1-0.3,0.2-0.5,0.4-0.7s0.3-0.4,0.5-0.5l0.6-0.3 c0.2-0.1,0.5-0.1,0.7-0.1c0.3,0,0.6,0,0.8,0.1s0.4,0.2,0.6,0.4s0.3,0.3,0.4,0.6c0.1,0.2,0.1,0.4,0.1,0.7c0,0.2,0,0.4-0.1,0.6 l-0.3,0.6c-0.1,0.2-0.3,0.3-0.5,0.5l-0.6,0.3c-0.2,0.1-0.4,0.1-0.7,0.1c-0.2,0-0.4,0-0.6-0.1s-0.4-0.1-0.5-0.2l-0.1,0.2 c0,0.1-0.1,0.2-0.1,0.3c0,0.2,0.1,0.4,0.3,0.6s0.5,0.2,0.9,0.2c0.2,0,0.4,0,0.7-0.1c0.2-0.1,0.5-0.2,0.7-0.3s0.4-0.3,0.6-0.5 C181.5,110.6,181.6,110.4,181.7,110.1 M188.9,108.1c-0.1,0-0.2,0-0.3,0.1s-0.2,0.2-0.3,0.4l-0.2,0.6c0.1,0.1,0.2,0.1,0.3,0.1h0.4 c0.1,0,0.2-0.1,0.3-0.1c0.1-0.1,0.2-0.2,0.2-0.3v-0.2c0-0.1,0-0.3-0.1-0.4S189,108.1,188.9,108.1 M191.2,110.1 c0.1-0.2,0.2-0.3,0.3-0.4c0.2-0.1,0.3-0.1,0.5-0.1s0.3,0.1,0.4,0.2s0.1,0.3,0,0.5c-0.2,0.5-0.4,0.9-0.7,1.3 c-0.3,0.3-0.6,0.6-0.9,0.8s-0.7,0.4-1.1,0.5s-0.7,0.1-1.1,0.1s-0.7,0-1.1-0.1c-0.3-0.1-0.6-0.2-0.8-0.4l-0.6-0.6 c-0.1-0.2-0.2-0.5-0.2-0.8v-0.4c0-0.1,0.1-0.2,0.1-0.4l0.6-1.8c0.1-0.3,0.2-0.5,0.4-0.7s0.3-0.4,0.5-0.5l0.6-0.3 c0.2-0.1,0.5-0.1,0.7-0.1c0.3,0,0.6,0,0.8,0.1s0.4,0.2,0.6,0.4s0.3,0.3,0.4,0.6c0.1,0.2,0.1,0.4,0.1,0.7c0,0.2,0,0.4-0.1,0.6 l-0.3,0.6c-0.1,0.2-0.3,0.3-0.5,0.5l-0.6,0.3c-0.2,0.1-0.4,0.1-0.7,0.1c-0.2,0-0.4,0-0.6-0.1s-0.4-0.1-0.5-0.2l-0.1,0.2 c0,0.1-0.1,0.2-0.1,0.3c0,0.2,0.1,0.4,0.3,0.6s0.5,0.2,0.9,0.2c0.2,0,0.4,0,0.7-0.1c0.2-0.1,0.5-0.2,0.7-0.3s0.4-0.3,0.6-0.5 C190.9,110.6,191,110.4,191.2,110.1"></path> <g> <path class="st7" d="M194.8,110.1c0.1-0.2,0.2-0.3,0.4-0.4c0.2-0.1,0.3-0.1,0.5-0.1c0.2,0,0.3,0.1,0.4,0.2c0.1,0.1,0.1,0.3,0,0.5 c-0.3,0.9-0.7,1.5-1.2,2s-1.1,0.7-1.8,0.7c-0.3,0-0.5,0-0.8-0.1c-0.2-0.1-0.5-0.2-0.6-0.3c-0.2-0.1-0.3-0.3-0.4-0.5 c-0.1-0.2-0.2-0.4-0.2-0.7c0-0.2,0-0.4,0.1-0.7c0.1-0.2,0.1-0.4,0.2-0.6c0.1-0.2,0.1-0.4,0.2-0.6c0.1-0.2,0.1-0.4,0.2-0.6 c0.1-0.2,0.1-0.4,0.2-0.6h-0.3c-0.2,0-0.3-0.1-0.4-0.2c-0.1-0.1-0.1-0.3-0.1-0.4c0-0.2,0.1-0.3,0.2-0.4c0.1-0.1,0.3-0.2,0.6-0.2 h0.4l0.8-2.2c0.1-0.3,0.2-0.4,0.4-0.5c0.2-0.1,0.4-0.1,0.6-0.1s0.3,0.1,0.4,0.3c0.1,0.1,0.1,0.3,0.1,0.5L194,107h0.5 c0.2,0,0.4,0.1,0.5,0.2s0.1,0.3,0.1,0.4c0,0.2-0.1,0.3-0.2,0.4c-0.1,0.1-0.3,0.2-0.6,0.2h-0.7l-1,2.8v0.2c0,0.2,0.1,0.3,0.2,0.4 c0.1,0.1,0.3,0.1,0.4,0.1c0.3,0,0.6-0.1,0.9-0.4C194.3,111.1,194.6,110.7,194.8,110.1"></path> </g> <path class="st7" d="M201.2,109.8c0.1,0.1,0.2,0.3,0.2,0.5s0,0.4-0.1,0.6c-0.1,0.2-0.2,0.3-0.4,0.4c-0.2,0.1-0.4,0.1-0.7,0.1 l0.3,0.3c0.1,0.1,0.3,0.1,0.5,0.1s0.3-0.1,0.5-0.2c0.1-0.1,0.2-0.2,0.3-0.4c0.1-0.3,0.1-0.6,0-0.9s-0.3-0.6-0.5-0.8L201.2,109.8z M204.5,110.1c0.1-0.2,0.2-0.3,0.3-0.4c0.2-0.1,0.3-0.1,0.5,0c0.2,0,0.3,0.1,0.4,0.2s0.1,0.2,0.1,0.4c-0.2,0.5-0.4,0.9-0.6,1.2 c-0.3,0.3-0.6,0.6-0.9,0.8c-0.4,0.2-0.7,0.4-1.2,0.5c-0.4,0.1-0.9,0.2-1.5,0.2H201c-0.3,0-0.6-0.1-0.8-0.2 c-0.3-0.1-0.5-0.2-0.7-0.4s-0.4-0.4-0.5-0.6s-0.2-0.5-0.2-0.7s0-0.3,0.1-0.5c0-0.2,0.1-0.3,0.2-0.5s0.2-0.3,0.3-0.4 s0.3-0.2,0.5-0.2l1.2-2.4c0.1-0.2,0.2-0.3,0.4-0.4c0.1-0.1,0.2-0.1,0.4-0.2h0.4c0.1,0,0.2,0.1,0.3,0.1c0.1,0.1,0.2,0.1,0.2,0.2 c0.1,0.1,0.1,0.2,0.1,0.3v0.3c0,0.2-0.1,0.3-0.2,0.4l-0.3,0.3c0,0.2,0.1,0.3,0.2,0.5s0.2,0.3,0.3,0.5s0.3,0.5,0.4,0.8 s0.2,0.6,0.2,0.9v0.4C203.9,111.1,204.3,110.7,204.5,110.1"></path> <path class="st7" d="M207.9,109.2c0-0.1,0.1-0.2,0.1-0.4c0-0.1,0.1-0.3,0.1-0.4s0-0.2-0.1-0.3s-0.2-0.1-0.4-0.1s-0.3,0-0.4,0.1 s-0.2,0.2-0.3,0.4l-0.5,1.4c-0.1,0.4-0.2,0.7-0.3,0.9c0,0.1,0,0.1-0.1,0.3v0.3c0,0.1,0.1,0.2,0.1,0.3c0.1,0.1,0.2,0.1,0.4,0.1 s0.3,0,0.4-0.2c0.1-0.1,0.2-0.2,0.3-0.4l-0.3-0.3c-0.1-0.1-0.1-0.2-0.1-0.4s0-0.3,0.1-0.4s0.1-0.2,0.2-0.3s0.2-0.2,0.3-0.2 s0.3-0.1,0.4,0v-0.1C207.8,109.3,207.8,109.3,207.9,109.2 M208.8,110.8h0.1c0.3,0,0.6-0.1,0.8-0.3s0.4-0.5,0.5-0.8 c0.1-0.2,0.2-0.4,0.4-0.5s0.3-0.1,0.5-0.1s0.3,0.1,0.4,0.3s0.1,0.4,0,0.6c-0.1,0.3-0.2,0.5-0.4,0.8c-0.2,0.2-0.3,0.4-0.6,0.6 c-0.2,0.2-0.5,0.3-0.7,0.4c-0.3,0.1-0.6,0.2-0.9,0.2c-0.2,0-0.4,0-0.6-0.1c-0.2,0.4-0.5,0.6-0.8,0.8s-0.7,0.2-1.1,0.2 c-0.3,0-0.5,0-0.8-0.1c-0.2-0.1-0.5-0.2-0.6-0.3c-0.2-0.1-0.3-0.3-0.4-0.5s-0.2-0.5-0.2-0.7v-0.4c0-0.1,0.1-0.3,0.1-0.4l0.8-2.3 c0.1-0.2,0.2-0.4,0.4-0.6l0.5-0.5l0.6-0.3c0.2-0.1,0.5-0.1,0.7-0.1c0.3,0,0.5,0,0.8,0.1s0.5,0.2,0.7,0.4s0.3,0.3,0.4,0.6 c0.1,0.2,0.1,0.5,0.1,0.7c0,0.1,0,0.2-0.1,0.4c0,0.2-0.1,0.3-0.1,0.5c-0.1,0.2-0.1,0.3-0.2,0.5c-0.1,0.1-0.1,0.3-0.2,0.3 c-0.1,0.1-0.1,0.2-0.2,0.2C208.8,110.6,208.8,110.7,208.8,110.8"></path> <path class="st7" d="M211.5,111.3C211.5,111.3,211.5,111.4,211.5,111.3v0.2c0,0.1,0,0.1,0.1,0.2s0.1,0.1,0.2,0.1 c0.2,0,0.5-0.1,0.8-0.4s0.5-0.7,0.8-1.4c0.1-0.2,0.2-0.4,0.4-0.5s0.3-0.1,0.5-0.1s0.3,0.1,0.4,0.3c0.1,0.1,0.1,0.3,0,0.5 c-0.2,0.5-0.4,1-0.6,1.3c-0.2,0.4-0.5,0.6-0.7,0.8c-0.3,0.2-0.5,0.4-0.8,0.4c-0.3,0.1-0.5,0.1-0.8,0.1c-0.2,0-0.4,0-0.7-0.1 c-0.2-0.1-0.4-0.2-0.5-0.3c-0.2-0.1-0.3-0.3-0.4-0.5s-0.1-0.4-0.1-0.6s0-0.4,0.1-0.7l2-5.9c0.1-0.2,0.1-0.3,0.3-0.4 c0.1-0.1,0.2-0.2,0.4-0.2h0.4c0.1,0,0.2,0.1,0.3,0.2s0.1,0.2,0.2,0.3c0,0.1,0,0.3-0.1,0.5L211.5,111.3L211.5,111.3z"></path> <g> <path class="st7" d="M216.1,106c-0.2,0-0.4-0.1-0.6-0.2c-0.2-0.2-0.2-0.4-0.2-0.6s0.1-0.4,0.2-0.6c0.2-0.2,0.4-0.2,0.6-0.2 s0.4,0.1,0.6,0.2c0.2,0.2,0.2,0.4,0.2,0.6s-0.1,0.4-0.2,0.6C216.5,105.9,216.3,106,216.1,106 M214.7,111.2v0.2 c0,0.1,0,0.2,0.1,0.2c0.1,0.1,0.2,0.1,0.3,0.1s0.2,0,0.3-0.1s0.2-0.2,0.4-0.3c0.1-0.1,0.2-0.3,0.4-0.5c0.1-0.2,0.3-0.5,0.4-0.8 c0.1-0.2,0.2-0.3,0.4-0.4c0.2-0.1,0.3-0.1,0.5-0.1s0.3,0.1,0.4,0.2s0.1,0.3,0.1,0.5c-0.2,0.5-0.4,1-0.6,1.3 c-0.2,0.4-0.5,0.6-0.7,0.9c-0.2,0.2-0.5,0.4-0.8,0.5s-0.5,0.1-0.8,0.1c-0.2,0-0.5,0-0.7-0.1l-0.6-0.3c-0.2-0.1-0.3-0.3-0.4-0.5 s-0.1-0.4-0.1-0.6v-0.3c0-0.1,0.1-0.2,0.1-0.3c0.1-0.2,0.2-0.5,0.3-0.8l0.9-2.4c0.1-0.3,0.2-0.5,0.4-0.6s0.4-0.1,0.6-0.1 s0.3,0.2,0.4,0.3c0.1,0.2,0.1,0.4,0,0.7L214.7,111.2L214.7,111.2z"></path> </g> <path class="st7" d="M218.1,111.4h0.2c0.1,0,0.1,0,0.2-0.1s0.2-0.1,0.3-0.3c0.1-0.1,0.2-0.3,0.2-0.5l0.4-1.1 c0.1-0.2,0.1-0.4,0.1-0.6c0-0.1,0-0.3-0.1-0.3c0-0.1-0.1-0.1-0.1-0.2h-0.4c-0.1,0-0.2,0.1-0.2,0.2c-0.1,0.1-0.2,0.3-0.3,0.5 l-0.5,1.6c0,0.1,0,0.1-0.1,0.2v0.2c0,0.1,0,0.1,0.1,0.2L218.1,111.4 M222.3,110c0-0.1,0.1-0.2,0.2-0.3s0.2-0.1,0.3-0.2h0.3 c0.1,0,0.2,0.1,0.3,0.1l0.2,0.2v0.3c-0.2,0.5-0.4,0.9-0.6,1.3c-0.2,0.3-0.5,0.6-0.7,0.9c-0.3,0.2-0.5,0.4-0.8,0.5s-0.5,0.1-0.8,0.1 s-0.5-0.1-0.8-0.2c-0.2-0.1-0.4-0.3-0.6-0.4c-0.2,0.2-0.4,0.3-0.7,0.4c-0.2,0.1-0.5,0.1-0.7,0.1s-0.4,0-0.6-0.1s-0.4-0.2-0.5-0.3 s-0.3-0.3-0.4-0.5s-0.1-0.4-0.1-0.6V111c0-0.1,0-0.2,0.1-0.3l1-2.7c0.1-0.2,0.2-0.4,0.3-0.5l0.4-0.4c0.1-0.1,0.3-0.2,0.5-0.2 s0.3-0.1,0.5-0.1s0.5,0,0.7,0.1s0.4,0.2,0.6,0.4l0.8-2.4c0.1-0.2,0.2-0.4,0.3-0.5s0.2-0.2,0.4-0.2h0.4c0.1,0,0.2,0.1,0.3,0.2 s0.1,0.2,0.2,0.4c0,0.1,0,0.3-0.1,0.5l-2,5.9v0.2c0,0.1,0,0.2,0.1,0.2c0.1,0.1,0.1,0.1,0.2,0.1c0.2,0,0.5-0.1,0.7-0.4 C221.9,111.1,222.1,110.6,222.3,110"></path> <path class="st7" d="M224,111.4h0.2c0.1,0,0.1,0,0.2-0.1s0.2-0.1,0.3-0.3c0.1-0.1,0.2-0.3,0.2-0.5l0.4-1.1c0.1-0.2,0.1-0.4,0.1-0.6 c0-0.1,0-0.3-0.1-0.3c0-0.1-0.1-0.1-0.1-0.2h-0.4c-0.1,0-0.2,0.1-0.2,0.2c-0.1,0.1-0.2,0.3-0.3,0.5l-0.5,1.6c0,0.1,0,0.1-0.1,0.2 v0.2c0,0.1,0,0.1,0.1,0.2C223.8,111.3,223.9,111.4,224,111.4 M227.9,110.2c0-0.2,0.1-0.3,0.2-0.4s0.2-0.2,0.3-0.2h0.3 c0.1,0,0.2,0.1,0.3,0.1c0.1,0.1,0.1,0.2,0.1,0.3s0,0.3-0.1,0.4c0,0.1-0.1,0.2-0.1,0.3s-0.1,0.1-0.1,0.2c-0.2,0.4-0.4,0.7-0.6,0.9 c-0.2,0.3-0.4,0.5-0.6,0.6s-0.4,0.3-0.7,0.3c-0.2,0.1-0.4,0.1-0.7,0.1h-0.3c-0.1,0-0.3,0-0.4-0.1c-0.2,0-0.3-0.1-0.4-0.2l-0.3-0.3 c-0.2,0.2-0.4,0.3-0.6,0.4s-0.5,0.1-0.7,0.1s-0.4,0-0.6-0.1s-0.4-0.2-0.5-0.3s-0.3-0.3-0.3-0.5c-0.1-0.2-0.1-0.4-0.1-0.6v-0.3 c0-0.1,0-0.2,0.1-0.3l1-2.7c0.2-0.4,0.4-0.7,0.7-0.9c0.3-0.2,0.6-0.3,1-0.3c0.3,0,0.5,0,0.7,0.1s0.4,0.1,0.5,0.2 c0.1-0.2,0.3-0.3,0.5-0.3h0.5c0.2,0.1,0.3,0.2,0.4,0.3c0.1,0.2,0.1,0.4,0,0.6l-1.2,3.3c0,0.1-0.1,0.2-0.1,0.3 c0,0.2,0.1,0.3,0.3,0.3s0.5-0.1,0.7-0.4S227.7,110.8,227.9,110.2"></path> <g> <path class="st7" d="M230.7,106c-0.2,0-0.4-0.1-0.6-0.2c-0.2-0.2-0.2-0.4-0.2-0.6s0.1-0.4,0.2-0.6c0.2-0.2,0.4-0.2,0.6-0.2 s0.4,0.1,0.6,0.2c0.2,0.2,0.2,0.4,0.2,0.6s-0.1,0.4-0.2,0.6C231.1,105.9,230.9,106,230.7,106 M229.3,111.2v0.2 c0,0.1,0,0.2,0.1,0.2c0.1,0.1,0.2,0.1,0.3,0.1s0.2,0,0.3-0.1s0.2-0.2,0.4-0.3c0.1-0.1,0.2-0.3,0.4-0.5c0.1-0.2,0.3-0.5,0.4-0.8 c0.1-0.2,0.2-0.3,0.4-0.4c0.2-0.1,0.3-0.1,0.5-0.1c0.2,0,0.3,0.1,0.4,0.2c0.1,0.1,0.1,0.3,0.1,0.5c-0.2,0.5-0.4,1-0.6,1.3 c-0.2,0.4-0.5,0.6-0.7,0.9c-0.2,0.2-0.5,0.4-0.8,0.5c-0.3,0.1-0.5,0.1-0.8,0.1c-0.2,0-0.5,0-0.7-0.1l-0.6-0.3 c-0.2-0.1-0.3-0.3-0.4-0.5c-0.1-0.2-0.1-0.4-0.1-0.6v-0.3c0-0.1,0.1-0.2,0.1-0.3c0.1-0.2,0.2-0.5,0.3-0.8l0.9-2.4 c0.1-0.3,0.2-0.5,0.4-0.6c0.2-0.1,0.4-0.1,0.6-0.1s0.3,0.2,0.4,0.3c0.1,0.2,0.1,0.4,0,0.7L229.3,111.2L229.3,111.2z"></path> </g> <path class="st7" d="M236.3,110c0.1-0.2,0.2-0.3,0.3-0.4c0.2-0.1,0.3-0.1,0.5,0c0.2,0,0.3,0.1,0.4,0.2s0.1,0.3,0.1,0.4 c-0.3,0.9-0.7,1.6-1.2,2s-1,0.7-1.6,0.7c-0.2,0-0.4,0-0.6-0.1s-0.4-0.2-0.5-0.3s-0.3-0.3-0.3-0.5c-0.1-0.2-0.1-0.4-0.1-0.6 s0-0.4,0.1-0.7l0.5-1.3v-0.3c0-0.1-0.1-0.1-0.2-0.2s-0.2-0.1-0.2-0.1c-0.1,0-0.2-0.1-0.3-0.1l-0.6,1.6c-0.1,0.2-0.2,0.3-0.3,0.4 c-0.2,0.1-0.3,0.1-0.5,0.1s-0.3-0.1-0.4-0.2s-0.1-0.3,0-0.5l0.8-2c-0.2-0.2-0.3-0.4-0.3-0.7v-0.2c0-0.1,0-0.2,0.1-0.2 c0.1-0.2,0.2-0.3,0.3-0.5c0.2-0.1,0.3-0.2,0.6-0.2c0.1,0,0.3,0,0.4,0.1l0.3,0.3c0.1,0.1,0.1,0.2,0.2,0.4v0.4c0.1,0,0.3,0.1,0.5,0.2 l0.6,0.3c0.2,0.1,0.4,0.3,0.5,0.4c0.1,0.2,0.2,0.4,0.2,0.6v0.3c0,0.1,0,0.2-0.1,0.3l-0.6,1.7v0.2c0,0.1,0,0.1,0.1,0.2 c0,0.1,0.1,0.1,0.2,0.1s0.2,0,0.3-0.1l0.4-0.4c0.1-0.2,0.2-0.3,0.3-0.6C236.1,110.5,236.2,110.3,236.3,110"></path> <path class="st7" d="M239.2,108.1c-0.1,0-0.2,0-0.3,0.1s-0.2,0.2-0.3,0.4l-0.2,0.6c0.1,0.1,0.2,0.1,0.3,0.1h0.4 c0.1,0,0.2-0.1,0.3-0.1c0.1-0.1,0.2-0.2,0.2-0.3v-0.2c0-0.1,0-0.3-0.1-0.4C239.5,108.2,239.3,108.1,239.2,108.1 M241.5,110.1 c0.1-0.2,0.2-0.3,0.3-0.4c0.2-0.1,0.3-0.1,0.5-0.1s0.3,0.1,0.4,0.2s0.1,0.3,0,0.5c-0.2,0.5-0.4,0.9-0.7,1.3 c-0.3,0.3-0.6,0.6-0.9,0.8s-0.7,0.4-1.1,0.5s-0.7,0.1-1.1,0.1s-0.7,0-1.1-0.1c-0.3-0.1-0.6-0.2-0.8-0.4l-0.6-0.6 c-0.1-0.2-0.2-0.5-0.2-0.8v-0.4c0-0.1,0.1-0.2,0.1-0.4l0.6-1.8c0.1-0.3,0.2-0.5,0.4-0.7s0.3-0.4,0.5-0.5l0.6-0.3 c0.2-0.1,0.5-0.1,0.7-0.1c0.3,0,0.6,0,0.8,0.1s0.4,0.2,0.6,0.4s0.3,0.3,0.4,0.6c0.1,0.2,0.1,0.4,0.1,0.7c0,0.2,0,0.4-0.1,0.6 l-0.3,0.6c-0.1,0.2-0.3,0.3-0.5,0.5l-0.6,0.3c-0.2,0.1-0.4,0.1-0.7,0.1c-0.2,0-0.4,0-0.6-0.1s-0.4-0.1-0.5-0.2l-0.1,0.2 c0,0.1-0.1,0.2-0.1,0.3c0,0.2,0.1,0.4,0.3,0.6s0.5,0.2,0.9,0.2c0.2,0,0.4,0,0.7-0.1c0.2-0.1,0.5-0.2,0.7-0.3s0.4-0.3,0.6-0.5 C241.2,110.6,241.4,110.4,241.5,110.1"></path> </g> </svg> 