<?xml version="1.0" encoding="UTF-8"?>
<svg id="wifi" xmlns="http://www.w3.org/2000/svg" viewBox="0 0 900 900">
  <rect x="133.17" y="167.49" width="633.66" height="565.03" rx="85.23" ry="85.23" fill="none" stroke="#000" stroke-linecap="round" stroke-linejoin="round" stroke-width="10"/>
  <circle cx="448.24" cy="613.78" r="28.5" fill="none" stroke="#000" stroke-linecap="round" stroke-linejoin="round" stroke-width="10"/>
  <path d="m358.37,558.72c-5.96,0-11.88-2.52-16.04-7.42-7.53-8.85-6.45-22.13,2.41-29.66,29.28-24.88,66.59-38.59,105.06-38.59s74.29,13.17,103.26,37.07c8.96,7.4,10.23,20.66,2.84,29.62-7.4,8.96-20.66,10.23-29.62,2.83-21.45-17.7-48.61-27.45-76.47-27.45s-56.13,10.15-77.81,28.57c-3.96,3.36-8.8,5.01-13.62,5.01Z" fill="none" stroke="#000" stroke-linecap="round" stroke-linejoin="round" stroke-width="10"/>
  <path d="m683.68,415.34c-5.25,0-10.51-1.95-14.6-5.89-59.32-57.15-137.36-88.62-219.76-88.62s-160.44,31.47-219.76,88.62c-8.37,8.06-21.69,7.81-29.75-.55-8.06-8.37-7.81-21.69.55-29.75,67.2-64.74,155.61-100.4,248.95-100.4s181.75,35.66,248.95,100.4c8.37,8.06,8.62,21.38.55,29.75-4.13,4.29-9.64,6.44-15.16,6.44Z" fill="none" stroke="#000" stroke-linecap="round" stroke-linejoin="round" stroke-width="10"/>
  <path d="m607.91,491.12c-5.67,0-11.32-2.28-15.47-6.77-36.77-39.84-88.93-62.68-143.11-62.68s-106.3,22.83-143.06,62.63c-7.89,8.54-21.2,9.06-29.73,1.18-8.54-7.89-9.06-21.2-1.18-29.73,21.95-23.76,47.99-42.48,77.41-55.63,30.46-13.62,62.95-20.53,96.57-20.53s66.14,6.91,96.61,20.55c29.43,13.16,55.48,31.9,77.42,55.67,7.88,8.54,7.35,21.85-1.19,29.73-4.05,3.73-9.16,5.58-14.27,5.58Z" fill="none" stroke="#000" stroke-linecap="round" stroke-linejoin="round" stroke-width="10"/>
  <rect x="70.45" y="102.07" width="759.1" height="695.87" rx="123.24" ry="123.24" fill="none" stroke="#000" stroke-linecap="round" stroke-linejoin="round" stroke-width="10"/>
</svg>