<?xml version="1.0" encoding="UTF-8"?>
<svg id="automatisation" xmlns="http://www.w3.org/2000/svg" viewBox="0 0 900 900">
  <path d="m750.32,393.73l-57.24-6.93c-5.96-22.65-15.04-44.04-26.77-63.66l35.83-45.71c3.14-4,2.21-10.37-2.15-14.73l-62.7-62.7c-4.36-4.36-10.73-5.28-14.73-2.15l-46.74,36.65c-19.3-10.99-40.22-19.45-62.31-24.95l-7.25-59.87c-.61-5.05-5.77-8.9-11.93-8.9h-88.67c-6.16,0-11.32,3.85-11.93,8.9l-7.48,61.73c-20.98,5.89-40.83,14.49-59.16,25.38l-49.66-38.93c-4-3.14-10.37-2.21-14.73,2.15l-62.7,62.7c-4.36,4.36-5.28,10.73-2.15,14.73l39.76,50.71c-10.18,17.99-18.17,37.37-23.62,57.8l-64.31,7.79c-5.05.61-8.9,5.77-8.9,11.93v88.67c0,6.16,3.85,11.32,8.9,11.93l64.31,7.79c5.45,20.43,13.44,39.81,23.62,57.8l-39.76,50.71c-3.14,4-2.21,10.37,2.15,14.73l62.7,62.7c4.36,4.36,10.73,5.28,14.73,2.15l49.66-38.93c18.33,10.89,38.18,19.48,59.16,25.38l7.48,61.73c.61,5.05,5.77,8.9,11.93,8.9h88.67c6.16,0,11.32-3.85,11.93-8.9l7.25-59.87c22.09-5.5,43.01-13.97,62.31-24.95l46.74,36.65c4,3.14,10.37,2.21,14.73-2.15l62.7-62.7c4.36-4.36,5.28-10.73,2.15-14.73l-35.83-45.71c11.72-19.63,20.81-41.01,26.77-63.66l57.24-6.93c5.05-.61,8.9-5.77,8.9-11.93v-88.67c0-6.16-3.85-11.32-8.9-11.93Zm-299.95,178.2c-67.55,0-122.31-54.76-122.31-122.31s54.76-122.31,122.31-122.31,122.31,54.76,122.31,122.31-54.76,122.31-122.31,122.31Z" fill="none" stroke="#000" stroke-linejoin="round" stroke-width="10"/>
  <circle cx="449.96" cy="449.96" r="166.53" fill="none" stroke="#000" stroke-linejoin="round" stroke-width="10"/>
  <path d="m408.16,394.56v10c.62,0,1.24.15,1.84.45l44.52,21.94,39.17,19.3c2.03,1,2.33,2.78,2.33,3.74s-.3,2.75-2.33,3.74l-39.17,19.3-44.52,21.94c-.6.3-1.22.45-1.84.45-2.01,0-4.18-1.6-4.18-4.19v-82.49c0-2.59,2.17-4.19,4.18-4.19v-10m0,0c-7.44,0-14.18,5.98-14.18,14.19v82.49c0,8.21,6.74,14.19,14.18,14.19,2.08,0,4.21-.47,6.26-1.48l44.52-21.94,39.17-19.3c10.54-5.2,10.54-20.23,0-25.43l-39.17-19.3-44.52-21.94c-2.06-1.01-4.19-1.48-6.26-1.48h0Z"/>
</svg>