<?xml version="1.0" encoding="UTF-8"?>
<svg id="elec2" xmlns="http://www.w3.org/2000/svg" viewBox="0 0 900 900">
  <path d="m555.57,302.18v-88.29c0-.71-.5-1.3-1.12-1.3h-208.9c-.61,0-1.12.58-1.12,1.3v88.29c-47.14,33.21-77.94,88.06-77.94,150.11,0,101.35,82.16,183.51,183.51,183.51s183.51-82.16,183.51-183.51c0-62.05-30.8-116.9-77.94-150.11Z" fill="none" stroke="#000" stroke-linejoin="round" stroke-width="10"/>
  <g>
    <path d="m796.15,439.86h-94.3c.03,1.48.06,2.96.06,4.44s-.03,2.96-.06,4.44h94.3c2.45,0,4.44-1.99,4.44-4.44s-1.99-4.44-4.44-4.44Z"/>
    <path d="m198.1,444.3c0-1.49.03-2.96.06-4.44h-94.3c-2.45,0-4.44,1.99-4.44,4.44s1.99,4.44,4.44,4.44h94.3c-.03-1.48-.06-2.96-.06-4.44Z"/>
    <path d="m631.23,269.36l66.68-66.68c1.74-1.73,1.74-4.55,0-6.28-1.73-1.74-4.55-1.74-6.28,0l-66.68,66.68c2.13,2.06,4.22,4.15,6.28,6.28Z"/>
    <path d="m268.77,269.36c2.06-2.13,4.15-4.22,6.28-6.28l-66.68-66.68c-1.73-1.74-4.55-1.74-6.28,0-1.74,1.73-1.74,4.55,0,6.28l66.68,66.68Z"/>
    <path d="m631.23,619.25c-2.06,2.13-4.15,4.22-6.28,6.28l66.68,66.68c.87.87,2,1.3,3.14,1.3s2.27-.43,3.14-1.3c1.74-1.73,1.74-4.55,0-6.28l-66.68-66.68Z"/>
    <path d="m268.77,619.25l-66.68,66.68c-1.74,1.73-1.74,4.55,0,6.28.87.87,2,1.3,3.14,1.3s2.27-.43,3.14-1.3l66.68-66.68c-2.13-2.06-4.22-4.15-6.28-6.28Z"/>
    <path d="m450,696.21c-1.49,0-2.96-.03-4.44-.06v94.3c0,2.45,1.99,4.44,4.44,4.44s4.44-1.99,4.44-4.44v-94.3c-1.48.03-2.96.06-4.44.06Z"/>
  </g>
  <line x1="344.43" y1="302.18" x2="529.64" y2="302.18" fill="none" stroke="#000" stroke-linecap="round" stroke-linejoin="round" stroke-width="10"/>
</svg>