<?xml version="1.0" encoding="UTF-8"?>
<svg id="surveillance_et_securité" data-name="surveillance et securité" xmlns="http://www.w3.org/2000/svg" viewBox="0 0 900 900">
  <path d="m614.63,417.27h-61.86v-83.36c0-56.67-46.1-102.77-102.77-102.77s-102.77,46.1-102.77,102.77v83.36h-61.86v-83.36c0-90.78,73.85-164.63,164.63-164.63s164.63,73.85,164.63,164.63v83.36Z" fill="none" stroke="#000" stroke-linejoin="round" stroke-width="10"/>
  <path d="m616.88,422.4c10.44,0,18.93,8.49,18.93,18.93v260.45c0,10.44-8.49,18.93-18.93,18.93h-333.77c-10.44,0-18.93-8.49-18.93-18.93v-260.45c0-10.44,8.49-18.93,18.93-18.93h333.77m0-10h-333.77c-15.91,0-28.93,13.02-28.93,28.93v260.45c0,15.91,13.02,28.93,28.93,28.93h333.77c15.91,0,28.93-13.02,28.93-28.93v-260.45c0-15.91-13.02-28.93-28.93-28.93h0Z"/>
  <path d="m450.02,495.4c.16,0,.31,0,.47,0,9.28.13,17.98,3.83,24.5,10.44,6.53,6.61,10.13,15.37,10.13,24.67,0,10.71-4.8,20.7-13.16,27.41-4.57,3.66-6.87,9.37-6.17,15.26,0,.04,0,.08.01.12l10.81,82.36h-53.22l10.81-82.36s0-.08.01-.12c.7-5.89-1.6-11.59-6.17-15.26-8.44-6.77-13.24-16.86-13.17-27.67.07-9.23,3.78-17.97,10.47-24.59,6.68-6.62,15.44-10.26,24.66-10.26m0-10c-24.54,0-44.95,20.17-45.13,44.78-.1,14.38,6.52,27.21,16.91,35.55,1.87,1.5,2.78,3.89,2.5,6.27l-11.47,87.38c-.4,3.34,2.21,6.28,5.57,6.28h63.22c3.36,0,5.97-2.94,5.58-6.28l-11.47-87.38c-.28-2.38.63-4.77,2.5-6.27,10.31-8.27,16.91-20.97,16.91-35.21,0-24.71-19.86-44.78-44.49-45.11-.2,0-.41,0-.61,0h0Z"/>
</svg>