<?xml version="1.0" encoding="UTF-8"?>
<svg id="temperature" xmlns="http://www.w3.org/2000/svg" viewBox="0 0 900 900">
  <path d="m436.96,559.84V149.03c0-42.64-34.88-77.52-77.52-77.52h0c-42.64,0-77.52,34.88-77.52,77.52v410.8c0,8.27-3.62,16.17-10.04,21.38-31.68,25.69-51.85,65.01-51.57,109.04.48,75.79,62.35,137.7,138.14,138.23,77.31.55,140.14-61.96,140.14-139.14,0-43.55-20.01-82.43-51.34-107.95-6.49-5.28-10.28-13.19-10.28-21.56Z" fill="none" stroke="#000" stroke-linejoin="round" stroke-width="10"/>
  <path d="m412.78,607.47c-8.86-5.81-14.33-15.57-14.33-26.16V153.94c0-21.46-17.56-39.01-39.01-39.01h0c-21.46,0-39.01,17.56-39.01,39.01v427.37c0,10.51-5.34,20.29-14.14,26.03-26.78,17.48-44.43,47.78-44.22,82.19.31,52.76,43.23,96.05,95.99,96.79,54.42.76,98.77-43.13,98.77-97.37,0-34.09-17.52-64.08-44.04-81.48Z" fill="none" stroke="#000" stroke-linejoin="round" stroke-width="10"/>
  <line x1="320.43" y1="267.34" x2="398.45" y2="267.34" fill="none" stroke="#000" stroke-linejoin="round" stroke-width="10"/>
  <path d="m714.83,573.75h-24.12c-1.92,0-3.48-1.56-3.48-3.48v-106.18c0-4.33-3.54-7.88-7.88-7.88h-45.64c-4.33,0-7.88,3.54-7.88,7.88v106.18c0,1.92-1.56,3.48-3.48,3.48h-24.12c-6.86,0-10.79,7.81-6.72,13.32l27.59,37.31,30.72,41.54c3.34,4.52,10.09,4.52,13.43,0l30.72-41.54,27.59-37.31c4.08-5.51.14-13.32-6.72-13.32Z" fill="none" stroke="#000" stroke-linejoin="round" stroke-width="10"/>
  <path d="m617.66,379.49h-24.12c-1.92,0-3.48,1.56-3.48,3.48v106.18c0,4.33-3.54,7.88-7.88,7.88h-45.64c-4.33,0-7.88-3.54-7.88-7.88v-106.18c0-1.92-1.56-3.48-3.48-3.48h-24.12c-6.86,0-10.79-7.81-6.72-13.32l27.59-37.31,30.72-41.54c3.34-4.52,10.09-4.52,13.43,0l30.72,41.54,27.59,37.31c4.08,5.51.14,13.32-6.72,13.32Z" fill="none" stroke="#000" stroke-linejoin="round" stroke-width="10"/>
  <circle cx="384.1" cy="646.93" r="22.38" fill="none" stroke="#000" stroke-linejoin="round" stroke-width="10"/>
</svg>