<svg xmlns="http://www.w3.org/2000/svg" viewBox="0 0 512 512"><defs><style>.cls-1{fill:#fff;stroke:#000;stroke-linecap:round;stroke-linejoin:round;stroke-width:6px;}</style></defs><g id="company"><rect class="cls-1" x="247.12" y="114.2" width="165.68" height="315.43"/><path class="cls-1" d="M228.21,429.63H113.43V249.54a15.74,15.74,0,0,1,15.73-15.74L214.68,205a13.54,13.54,0,0,1,13.53,13.54Z"/><rect class="cls-1" x="274.86" y="365.16" width="109.45" height="64.47"/><rect class="cls-1" x="138.16" y="265.43" width="64.54" height="37.97"/><rect class="cls-1" x="256.09" y="90.22" width="148.77" height="23.98" rx="4.49"/><line class="cls-1" x1="294.79" y1="390.81" x2="364.38" y2="390.81"/><rect class="cls-1" x="274.86" y="142.26" width="109.45" height="196.22"/><line class="cls-1" x1="274.86" y1="289.43" x2="384.32" y2="289.43"/><line class="cls-1" x1="274.86" y1="240.37" x2="384.32" y2="240.37"/><line class="cls-1" x1="274.86" y1="191.32" x2="384.32" y2="191.32"/><line class="cls-1" x1="329.59" y1="142.26" x2="329.59" y2="338.48"/></g></svg>