<svg xmlns="http://www.w3.org/2000/svg" viewBox="0 0 512 512"><defs><style>.cls-1{fill:#fff;stroke:#000;stroke-linecap:round;stroke-linejoin:round;stroke-width:6px;}</style></defs><g id="Calque_17" data-name="Calque 17"><path class="cls-1" d="M215.94,153.87V236a19,19,0,0,0,19,19h75.54a97.41,97.41,0,0,1,97.41,97.41V471.23a3.2,3.2,0,0,1-3.19,3.2H311.24c-1.77,0-2.34-1.44-2.34-3.2V362.51c0-10.86-9.66-19.67-20.52-19.67H216.07a97.41,97.41,0,0,1-97.41-97.41V153.87"/><rect class="cls-1" x="251.33" y="245.57" width="19.37" height="107.54" rx="8.63"/><rect class="cls-1" x="348.62" y="329.39" width="19.37" height="119.54" rx="8.63" transform="translate(747.46 30.85) rotate(90)"/><rect class="cls-1" x="157.42" y="177.59" width="19.37" height="116.97" rx="8.63" transform="translate(403.18 68.97) rotate(90)"/><path class="cls-1" d="M167.1,161.56A104.39,104.39,0,0,1,62.83,57.29a10.11,10.11,0,0,1,20.22,0,84.06,84.06,0,0,0,168.11,0,10.11,10.11,0,0,1,20.22,0A104.39,104.39,0,0,1,167.1,161.56Z"/><line class="cls-1" x1="87.04" y1="59.66" x2="247.04" y2="59.66"/></g></svg>